<?xml version="1.0" encoding="UTF-8" standalone="no"?>
<!DOCTYPE svg PUBLIC "-//W3C//DTD SVG 1.1//EN" "http://www.w3.org/Graphics/SVG/1.1/DTD/svg11.dtd">
<svg width="100%" height="100%" viewBox="0 0 97 136" version="1.1" xmlns="http://www.w3.org/2000/svg" xmlns:xlink="http://www.w3.org/1999/xlink" xml:space="preserve" xmlns:serif="http://www.serif.com/" style="fill-rule:evenodd;clip-rule:evenodd;stroke-linejoin:round;stroke-miterlimit:1.41421;">
    <g transform="matrix(1,0,0,1,-651.705,-188.204)">
        <g transform="matrix(0.836414,0,0,0.836414,139.048,58.151)">
            <g id="html" transform="matrix(0.449447,0,0,0.449447,670.452,236.613)">
                <g transform="matrix(1,0,0,1,-128,-180.5)">
                    <path d="M255.555,70.766L232.314,331.126L127.844,360.088L23.662,331.166L0.445,70.766L255.555,70.766Z" style="fill:rgb(228,77,38);fill-rule:nonzero;"/>
                    <path d="M128,337.95L212.417,314.547L232.277,92.057L128,92.057L128,337.95Z" style="fill:rgb(241,101,41);fill-rule:nonzero;"/>
                    <path d="M82.82,155.932L128,155.932L128,123.995L47.917,123.995L48.681,132.563L56.531,220.573L128,220.573L128,188.636L85.739,188.636L82.82,155.932L82.82,155.932ZM90.018,236.542L57.958,236.542L62.432,286.688L127.853,304.848L128,304.808L128,271.58L127.86,271.617L92.292,262.013L90.018,236.542L90.018,236.542Z" style="fill:rgb(235,235,235);fill-rule:nonzero;"/>
                    <path d="M24.18,0L40.41,0L40.41,16.035L55.257,16.035L55.257,0L71.488,0L71.488,48.558L55.258,48.558L55.258,32.298L40.411,32.298L40.411,48.558L24.181,48.558L24.181,0L24.18,0ZM92.83,16.103L78.544,16.103L78.544,0L123.358,0L123.358,16.103L109.063,16.103L109.063,48.558L92.833,48.558L92.833,16.103L92.832,16.103L92.83,16.103ZM130.47,0L147.393,0L157.803,17.062L168.203,0L185.133,0L185.133,48.558L168.969,48.558L168.969,24.49L157.803,41.755L157.523,41.755L146.35,24.49L146.35,48.558L130.47,48.558L130.47,0ZM193.21,0L209.445,0L209.445,32.508L232.269,32.508L232.269,48.558L193.209,48.558L193.209,0L193.21,0Z" style="fill-rule:nonzero;"/>
                    <path d="M127.89,220.573L167.217,220.573L163.509,261.993L127.889,271.607L127.889,304.833L193.362,286.688L193.842,281.292L201.348,197.212L202.127,188.636L127.89,188.636L127.89,220.573ZM127.89,155.854L127.89,155.932L205.033,155.932L205.673,148.754L207.129,132.563L207.892,123.995L127.89,123.995L127.89,155.855L127.89,155.854Z" style="fill:white;fill-rule:nonzero;"/>
                </g>
            </g>
        </g>
    </g>
</svg>
