<?xml version="1.0" encoding="UTF-8" standalone="no"?><!DOCTYPE svg PUBLIC "-//W3C//DTD SVG 1.1//EN" "http://www.w3.org/Graphics/SVG/1.1/DTD/svg11.dtd"><svg width="100%" height="100%" viewBox="0 0 76 97" version="1.1" xmlns="http://www.w3.org/2000/svg" xmlns:xlink="http://www.w3.org/1999/xlink" xml:space="preserve" xmlns:serif="http://www.serif.com/" style="fill-rule:evenodd;clip-rule:evenodd;stroke-linejoin:round;stroke-miterlimit:1.41421;"><g id="QA"><g><path d="M67.549,7.505l-60.044,0c-4.138,0 -7.505,3.368 -7.505,7.506l0,73.553c0,4.138 3.367,7.505 7.505,7.505l60.044,0c4.138,0 7.505,-3.367 7.505,-7.505l0,-73.553c0,-4.138 -3.367,-7.506 -7.505,-7.506Z" style="fill:#598d99;fill-rule:nonzero;"/><path d="M67.474,13.51c0.87,0 1.576,0.699 1.576,1.562l0,73.431c0,0.863 -0.706,1.562 -1.576,1.562l-59.894,0c-0.87,0 -1.576,-0.699 -1.576,-1.562l0,-73.431c0,-0.863 0.706,-1.562 1.576,-1.562l59.894,0Z" style="fill:#fff;fill-rule:nonzero;"/><path d="M27.019,40.529l-9.006,0c-1.655,0 -3.002,-1.347 -3.002,-3.002l0,-9.006c0,-1.655 1.347,-3.003 3.002,-3.003l9.006,0c1.655,0 3.003,1.348 3.003,3.003l0,9.006c0,1.655 -1.348,3.002 -3.003,3.002Zm-9.006,-12.008l0,9.006l9.009,0l-0.003,-9.006l-9.006,0Z" style="fill:#b4b6bc;fill-rule:nonzero;"/><path d="M39.028,30.022l-4.503,0c-0.83,0 -1.501,-0.672 -1.501,-1.501c0,-0.83 0.671,-1.502 1.501,-1.502l4.503,0c0.83,0 1.501,0.672 1.501,1.502c0,0.829 -0.671,1.501 -1.501,1.501Z" style="fill:#5c546a;fill-rule:nonzero;"/><path d="M57.041,36.026l-22.516,0c-0.83,0 -1.501,-0.671 -1.501,-1.501c0,-0.83 0.671,-1.501 1.501,-1.501l22.516,0c0.83,0 1.501,0.671 1.501,1.501c0,0.83 -0.671,1.501 -1.501,1.501Z" style="fill:#868491;fill-rule:nonzero;"/><path d="M49.536,51.037l-15.011,0c-0.83,0 -1.501,-0.672 -1.501,-1.501c0,-0.83 0.671,-1.501 1.501,-1.501l15.011,0c0.829,0 1.501,0.671 1.501,1.501c0,0.829 -0.672,1.501 -1.501,1.501Z" style="fill:#5c546a;fill-rule:nonzero;"/><path d="M57.041,57.041l-22.516,0c-0.83,0 -1.501,-0.671 -1.501,-1.501c0,-0.83 0.671,-1.501 1.501,-1.501l22.516,0c0.83,0 1.501,0.671 1.501,1.501c0,0.83 -0.671,1.501 -1.501,1.501Z" style="fill:#868491;fill-rule:nonzero;"/><path d="M40.529,70.551l-6.004,0c-0.83,0 -1.501,-0.671 -1.501,-1.501c0,-0.83 0.671,-1.501 1.501,-1.501l6.004,0c0.83,0 1.501,0.671 1.501,1.501c0,0.83 -0.671,1.501 -1.501,1.501Z" style="fill:#5c546a;fill-rule:nonzero;"/><path d="M57.041,76.555l-22.516,0c-0.83,0 -1.501,-0.671 -1.501,-1.501c0,-0.83 0.671,-1.501 1.501,-1.501l22.516,0c0.83,0 1.501,0.671 1.501,1.501c0,0.83 -0.671,1.501 -1.501,1.501Z" style="fill:#868491;fill-rule:nonzero;"/><path d="M43.531,7.505c-0.829,0 -1.501,-0.671 -1.501,-1.501l0,-1.501c0,-0.828 -0.673,-1.501 -1.501,-1.501l-6.004,0c-0.828,0 -1.501,0.673 -1.501,1.501l0,1.501c0,0.83 -0.672,1.501 -1.501,1.501c-0.83,0 -1.501,-0.671 -1.501,-1.501l0,-1.501c0,-2.483 2.02,-4.503 4.503,-4.503l6.004,0c2.483,0 4.503,2.02 4.503,4.503l0,1.501c0,0.83 -0.671,1.501 -1.501,1.501Z" style="fill:#868491;fill-rule:nonzero;"/><path d="M54.039,4.503l-33.024,0c-0.829,0 -1.501,0.672 -1.501,1.501l0,4.504c0,4.145 3.36,7.505 7.505,7.505l21.016,0c4.145,0 7.505,-3.36 7.505,-7.505l0,-4.504c0,-0.829 -0.672,-1.501 -1.501,-1.501Z" style="fill:#b4b6bc;fill-rule:nonzero;"/><path d="M27.019,60.043l-9.006,0c-1.655,0 -3.002,-1.347 -3.002,-3.002l0,-9.006c0,-1.655 1.347,-3.003 3.002,-3.003l9.006,0c1.655,0 3.003,1.348 3.003,3.003l0,9.006c0,1.655 -1.348,3.002 -3.003,3.002Zm-9.006,-12.008l0,9.006l9.009,0l-0.003,-9.006l-9.006,0Z" style="fill:#b4b6bc;fill-rule:nonzero;"/><path d="M27.019,79.557l-9.006,0c-1.655,0 -3.002,-1.347 -3.002,-3.002l0,-9.006c0,-1.655 1.347,-3.002 3.002,-3.002l9.006,0c1.655,0 3.003,1.347 3.003,3.002l0,9.006c0,1.655 -1.348,3.002 -3.003,3.002Zm-9.006,-12.008l0,9.006l9.009,0l-0.003,-9.006l-9.006,0Z" style="fill:#b4b6bc;fill-rule:nonzero;"/><path d="M24.017,55.54c-0.384,0 -0.768,-0.146 -1.061,-0.44l-3.002,-3.002c-0.586,-0.586 -0.586,-1.536 0,-2.123c0.586,-0.586 1.536,-0.586 2.123,0l1.94,1.941l6.444,-6.444c0.587,-0.586 1.537,-0.586 2.123,0c0.587,0.586 0.587,1.536 0,2.123l-7.505,7.505c-0.293,0.294 -0.678,0.44 -1.062,0.44Z" style="fill:#ff4f19;fill-rule:nonzero;"/></g></g></svg>