<?xml version="1.0" encoding="UTF-8" standalone="no"?><!DOCTYPE svg PUBLIC "-//W3C//DTD SVG 1.1//EN" "http://www.w3.org/Graphics/SVG/1.1/DTD/svg11.dtd"><svg width="100%" height="100%" viewBox="0 0 97 97" version="1.1" xmlns="http://www.w3.org/2000/svg" xmlns:xlink="http://www.w3.org/1999/xlink" xml:space="preserve" xmlns:serif="http://www.serif.com/" style="fill-rule:evenodd;clip-rule:evenodd;stroke-linejoin:round;stroke-miterlimit:1.41421;"><g><rect x="45.409" y="36.893" width="5.653" height="39.568" style="fill:#b6c4cf;fill-rule:nonzero;"/><rect x="48.235" y="36.893" width="2.826" height="39.568" style="fill:#9facba;fill-rule:nonzero;"/><path d="M64.233,28.414l4.213,0c1.325,0 2.4,-1.075 2.4,-2.4c0,-1.917 0,-4.589 0,-6.505c0,-1.326 -1.075,-2.4 -2.4,-2.4c-1.892,0 -4.213,0 -4.213,0c-0.566,-1.188 -0.961,-2.317 -2.092,-3.9l-1.017,-1.47c0,0 1.215,-2.149 2.178,-3.852c0.643,-1.136 0.259,-2.578 -0.864,-3.245c-1.663,-0.987 -4.012,-2.383 -5.701,-3.386c-0.556,-0.33 -1.222,-0.422 -1.846,-0.254c-0.625,0.167 -1.156,0.579 -1.472,1.143c-0.935,1.667 -2.075,3.697 -2.075,3.697c-1.469,-0.114 -2.148,-0.226 -3.109,-0.226c-0.961,0 -1.639,0.112 -3.108,0.226c0,0 -1.14,-2.03 -2.075,-3.697c-0.316,-0.564 -0.847,-0.976 -1.472,-1.143c-0.624,-0.168 -1.29,-0.076 -1.846,0.254c-1.689,1.003 -4.039,2.399 -5.701,3.386c-1.123,0.667 -1.507,2.109 -0.864,3.245c0.963,1.703 2.178,3.852 2.178,3.852l-1.017,1.47c-1.074,1.526 -1.526,2.657 -2.092,3.9l-4.213,0c-1.325,0 -2.4,1.074 -2.4,2.4c0,1.916 0,4.588 0,6.505c0,1.325 1.075,2.4 2.4,2.4c1.892,0 4.213,0 4.213,0l0.735,1.583c0.848,1.752 1.64,2.656 2.374,3.787c0,0 -1.163,1.991 -2.116,3.622c-0.322,0.552 -0.411,1.21 -0.247,1.828c0.165,0.618 0.569,1.145 1.124,1.463c1.672,0.961 4.001,2.3 5.667,3.258c1.146,0.658 2.609,0.266 3.272,-0.877c0.936,-1.614 2.08,-3.585 2.08,-3.585c1.469,0.113 2.147,0.226 3.108,0.226c0.962,0 1.64,-0.113 3.109,-0.226c0,0 1.144,1.971 2.08,3.585c0.663,1.143 2.126,1.535 3.272,0.877c1.666,-0.958 3.995,-2.297 5.667,-3.258c0.555,-0.318 0.959,-0.845 1.123,-1.463c0.165,-0.618 0.076,-1.276 -0.246,-1.828c-0.953,-1.631 -2.116,-3.622 -2.116,-3.622c0.734,-1.074 1.526,-2.035 2.373,-3.787l0.736,-1.583Zm-15.998,2.826c-4.692,0 -8.478,-3.787 -8.478,-8.479c0,-4.691 3.786,-8.479 8.478,-8.479c4.693,0 8.479,3.788 8.479,8.479c0,4.692 -3.786,8.479 -8.479,8.479Z" style="fill:#e63950;fill-rule:nonzero;"/><path d="M63.497,29.997c-0.847,1.752 -1.639,2.713 -2.373,3.787c0,0 1.163,1.991 2.116,3.622c0.322,0.552 0.411,1.21 0.246,1.828c-0.164,0.618 -0.568,1.145 -1.123,1.463c-1.672,0.961 -4.002,2.3 -5.668,3.258c-1.146,0.658 -2.609,0.266 -3.272,-0.877c-0.936,-1.614 -2.079,-3.585 -2.079,-3.585c-1.469,0.113 -2.148,0.226 -3.109,0.226l0,-8.479c4.692,0 8.479,-3.787 8.479,-8.479c0,-4.692 -3.787,-8.479 -8.479,-8.479l0,-8.667c0.961,0 1.64,0.113 3.109,0.226c0,0 1.14,-2.03 2.075,-3.696c0.316,-0.564 0.847,-0.977 1.472,-1.144c0.624,-0.167 1.29,-0.075 1.846,0.255c1.689,1.002 4.039,2.398 5.702,3.385c1.122,0.667 1.506,2.109 0.863,3.245c-0.963,1.704 -2.178,3.853 -2.178,3.853l1.017,1.47c1.131,1.582 1.526,2.712 2.092,3.9l4.213,0c1.325,0 2.4,1.074 2.4,2.4c0,1.916 0,4.588 0,6.505c0,1.325 -1.075,2.4 -2.4,2.4c-1.892,0 -4.213,0 -4.213,0l-0.736,1.583Z" style="fill:#cc2e43;fill-rule:nonzero;"/><path d="M80.177,59.503c1.273,0 2.494,0.506 3.394,1.406c0.901,0.9 1.406,2.121 1.406,3.394l0,12.158l-5.652,0l0,-6.505c0,-2.651 -2.149,-4.8 -4.8,-4.8c-11.588,0 -40.991,0 -52.579,0c-2.651,0 -4.8,2.149 -4.8,4.8c0,3.08 0,6.505 0,6.505l-5.652,0l0,-12.158c0,-1.273 0.505,-2.494 1.405,-3.394c0.901,-0.9 2.122,-1.406 3.395,-1.406l63.883,0Z" style="fill:#b6c4cf;fill-rule:nonzero;"/><path d="M80.177,59.503c1.273,0 2.494,0.506 3.394,1.406c0.901,0.9 1.406,2.121 1.406,3.394l0,12.158l-5.652,0l0,-6.505c0,-2.651 -2.149,-4.8 -4.8,-4.8c-8.725,0 -26.29,0 -26.29,0l0,-5.653l31.942,0Z" style="fill:#9facba;fill-rule:nonzero;"/><path d="M28.451,91.633c0,1.273 -0.505,2.494 -1.405,3.395c-0.901,0.9 -2.122,1.405 -3.395,1.405c-5.247,0 -13.604,0 -18.851,0c-1.273,0 -2.494,-0.505 -3.394,-1.405c-0.9,-0.901 -1.406,-2.122 -1.406,-3.395c0,-3.88 0,-9.318 0,-13.198c0,-1.273 0.506,-2.494 1.406,-3.394c0.9,-0.901 2.121,-1.406 3.394,-1.406c5.247,0 13.604,0 18.851,0c1.273,0 2.494,0.505 3.395,1.406c0.9,0.9 1.405,2.121 1.405,3.394c0,3.88 0,9.318 0,13.198Z" style="fill:#fdbf00;fill-rule:nonzero;"/><path d="M38.904,73.635c-2.651,0 -4.8,2.149 -4.8,4.8l0,13.198c0,2.651 2.149,4.8 4.8,4.8l18.663,0c2.651,0 4.8,-2.149 4.8,-4.8l0,-13.198c0,-2.651 -2.149,-4.8 -4.8,-4.8l-18.663,0Z" style="fill:#fdbf00;fill-rule:nonzero;"/><path d="M96.471,91.633c0,1.273 -0.506,2.494 -1.406,3.395c-0.9,0.9 -2.121,1.405 -3.394,1.405c-5.247,0 -13.604,0 -18.851,0c-1.273,0 -2.494,-0.505 -3.395,-1.405c-0.9,-0.901 -1.405,-2.122 -1.405,-3.395c0,-3.88 0,-9.318 0,-13.198c0,-1.273 0.505,-2.494 1.405,-3.394c0.901,-0.901 2.122,-1.406 3.395,-1.406c5.247,0 13.604,0 18.851,0c1.273,0 2.494,0.505 3.394,1.406c0.9,0.9 1.406,2.121 1.406,3.394c0,3.88 0,9.318 0,13.198Z" style="fill:#ff9f00;fill-rule:nonzero;"/><path d="M48.235,73.635l9.332,0c2.651,0 4.8,2.149 4.8,4.8l0,13.198c0,2.651 -2.149,4.8 -4.8,4.8l-9.332,0l0,-22.798Z" style="fill:#ff9f00;fill-rule:nonzero;"/></g></svg>