<?xml version="1.0" encoding="UTF-8" standalone="no"?><!DOCTYPE svg PUBLIC "-//W3C//DTD SVG 1.1//EN" "http://www.w3.org/Graphics/SVG/1.1/DTD/svg11.dtd"><svg width="100%" height="100%" viewBox="0 0 170 60" version="1.1" xmlns="http://www.w3.org/2000/svg" xmlns:xlink="http://www.w3.org/1999/xlink" xml:space="preserve" xmlns:serif="http://www.serif.com/" style="fill-rule:evenodd;clip-rule:evenodd;stroke-linejoin:round;stroke-miterlimit:1.41421;"><g><path d="M153.307,0l0.175,0c1.814,0 3.446,0.219 4.907,0.615c5.362,1.367 8.24,4.811 9.802,8.262c0.372,0.75 0.686,1.504 0.947,2.246c0.105,0.315 0.159,0.579 0.159,0.896c0,1.106 -0.949,1.898 -1.845,2.107c-0.37,0.107 -0.74,0.159 -1.056,0.159c-0.999,0 -1.95,-0.474 -2.37,-1.634c-0.092,-0.28 -0.191,-0.561 -0.297,-0.837c-0.065,-0.1 -0.125,-0.207 -0.179,-0.323c-0.441,-1.06 -0.967,-2.069 -1.623,-2.974c-1.734,-2.273 -4.378,-3.907 -8.372,-3.966l-0.091,-0.002l-0.002,0l-0.139,0c-0.088,0 -0.176,0 -0.263,0.002c-7.759,0.145 -12.864,6.735 -12.864,16.798c0,10.063 5.105,16.655 12.864,16.8c0.087,0.002 0.175,0.002 0.263,0.002l0.141,0l0.091,-0.002c3.994,-0.061 6.638,-1.693 8.372,-3.968c0.656,-0.903 1.182,-1.912 1.623,-2.972c0.054,-0.116 0.114,-0.223 0.179,-0.323c0.106,-0.276 0.205,-0.557 0.297,-0.837c0.42,-1.161 1.371,-1.634 2.37,-1.634c0.316,0 0.686,0.052 1.056,0.159c0.896,0.209 1.845,0.999 1.845,2.107c0,0.317 -0.054,0.581 -0.159,0.896c-0.261,0.74 -0.575,1.496 -0.947,2.246c-1.562,3.451 -4.44,6.895 -9.802,8.262c-1.461,0.396 -3.093,0.615 -4.907,0.615l-0.368,0c-4.889,0 -9.034,-1.685 -12.127,-4.688c-2.745,-2.639 -4.65,-6.308 -5.521,-10.805c-0.358,-1.813 -0.542,-3.753 -0.542,-5.804l0,-0.054l0,-0.052c0,-2.051 0.184,-3.991 0.542,-5.804c0.871,-4.497 2.776,-8.166 5.521,-10.805c3.093,-3.003 7.238,-4.688 12.127,-4.688l0.193,0Z"/><path d="M18.507,42.7c8.118,0 12.81,-4.385 12.81,-11.839c0,-5.92 -2.74,-9.539 -8.118,-10.689c4.535,-1.534 6.696,-4.604 6.696,-9.811c0,-6.578 -4.376,-10.361 -11.969,-10.361l-12.441,0c-3.742,0 -5.322,1.699 -5.322,5.919l0,30.917c0,4.165 1.58,5.864 5.322,5.864l13.022,0Zm-12.023,-24.665c-0.784,0 -1.418,-0.635 -1.418,-1.421l0,-10.31c0,-1.097 0.525,-1.753 1.526,-1.753l10.966,0c4.799,0 7.275,2.19 7.275,6.466c0,4.388 -2.635,7.018 -7.17,7.018l-11.179,0Zm-1.418,5.914c0,-0.784 0.634,-1.419 1.418,-1.419l11.338,0c5.377,0 8.276,2.686 8.276,7.838c0,5.042 -2.845,7.783 -8.172,7.783l-11.175,0c-1.16,0 -1.685,-0.602 -1.685,-1.808l0,-12.394Z" style="fill-rule:nonzero;"/><path id="new.2e..-A" d="M70.005,21.351l-2.724,6.501c0,0 4.163,10.15 5.591,13.636c0.289,0.703 0.971,1.16 1.729,1.16c0.398,0 0.739,-0.053 1.135,-0.161c1.134,-0.271 1.986,-1.186 1.986,-2.211c0,-0.324 -0.058,-0.593 -0.172,-0.917l-7.545,-18.008Zm-26.632,20.137c-0.289,0.703 -0.971,1.16 -1.729,1.16c-0.398,0 -0.738,-0.053 -1.134,-0.161c-1.137,-0.271 -1.986,-1.186 -1.986,-2.211c0,-0.324 0.057,-0.593 0.171,-0.917l7.545,-18.008l2.722,6.501c0,0 -4.16,10.15 -5.589,13.636Zm14.749,-41.488l0.002,0c0.201,0 0.489,0.01 0.68,0.03c1.481,0.147 2.665,0.883 3.317,2.503l5.16,12.317l-2.665,6.501l-6.496,-15.469l-6.491,15.469l-2.667,-6.501l5.162,-12.317c0.651,-1.62 1.837,-2.356 3.317,-2.503c0.191,-0.02 0.48,-0.03 0.679,-0.03l0.002,0Z" style="fill:#f00;"/><path d="M98.845,17.817c-5.906,-1.158 -7.751,-3.11 -7.751,-6.907c0,-3.478 2.794,-6.361 8.911,-6.361c5.852,0 8.065,2.778 8.908,5.784c0.422,1.105 1.371,1.526 2.32,1.526c0.317,0 0.633,-0.051 0.896,-0.103c1.056,-0.211 1.952,-1.001 1.952,-2.109c0,-0.263 -0.054,-0.528 -0.159,-0.79c-1.158,-3.797 -4.428,-8.857 -13.917,-8.857c-9.91,0 -14.023,5.377 -14.023,10.91c0,6.907 3.584,9.914 11.492,11.547l4.218,0.896c6.22,1.265 8.592,3.164 8.592,7.488c0,4.532 -3.743,7.31 -9.752,7.31c-7.697,0 -9.438,-3.832 -10.385,-7.364c-0.318,-1.109 -1.319,-1.582 -2.32,-1.582c-0.316,0 -0.579,0.054 -0.895,0.105c-1.109,0.263 -2.004,1.055 -2.004,2.215c0,0.211 0.051,0.422 0.105,0.687c1.266,4.268 3.743,10.488 15.762,10.488c9.436,0 14.657,-5.112 14.657,-11.913c0,-7.643 -4.481,-10.437 -12.705,-12.178l-3.902,-0.792Z" style="fill-rule:nonzero;"/><path d="M122.658,40.487c0,1.457 1.053,2.213 2.475,2.213c1.477,0 2.585,-0.756 2.585,-2.213l0,-38.274c0,-1.513 -1.108,-2.213 -2.585,-2.213c-1.422,0 -2.475,0.7 -2.475,2.213l0,38.274Z" style="fill-rule:nonzero;"/><path d="M31.049,50.4c1.033,0.006 2.086,0.327 2.796,1.082c0.331,0.351 0.616,0.773 0.745,1.226c0.122,0.426 -0.116,0.914 -0.562,1.071c-0.254,0.089 -0.379,0.076 -0.508,0.062c-0.297,-0.033 -0.569,-0.223 -0.7,-0.494c-0.205,-0.422 -0.447,-0.841 -0.879,-1.04c-0.722,-0.334 -1.641,-0.185 -2.217,0.293c-0.682,0.564 -0.925,1.532 -0.958,2.366c-0.045,1.12 0.187,2.339 1.166,2.961c0.749,0.475 1.848,0.459 2.475,-0.197c0.233,-0.243 0.386,-0.553 0.49,-0.872c0.163,-0.448 0.67,-0.69 1.178,-0.56c0.446,0.113 0.787,0.581 0.646,1.078c-0.332,1.164 -1.329,2.178 -2.557,2.49c-1.415,0.36 -3.024,-0.008 -4.036,-1.073c-1.008,-1.062 -1.339,-2.665 -1.229,-4.135c0.089,-1.183 0.505,-2.387 1.4,-3.226c0.719,-0.674 1.703,-1.028 2.712,-1.032c0.013,0 0.025,0 0.038,0Zm88.869,0c0.942,0.006 1.897,0.265 2.591,0.882c0.403,0.358 0.707,0.819 0.913,1.32c0,0 0.142,0.374 0.009,0.689c-0.1,0.235 -0.31,0.409 -0.555,0.496c0,0 -0.24,0.066 -0.417,0.059c-0.321,-0.013 -0.625,-0.205 -0.767,-0.492c-0.021,-0.042 -0.128,-0.307 -0.27,-0.515c-0.201,-0.294 -0.5,-0.519 -0.845,-0.618c-0.83,-0.237 -1.783,0.032 -2.311,0.718c-0.547,0.709 -0.669,1.653 -0.631,2.506c0.043,0.951 0.326,1.949 1.165,2.482c0.753,0.478 1.861,0.439 2.469,-0.19c0.237,-0.245 0.391,-0.556 0.496,-0.878c0.023,-0.064 0.03,-0.076 0.047,-0.111c0.193,-0.389 0.666,-0.569 1.132,-0.45c0.455,0.116 0.801,0.586 0.634,1.114c0,0 -0.081,0.229 -0.159,0.4c-0.451,0.986 -1.313,1.781 -2.387,2.054c-1.426,0.363 -3.049,-0.028 -4.044,-1.083c-0.986,-1.044 -1.321,-2.598 -1.225,-4.062c0.08,-1.213 0.503,-2.445 1.404,-3.289c0.719,-0.674 1.704,-1.028 2.712,-1.032c0.013,0 0.026,0 0.039,0Zm-116.399,0c0.958,0.006 1.942,0.28 2.58,0.966c0.294,0.317 0.506,0.706 0.637,1.119c0,0 0.128,0.379 -0.044,0.688c-0.272,0.488 -1.049,0.623 -1.482,0.258c-0.125,-0.106 -0.221,-0.25 -0.266,-0.408c-0.002,-0.004 -0.003,-0.008 -0.004,-0.012c-0.084,-0.28 -0.243,-0.537 -0.496,-0.694c-0.431,-0.268 -0.977,-0.267 -1.453,-0.177c-0.33,0.063 -0.662,0.214 -0.826,0.492c-0.104,0.177 -0.123,0.393 -0.098,0.601c0.017,0.136 0.058,0.271 0.148,0.378c0.256,0.304 0.704,0.384 1.119,0.468c1.161,0.236 2.392,0.417 3.14,1.259c0.674,0.757 0.764,1.942 0.409,2.84c-0.256,0.648 -0.787,1.169 -1.435,1.464c-0.806,0.367 -1.736,0.411 -2.585,0.304c-0.765,-0.096 -1.537,-0.377 -2.076,-0.954c-0.368,-0.394 -0.595,-0.899 -0.752,-1.423c-0.138,-0.46 0.143,-0.984 0.662,-1.118c0,0 0.343,-0.082 0.635,0.027c0.262,0.098 0.452,0.331 0.529,0.608c0.01,0.037 0.021,0.073 0.032,0.11c0.095,0.306 0.243,0.609 0.515,0.8c0.311,0.218 0.703,0.278 1.094,0.287c0.497,0.013 1.021,-0.063 1.38,-0.374c0.255,-0.221 0.362,-0.574 0.324,-0.933c-0.017,-0.154 -0.061,-0.308 -0.16,-0.43c-0.193,-0.239 -0.504,-0.344 -0.809,-0.432c-0.762,-0.221 -1.569,-0.285 -2.335,-0.58c-0.639,-0.245 -1.232,-0.689 -1.497,-1.34c-0.497,-1.223 -0.081,-2.721 1.164,-3.377c0.598,-0.315 1.287,-0.418 1.95,-0.417Zm132.037,0.098c0.321,0.003 0.646,0.095 0.88,0.304c0.129,0.115 0.23,0.258 0.323,0.404c0.917,1.488 1.838,2.974 2.752,4.465c0.176,0.288 0.344,0.582 0.508,0.878l0.005,0.008c-0.077,-1.725 -0.046,-3.472 -0.046,-5.218c0.002,-0.353 0.237,-0.684 0.57,-0.79c0.43,-0.138 0.989,-0.024 1.188,0.436c0.047,0.108 0.068,0.225 0.07,0.344c0.014,2.495 0.01,4.991 0,7.487c-0.005,0.396 -0.202,0.798 -0.55,0.963c-0.44,0.209 -1.014,0.118 -1.36,-0.195c-0.158,-0.144 -0.278,-0.326 -0.391,-0.505c-0.96,-1.553 -1.919,-3.107 -2.878,-4.66c-0.128,-0.207 -0.251,-0.418 -0.371,-0.631l-0.006,-0.012c0.001,0.043 0.003,0.086 0.005,0.129c0.061,1.724 0.033,3.428 0.033,5.137c-0.002,0.318 -0.178,0.625 -0.491,0.761c-0.554,0.238 -1.324,-0.074 -1.336,-0.75c-0.015,-2.502 0,-5.005 0,-7.507c0.003,-0.541 0.44,-1.034 1.054,-1.048c0.013,0 0.027,0 0.041,0Zm-92.103,6.845c-0.246,0.658 -0.492,1.317 -0.738,1.976c-0.158,0.421 -0.62,0.656 -1.119,0.519c-0.452,-0.124 -0.784,-0.582 -0.637,-1.089c0.006,-0.021 0.013,-0.041 0.02,-0.061c0.988,-2.483 1.976,-4.966 2.964,-7.448c0.177,-0.434 0.603,-0.734 1.092,-0.742c0.011,0 0.022,0 0.032,0c0.488,0.004 0.945,0.284 1.131,0.762c0,0 2.947,7.423 2.947,7.423c0,0 0.074,0.181 0.077,0.328c0.007,0.38 -0.281,0.727 -0.668,0.833c-0.139,0.037 -0.369,0.074 -0.57,0.017c-0.257,-0.074 -0.468,-0.274 -0.564,-0.526l-0.76,-1.992l-3.207,0Zm105.15,-5.028l0,6.727c0,0.06 -0.002,0.071 -0.006,0.104c-0.071,0.63 -1.014,1.029 -1.582,0.495c-0.161,-0.152 -0.248,-0.373 -0.25,-0.599l0,-6.727l-2.068,0c-0.066,0 -0.083,-0.003 -0.123,-0.008c-0.471,-0.069 -0.798,-0.605 -0.665,-1.116c0.09,-0.345 0.397,-0.622 0.766,-0.63c2.002,-0.013 4.004,-0.013 6.006,0c0.274,0.006 0.533,0.153 0.676,0.402c0.298,0.517 0.014,1.348 -0.686,1.352l-2.068,0Zm-87.845,-1.817c0.454,0.005 0.912,0.306 0.922,0.83c0.015,2.571 0,5.143 0,7.714c-0.003,0.461 -0.42,0.838 -0.922,0.842c-0.339,0.002 -0.703,-0.161 -0.849,-0.496c-0.045,-0.106 -0.067,-0.22 -0.069,-0.335c-0.015,-2.572 0,-5.143 0,-7.714c0.003,-0.448 0.375,-0.835 0.898,-0.841c0.01,0 0.01,0 0.02,0Zm-49.568,5.857l0,2.677c0,0.06 -0.002,0.07 -0.005,0.103c-0.044,0.411 -0.426,0.734 -0.863,0.748c-0.335,0.011 -0.699,-0.135 -0.858,-0.454c-0.061,-0.123 -0.088,-0.262 -0.09,-0.398c-0.01,-2.299 0,-4.598 0,-6.897c0.002,-0.508 0.13,-1.069 0.603,-1.359c0.26,-0.16 0.575,-0.21 0.882,-0.214c0.818,-0.002 1.635,-0.001 2.453,0c1.123,0.007 2.341,0.416 2.833,1.598c0.19,0.455 0.246,0.96 0.22,1.451c-0.058,1.061 -0.623,2.084 -1.712,2.506c-0.446,0.173 -0.928,0.238 -1.406,0.239l-2.057,0Zm152.792,-0.336l0,3.013c0,0.059 -0.001,0.069 -0.005,0.101c-0.044,0.435 -0.46,0.765 -0.933,0.75c-0.318,-0.01 -0.648,-0.167 -0.794,-0.469c-0.057,-0.119 -0.083,-0.251 -0.085,-0.383c-0.009,-2.299 0,-4.598 0,-6.897c0.001,-0.516 0.133,-1.071 0.602,-1.359c0.26,-0.16 0.575,-0.21 0.882,-0.214c0.861,-0.002 1.721,-0.002 2.582,0c0.827,0.005 1.681,0.232 2.239,0.872c0.891,1.02 0.756,2.834 -0.258,3.663c-0.128,0.105 -0.268,0.195 -0.414,0.272c0,0 0.162,0.195 0.281,0.39c0.437,0.714 0.721,1.513 1.031,2.296l0.275,0.652c0.147,0.445 -0.068,0.968 -0.543,1.118c-0.433,0.136 -0.96,0.014 -1.164,-0.419c-0.009,-0.017 -0.016,-0.035 -0.024,-0.054l-0.273,-0.7c-0.036,-0.097 -0.072,-0.195 -0.108,-0.292c-0.25,-0.673 -0.456,-1.389 -0.882,-1.95c-0.103,-0.136 -0.231,-0.258 -0.391,-0.322c-0.133,-0.053 -0.278,-0.068 -0.419,-0.068l-1.599,0Zm-65.733,-5.521c0.453,0.005 0.91,0.308 0.919,0.83c0.02,2.571 0,5.143 0,7.715c-0.004,0.519 -0.537,0.923 -1.121,0.825c-0.371,-0.062 -0.693,-0.367 -0.717,-0.77c-0.001,-0.015 -0.001,-0.03 -0.001,-0.045c-0.015,-2.572 0,-5.143 0,-7.714c0.002,-0.446 0.382,-0.835 0.9,-0.841c0.01,0 0.01,0 0.02,0Zm-60.404,0c0.452,0.005 0.911,0.306 0.92,0.83c0.017,2.571 0,5.143 0,7.715c-0.004,0.531 -0.568,0.94 -1.161,0.818c-0.37,-0.076 -0.672,-0.407 -0.679,-0.808c-0.015,-2.572 0,-5.143 0,-7.714c0.002,-0.446 0.376,-0.835 0.9,-0.841c0.01,0 0.01,0 0.02,0Zm68.111,1.817l0,6.727c0,0.056 -0.002,0.064 -0.005,0.093c-0.051,0.5 -0.611,0.841 -1.155,0.724c-0.371,-0.08 -0.677,-0.406 -0.68,-0.817l0,-6.727l-2.068,0c-0.066,0 -0.083,-0.003 -0.123,-0.008c-0.541,-0.079 -0.885,-0.796 -0.571,-1.344c0.136,-0.238 0.397,-0.396 0.674,-0.402c2.002,-0.013 4.004,-0.013 6.006,0c0.22,0.005 0.435,0.102 0.58,0.269c0.363,0.418 0.258,1.199 -0.287,1.425c-0.096,0.04 -0.199,0.06 -0.303,0.06l-2.068,0Zm-35.54,5.763c0.067,0 0.086,0.003 0.129,0.009c0.432,0.062 0.739,0.516 0.67,0.991c-0.057,0.394 -0.385,0.733 -0.81,0.742c-1.843,0.015 -3.687,0 -5.53,0c-0.659,-0.004 -1.194,-0.746 -0.872,-1.524c0.081,-0.196 0.21,-0.367 0.343,-0.534l4.246,-5.459l-3.488,0c-0.037,0 -0.039,0 -0.055,-0.001c-0.488,-0.03 -0.86,-0.557 -0.743,-1.085c0.08,-0.36 0.409,-0.649 0.787,-0.656c1.673,-0.01 3.346,-0.007 5.018,0c0.527,0.008 0.972,0.44 0.95,1.048c-0.014,0.376 -0.214,0.717 -0.451,1.021l-4.215,5.448l4.021,0Zm84.911,-2.222l0,2.222c1.297,0.012 2.595,0 3.892,0c0.345,0.002 0.674,0.225 0.783,0.552c0.171,0.519 -0.155,1.178 -0.773,1.19c-1.405,0.008 -2.81,0 -4.215,0c-0.548,-0.002 -1.112,-0.191 -1.356,-0.731c-0.115,-0.253 -0.148,-0.535 -0.151,-0.808c-0.007,-2.049 0,-4.098 0,-6.147c0.002,-0.512 0.137,-1.074 0.604,-1.36c0.26,-0.159 0.576,-0.21 0.883,-0.213c1.379,-0.004 2.758,-0.005 4.137,0c0.272,0.005 0.539,0.134 0.687,0.369c0.326,0.519 0.021,1.369 -0.697,1.373l-3.794,0l0,1.834l3.307,0c0.32,0.002 0.627,0.191 0.75,0.494c0.145,0.356 0.057,0.808 -0.242,1.049c-0.143,0.114 -0.325,0.175 -0.509,0.176l-3.306,0Zm-98.248,2.19c0.074,0 0.096,0.003 0.143,0.011c0.444,0.07 0.763,0.545 0.686,1.024c-0.06,0.381 -0.382,0.716 -0.782,0.738c-0.012,0 -0.024,0.001 -0.035,0.001c-1.395,0.008 -2.79,0 -4.184,0c-0.546,-0.002 -1.11,-0.19 -1.355,-0.731c-0.114,-0.253 -0.147,-0.536 -0.15,-0.808c-0.008,-2.307 0,-4.614 0,-6.92c0.002,-0.455 0.376,-0.849 0.89,-0.863c0.014,0 0.027,0 0.04,0c0.458,0.005 0.907,0.335 0.91,0.853l0,6.695l3.837,0Zm70.532,-2.19l0,2.222c1.297,0.012 2.595,0 3.892,0c0.359,0.002 0.701,0.238 0.799,0.6c0.139,0.513 -0.195,1.131 -0.789,1.142c-1.404,0.008 -2.809,0 -4.213,0c-0.544,-0.002 -1.104,-0.185 -1.352,-0.722c-0.118,-0.255 -0.152,-0.539 -0.155,-0.817c-0.007,-2.049 0,-4.098 0,-6.147c0.002,-0.517 0.131,-1.07 0.604,-1.36c0.26,-0.159 0.576,-0.21 0.883,-0.213c1.378,-0.004 2.757,-0.005 4.135,0c0.299,0.005 0.589,0.161 0.727,0.442c0.261,0.527 -0.052,1.296 -0.737,1.3l-3.794,0l0,1.834l3.307,0c0.326,0.002 0.641,0.205 0.758,0.514c0.195,0.516 -0.127,1.202 -0.759,1.205l-3.306,0Zm-52.368,0l0,2.222c1.298,0.012 2.595,0 3.892,0c0.357,0.002 0.701,0.238 0.799,0.6c0.139,0.512 -0.195,1.131 -0.789,1.142c-1.404,0.008 -2.808,0 -4.213,0c-0.546,-0.002 -1.108,-0.192 -1.352,-0.723c-0.118,-0.254 -0.152,-0.54 -0.154,-0.816c-0.007,-2.049 0,-4.098 0,-6.147c0.001,-0.509 0.129,-1.07 0.603,-1.36c0.261,-0.159 0.576,-0.21 0.883,-0.213c1.378,-0.004 2.757,-0.005 4.135,0c0.303,0.005 0.596,0.166 0.732,0.451c0.254,0.53 -0.073,1.287 -0.741,1.291l-3.795,0l0,1.834l3.307,0c0.317,0.002 0.623,0.19 0.748,0.485c0.219,0.518 -0.117,1.231 -0.749,1.234l-3.306,0Zm-54.842,0l0,2.222c1.297,0.003 2.594,0 3.892,0c0.352,0.002 0.689,0.231 0.792,0.582c0.149,0.514 -0.176,1.149 -0.782,1.16c-1.405,0.008 -2.81,0 -4.216,0c-0.544,-0.002 -1.103,-0.185 -1.35,-0.723c-0.117,-0.254 -0.151,-0.54 -0.154,-0.816c-0.006,-2.049 0,-4.098 0,-6.147c0.001,-0.507 0.127,-1.068 0.603,-1.36c0.26,-0.159 0.575,-0.21 0.882,-0.213c1.378,-0.004 2.757,-0.005 4.136,0c0.303,0.005 0.596,0.166 0.732,0.451c0.253,0.527 -0.072,1.287 -0.741,1.291l-3.794,0l0,1.834l3.304,0c0.322,0.002 0.631,0.195 0.753,0.495c0.21,0.517 -0.122,1.221 -0.753,1.224l-3.304,0Zm65.135,-5.295c1.553,0.006 3.109,0.754 3.776,2.293c0.366,0.845 0.46,1.788 0.405,2.703c-0.086,1.435 -0.66,2.915 -1.953,3.69c-0.665,0.399 -1.452,0.57 -2.228,0.573c-0.649,0.001 -1.299,0 -1.949,0c-0.546,-0.002 -1.107,-0.192 -1.352,-0.723c-0.117,-0.254 -0.151,-0.54 -0.154,-0.816c-0.007,-2.049 0,-4.098 0,-6.147c0.002,-0.509 0.13,-1.07 0.603,-1.36c0.261,-0.159 0.576,-0.21 0.883,-0.213c0.657,-0.002 1.313,0 1.969,0Zm-1.625,1.732l0,5.785c0.614,0 1.238,0.043 1.839,-0.013c0.588,-0.055 1.152,-0.318 1.52,-0.802c0.726,-0.956 0.705,-2.365 0.455,-3.316c-0.161,-0.612 -0.524,-1.191 -1.162,-1.461c-0.329,-0.139 -0.689,-0.19 -1.045,-0.192c-0.535,-0.002 -1.071,-0.001 -1.607,-0.001Zm-39.825,3.342l1.945,0l-0.963,-2.524c-0.327,0.841 -0.655,1.682 -0.982,2.524Zm-32.896,-3.351l0,2.361c0.686,0 1.371,0.004 2.057,0c0.402,-0.004 0.822,-0.088 1.062,-0.443c0.204,-0.303 0.231,-0.705 0.184,-1.036c-0.033,-0.237 -0.133,-0.472 -0.329,-0.627c-0.259,-0.206 -0.608,-0.254 -0.928,-0.255c-0.682,-0.002 -1.364,0 -2.046,0Zm152.792,-0.024l0,2.07c0.706,0 1.411,0.006 2.117,0c0.361,-0.004 0.738,-0.125 0.947,-0.435c0.19,-0.283 0.206,-0.664 0.127,-0.989c-0.04,-0.166 -0.122,-0.326 -0.255,-0.435c-0.209,-0.171 -0.495,-0.209 -0.752,-0.211c-0.728,-0.005 -1.456,0 -2.184,0Z" style="fill-rule:nonzero;"/></g></svg>