<svg id="Capa_1" enable-background="new 0 0 503.144 503.144" height="512" viewBox="0 0 503.144 503.144" width="512" xmlns="http://www.w3.org/2000/svg"><path d="m246.6 454.837v-47.176h-106.32v47.176l-15.115 23.246c-.74 1.139.077 2.645 1.435 2.645h133.68c1.358 0 2.175-1.506 1.435-2.645z" fill="#e5eef8"/><path d="m166.911 476.749v-4.063c0-23.811 19.302-43.113 43.113-43.113h36.576v-21.912h-106.32v47.176l-15.115 23.246c-.74 1.139.077 2.645 1.435 2.645h37.723z" fill="#d5e2f3"/><path d="m155.85 154.826h-25.309-113.031c-9.67 0-17.51 7.839-17.51 17.51v222.816c0 9.67 7.839 17.51 17.51 17.51h351.86c9.67 0 17.51-7.839 17.51-17.51v-128.115-112.211z" fill="#e5eef8"/><path d="m135.85 154.826v92.87c0 21.692 17.648 39.341 39.341 39.341h211.689v-20-112.211h-231.03z" fill="#c5e1ff"/><path d="m0 360.895v34.257c0 9.67 7.839 17.51 17.51 17.51h351.86c9.67 0 17.51-7.839 17.51-17.51v-34.257z" fill="#c5e1ff"/><path d="m154.616 179.826h-25.309-100.332c-2.877 0-5.209 2.332-5.209 5.209v144.943c0 2.877 2.332 5.209 5.209 5.209h326.462c2.877 0 5.209-2.332 5.209-5.209v-62.942-82.002c0-2.877-2.332-5.209-5.209-5.209h-200.821z" fill="#05f2a7"/><path d="m74.444 179.826h-45.468c-2.877 0-5.209 2.332-5.209 5.209v144.943c0 2.877 2.332 5.209 5.209 5.209h326.461c2.877 0 5.209-2.332 5.209-5.209v-11.338h-147.387c-76.666.001-138.815-62.149-138.815-138.814z" fill="#13e29d"/><path d="m79.304 301.196h-22.666c-3.113 0-5.636-2.524-5.636-5.636v-84.427c0-3.113 2.524-5.636 5.636-5.636h53.148c3.113 0 5.636 2.524 5.636 5.636v46.374 43.69h-36.118z" fill="#13e29d"/><path d="m56.638 301.196h22.667 36.118v-22.901c-19.54-19.415-33.328-44.606-38.6-72.799h-20.185c-3.113 0-5.636 2.523-5.636 5.636v84.427c-.001 3.114 2.523 5.637 5.636 5.637z" fill="#0bc286"/><circle cx="193.44" cy="387.982" fill="#99bce4" r="10.131"/><g fill="#65daf9"><path d="m144.016 22.415h-25.594c-4.142 0-7.5 3.357-7.5 7.5v23.069c0 4.143 3.358 7.5 7.5 7.5s7.5-3.357 7.5-7.5v-4.712l10.016 10.016c1.464 1.464 3.384 2.196 5.303 2.196s3.839-.732 5.303-2.196c2.929-2.93 2.929-7.678 0-10.607l-10.266-10.266h7.737c4.142 0 7.5-3.357 7.5-7.5s-3.357-7.5-7.499-7.5z"/><path d="m495.644 22.415h-25.594c-4.142 0-7.5 3.357-7.5 7.5s3.358 7.5 7.5 7.5h7.737l-10.266 10.266c-2.929 2.929-2.929 7.678 0 10.606 1.464 1.465 3.384 2.197 5.303 2.197s3.839-.732 5.303-2.196l10.016-10.016v4.712c0 4.143 3.358 7.5 7.5 7.5s7.5-3.357 7.5-7.5v-23.069c.001-4.142-3.357-7.5-7.499-7.5z"/><path d="m144.016 296.675h-7.738l10.266-10.267c2.929-2.93 2.929-7.678 0-10.607-2.929-2.928-7.678-2.928-10.606 0l-10.016 10.016v-4.713c0-4.143-3.358-7.5-7.5-7.5s-7.5 3.357-7.5 7.5v23.07c0 4.143 3.358 7.5 7.5 7.5h25.594c4.142 0 7.5-3.357 7.5-7.5s-3.358-7.499-7.5-7.499z"/><path d="m495.644 273.605c-4.142 0-7.5 3.357-7.5 7.5v4.712l-10.016-10.016c-2.929-2.928-7.678-2.928-10.606 0-2.929 2.93-2.929 7.678 0 10.607l10.267 10.267h-7.737c-4.142 0-7.5 3.357-7.5 7.5s3.358 7.5 7.5 7.5h25.593c4.142 0 7.5-3.357 7.5-7.5v-23.07c-.001-4.143-3.359-7.5-7.501-7.5z"/></g><path d="m355.437 179.826h-200.821-18.766v67.87c0 21.692 17.648 39.341 39.341 39.341h185.455v-20-82.001c0-2.878-2.332-5.21-5.209-5.21z" fill="#13e29d"/><path d="m436.874 267.037h-261.682c-10.682 0-19.342-8.66-19.342-19.342v-161.3c0-10.682 8.66-19.342 19.342-19.342h261.683c10.682 0 19.342 8.66 19.342 19.342v161.3c-.001 10.682-8.661 19.342-19.343 19.342z" fill="#e5eef8"/><path d="m313.943 229.847c-68.622 0-124.251-55.629-124.251-124.251v-38.542h-14.5c-10.682 0-19.342 8.66-19.342 19.342v161.3c0 10.682 8.66 19.342 19.342 19.342h261.683c10.682 0 19.342-8.66 19.342-19.342v-17.848h-142.274z" fill="#d5e2f3"/><path d="m436.874 67.054h-261.682c-10.682 0-19.342 8.659-19.342 19.342v17.674h300.366v-17.675c0-10.682-8.66-19.341-19.342-19.341z" fill="#34d0e0"/><path d="m175.192 67.054c-10.682 0-19.342 8.659-19.342 19.342v17.674h33.842v-37.016z" fill="#16c6db"/><circle cx="178.83" cy="85.542" fill="#f93442" r="5.12"/><circle cx="197.326" cy="85.542" fill="#fcb64d" r="5.12"/><circle cx="215.822" cy="85.542" fill="#05f2a7" r="5.12"/><path d="m329.026 240.266h-140.578c-2.562 0-4.639-2.077-4.639-4.639v-101.132c0-2.562 2.077-4.639 4.639-4.639h140.578c2.562 0 4.639 2.077 4.639 4.639v101.131c.001 2.563-2.076 4.64-4.639 4.64z" fill="#fdcf8a"/><path d="m313.943 229.847c-60.319 0-110.593-42.985-121.877-99.992h-3.619c-2.562 0-4.639 2.077-4.639 4.639v101.131c0 2.562 2.077 4.639 4.639 4.639h140.578c2.562 0 4.639-2.077 4.639-4.639v-5.779h-19.721z" fill="#fcb64d"/><path d="m423.23 167.045h-47.49c-2.722 0-4.928-2.206-4.928-4.928v-27.333c0-2.722 2.206-4.928 4.928-4.928h47.49c2.722 0 4.928 2.206 4.928 4.928v27.333c0 2.722-2.206 4.928-4.928 4.928z" fill="#6dd8e6"/><path d="m423.23 238.888h-47.49c-2.722 0-4.928-2.206-4.928-4.928v-27.333c0-2.722 2.206-4.928 4.928-4.928h47.49c2.722 0 4.928 2.206 4.928 4.928v27.333c0 2.721-2.206 4.928-4.928 4.928z" fill="#fd6773"/><path d="m370.812 229.847v4.112c0 2.722 2.206 4.928 4.928 4.928h47.49c2.722 0 4.928-2.206 4.928-4.928v-4.112z" fill="#fc4d5a"/><path d="m311.956 163.05c-.659-2.984-3.063-5.27-6.078-5.777l-21.186-3.568c-4.087-.689-7.954 2.065-8.642 6.149-.688 4.085 2.066 7.954 6.15 8.642l7.29 1.228-25.035 26.373-36.932-20.757c-2.437-1.369-5.433-1.271-7.773.257l-35.942 23.453v17.911l40.331-26.317 38.06 21.391c2.995 1.682 6.75 1.116 9.114-1.374l29.041-30.592 1.192 5.396c.773 3.499 3.874 5.884 7.316 5.884.536 0 1.08-.059 1.625-.179 4.045-.894 6.599-4.896 5.706-8.941z" fill="#fcb64d"/><path d="m213.969 179.369-30.16 19.68v17.911l39.856-26.007c-3.46-3.658-6.698-7.527-9.696-11.584z" fill="#fda92f"/></svg>