<?xml version="1.0" encoding="UTF-8" standalone="no"?><!DOCTYPE svg PUBLIC "-//W3C//DTD SVG 1.1//EN" "http://www.w3.org/Graphics/SVG/1.1/DTD/svg11.dtd"><svg width="100%" height="100%" viewBox="0 0 240 66" version="1.1" xmlns="http://www.w3.org/2000/svg" xmlns:xlink="http://www.w3.org/1999/xlink" xml:space="preserve" xmlns:serif="http://www.serif.com/" style="fill-rule:evenodd;clip-rule:evenodd;stroke-linejoin:round;stroke-miterlimit:1.41421;"><g><g id="Group_52510"><path id="Path_104672" d="M81.393,21.079c0.931,-0.372 2.048,-0.931 2.978,-1.303c1.117,-0.558 2.048,-1.117 3.165,-1.675c1.995,-1.162 3.813,-2.604 5.398,-4.282l5.399,0l0,35.183l-7.632,0l0,-25.503c-1.053,0.73 -2.176,1.353 -3.351,1.862c-1.208,0.576 -2.451,1.073 -3.723,1.489l-2.234,-5.771Z" style="fill:#111;fill-rule:nonzero;"/><path id="Path_104673" d="M133.888,31.131c0,5.957 -1.117,10.425 -3.35,13.59c-2.196,2.927 -5.649,4.653 -9.308,4.653c-3.659,0 -7.112,-1.726 -9.308,-4.653c-2.234,-3.165 -3.351,-7.633 -3.351,-13.59c-0.011,-2.634 0.302,-5.26 0.931,-7.818c0.525,-2.061 1.407,-4.014 2.606,-5.771c1.039,-1.511 2.45,-2.729 4.096,-3.537c1.616,-0.823 3.398,-1.269 5.212,-1.303c3.693,-0.153 7.214,1.608 9.308,4.654c2.234,3.165 3.164,8.005 3.164,13.775Zm-7.818,0c0.034,-1.615 -0.028,-3.231 -0.186,-4.84c-0.122,-1.263 -0.372,-2.51 -0.745,-3.723c-0.295,-0.914 -0.806,-1.744 -1.489,-2.42c-0.66,-0.605 -1.525,-0.938 -2.42,-0.93c-0.889,0.026 -1.743,0.355 -2.42,0.93c-0.683,0.676 -1.194,1.506 -1.489,2.42c-0.462,1.189 -0.714,2.449 -0.745,3.723c-0.162,1.608 -0.225,3.225 -0.186,4.84c-0.039,1.616 0.024,3.232 0.186,4.84c0.103,1.266 0.353,2.516 0.745,3.723c0.295,0.915 0.806,1.745 1.489,2.42c0.659,0.606 1.525,0.938 2.42,0.931c0.889,-0.027 1.742,-0.355 2.42,-0.931c0.683,-0.675 1.194,-1.505 1.489,-2.42c0.373,-1.212 0.623,-2.46 0.745,-3.723c0.166,-1.607 0.228,-3.224 0.186,-4.84Z" style="fill:#111;fill-rule:nonzero;"/><path id="Path_104674" d="M163.301,17.542c0.372,1.303 0.93,2.979 1.303,4.654c0.558,1.675 0.93,3.537 1.489,5.398l1.675,5.585c0.559,1.862 1.117,3.537 1.676,5.212c0.372,-1.675 0.93,-3.537 1.303,-5.584c0.372,-2.048 0.931,-4.096 1.303,-6.329c0.372,-2.234 0.744,-4.282 1.117,-6.516c0.372,-2.234 0.744,-4.281 1.117,-6.143l8.19,0c-1.116,5.957 -2.606,11.914 -4.095,17.871c-1.489,6.143 -3.165,11.728 -5.026,17.312l-7.26,0c-1.117,-3.164 -2.42,-6.701 -3.537,-10.238c-1.117,-3.537 -2.234,-7.074 -3.351,-10.797c-1.117,3.537 -2.234,7.074 -3.164,10.797c-0.931,3.723 -2.234,6.887 -3.351,10.238l-7.26,0c-1.862,-5.398 -3.537,-11.169 -5.026,-17.312c-1.49,-6.143 -2.979,-12.1 -4.096,-17.871l8.563,0l1.117,6.143c0.373,2.234 0.745,4.282 1.303,6.516c0.373,2.233 0.931,4.281 1.303,6.329c0.363,1.894 0.86,3.761 1.49,5.584c0.558,-1.675 1.117,-3.35 1.861,-5.212l1.676,-5.585c0.558,-1.861 1.117,-3.723 1.489,-5.398c0.372,-1.675 0.931,-3.351 1.303,-4.654l6.888,0Z" style="fill:#111;fill-rule:nonzero;"/><path id="Path_104675" d="M184.336,35.785c-0.101,-3.905 1.299,-7.704 3.909,-10.611c1.171,-1.142 2.565,-2.029 4.096,-2.606c1.486,-0.576 3.06,-0.891 4.653,-0.93c3.35,-0.18 6.617,1.113 8.936,3.536c2.424,2.836 3.629,6.519 3.351,10.239l0,1.489c0.03,0.504 -0.033,1.009 -0.187,1.489l-17.126,0c0.176,1.504 0.991,2.861 2.234,3.723c1.555,0.976 3.381,1.432 5.212,1.304c1.372,-0.032 2.741,-0.157 4.096,-0.373c1.15,-0.174 2.275,-0.486 3.351,-0.931l0.93,6.144c-0.538,0.242 -1.099,0.429 -1.675,0.558l-2.234,0.558c-0.851,0.229 -1.726,0.354 -2.606,0.373c-0.922,0.154 -1.858,0.217 -2.792,0.186c-2.162,0.041 -4.312,-0.338 -6.33,-1.117c-1.686,-0.659 -3.21,-1.675 -4.467,-2.978c-1.188,-1.279 -2.079,-2.805 -2.606,-4.468c-0.522,-1.815 -0.773,-3.697 -0.745,-5.585Zm17.685,-2.978c-0.034,-0.635 -0.16,-1.262 -0.373,-1.862c-0.237,-0.596 -0.55,-1.159 -0.93,-1.675c-0.36,-0.526 -0.884,-0.919 -1.49,-1.117c-0.693,-0.335 -1.469,-0.464 -2.234,-0.372c-0.758,0.017 -1.51,0.143 -2.233,0.372c-0.529,0.327 -1.028,0.7 -1.49,1.117c-0.418,0.491 -0.734,1.061 -0.93,1.675c-0.187,0.745 -0.373,1.303 -0.559,1.862l10.239,0Z" style="fill:#111;fill-rule:nonzero;"/><path id="Path_104676" d="M239.996,35.599c-0.007,1.96 -0.321,3.908 -0.931,5.771c-0.566,1.688 -1.523,3.219 -2.792,4.468c-1.18,1.263 -2.65,2.221 -4.282,2.792c-1.923,0.624 -3.934,0.939 -5.957,0.931c-0.934,0.03 -1.87,-0.032 -2.792,-0.187c-0.931,-0.186 -2.048,-0.186 -2.978,-0.372l-2.793,-0.558c-0.93,-0.186 -1.675,-0.373 -2.42,-0.559l0,-37.231l7.633,-1.303l0,13.217c1.743,-0.838 3.65,-1.282 5.584,-1.303c1.718,0.004 3.421,0.32 5.026,0.931c1.389,0.716 2.648,1.66 3.724,2.792c1,1.347 1.756,2.86 2.233,4.468c0.534,2.003 0.784,4.071 0.745,6.143Zm-7.632,-0.186c0,-4.84 -1.862,-7.26 -5.399,-7.26c-0.757,0.033 -1.507,0.158 -2.234,0.372c-0.66,0.134 -1.291,0.386 -1.861,0.745l0,13.775c0.372,0 0.931,0.186 1.489,0.186l1.862,0c1.783,0.075 3.503,-0.682 4.653,-2.047c0.993,-1.76 1.506,-3.751 1.49,-5.771Z" style="fill:#111;fill-rule:nonzero;"/></g><g id="Group_52511"><path id="Path_104677" d="M10.096,22.382l21.966,-21.966c0.565,-0.555 1.483,-0.555 2.048,0l31.646,31.832c0.555,0.565 0.555,1.483 0,2.048l-0.186,0.186c-2.611,2.59 -6.883,2.59 -9.494,0l-22.338,-22.338c-0.565,-0.555 -1.483,-0.555 -2.048,0l-12.472,12.472c-2.611,2.589 -6.884,2.589 -9.494,0c-0.261,-0.759 -0.121,-1.601 0.372,-2.234Z" style="fill:#111;fill-rule:nonzero;"/><path id="Path_104678" d="M56.262,43.418l-21.966,21.966c-0.565,0.554 -1.483,0.554 -2.048,0l-31.832,-31.833c-0.555,-0.564 -0.555,-1.483 0,-2.047c2.611,-2.59 6.883,-2.59 9.494,0l22.152,22.152c0.565,0.555 1.483,0.555 2.048,0l12.472,-12.472c2.611,-2.59 6.883,-2.59 9.494,0c0.367,0.291 0.582,0.735 0.582,1.204c0,0.38 -0.141,0.747 -0.396,1.03Z" style="fill:#111;fill-rule:nonzero;"/><path id="Path_104679" d="M35.413,32.248l-5.399,-5.398c-1.483,-1.626 -1.483,-4.145 0,-5.771l0.187,-0.186c0.745,-0.801 1.791,-1.257 2.885,-1.257c1.094,0 2.14,0.456 2.885,1.257l11.17,11.169c0.554,0.565 0.554,1.483 0,2.048l-10.797,10.797c-0.746,0.801 -1.792,1.256 -2.886,1.256c-1.094,0 -2.14,-0.455 -2.885,-1.256c-0.801,-0.745 -1.257,-1.792 -1.257,-2.886c0,-1.094 0.456,-2.14 1.257,-2.885l5.026,-5.026c0.402,-0.58 0.322,-1.373 -0.186,-1.862Z" style="fill:#111;fill-rule:nonzero;"/><path id="Path_104680" d="M28.711,31.69l-1.861,-1.862c-0.745,-0.801 -1.791,-1.256 -2.886,-1.256c-1.094,0 -2.14,0.455 -2.885,1.256c-1.483,1.626 -1.483,4.145 0,5.771c0.745,0.801 1.791,1.257 2.885,1.257c1.095,0 2.141,-0.456 2.886,-1.257l1.861,-1.861c0.555,-0.565 0.555,-1.483 0,-2.048Z" style="fill:#111;fill-rule:nonzero;"/></g></g></svg>