<?xml version="1.0" encoding="UTF-8" standalone="no"?><!DOCTYPE svg PUBLIC "-//W3C//DTD SVG 1.1//EN" "http://www.w3.org/Graphics/SVG/1.1/DTD/svg11.dtd"><svg width="100%" height="100%" viewBox="0 0 240 23" version="1.1" xmlns="http://www.w3.org/2000/svg" xmlns:xlink="http://www.w3.org/1999/xlink" xml:space="preserve" xmlns:serif="http://www.serif.com/" style="fill-rule:evenodd;clip-rule:evenodd;stroke-linejoin:round;stroke-miterlimit:1.41421;"><g><path d="M0,22.611l0,-22.611l8.296,0c1.543,0 2.894,0.154 3.974,0.424c1.08,0.309 2.007,0.695 2.701,1.235c0.695,0.54 1.196,1.158 1.505,1.929c0.309,0.772 0.463,1.582 0.463,2.547c0,0.502 -0.077,1.003 -0.232,1.466c-0.154,0.463 -0.385,0.926 -0.694,1.312c-0.309,0.386 -0.695,0.772 -1.196,1.119c-0.502,0.347 -1.081,0.618 -1.737,0.888c1.505,0.347 2.586,0.964 3.319,1.775c0.694,0.81 1.08,1.852 1.08,3.125c0,0.965 -0.193,1.852 -0.54,2.701c-0.386,0.81 -0.926,1.543 -1.621,2.161c-0.733,0.617 -1.62,1.08 -2.662,1.427c-1.042,0.348 -2.277,0.502 -3.627,0.502l-9.029,0Zm5.248,-13.119l2.739,0c0.579,0 1.119,-0.039 1.582,-0.116c0.463,-0.077 0.849,-0.231 1.196,-0.424c0.309,-0.193 0.579,-0.502 0.733,-0.849c0.155,-0.347 0.27,-0.81 0.27,-1.351c0,-0.54 -0.077,-1.003 -0.192,-1.35c-0.116,-0.347 -0.348,-0.656 -0.618,-0.849c-0.27,-0.231 -0.617,-0.386 -1.08,-0.463c-0.425,-0.077 -0.926,-0.154 -1.544,-0.154l-3.086,0l0,5.556Zm0,3.511l0,5.634l3.704,0c0.694,0 1.273,-0.078 1.698,-0.27c0.424,-0.193 0.771,-0.386 1.041,-0.695c0.232,-0.27 0.425,-0.579 0.502,-0.965c0.077,-0.347 0.154,-0.694 0.154,-1.08c0,-0.424 -0.038,-0.772 -0.154,-1.119c-0.116,-0.347 -0.309,-0.617 -0.54,-0.849c-0.27,-0.231 -0.618,-0.386 -1.042,-0.54c-0.425,-0.116 -0.965,-0.193 -1.659,-0.193l-3.704,0l0,0.077Z" style="fill:#111;fill-rule:nonzero;"/><path d="M35.305,0l0,4.013l-9.26,0l0,5.286l7.1,0l0,3.859l-7.1,0l0,5.363l9.26,0l0,4.013l-14.546,0l0,-22.534l14.546,0Z" style="fill:#111;fill-rule:nonzero;"/><path d="M54.791,0l0,4.167l-6.367,0l0,18.444l-5.247,0l0,-18.444l-6.367,0l0,-4.167l17.981,0Z" style="fill:#111;fill-rule:nonzero;"/><path d="M73.659,18.019c0.155,0 0.309,0.077 0.425,0.193l1.196,1.274c-0.926,1.041 -2.007,1.89 -3.319,2.469c-1.311,0.579 -2.855,0.887 -4.707,0.887c-1.582,0 -3.048,-0.27 -4.36,-0.848c-1.312,-0.541 -2.431,-1.312 -3.318,-2.316c-0.926,-1.003 -1.621,-2.199 -2.123,-3.588c-0.501,-1.389 -0.771,-2.932 -0.771,-4.592c0,-1.659 0.27,-3.202 0.771,-4.591c0.541,-1.389 1.274,-2.585 2.238,-3.589c0.965,-1.003 2.084,-1.775 3.434,-2.315c1.351,-0.54 2.817,-0.849 4.438,-0.849c1.582,0 2.971,0.27 4.205,0.772c1.197,0.502 2.277,1.196 3.203,2.045l-1.003,1.389c-0.077,0.116 -0.154,0.193 -0.232,0.27c-0.115,0.077 -0.231,0.116 -0.386,0.116c-0.192,0 -0.424,-0.116 -0.694,-0.309c-0.27,-0.193 -0.617,-0.424 -1.042,-0.656c-0.424,-0.231 -0.964,-0.463 -1.62,-0.656c-0.656,-0.193 -1.467,-0.308 -2.393,-0.308c-1.157,0 -2.199,0.193 -3.164,0.578c-0.964,0.386 -1.775,0.965 -2.469,1.737c-0.695,0.772 -1.235,1.659 -1.621,2.778c-0.386,1.08 -0.579,2.315 -0.579,3.666c0,1.389 0.193,2.623 0.579,3.704c0.386,1.08 0.926,2.006 1.621,2.739c0.694,0.733 1.505,1.312 2.431,1.698c0.926,0.386 1.929,0.579 3.048,0.579c0.656,0 1.273,-0.039 1.775,-0.116c0.54,-0.077 1.042,-0.193 1.466,-0.347c0.463,-0.155 0.888,-0.386 1.273,-0.618c0.386,-0.27 0.772,-0.54 1.158,-0.926c0.193,-0.193 0.386,-0.27 0.54,-0.27Z" style="fill:#111;fill-rule:nonzero;"/><path d="M98.894,11.498c0,1.66 -0.27,3.203 -0.772,4.592c-0.54,1.389 -1.273,2.585 -2.238,3.588c-0.964,1.004 -2.122,1.775 -3.472,2.316c-1.351,0.54 -2.856,0.848 -4.476,0.848c-1.621,0 -3.126,-0.27 -4.476,-0.848c-1.351,-0.541 -2.508,-1.312 -3.473,-2.316c-0.964,-1.003 -1.698,-2.199 -2.238,-3.588c-0.54,-1.389 -0.772,-2.932 -0.772,-4.592c0,-1.659 0.271,-3.202 0.772,-4.591c0.54,-1.389 1.274,-2.585 2.238,-3.589c0.965,-1.003 2.122,-1.775 3.473,-2.353c1.35,-0.541 2.817,-0.849 4.476,-0.849c1.62,0 3.125,0.27 4.476,0.849c1.35,0.54 2.508,1.35 3.472,2.353c0.965,1.004 1.698,2.2 2.238,3.589c0.502,1.389 0.772,2.932 0.772,4.591Zm-3.087,0c0,-1.35 -0.193,-2.585 -0.54,-3.665c-0.386,-1.081 -0.888,-2.007 -1.582,-2.74c-0.695,-0.733 -1.505,-1.312 -2.47,-1.736c-0.964,-0.386 -2.045,-0.617 -3.241,-0.617c-1.196,0 -2.276,0.192 -3.241,0.617c-0.965,0.386 -1.813,0.965 -2.508,1.736c-0.694,0.733 -1.235,1.659 -1.582,2.74c-0.386,1.08 -0.54,2.315 -0.54,3.665c0,1.351 0.193,2.586 0.54,3.666c0.386,1.08 0.888,2.006 1.582,2.74c0.695,0.733 1.505,1.311 2.508,1.736c0.965,0.386 2.045,0.579 3.241,0.579c1.196,0 2.277,-0.193 3.241,-0.579c0.965,-0.386 1.814,-0.965 2.47,-1.736c0.694,-0.734 1.196,-1.66 1.582,-2.74c0.347,-1.08 0.54,-2.315 0.54,-3.666Z" style="fill:#111;fill-rule:nonzero;"/><path d="M105.068,0.386c0.077,0 0.192,0.038 0.231,0.077c0.077,0.039 0.154,0.077 0.232,0.154c0.077,0.078 0.154,0.155 0.231,0.27l12.849,16.746c-0.039,-0.27 -0.039,-0.54 -0.039,-0.771c0,-0.27 -0.038,-0.502 -0.038,-0.733l0,-15.743l2.624,0l0,22.225l-1.505,0c-0.232,0 -0.425,-0.039 -0.579,-0.116c-0.154,-0.077 -0.309,-0.231 -0.463,-0.424l-12.849,-16.746c0.039,0.27 0.039,0.501 0.039,0.771l0,16.515l-2.624,0l0,-22.225l1.891,0Z" style="fill:#111;fill-rule:nonzero;"/><path d="M138.251,3.859c-0.077,0.154 -0.193,0.27 -0.309,0.347c-0.116,0.077 -0.231,0.116 -0.386,0.116c-0.193,0 -0.386,-0.078 -0.617,-0.271c-0.232,-0.192 -0.54,-0.385 -0.888,-0.578c-0.347,-0.193 -0.771,-0.425 -1.273,-0.579c-0.501,-0.193 -1.119,-0.27 -1.813,-0.27c-0.656,0 -1.274,0.077 -1.775,0.27c-0.502,0.193 -0.926,0.424 -1.274,0.733c-0.347,0.309 -0.617,0.656 -0.771,1.08c-0.193,0.425 -0.27,0.888 -0.27,1.351c0,0.617 0.154,1.119 0.463,1.543c0.308,0.425 0.694,0.772 1.196,1.042c0.501,0.309 1.08,0.54 1.698,0.733c0.617,0.193 1.273,0.425 1.967,0.656c0.656,0.232 1.312,0.502 1.968,0.772c0.618,0.27 1.196,0.656 1.698,1.08c0.502,0.425 0.887,0.965 1.196,1.582c0.309,0.618 0.463,1.389 0.463,2.315c0,0.965 -0.154,1.891 -0.501,2.74c-0.348,0.849 -0.811,1.582 -1.467,2.238c-0.617,0.617 -1.427,1.119 -2.353,1.505c-0.926,0.347 -1.968,0.54 -3.164,0.54c-1.467,0 -2.779,-0.27 -3.936,-0.772c-1.196,-0.54 -2.199,-1.235 -3.01,-2.122l0.888,-1.428c0.077,-0.115 0.193,-0.193 0.308,-0.27c0.116,-0.077 0.232,-0.116 0.386,-0.116c0.116,0 0.27,0.039 0.463,0.155c0.155,0.116 0.348,0.231 0.579,0.424c0.232,0.155 0.463,0.348 0.733,0.54c0.27,0.193 0.579,0.386 0.965,0.541c0.347,0.154 0.771,0.308 1.235,0.424c0.463,0.116 0.964,0.154 1.543,0.154c0.694,0 1.35,-0.115 1.891,-0.308c0.54,-0.193 1.041,-0.463 1.427,-0.849c0.386,-0.386 0.695,-0.772 0.888,-1.273c0.193,-0.502 0.308,-1.042 0.308,-1.66c0,-0.656 -0.154,-1.234 -0.463,-1.659c-0.308,-0.424 -0.694,-0.771 -1.196,-1.08c-0.501,-0.27 -1.08,-0.54 -1.698,-0.733c-0.655,-0.193 -1.273,-0.425 -1.967,-0.618c-0.656,-0.193 -1.312,-0.463 -1.968,-0.733c-0.656,-0.27 -1.196,-0.656 -1.698,-1.08c-0.502,-0.463 -0.887,-1.003 -1.196,-1.659c-0.309,-0.656 -0.463,-1.505 -0.463,-2.47c0,-0.771 0.154,-1.543 0.463,-2.276c0.309,-0.733 0.733,-1.389 1.35,-1.968c0.579,-0.579 1.312,-1.042 2.161,-1.351c0.849,-0.347 1.814,-0.501 2.933,-0.501c1.234,0 2.353,0.193 3.395,0.579c1.003,0.385 1.929,0.964 2.701,1.697l-0.81,1.467Z" style="fill:#111;fill-rule:nonzero;"/><path d="M158.74,0.386l0,2.546l-7.177,0l0,19.679l-3.01,0l0,-19.679l-7.215,0l0,-2.546l17.402,0Z" style="fill:#111;fill-rule:nonzero;"/><path d="M164.99,13.312l0,9.26l-3.009,0l0,-22.186l6.289,0c1.389,0 2.624,0.154 3.627,0.424c1.042,0.27 1.852,0.695 2.547,1.235c0.656,0.54 1.157,1.196 1.466,1.929c0.309,0.772 0.463,1.621 0.463,2.547c0,0.772 -0.116,1.505 -0.386,2.199c-0.231,0.695 -0.617,1.312 -1.08,1.852c-0.463,0.541 -1.042,1.004 -1.737,1.389c-0.694,0.386 -1.427,0.656 -2.315,0.849c0.386,0.232 0.733,0.579 1.004,0.965l6.482,8.836l-2.663,0c-0.54,0 -0.964,-0.193 -1.196,-0.617l-5.787,-7.949c-0.193,-0.231 -0.348,-0.424 -0.579,-0.54c-0.193,-0.116 -0.502,-0.155 -0.926,-0.155l-2.2,0l0,-0.038Zm0,-2.161l3.164,0c0.888,0 1.621,-0.116 2.315,-0.309c0.656,-0.192 1.235,-0.501 1.66,-0.887c0.463,-0.386 0.771,-0.849 1.003,-1.389c0.231,-0.54 0.347,-1.119 0.347,-1.775c0,-1.312 -0.424,-2.315 -1.312,-3.01c-0.887,-0.656 -2.161,-1.003 -3.897,-1.003l-3.28,0l0,8.373Z" style="fill:#111;fill-rule:nonzero;"/><path d="M190.032,20.219c0.926,0 1.736,-0.155 2.47,-0.463c0.733,-0.309 1.35,-0.733 1.852,-1.312c0.501,-0.54 0.887,-1.235 1.157,-2.007c0.27,-0.771 0.386,-1.62 0.386,-2.546l0,-13.505l3.01,0l0,13.505c0,1.273 -0.193,2.469 -0.618,3.55c-0.424,1.08 -1.003,2.045 -1.736,2.855c-0.772,0.81 -1.698,1.427 -2.778,1.89c-1.08,0.464 -2.315,0.695 -3.704,0.695c-1.351,0 -2.585,-0.231 -3.704,-0.695c-1.081,-0.463 -2.045,-1.08 -2.779,-1.89c-0.771,-0.81 -1.35,-1.737 -1.774,-2.855c-0.425,-1.081 -0.618,-2.277 -0.618,-3.55l0,-13.505l3.01,0l0,13.505c0,0.926 0.116,1.775 0.386,2.546c0.27,0.772 0.656,1.428 1.157,2.007c0.502,0.54 1.119,1.003 1.852,1.312c0.656,0.308 1.505,0.463 2.431,0.463Z" style="fill:#111;fill-rule:nonzero;"/><path d="M219.859,18.019c0.154,0 0.308,0.077 0.424,0.193l1.196,1.274c-0.926,1.041 -2.006,1.89 -3.318,2.469c-1.312,0.579 -2.856,0.887 -4.708,0.887c-1.582,0 -3.048,-0.27 -4.36,-0.848c-1.312,-0.541 -2.431,-1.312 -3.318,-2.316c-0.926,-1.003 -1.621,-2.199 -2.122,-3.588c-0.502,-1.389 -0.772,-2.932 -0.772,-4.592c0,-1.659 0.27,-3.202 0.772,-4.591c0.54,-1.389 1.273,-2.585 2.238,-3.589c0.964,-1.003 2.083,-1.775 3.434,-2.315c1.35,-0.54 2.816,-0.849 4.437,-0.849c1.582,0 2.971,0.27 4.206,0.772c1.196,0.502 2.276,1.196 3.202,2.045l-1.003,1.389c-0.077,0.116 -0.154,0.193 -0.231,0.27c-0.116,0.077 -0.232,0.116 -0.386,0.116c-0.193,0 -0.425,-0.116 -0.695,-0.309c-0.27,-0.193 -0.617,-0.424 -1.041,-0.656c-0.425,-0.231 -0.965,-0.463 -1.621,-0.656c-0.656,-0.193 -1.466,-0.308 -2.392,-0.308c-1.158,0 -2.2,0.193 -3.164,0.578c-0.965,0.386 -1.775,0.965 -2.47,1.737c-0.694,0.772 -1.235,1.659 -1.62,2.778c-0.386,1.08 -0.579,2.315 -0.579,3.666c0,1.389 0.193,2.623 0.579,3.704c0.385,1.08 0.926,2.006 1.62,2.739c0.695,0.733 1.505,1.312 2.431,1.698c0.926,0.386 1.929,0.579 3.048,0.579c0.656,0 1.274,-0.039 1.775,-0.116c0.54,-0.077 1.042,-0.193 1.466,-0.347c0.463,-0.155 0.888,-0.386 1.274,-0.618c0.386,-0.27 0.771,-0.54 1.157,-0.926c0.193,-0.193 0.348,-0.27 0.541,-0.27Z" style="fill:#111;fill-rule:nonzero;"/><path d="M240,0.386l0,2.546l-7.177,0l0,19.679l-3.009,0l0,-19.679l-7.216,0l0,-2.546l17.402,0Z" style="fill:#111;fill-rule:nonzero;"/></g></svg>