<?xml version="1.0" encoding="UTF-8" standalone="no"?><!DOCTYPE svg PUBLIC "-//W3C//DTD SVG 1.1//EN" "http://www.w3.org/Graphics/SVG/1.1/DTD/svg11.dtd"><svg width="100%" height="100%" viewBox="0 0 240 240" version="1.1" xmlns="http://www.w3.org/2000/svg" xmlns:xlink="http://www.w3.org/1999/xlink" xml:space="preserve" xmlns:serif="http://www.serif.com/" style="fill-rule:evenodd;clip-rule:evenodd;stroke-linejoin:round;stroke-miterlimit:1.41421;"><path d="M130.36,109.058l6.906,0l0,22.76l-6.906,0l0,-22.76Zm34.532,0l-23.31,0l0,5.897l8.2,0l0,16.863l6.912,0l0,-16.863l8.198,0l0,-5.897Zm37.122,0l6.907,0l0,22.76l-6.907,0l0,-22.76Zm31.861,0.034l0,12.963l-13.37,-11.749c-2.711,-2.573 -6.404,-0.971 -6.404,3.01l0,18.449l6.124,0l0,-13.303l13.37,12.089c2.618,2.621 6.405,0.971 6.405,-3.058l0,-18.401l-6.125,0Zm-153.723,6.936c-0.664,-1.403 -1.617,-2.649 -2.798,-3.655c-1.245,-1.063 -2.674,-1.889 -4.216,-2.439c-1.611,-0.585 -3.412,-0.877 -5.307,-0.877l-15.168,0l0,22.76l15.168,0c1.895,0 3.696,-0.244 5.307,-0.78c1.535,-0.498 2.965,-1.275 4.219,-2.291c1.185,-0.973 2.084,-2.143 2.796,-3.557c0.664,-1.365 0.994,-2.876 0.994,-4.533c0.048,-1.656 -0.283,-3.216 -0.994,-4.63l-0.001,0.002Zm-6.305,6.53c-0.332,0.674 -0.8,1.272 -1.374,1.756c-0.569,0.487 -1.279,0.876 -2.084,1.168c-0.807,0.292 -1.66,0.391 -2.561,0.391l-8.389,0l0,-10.966l8.389,0c0.948,0 1.802,0.146 2.607,0.39c0.761,0.236 1.468,0.616 2.085,1.12c0.569,0.488 1.042,1.073 1.375,1.706c0.332,0.683 0.473,1.413 0.473,2.243c0,0.778 -0.189,1.509 -0.521,2.192Zm101.877,-10.911l-14.285,20.171l8.17,0l10.464,-15.068l3.678,5.396l-4.396,0l-4.06,5.832l12.421,0l2.627,3.84l8.218,0l-13.95,-20.171c-2.389,-3.5 -6.498,-3.402 -8.887,0Zm-56.459,7.988l0,6.336l-8.39,0c-0.884,0 -1.763,-0.132 -2.608,-0.391c-0.76,-0.236 -1.469,-0.617 -2.086,-1.121c-0.562,-0.477 -1.028,-1.055 -1.375,-1.706c-0.331,-0.681 -0.473,-1.412 -0.473,-2.242c0,-0.828 0.142,-1.559 0.473,-2.241c0.333,-0.674 0.801,-1.271 1.375,-1.755c0.57,-0.487 1.28,-0.878 2.085,-1.169c0.806,-0.293 1.659,-0.391 2.561,-0.391l15.216,0l0,-5.897l-15.168,0c-1.897,0 -3.698,0.244 -5.309,0.78c-1.536,0.498 -2.966,1.275 -4.22,2.291c-1.185,0.973 -2.085,2.145 -2.797,3.557c-0.663,1.365 -0.995,2.876 -0.995,4.533c0,1.656 0.332,3.168 0.995,4.63c0.664,1.403 1.617,2.649 2.798,3.656c1.246,1.062 2.676,1.887 4.219,2.436c1.611,0.585 3.412,0.877 5.307,0.877l15.17,0l0,-12.183l-6.778,0Zm-32.934,-10.577l6.907,0l0,22.76l-6.907,0l0,-22.76Zm-59.262,-5.811c1.048,1.202 2.097,2.356 2.954,3.655c0.478,0.722 0.715,1.395 1.621,1.683c0.713,0.192 4.05,0.337 4.526,-0.48c0.621,-1.107 -2.573,-3.607 -3.191,-4.136c-0.811,-0.722 -1.669,-1.539 -2.717,-1.876c-0.572,-0.192 -1.43,-0.336 -2.049,-0.192c-0.716,0.144 -0.381,0.144 -0.572,0.336c-0.334,0.288 -1.097,-0.096 -1.049,0.433c0.096,0.192 0.287,0.384 0.477,0.576l0,0.001Zm-10.008,37.078c-1.048,-0.721 -1.953,-1.442 -3.193,-1.73c-0.476,-0.096 -1.477,0.096 -1.714,-0.578c-0.288,-0.817 1.142,-0.673 1.714,-0.721c0.953,-0.096 1.382,0.048 1.001,-1.011c-0.192,-0.672 -1.097,-1.491 -1.764,-1.635c-0.857,-0.144 -1.763,0.24 -2.715,0.048c-1.145,-0.24 -2.002,-0.961 -3.003,-1.586c-0.81,-0.53 -2.621,-1.299 -2.192,0.384c0.143,0.673 1.096,1.444 1.525,1.876c2.811,2.693 6.624,4.087 10.341,4.953Zm-14.821,-11.108c-1.239,-2.454 -1.955,-5.003 -2.24,-7.745c0.143,0.578 0.62,2.743 1.286,2.839c0.954,0.144 2.049,-3.223 2.527,-3.944c2.62,-3.655 6.766,-0.913 8.672,1.972c1.67,2.548 2.336,8.464 -1.095,10.149c-1.62,0.768 -3.861,-0.386 -5.195,-1.301c-1.048,-0.768 -2.478,-2.356 -3.955,-1.972l0,0.002Zm-1.859,-9.283c0.476,1.876 1.097,1.01 1.62,-0.192c0.335,-0.77 0.525,-1.731 1.001,-2.453c0.477,-0.77 1.097,-0.962 1.858,-1.394c1.383,-0.771 2.669,-2.935 0.048,-3.079c-0.762,-0.048 -3.908,1.876 -3.955,0.963c-0.714,2.018 -1.048,4.134 -0.572,6.155Zm1.144,-7.694c1.954,-0.771 2.43,-1.828 3.241,-3.607c0.429,-0.915 2.573,-3.367 2.335,-4.138c-2.383,2.07 -4.482,4.763 -5.576,7.745Zm9.961,-9.811c-1.431,0.144 -0.478,-0.771 0.096,-1.059c1.522,-0.768 3.476,-1.154 5.096,-1.538c2.32,-0.52 4.726,-0.537 7.053,-0.048c0.572,0.096 3.765,0.576 4.051,1.299c0.143,0.384 -3.288,0.432 -3.527,0.432c-1.477,0 -2.859,0.096 -4.336,0.384c-2.86,0.531 -5.527,0.531 -8.435,0.531l0.002,-0.001Zm-2.003,8.896c-4.813,1.828 -3.716,-3.751 -1.858,-6.059c1.906,-2.356 4.718,-1.779 7.433,-1.393c2.528,0.336 4.767,-0.386 7.292,-0.674c2.622,-0.288 3.813,1.347 4.91,3.511c0.237,0.48 1.048,1.635 0.905,2.212c-0.239,0.768 -2.098,0.962 -2.669,1.106c-2.526,0.577 -5.289,1.106 -7.91,1.01c-2.765,-0.096 -5.386,-0.817 -8.103,0.288l0,-0.001Zm10.724,29.096c-0.715,-0.144 -4.29,-0.672 -4.29,-1.73c0,-1.155 4.48,0.384 5.147,0.48c2.43,0.481 4.909,-0.336 7.196,-1.058c1.669,-0.529 2.241,-0.865 3.67,-1.731c0.477,-0.288 0.905,-0.529 1.097,-0.433c0.046,0.048 -0.335,0.336 -0.764,0.672c-1.714,1.3 -3.526,2.166 -5.527,2.935c-2.05,0.721 -4.29,1.299 -6.529,0.865Zm-3.384,-4.328c-1.287,-1.731 -2.002,-5.915 1.239,-6.059c2.097,-0.096 4.003,1.443 5.004,3.174c0.667,1.154 1.048,2.501 1.953,3.462c0.762,0.818 1.954,0.866 0.62,1.491c-2.478,1.155 -7.196,0.144 -8.816,-2.068Zm21.92,-15.725c-0.619,1.635 -1.668,2.308 -2.86,3.319c-1.001,0.864 -0.809,2.26 -1.001,3.511c-0.365,2.813 -1.203,5.544 -2.477,8.079c0.238,0.961 2.812,-1.347 3.051,-1.683c0.953,-1.154 1.906,-2.357 2.668,-3.656c1.144,-2.019 2.001,-4.328 2.24,-6.684c0.047,-0.53 0.572,-6.638 -0.239,-6.734c-0.572,-0.048 -1.286,3.511 -1.382,3.848Zm-23.255,4.472c-2.336,-5.145 7.099,-2.693 9.339,-1.49c0.858,0.433 1.716,1.01 2.574,1.394c1.383,0.626 2.336,0.096 3.765,0.24c2.239,0.192 1.097,4.233 0.858,5.773c-0.334,1.923 -0.716,6.011 -3.24,5.963c-2.623,-0.048 -2.812,-2.742 -3.622,-4.568c-1.716,-3.945 -8.007,-3.657 -9.674,-7.31l0,-0.002Zm-4.433,-11.253c-3.098,0.866 -0.333,3.606 1.192,4.569c1.572,0.962 3.62,0.962 5.432,0.818c2.336,-0.24 3.955,-0.674 6.195,0.48c1.954,1.01 3.622,2.357 5.911,2.454c3.192,0.143 7.148,-0.962 8.291,-4.233c0.286,-0.818 0.382,-1.635 0.62,-2.452c0.143,-0.578 0.667,-1.011 0.809,-1.54c0.096,-0.336 -1.525,-4.375 -2.143,-4.135c0.046,0 0,0.768 -0.192,0.961c-0.237,0.24 -1.572,0.384 -1.906,0.433c-1.002,0.048 -1.907,0 -2.955,0.192c-2.478,0.432 -4.909,1.058 -7.386,1.587c-2.145,0.434 -4.48,1.203 -6.672,1.107c-1.764,-0.048 -5.004,-0.867 -7.196,-0.241Z" style="fill:#111;"/></svg>