<?xml version="1.0" encoding="UTF-8" standalone="no"?><!DOCTYPE svg PUBLIC "-//W3C//DTD SVG 1.1//EN" "http://www.w3.org/Graphics/SVG/1.1/DTD/svg11.dtd"><svg width="100%" height="100%" viewBox="0 0 240 48" version="1.1" xmlns="http://www.w3.org/2000/svg" xmlns:xlink="http://www.w3.org/1999/xlink" xml:space="preserve" xmlns:serif="http://www.serif.com/" style="fill-rule:evenodd;clip-rule:evenodd;stroke-linejoin:round;stroke-miterlimit:1.41421;"><path d="M101.375,25.889l0,-17.698l0.928,0c0.019,-0.002 0.038,-0.003 0.057,-0.003c0.251,0 0.463,0.193 0.484,0.442l0.163,2.669c0.779,-0.996 1.743,-1.833 2.841,-2.466c1.092,-0.629 2.335,-0.951 3.597,-0.932c0.887,-0.019 1.769,0.137 2.595,0.458c0.718,0.29 1.355,0.748 1.858,1.335c0.507,0.619 0.884,1.332 1.109,2.098c0.257,0.904 0.381,1.84 0.37,2.779l0,11.318l-1.696,0l0,-11.318c0,-1.657 -0.389,-2.966 -1.145,-3.907c-0.756,-0.941 -1.946,-1.406 -3.506,-1.406c-1.15,-0.007 -2.28,0.303 -3.263,0.897c-1.049,0.639 -1.962,1.477 -2.686,2.466l0,13.272l-1.706,-0.004Z" style="fill:#111;fill-rule:nonzero;"/><path d="M133.972,16.338c0.139,0.008 0.275,-0.045 0.37,-0.145c0.095,-0.163 0.136,-0.352 0.117,-0.539c0.017,-1.125 -0.164,-2.244 -0.536,-3.307c-0.314,-0.9 -0.811,-1.726 -1.459,-2.428c-0.625,-0.655 -1.385,-1.169 -2.228,-1.505c-0.887,-0.347 -1.833,-0.52 -2.787,-0.51c-1.16,-0.024 -2.313,0.195 -3.383,0.645c-0.964,0.416 -1.825,1.037 -2.523,1.818c-0.708,0.812 -1.245,1.757 -1.58,2.779c-0.373,1.134 -0.559,2.321 -0.551,3.514c-0.02,1.36 0.178,2.715 0.587,4.013c0.344,1.089 0.906,2.098 1.651,2.966c0.714,0.8 1.601,1.428 2.595,1.838c1.054,0.436 2.186,0.655 3.328,0.644c0.671,-0.002 1.342,-0.068 2.001,-0.196c0.632,-0.128 1.254,-0.305 1.858,-0.529c0.554,-0.207 1.083,-0.471 1.58,-0.79c0.425,-0.275 0.807,-0.611 1.135,-0.996l-0.47,-0.574c-0.077,-0.116 -0.21,-0.184 -0.35,-0.18c-0.217,0.043 -0.417,0.146 -0.578,0.296c-0.338,0.241 -0.693,0.457 -1.064,0.645c-0.529,0.278 -1.085,0.501 -1.66,0.664c-0.757,0.211 -1.54,0.311 -2.326,0.297c-0.934,0.015 -1.862,-0.162 -2.724,-0.519c-0.805,-0.341 -1.516,-0.87 -2.073,-1.541c-0.604,-0.748 -1.055,-1.607 -1.326,-2.527c-0.325,-1.143 -0.481,-2.327 -0.461,-3.514l0,-0.323l12.857,0.004Zm-12.147,-3.582c0.309,-0.718 0.749,-1.374 1.298,-1.934c0.537,-0.533 1.178,-0.951 1.884,-1.228c0.791,-0.291 1.629,-0.434 2.472,-0.423c0.763,-0.01 1.52,0.13 2.228,0.413c0.653,0.271 1.237,0.681 1.712,1.202c0.496,0.555 0.874,1.205 1.11,1.909c0.275,0.832 0.409,1.703 0.395,2.579l-11.747,0c0.089,-0.867 0.308,-1.715 0.648,-2.518Z" style="fill:#111;fill-rule:nonzero;"/><path d="M143.511,26.176c-1.21,0 -2.147,-0.322 -2.812,-1.002c-0.665,-0.68 -1.018,-1.686 -1.018,-3.076l0,-12.098l-2.563,0c-0.117,0.003 -0.232,-0.035 -0.324,-0.107c-0.083,-0.079 -0.126,-0.191 -0.117,-0.306l0,-0.645l3.039,-0.215l0.432,-6.338c0.009,-0.106 0.058,-0.205 0.136,-0.277c0.077,-0.088 0.191,-0.135 0.308,-0.126l0.811,0l0,6.77l5.598,0l0,1.263l-5.601,0l0,11.989c-0.01,0.426 0.054,0.85 0.188,1.254c0.107,0.32 0.282,0.613 0.512,0.861c0.218,0.223 0.483,0.394 0.775,0.503c0.313,0.11 0.642,0.164 0.973,0.161c0.378,0.004 0.754,-0.059 1.11,-0.187c0.279,-0.114 0.547,-0.252 0.801,-0.413c0.194,-0.126 0.38,-0.264 0.558,-0.412c0.084,-0.096 0.198,-0.16 0.324,-0.181c0.12,0.01 0.228,0.078 0.289,0.181l0.47,0.744c-0.484,0.52 -1.075,0.93 -1.732,1.203c-0.686,0.297 -1.425,0.453 -2.173,0.458l0.016,-0.004Z" style="fill:#111;fill-rule:nonzero;"/><path d="M149.291,8.191l1.297,0c0.149,-0.009 0.297,0.036 0.416,0.126c0.099,0.077 0.174,0.179 0.217,0.297l4.489,13.971c0.081,0.256 0.147,0.517 0.198,0.78c0.045,0.252 0.1,0.503 0.142,0.745c0.056,-0.242 0.127,-0.493 0.198,-0.745c0.072,-0.251 0.153,-0.509 0.253,-0.78l4.778,-14.097c0.046,-0.232 0.258,-0.398 0.496,-0.387l0.704,0c0.242,-0.013 0.461,0.151 0.512,0.387l4.707,14.097c0.172,0.505 0.316,1.02 0.431,1.541c0.046,-0.251 0.101,-0.503 0.153,-0.754c0.055,-0.269 0.131,-0.533 0.227,-0.79l4.508,-13.972c0.07,-0.267 0.327,-0.446 0.603,-0.422l1.252,0l-5.961,17.701l-1.252,0c-0.19,0 -0.326,-0.125 -0.406,-0.377l-4.868,-14.368c-0.063,-0.178 -0.117,-0.358 -0.162,-0.538c-0.052,-0.174 -0.094,-0.35 -0.127,-0.529c-0.035,0.181 -0.071,0.358 -0.117,0.529c-0.041,0.183 -0.095,0.363 -0.162,0.538l-4.94,14.375c-0.071,0.251 -0.217,0.377 -0.424,0.377l-1.2,0l-5.962,-17.705Z" style="fill:#111;fill-rule:nonzero;"/><path d="M192.539,13.262c-0.324,-1.054 -0.864,-2.031 -1.586,-2.869c-0.695,-0.8 -1.564,-1.432 -2.542,-1.847c-2.206,-0.859 -4.658,-0.859 -6.864,0c-0.984,0.415 -1.86,1.046 -2.562,1.847c-0.722,0.838 -1.262,1.815 -1.586,2.869c-0.734,2.454 -0.734,5.067 0,7.521c0.328,1.053 0.868,2.029 1.586,2.869c0.703,0.795 1.58,1.42 2.562,1.828c2.206,0.859 4.658,0.859 6.864,0c0.976,-0.408 1.846,-1.034 2.542,-1.828c0.719,-0.84 1.258,-1.816 1.586,-2.869c0.722,-2.455 0.722,-5.065 0,-7.521Zm-1.605,6.973c-0.226,0.887 -0.631,1.72 -1.19,2.447c-0.523,0.674 -1.205,1.21 -1.985,1.56c-1.781,0.728 -3.782,0.728 -5.563,0c-0.781,-0.352 -1.464,-0.888 -1.991,-1.56c-0.559,-0.729 -0.967,-1.561 -1.201,-2.447c-0.541,-2.102 -0.541,-4.306 0,-6.409c0.235,-0.891 0.643,-1.729 1.201,-2.466c0.524,-0.679 1.208,-1.22 1.991,-1.576c1.781,-0.728 3.782,-0.728 5.563,0c0.782,0.354 1.465,0.895 1.985,1.576c0.557,0.735 0.962,1.574 1.19,2.466c0.529,2.104 0.529,4.305 0,6.409Z" style="fill:#111;fill-rule:nonzero;"/><path d="M197.56,25.889l0,-17.698l0.909,0c0.156,-0.015 0.313,0.026 0.441,0.116c0.098,0.122 0.148,0.274 0.142,0.429l0.143,3.736c0.48,-1.292 1.266,-2.45 2.29,-3.378c0.99,-0.818 2.248,-1.248 3.535,-1.209c0.498,-0.004 0.994,0.05 1.479,0.161c0.451,0.112 0.887,0.277 1.298,0.494l-0.234,1.173c-0.018,0.173 -0.175,0.302 -0.35,0.287c-0.106,-0.009 -0.209,-0.033 -0.308,-0.071l-0.487,-0.161c-0.199,-0.054 -0.442,-0.108 -0.729,-0.161c-0.322,-0.049 -0.648,-0.073 -0.973,-0.071c-1.229,-0.043 -2.425,0.405 -3.319,1.244c-0.864,0.834 -1.568,2.032 -2.111,3.594l0,11.515l-1.726,0Z" style="fill:#111;fill-rule:nonzero;"/><path d="M213.664,0l0,15.796l0.831,0c0.161,0.003 0.323,-0.021 0.476,-0.071c0.184,-0.072 0.35,-0.181 0.487,-0.322l7.136,-6.747c0.126,-0.119 0.261,-0.226 0.405,-0.323c0.16,-0.085 0.341,-0.125 0.522,-0.116l1.505,0l-7.852,7.415c-0.127,0.125 -0.234,0.225 -0.344,0.322c-0.108,0.102 -0.229,0.19 -0.36,0.261c0.181,0.086 0.345,0.201 0.486,0.342c0.127,0.126 0.263,0.267 0.406,0.422l8.261,8.936l-1.489,0c-0.156,0.001 -0.31,-0.033 -0.451,-0.1c-0.147,-0.087 -0.281,-0.195 -0.395,-0.322l-7.46,-7.969c-0.156,-0.181 -0.346,-0.33 -0.558,-0.438c-0.251,-0.093 -0.518,-0.133 -0.785,-0.117l-0.811,0l0,8.937l-1.713,0l0,-25.906l1.703,0Z" style="fill:#111;fill-rule:nonzero;"/><path d="M239.194,10.377c-0.066,0.153 -0.222,0.25 -0.39,0.242c-0.189,-0.024 -0.367,-0.102 -0.512,-0.226c-0.263,-0.181 -0.537,-0.346 -0.821,-0.493c-0.399,-0.209 -0.818,-0.378 -1.252,-0.503c-0.594,-0.156 -1.208,-0.229 -1.822,-0.216c-0.597,-0.007 -1.191,0.083 -1.758,0.268c-0.495,0.165 -0.957,0.418 -1.363,0.744c-0.364,0.294 -0.662,0.661 -0.875,1.077c-0.21,0.398 -0.321,0.84 -0.325,1.289c-0.019,0.499 0.133,0.989 0.432,1.39c0.306,0.388 0.69,0.709 1.128,0.941c0.504,0.279 1.036,0.505 1.586,0.674c0.587,0.197 1.191,0.387 1.814,0.574c0.622,0.187 1.226,0.393 1.822,0.628c0.563,0.22 1.094,0.512 1.58,0.871c0.463,0.336 0.848,0.767 1.129,1.263c0.303,0.555 0.452,1.181 0.431,1.812c0.009,0.738 -0.136,1.47 -0.425,2.15c-0.273,0.659 -0.688,1.25 -1.216,1.731c-0.566,0.509 -1.227,0.903 -1.946,1.158c-0.851,0.299 -1.748,0.444 -2.65,0.429c-1.111,0.026 -2.216,-0.179 -3.244,-0.6c-0.891,-0.386 -1.714,-0.913 -2.435,-1.56l0.405,-0.6c0.049,-0.086 0.117,-0.159 0.198,-0.216c0.094,-0.052 0.201,-0.077 0.308,-0.071c0.216,0.031 0.415,0.132 0.568,0.287c0.281,0.225 0.579,0.429 0.891,0.609c0.431,0.255 0.887,0.463 1.363,0.619c0.649,0.207 1.329,0.303 2.011,0.287c0.675,0.009 1.347,-0.101 1.985,-0.322c0.528,-0.185 1.015,-0.471 1.433,-0.842c0.38,-0.354 0.678,-0.785 0.876,-1.263c0.192,-0.483 0.29,-0.997 0.289,-1.515c0.016,-0.523 -0.136,-1.037 -0.435,-1.467c-0.298,-0.41 -0.684,-0.75 -1.129,-0.996c-0.498,-0.29 -1.028,-0.522 -1.579,-0.69c-0.594,-0.197 -1.2,-0.387 -1.83,-0.574c-0.629,-0.187 -1.235,-0.4 -1.819,-0.641c-0.567,-0.208 -1.101,-0.495 -1.586,-0.852c-0.46,-0.334 -0.845,-0.762 -1.129,-1.254c-0.306,-0.563 -0.455,-1.197 -0.431,-1.837c-0.001,-0.629 0.141,-1.251 0.415,-1.818c0.277,-0.585 0.676,-1.105 1.171,-1.525c0.547,-0.46 1.173,-0.818 1.849,-1.057c0.788,-0.268 1.618,-0.399 2.452,-0.387c0.984,-0.017 1.963,0.138 2.893,0.458c0.857,0.321 1.644,0.805 2.316,1.424l-0.373,0.6Z" style="fill:#111;fill-rule:nonzero;"/><path d="M147.618,35.283l-0.007,0l0.016,0l-0.009,0c0.164,-0.001 0.328,0.02 0.486,0.065c0.146,0.04 0.285,0.102 0.412,0.183l1.038,0l0,0.133c0,0.064 -0.036,0.103 -0.117,0.109l-0.61,0.045c0.074,0.107 0.133,0.223 0.175,0.345c0.039,0.136 0.058,0.276 0.059,0.416c0.003,0.181 -0.035,0.361 -0.111,0.526c-0.064,0.157 -0.165,0.297 -0.295,0.409c-0.135,0.115 -0.29,0.205 -0.457,0.264c-0.191,0.061 -0.39,0.091 -0.59,0.087c-0.221,0.007 -0.441,-0.028 -0.649,-0.103c-0.108,0.056 -0.201,0.137 -0.273,0.236c-0.059,0.072 -0.093,0.161 -0.097,0.254c-0.005,0.106 0.043,0.207 0.127,0.271c0.097,0.067 0.208,0.112 0.324,0.132c0.15,0.033 0.304,0.052 0.457,0.058l0.529,0.023c0.175,0 0.354,0.029 0.529,0.051c0.158,0.022 0.312,0.067 0.457,0.133c0.13,0.053 0.242,0.141 0.324,0.254c0.089,0.129 0.133,0.283 0.127,0.439c-0.004,0.168 -0.047,0.334 -0.127,0.483c-0.094,0.16 -0.22,0.299 -0.369,0.41c-0.175,0.125 -0.369,0.222 -0.574,0.286c-0.249,0.071 -0.507,0.106 -0.766,0.104c-0.246,-0.001 -0.491,-0.032 -0.73,-0.094c-0.191,-0.047 -0.374,-0.127 -0.538,-0.235c-0.135,-0.087 -0.247,-0.205 -0.324,-0.345c-0.07,-0.118 -0.108,-0.251 -0.111,-0.387c-0.002,-0.206 0.074,-0.406 0.214,-0.558c0.16,-0.164 0.36,-0.285 0.581,-0.351c-0.123,-0.043 -0.234,-0.114 -0.324,-0.206c-0.084,-0.1 -0.126,-0.228 -0.117,-0.358c-0.001,-0.063 0.009,-0.125 0.029,-0.184c0.026,-0.066 0.061,-0.127 0.104,-0.184c0.044,-0.062 0.096,-0.119 0.155,-0.167c0.065,-0.059 0.137,-0.107 0.215,-0.145c-0.187,-0.106 -0.342,-0.26 -0.448,-0.445c-0.113,-0.196 -0.169,-0.419 -0.162,-0.645c-0.002,-0.183 0.034,-0.365 0.104,-0.535c0.067,-0.158 0.169,-0.299 0.298,-0.413c0.131,-0.12 0.287,-0.21 0.457,-0.264c0.189,-0.066 0.388,-0.098 0.588,-0.097Zm44.785,5.545l0,-5.48l0.227,0c0.031,-0.002 0.062,0.006 0.088,0.022c0.022,0.022 0.034,0.05 0.036,0.081l0.035,0.645c0.167,-0.236 0.38,-0.435 0.626,-0.587c0.249,-0.142 0.531,-0.215 0.818,-0.213c0.448,-0.025 0.882,0.166 1.164,0.513c0.312,0.455 0.459,1.001 0.418,1.55c0.004,0.281 -0.035,0.56 -0.116,0.829c-0.065,0.241 -0.175,0.467 -0.325,0.667c-0.31,0.395 -0.793,0.62 -1.297,0.606c-0.249,0.007 -0.496,-0.047 -0.72,-0.155c-0.209,-0.102 -0.389,-0.255 -0.522,-0.445l0,1.977l-0.432,-0.01Zm-43.284,-1.161c0.012,-0.116 -0.023,-0.232 -0.097,-0.322c-0.074,-0.083 -0.167,-0.147 -0.273,-0.184c-0.122,-0.047 -0.251,-0.076 -0.382,-0.087c-0.152,-0.022 -0.305,-0.037 -0.458,-0.045l-0.486,-0.022c-0.151,-0.006 -0.3,-0.023 -0.448,-0.052c-0.099,0.04 -0.195,0.087 -0.289,0.139c-0.081,0.053 -0.157,0.115 -0.227,0.183c-0.059,0.066 -0.108,0.14 -0.146,0.22c-0.032,0.084 -0.05,0.173 -0.051,0.264c0.003,0.114 0.036,0.225 0.097,0.322c0.065,0.109 0.156,0.2 0.266,0.265c0.136,0.078 0.282,0.136 0.434,0.174c0.388,0.087 0.79,0.087 1.178,0c0.163,-0.045 0.318,-0.111 0.464,-0.197c0.13,-0.073 0.242,-0.175 0.324,-0.3c0.073,-0.113 0.111,-0.245 0.11,-0.38l-0.016,0.022Zm60.095,-3.804c-0.017,0.033 -0.051,0.053 -0.087,0.052c-0.044,-0.004 -0.085,-0.022 -0.117,-0.052c-0.046,-0.029 -0.11,-0.064 -0.191,-0.109c-0.089,-0.048 -0.183,-0.087 -0.279,-0.116c-0.137,-0.034 -0.278,-0.052 -0.419,-0.052c-0.136,-0.002 -0.271,0.019 -0.399,0.065c-0.117,0.035 -0.227,0.092 -0.324,0.167c-0.08,0.071 -0.147,0.155 -0.198,0.249c-0.047,0.09 -0.073,0.191 -0.075,0.293c-0.004,0.116 0.032,0.23 0.104,0.322c0.07,0.09 0.157,0.164 0.256,0.219c0.115,0.063 0.236,0.115 0.36,0.155c0.133,0.045 0.273,0.081 0.412,0.126c0.14,0.045 0.279,0.097 0.419,0.145c0.128,0.049 0.249,0.116 0.36,0.197c0.102,0.079 0.189,0.176 0.256,0.287c0.065,0.129 0.098,0.271 0.097,0.415c0.002,0.169 -0.031,0.335 -0.097,0.49c-0.061,0.152 -0.157,0.288 -0.279,0.397c-0.13,0.116 -0.282,0.206 -0.447,0.264c-0.194,0.068 -0.398,0.101 -0.604,0.097c-0.252,0.006 -0.502,-0.039 -0.736,-0.132c-0.204,-0.091 -0.393,-0.211 -0.561,-0.358l0.097,-0.139c0.011,-0.018 0.027,-0.034 0.046,-0.045c0.018,-0.011 0.035,0 0.074,0c0.048,0.004 0.093,0.025 0.127,0.058c0.064,0.053 0.134,0.1 0.207,0.139c0.102,0.061 0.211,0.109 0.325,0.145c0.147,0.047 0.302,0.068 0.457,0.064c0.155,0.001 0.31,-0.024 0.457,-0.074c0.12,-0.04 0.231,-0.105 0.325,-0.19c0.085,-0.083 0.153,-0.183 0.197,-0.293c0.051,-0.108 0.077,-0.226 0.075,-0.345c0.001,-0.116 -0.035,-0.229 -0.104,-0.323c-0.067,-0.093 -0.155,-0.17 -0.256,-0.225c-0.112,-0.07 -0.233,-0.124 -0.36,-0.161l-0.412,-0.133c-0.146,-0.045 -0.289,-0.087 -0.418,-0.138c-0.129,-0.048 -0.251,-0.114 -0.36,-0.197c-0.106,-0.075 -0.194,-0.173 -0.257,-0.287c-0.072,-0.126 -0.108,-0.27 -0.103,-0.416c0.002,-0.143 0.035,-0.285 0.097,-0.415c0.067,-0.134 0.159,-0.254 0.272,-0.352c0.124,-0.104 0.266,-0.184 0.419,-0.235c0.179,-0.067 0.369,-0.1 0.561,-0.097c0.221,-0.002 0.441,0.035 0.649,0.11c0.196,0.07 0.376,0.18 0.528,0.322l-0.094,0.106Zm6.4,0c-0.015,0.035 -0.051,0.056 -0.088,0.052c-0.043,-0.005 -0.084,-0.023 -0.117,-0.052l-0.185,-0.109c-0.092,-0.047 -0.189,-0.086 -0.288,-0.116c-0.135,-0.035 -0.273,-0.052 -0.412,-0.052c-0.138,-0.002 -0.275,0.02 -0.406,0.065c-0.117,0.036 -0.227,0.093 -0.324,0.167c-0.084,0.067 -0.152,0.152 -0.198,0.249c-0.05,0.089 -0.076,0.19 -0.074,0.293c-0.007,0.115 0.027,0.23 0.097,0.322c0.071,0.088 0.158,0.162 0.256,0.219c0.115,0.062 0.236,0.114 0.36,0.155l0.419,0.126c0.139,0.045 0.278,0.097 0.411,0.145c0.129,0.048 0.251,0.114 0.36,0.197c0.105,0.077 0.192,0.175 0.257,0.287c0.068,0.128 0.101,0.271 0.097,0.415c0.002,0.169 -0.031,0.335 -0.097,0.49c-0.059,0.152 -0.153,0.287 -0.273,0.397c-0.131,0.115 -0.283,0.204 -0.447,0.264c-0.194,0.068 -0.398,0.101 -0.604,0.097c-0.254,0.006 -0.506,-0.039 -0.742,-0.132c-0.201,-0.091 -0.387,-0.212 -0.552,-0.358l0.088,-0.139c0.011,-0.02 0.03,-0.036 0.052,-0.045c0.022,-0.008 0.035,0 0.065,0c0.05,0.003 0.097,0.023 0.133,0.058c0.06,0.053 0.127,0.1 0.197,0.139c0.103,0.059 0.212,0.107 0.325,0.145c0.147,0.048 0.302,0.07 0.457,0.064c0.152,0.001 0.304,-0.024 0.448,-0.074c0.119,-0.043 0.229,-0.107 0.324,-0.19c0.086,-0.083 0.153,-0.183 0.198,-0.293c0.044,-0.11 0.066,-0.227 0.065,-0.345c0.003,-0.115 -0.031,-0.228 -0.098,-0.323c-0.069,-0.091 -0.156,-0.168 -0.256,-0.225c-0.113,-0.067 -0.234,-0.121 -0.36,-0.161l-0.418,-0.133c-0.14,-0.045 -0.279,-0.087 -0.419,-0.138c-0.128,-0.05 -0.249,-0.116 -0.36,-0.197c-0.104,-0.078 -0.191,-0.175 -0.256,-0.287c-0.07,-0.127 -0.103,-0.271 -0.097,-0.416c-0.001,-0.144 0.032,-0.286 0.097,-0.415c0.062,-0.136 0.152,-0.256 0.266,-0.352c0.125,-0.101 0.267,-0.18 0.418,-0.235c0.182,-0.068 0.374,-0.101 0.568,-0.097c0.221,-0.003 0.441,0.034 0.649,0.11c0.196,0.07 0.376,0.18 0.528,0.322l-0.064,0.106Zm-59.528,-0.096c-0.027,0.001 -0.053,-0.007 -0.075,-0.023c-0.02,-0.019 -0.031,-0.046 -0.029,-0.074l0,-0.145l0.691,-0.052l0.104,-1.447c0,0 0,0 0,-0.001c0,-0.047 0.039,-0.087 0.088,-0.087c0.003,0 0.006,0.001 0.009,0.001l0.185,0l0,1.544l1.281,0l0,0.287l-1.281,0l0,2.743c0.002,0.098 0.017,0.194 0.046,0.287c0.026,0.072 0.066,0.139 0.116,0.197c0.051,0.052 0.115,0.089 0.185,0.109c0.071,0.024 0.146,0.036 0.221,0.036c0.085,0.001 0.17,-0.014 0.249,-0.045c0.066,-0.025 0.128,-0.057 0.185,-0.097c0.046,-0.024 0.089,-0.053 0.127,-0.087c0.036,-0.029 0.058,-0.045 0.081,-0.045c0.028,0.004 0.052,0.021 0.065,0.045l0.104,0.168c-0.112,0.118 -0.248,0.21 -0.399,0.27c-0.153,0.07 -0.32,0.105 -0.488,0.104l0.001,0l-0.006,0l0.005,0c-0.238,0.017 -0.472,-0.065 -0.648,-0.226c-0.172,-0.192 -0.258,-0.446 -0.236,-0.703l0,-2.759l-0.581,0Zm-32.032,3.626c-0.072,0.005 -0.135,-0.046 -0.146,-0.116l-0.059,-0.512c-0.102,0.101 -0.211,0.197 -0.324,0.287c-0.108,0.085 -0.224,0.158 -0.347,0.219c-0.122,0.065 -0.253,0.112 -0.389,0.139c-0.151,0.031 -0.304,0.046 -0.458,0.045c-0.137,0.002 -0.274,-0.017 -0.405,-0.058c-0.127,-0.038 -0.245,-0.1 -0.347,-0.184c-0.104,-0.088 -0.188,-0.198 -0.244,-0.323c-0.065,-0.147 -0.098,-0.306 -0.097,-0.467c0,-0.17 0.05,-0.336 0.146,-0.477c0.12,-0.163 0.28,-0.294 0.464,-0.38c0.253,-0.126 0.523,-0.215 0.801,-0.265c0.391,-0.071 0.787,-0.108 1.184,-0.109l0,-0.426c0.021,-0.307 -0.065,-0.612 -0.243,-0.864c-0.178,-0.208 -0.446,-0.32 -0.72,-0.3c-0.171,-0.006 -0.34,0.021 -0.5,0.081c-0.125,0.043 -0.243,0.102 -0.353,0.174c-0.081,0.054 -0.157,0.116 -0.227,0.184c-0.041,0.044 -0.096,0.072 -0.156,0.08c-0.05,0 -0.096,-0.029 -0.117,-0.074l-0.074,-0.116c0.193,-0.199 0.42,-0.362 0.671,-0.483c0.25,-0.112 0.521,-0.167 0.795,-0.162c0.196,-0.006 0.392,0.029 0.574,0.104c0.157,0.063 0.296,0.163 0.405,0.293c0.114,0.137 0.197,0.296 0.243,0.467c0.059,0.2 0.087,0.408 0.081,0.616l0,2.634l-0.158,-0.007Zm3.927,-3.629c-0.026,0.001 -0.053,-0.007 -0.074,-0.023c-0.021,-0.019 -0.031,-0.046 -0.029,-0.074l0,-0.145l0.69,-0.052l0.104,-1.447c0.004,-0.024 0.014,-0.046 0.029,-0.065c0.021,-0.017 0.048,-0.025 0.075,-0.022l0.185,0l0,1.544l1.275,0l0,0.287l-1.275,0l0,2.743c-0.001,0.097 0.011,0.193 0.036,0.287c0.027,0.074 0.07,0.141 0.126,0.197c0.047,0.052 0.107,0.09 0.175,0.109c0.071,0.024 0.146,0.036 0.221,0.036c0.085,0.001 0.17,-0.014 0.25,-0.045c0.065,-0.025 0.127,-0.058 0.184,-0.097c0.046,-0.024 0.089,-0.053 0.127,-0.087c0.036,-0.029 0.058,-0.045 0.081,-0.045c0.028,0.004 0.052,0.02 0.065,0.045l0.104,0.167c-0.11,0.116 -0.242,0.209 -0.39,0.271c-0.155,0.069 -0.323,0.104 -0.493,0.103l0,0l-0.006,0l0.006,0c-0.238,0.018 -0.473,-0.064 -0.648,-0.225c-0.173,-0.192 -0.259,-0.446 -0.237,-0.703l0,-2.759l-0.581,0Zm96.669,3.633l0,-5.916l0.389,0l0,2.579c0.169,-0.227 0.382,-0.419 0.626,-0.564c0.243,-0.142 0.52,-0.215 0.801,-0.213c0.451,-0.021 0.886,0.172 1.171,0.519c0.307,0.455 0.452,0.998 0.412,1.544c0.002,0.28 -0.035,0.559 -0.11,0.829c-0.072,0.242 -0.19,0.469 -0.347,0.667c-0.315,0.401 -0.806,0.627 -1.317,0.606c-0.254,0.006 -0.505,-0.052 -0.73,-0.167c-0.211,-0.117 -0.39,-0.283 -0.522,-0.484l-0.029,0.496c0,0.001 0,0.001 0,0.001c0,0.056 -0.047,0.103 -0.104,0.103c-0.002,0 -0.004,0 -0.007,0l-0.233,0Zm-55.006,-2.192l0,0.074c-0.007,0.269 0.028,0.537 0.104,0.796c0.06,0.211 0.162,0.407 0.301,0.577c0.126,0.158 0.292,0.279 0.48,0.351c0.196,0.085 0.407,0.128 0.62,0.126c0.179,0.001 0.357,-0.024 0.528,-0.074c0.13,-0.036 0.256,-0.085 0.377,-0.145c0.084,-0.047 0.165,-0.099 0.243,-0.155c0.038,-0.032 0.084,-0.054 0.133,-0.064c0.034,-0.003 0.066,0.015 0.081,0.045l0.11,0.132c-0.075,0.086 -0.161,0.162 -0.256,0.226c-0.115,0.068 -0.235,0.126 -0.36,0.174c-0.281,0.11 -0.58,0.167 -0.882,0.167c-0.26,0.003 -0.518,-0.046 -0.759,-0.145c-0.226,-0.092 -0.428,-0.234 -0.59,-0.416c-0.17,-0.199 -0.298,-0.431 -0.377,-0.68c-0.095,-0.296 -0.142,-0.605 -0.139,-0.915c-0.001,-0.274 0.041,-0.546 0.126,-0.806c0.078,-0.236 0.2,-0.455 0.36,-0.645c0.163,-0.177 0.361,-0.318 0.581,-0.416c0.243,-0.107 0.506,-0.16 0.772,-0.155l-0.013,0.026c0.223,-0.003 0.443,0.04 0.649,0.126c0.191,0.069 0.365,0.179 0.509,0.322c0.143,0.164 0.253,0.353 0.324,0.558c0.086,0.242 0.129,0.497 0.127,0.754c0,0.065 0,0.103 -0.03,0.126c-0.019,0.025 -0.049,0.038 -0.081,0.036l-2.938,0Zm67.244,-0.004l0,0.074c-0.007,0.27 0.028,0.538 0.103,0.797c0.06,0.21 0.163,0.407 0.302,0.577c0.124,0.155 0.286,0.276 0.47,0.351c0.198,0.084 0.411,0.127 0.626,0.126c0.179,0.001 0.357,-0.024 0.529,-0.074c0.13,-0.037 0.256,-0.085 0.376,-0.145c0.084,-0.047 0.166,-0.099 0.243,-0.155c0.038,-0.034 0.084,-0.056 0.133,-0.065c0.034,-0.002 0.066,0.016 0.082,0.046l0.11,0.132c-0.077,0.088 -0.167,0.164 -0.266,0.225c-0.112,0.07 -0.23,0.128 -0.354,0.174c-0.139,0.054 -0.282,0.097 -0.428,0.126c-0.15,0.03 -0.304,0.045 -0.457,0.045c-0.26,0.003 -0.518,-0.046 -0.759,-0.145c-0.226,-0.092 -0.428,-0.234 -0.59,-0.416c-0.17,-0.199 -0.298,-0.431 -0.377,-0.68c-0.099,-0.295 -0.146,-0.604 -0.139,-0.915c-0.001,-0.274 0.041,-0.546 0.126,-0.806c0.078,-0.236 0.2,-0.455 0.36,-0.645c0.163,-0.177 0.361,-0.318 0.581,-0.416c0.243,-0.107 0.506,-0.16 0.772,-0.155l-0.003,0.023c0.222,-0.003 0.443,0.04 0.648,0.126c0.191,0.071 0.364,0.181 0.51,0.322c0.143,0.163 0.253,0.353 0.324,0.558c0.086,0.242 0.129,0.497 0.126,0.754c0.004,0.044 -0.006,0.088 -0.029,0.126c-0.019,0.024 -0.05,0.038 -0.081,0.035l-2.938,0Zm-122.393,0l0,0.074c-0.007,0.27 0.029,0.538 0.104,0.797c0.06,0.21 0.162,0.407 0.301,0.577c0.124,0.155 0.286,0.276 0.471,0.351c0.198,0.084 0.411,0.127 0.626,0.126c0.179,0.001 0.357,-0.024 0.528,-0.074c0.13,-0.037 0.256,-0.085 0.377,-0.145c0.084,-0.047 0.165,-0.099 0.243,-0.155c0.038,-0.032 0.084,-0.055 0.133,-0.065c0.034,-0.002 0.066,0.016 0.081,0.046l0.11,0.132c-0.075,0.086 -0.161,0.161 -0.256,0.225c-0.115,0.068 -0.235,0.127 -0.36,0.174c-0.139,0.054 -0.282,0.097 -0.428,0.126c-0.151,0.03 -0.304,0.045 -0.457,0.045c-0.261,0.003 -0.519,-0.046 -0.759,-0.145c-0.227,-0.092 -0.429,-0.234 -0.591,-0.416c-0.169,-0.199 -0.297,-0.431 -0.376,-0.68c-0.095,-0.296 -0.143,-0.605 -0.139,-0.915c-0.002,-0.274 0.041,-0.546 0.126,-0.806c0.078,-0.236 0.2,-0.455 0.36,-0.645c0.163,-0.177 0.361,-0.318 0.581,-0.416c0.242,-0.107 0.506,-0.16 0.772,-0.155l0.003,0.023c0.222,-0.003 0.443,0.04 0.649,0.126c0.19,0.071 0.363,0.181 0.509,0.322c0.143,0.163 0.253,0.353 0.324,0.558c0.086,0.242 0.129,0.497 0.127,0.754c0,0.065 0,0.103 -0.03,0.126c-0.019,0.024 -0.049,0.038 -0.081,0.035l-2.948,0Zm-10.146,-1.312c0,0 -0.029,0.023 -0.035,0.036c-0.017,0.004 -0.035,0.004 -0.052,0c-0.042,-0.008 -0.081,-0.028 -0.11,-0.058c-0.052,-0.036 -0.117,-0.074 -0.192,-0.116c-0.094,-0.052 -0.193,-0.094 -0.295,-0.126c-0.352,-0.088 -0.724,-0.062 -1.061,0.074c-0.179,0.08 -0.336,0.203 -0.457,0.358c-0.132,0.164 -0.227,0.354 -0.279,0.558c-0.07,0.239 -0.105,0.488 -0.104,0.738c-0.002,0.255 0.033,0.509 0.104,0.754c0.057,0.202 0.151,0.391 0.279,0.558c0.12,0.148 0.273,0.267 0.448,0.345c0.182,0.08 0.381,0.12 0.58,0.116c0.167,0.004 0.333,-0.018 0.493,-0.065c0.114,-0.039 0.222,-0.091 0.325,-0.154c0.073,-0.042 0.143,-0.091 0.207,-0.145c0.052,-0.052 0.088,-0.075 0.117,-0.075c0.034,-0.002 0.066,0.016 0.081,0.046l0.11,0.132c-0.072,0.084 -0.153,0.16 -0.243,0.225c-0.101,0.074 -0.209,0.135 -0.324,0.184c-0.126,0.051 -0.256,0.09 -0.389,0.116c-0.146,0.03 -0.293,0.045 -0.442,0.045c-0.242,0.001 -0.483,-0.046 -0.707,-0.138c-0.211,-0.095 -0.399,-0.235 -0.551,-0.41c-0.161,-0.19 -0.283,-0.409 -0.36,-0.644c-0.093,-0.283 -0.138,-0.58 -0.133,-0.877c-0.002,-0.286 0.041,-0.569 0.126,-0.842c0.074,-0.237 0.197,-0.457 0.36,-0.644c0.157,-0.185 0.353,-0.333 0.575,-0.432c0.246,-0.107 0.513,-0.16 0.781,-0.155c0.242,-0.004 0.483,0.041 0.707,0.132c0.198,0.074 0.38,0.184 0.539,0.322l-0.098,0.142Zm96.86,-0.609c0.271,-0.005 0.54,0.048 0.788,0.155c0.224,0.092 0.422,0.234 0.581,0.416c0.161,0.189 0.283,0.408 0.36,0.644c0.167,0.559 0.167,1.154 0,1.712c-0.077,0.236 -0.199,0.455 -0.36,0.645c-0.163,0.177 -0.36,0.318 -0.581,0.416c-0.504,0.195 -1.065,0.195 -1.569,0c-0.22,-0.098 -0.418,-0.24 -0.581,-0.416c-0.164,-0.188 -0.286,-0.408 -0.36,-0.645c-0.176,-0.557 -0.176,-1.155 0,-1.712c0.074,-0.237 0.196,-0.457 0.36,-0.644c0.159,-0.182 0.358,-0.324 0.581,-0.416c0.246,-0.106 0.513,-0.158 0.781,-0.155Zm-35.762,4.117l-0.386,0l0,-2.579c0.018,-0.318 -0.072,-0.633 -0.256,-0.893c-0.202,-0.226 -0.499,-0.345 -0.802,-0.323c-0.262,-0.001 -0.519,0.07 -0.742,0.207c-0.241,0.143 -0.449,0.336 -0.61,0.564l0,3.03l-0.409,-0.006l0,-5.916l0.389,0l0,2.563c0.178,-0.226 0.398,-0.416 0.649,-0.558c0.248,-0.136 0.527,-0.207 0.811,-0.206c0.202,-0.005 0.403,0.033 0.59,0.11c0.167,0.06 0.315,0.164 0.428,0.299c0.114,0.144 0.199,0.308 0.25,0.484c0.063,0.209 0.092,0.427 0.088,0.645l0,2.579Zm-23.285,0l-0.389,0l0,-2.579c0.019,-0.32 -0.075,-0.636 -0.266,-0.893c-0.197,-0.229 -0.493,-0.35 -0.795,-0.323c-0.262,-0.002 -0.52,0.069 -0.743,0.207c-0.242,0.145 -0.453,0.337 -0.619,0.564l0,3.03l-0.383,-0.006l0,-4.049l0.214,0c0.002,0 0.005,-0.001 0.007,-0.001c0.058,0 0.107,0.046 0.11,0.104l0.036,0.606c0.181,-0.224 0.401,-0.415 0.648,-0.564c0.252,-0.141 0.536,-0.215 0.824,-0.213c0.202,-0.004 0.403,0.033 0.59,0.11c0.165,0.064 0.312,0.167 0.429,0.299c0.113,0.144 0.198,0.308 0.249,0.484c0.063,0.209 0.092,0.427 0.088,0.645l0,2.579Zm43.667,-0.039l-0.389,0l0,-2.579c0.018,-0.319 -0.065,-0.636 -0.237,-0.906c-0.163,-0.214 -0.422,-0.335 -0.691,-0.322c-0.219,-0.003 -0.432,0.063 -0.61,0.19c-0.202,0.147 -0.372,0.333 -0.499,0.548l0,3.059l-0.386,0.052l0,-4.052l0.207,0c0.002,0 0.005,-0.001 0.007,-0.001c0.058,0 0.107,0.046 0.11,0.104l0.036,0.587c0.079,-0.113 0.164,-0.22 0.256,-0.323c0.087,-0.088 0.184,-0.167 0.289,-0.235c0.101,-0.065 0.21,-0.117 0.324,-0.155c0.12,-0.038 0.244,-0.057 0.37,-0.058c0.264,-0.012 0.521,0.084 0.713,0.264c0.191,0.196 0.315,0.446 0.354,0.716c0.047,-0.156 0.119,-0.304 0.214,-0.438c0.083,-0.116 0.185,-0.217 0.302,-0.3c0.114,-0.082 0.241,-0.144 0.376,-0.184c0.134,-0.038 0.272,-0.057 0.412,-0.058c0.186,-0.001 0.371,0.034 0.545,0.103c0.157,0.067 0.297,0.167 0.411,0.294c0.117,0.142 0.205,0.307 0.257,0.483c0.061,0.21 0.091,0.427 0.087,0.645l0,2.579l-0.389,0l0,-2.579c0.021,-0.322 -0.069,-0.642 -0.256,-0.906c-0.182,-0.215 -0.454,-0.334 -0.736,-0.322c-0.139,-0.002 -0.277,0.023 -0.406,0.074c-0.129,0.052 -0.247,0.129 -0.347,0.225c-0.101,0.112 -0.182,0.241 -0.237,0.381c-0.062,0.171 -0.091,0.353 -0.087,0.535l0,2.579Zm-7.139,0.039l-0.383,0l0,-4.049l0.383,0.003l0,4.046Zm-44.053,-0.004l-0.389,0l0,-4.045l0.389,0l0,4.045Zm85.647,0l-0.389,0l0,-4.045l0.389,0l0,4.045Zm12.183,0l-0.39,0l0,-5.912l0.39,0l0,5.912Zm-124.187,0l0,-4.045l0.198,0c0.037,-0.002 0.074,0.008 0.104,0.029c0.023,0.029 0.036,0.065 0.036,0.103l0.029,0.848c0.109,-0.294 0.288,-0.558 0.522,-0.768c0.226,-0.19 0.515,-0.289 0.811,-0.277c0.109,0.001 0.218,0.013 0.324,0.036c0.102,0.028 0.2,0.065 0.296,0.109l-0.059,0.271c-0.003,0.037 -0.034,0.065 -0.071,0.065c-0.003,0 -0.007,0 -0.01,0c-0.021,0.001 -0.043,0.001 -0.065,0c-0.036,-0.014 -0.073,-0.026 -0.11,-0.036c-0.055,-0.017 -0.111,-0.029 -0.169,-0.035c-0.063,-0.023 -0.128,-0.039 -0.194,-0.049c-0.282,-0.01 -0.556,0.094 -0.759,0.287c-0.223,0.232 -0.39,0.513 -0.487,0.819l0,2.634l-0.396,0.009Zm14.152,-0.219c0.148,0.003 0.297,-0.015 0.441,-0.051c0.124,-0.035 0.245,-0.081 0.36,-0.139c0.117,-0.06 0.225,-0.133 0.324,-0.219c0.104,-0.085 0.203,-0.175 0.295,-0.271l0,-1.054c-0.335,0.009 -0.67,0.038 -1.002,0.087c-0.237,0.034 -0.47,0.098 -0.691,0.19c-0.152,0.068 -0.288,0.168 -0.399,0.293c-0.088,0.11 -0.135,0.247 -0.133,0.387c0,0.119 0.025,0.237 0.075,0.345c0.039,0.095 0.099,0.18 0.175,0.248c0.075,0.063 0.162,0.111 0.256,0.139c0.098,0.03 0.2,0.045 0.302,0.045l-0.003,0Zm71.681,-3.572c-0.261,-0.003 -0.517,0.068 -0.737,0.207c-0.232,0.153 -0.43,0.353 -0.58,0.586l0,2.122c0.233,0.416 0.685,0.667 1.164,0.644c0.216,0.006 0.431,-0.04 0.626,-0.132c0.182,-0.081 0.339,-0.208 0.457,-0.367c0.127,-0.171 0.22,-0.365 0.273,-0.571c0.061,-0.237 0.09,-0.481 0.087,-0.725c0.04,-0.465 -0.074,-0.93 -0.324,-1.325c-0.232,-0.294 -0.598,-0.454 -0.973,-0.426l0.007,-0.013Zm7.108,3.547c0.219,0.002 0.436,-0.041 0.637,-0.126c0.176,-0.079 0.33,-0.2 0.448,-0.352c0.129,-0.167 0.222,-0.359 0.272,-0.564c0.061,-0.239 0.091,-0.485 0.088,-0.732c0.002,-0.246 -0.027,-0.492 -0.088,-0.731c-0.051,-0.205 -0.144,-0.397 -0.272,-0.565c-0.12,-0.151 -0.273,-0.274 -0.448,-0.357c-0.408,-0.166 -0.866,-0.166 -1.275,0c-0.175,0.083 -0.328,0.206 -0.447,0.357c-0.128,0.17 -0.223,0.361 -0.279,0.565c-0.061,0.239 -0.09,0.485 -0.088,0.731c-0.003,0.247 0.027,0.493 0.088,0.732c0.055,0.205 0.149,0.396 0.279,0.564c0.117,0.152 0.271,0.273 0.447,0.352c0.202,0.086 0.419,0.128 0.638,0.126l-0.012,-0.001l0.023,0l-0.011,0.001Zm25.141,-3.553c-0.258,-0.005 -0.512,0.067 -0.729,0.206c-0.234,0.152 -0.434,0.348 -0.591,0.577l0,2.131c0.394,0.578 1.16,0.79 1.797,0.497c0.179,-0.083 0.333,-0.209 0.448,-0.368c0.129,-0.171 0.223,-0.364 0.279,-0.571c0.061,-0.236 0.09,-0.48 0.087,-0.725c0.044,-0.465 -0.071,-0.931 -0.324,-1.325c-0.232,-0.294 -0.598,-0.454 -0.973,-0.425l0.006,0.003Zm-78.751,2.008c0.16,0.004 0.319,-0.022 0.47,-0.074c0.123,-0.046 0.234,-0.119 0.325,-0.213c0.095,-0.089 0.168,-0.2 0.214,-0.322c0.098,-0.27 0.098,-0.565 0,-0.835c-0.05,-0.12 -0.122,-0.23 -0.214,-0.322c-0.1,-0.092 -0.219,-0.163 -0.348,-0.207c-0.148,-0.053 -0.305,-0.078 -0.463,-0.074c-0.156,-0.003 -0.311,0.022 -0.458,0.074c-0.13,0.042 -0.248,0.113 -0.347,0.207c-0.097,0.088 -0.17,0.199 -0.214,0.322c-0.098,0.27 -0.098,0.565 0,0.835c0.043,0.124 0.117,0.235 0.214,0.322c0.098,0.096 0.217,0.169 0.347,0.213c0.147,0.053 0.302,0.078 0.458,0.074l0.016,0Zm23.473,-2.027c-0.192,-0.004 -0.382,0.028 -0.561,0.096c-0.162,0.064 -0.309,0.158 -0.435,0.278c-0.123,0.128 -0.223,0.276 -0.295,0.438c-0.077,0.184 -0.126,0.379 -0.146,0.577l2.679,0c0.004,-0.199 -0.026,-0.397 -0.087,-0.587c-0.055,-0.162 -0.142,-0.311 -0.257,-0.438c-0.105,-0.121 -0.239,-0.214 -0.389,-0.271c-0.161,-0.067 -0.334,-0.099 -0.509,-0.097l0,0.004Zm67.244,-0.004c-0.192,-0.004 -0.382,0.029 -0.561,0.097c-0.162,0.063 -0.31,0.158 -0.435,0.277c-0.123,0.128 -0.223,0.277 -0.295,0.439c-0.077,0.184 -0.126,0.378 -0.146,0.577l2.679,0c0.004,-0.199 -0.026,-0.398 -0.088,-0.587c-0.054,-0.162 -0.141,-0.311 -0.256,-0.438c-0.107,-0.119 -0.24,-0.212 -0.389,-0.271c-0.161,-0.067 -0.335,-0.1 -0.509,-0.097l0,0.003Zm-122.383,0c-0.192,-0.004 -0.382,0.029 -0.561,0.097c-0.162,0.063 -0.31,0.158 -0.435,0.277c-0.123,0.128 -0.223,0.277 -0.295,0.439c-0.077,0.184 -0.126,0.378 -0.146,0.577l2.679,0c0.004,-0.199 -0.026,-0.398 -0.087,-0.587c-0.055,-0.162 -0.142,-0.311 -0.257,-0.438c-0.107,-0.119 -0.24,-0.212 -0.389,-0.271c-0.161,-0.067 -0.335,-0.1 -0.509,-0.097l0,0.003Zm62.92,-1.612c-0.001,0.046 -0.011,0.091 -0.029,0.133c-0.023,0.041 -0.05,0.08 -0.081,0.116c-0.035,0.031 -0.074,0.056 -0.117,0.074c-0.043,0.021 -0.091,0.031 -0.14,0.029c-0.048,0.001 -0.095,-0.009 -0.139,-0.029c-0.041,-0.018 -0.078,-0.043 -0.11,-0.074c-0.034,-0.034 -0.061,-0.073 -0.081,-0.116c-0.019,-0.042 -0.029,-0.087 -0.03,-0.133c0.002,-0.047 0.012,-0.094 0.03,-0.138c0.018,-0.044 0.045,-0.084 0.081,-0.116c0.033,-0.031 0.07,-0.058 0.11,-0.081c0.045,-0.014 0.092,-0.022 0.139,-0.022c0.048,-0.001 0.095,0.007 0.14,0.022c0.042,0.023 0.081,0.05 0.117,0.081c0.032,0.034 0.06,0.073 0.081,0.116c0.017,0.044 0.027,0.091 0.029,0.138Zm41.588,-0.003c0.002,0.046 -0.008,0.092 -0.029,0.132c-0.021,0.043 -0.048,0.083 -0.081,0.116c-0.031,0.033 -0.069,0.059 -0.111,0.075c-0.089,0.038 -0.19,0.038 -0.279,0c-0.043,-0.018 -0.082,-0.043 -0.116,-0.075c-0.029,-0.035 -0.054,-0.074 -0.075,-0.116c-0.022,-0.04 -0.032,-0.086 -0.029,-0.132c-0.002,-0.048 0.008,-0.095 0.029,-0.138c0.019,-0.043 0.044,-0.082 0.075,-0.116c0.036,-0.031 0.075,-0.058 0.116,-0.081c0.133,-0.064 0.294,-0.031 0.39,0.081c0.035,0.032 0.063,0.071 0.081,0.116c0.021,0.043 0.031,0.09 0.029,0.138Zm-85.647,0c0.002,0.046 -0.008,0.092 -0.03,0.132c-0.032,0.088 -0.102,0.158 -0.191,0.191c-0.089,0.038 -0.19,0.038 -0.279,0c-0.042,-0.016 -0.08,-0.042 -0.11,-0.075c-0.034,-0.033 -0.061,-0.073 -0.081,-0.116c-0.019,-0.041 -0.028,-0.086 -0.029,-0.132c0.002,-0.047 0.011,-0.094 0.029,-0.138c0.018,-0.045 0.046,-0.084 0.081,-0.116c0.104,-0.097 0.255,-0.128 0.389,-0.081c0.042,0.023 0.081,0.05 0.117,0.081c0.033,0.032 0.058,0.072 0.074,0.116c0.021,0.043 0.031,0.09 0.03,0.138Z" style="fill:#111;fill-rule:nonzero;"/><rect x="53.748" y="8.201" width="6.425" height="31.27" style="fill:#111;fill-rule:nonzero;"/><path d="M87.198,8.191l0,22.482c0,3.753 -1.161,5.835 -7.113,5.835c-5.952,0 -7.113,-2.086 -7.113,-5.835l0,-22.482l-6.425,0l0,17.373c0,6.554 0.541,10.013 4.086,12.314c3.546,2.302 8.177,2.257 9.452,2.257c1.275,0 5.923,0.042 9.451,-2.257c3.529,-2.298 4.087,-5.76 4.087,-12.314l0,-17.373l-6.425,0Z" style="fill:#111;fill-rule:nonzero;"/><path d="M18.689,47.25c-0.113,0 -0.227,-0.03 -0.34,-0.049c-0.406,-0.071 -0.818,-0.116 -1.21,-0.222c-0.629,-0.168 -1.255,-0.358 -1.872,-0.577c-0.667,-0.226 -1.299,-0.54 -1.881,-0.935c-0.137,-0.092 -0.262,-0.2 -0.373,-0.323c-0.143,-0.167 -0.091,-0.322 0.127,-0.361c0.297,-0.057 0.604,-0.057 0.901,0c1.167,0.17 2.308,0.48 3.399,0.922c0.589,0.214 1.151,0.492 1.677,0.829c0.128,0.084 0.245,0.183 0.351,0.293c0.168,0.181 0.12,0.323 -0.12,0.397c-0.098,0.026 -0.198,0.035 -0.296,0.051l-0.363,-0.025Zm5.929,-0.036c-0.675,-0.011 -1.347,-0.103 -2.001,-0.274c-0.314,-0.078 -0.609,-0.218 -0.869,-0.409c-0.228,-0.148 -0.354,-0.412 -0.325,-0.681c0.034,-0.187 0.127,-0.359 0.266,-0.49c0.259,-0.255 0.565,-0.459 0.902,-0.599c0.78,-0.348 1.611,-0.566 2.462,-0.645c0.999,-0.129 2.014,-0.075 2.994,0.158c0.311,0.073 0.607,0.196 0.879,0.364c0.081,0.052 0.157,0.112 0.227,0.178c0.151,0.127 0.238,0.314 0.238,0.511c0,0.169 -0.064,0.332 -0.18,0.456c-0.258,0.295 -0.582,0.526 -0.947,0.673c-0.693,0.314 -1.432,0.517 -2.189,0.6c-0.484,0.081 -0.983,0.113 -1.457,0.158Zm13.253,-7.237c0.196,0.034 0.388,0.082 0.577,0.142c0.216,0.073 0.352,0.288 0.325,0.512c-0.017,0.2 -0.068,0.395 -0.149,0.577c-0.25,0.492 -0.594,0.93 -1.012,1.29c-1.043,0.981 -2.29,1.723 -3.652,2.173c-0.429,0.159 -0.887,0.223 -1.343,0.187c-0.068,-0.009 -0.136,-0.023 -0.201,-0.042c-0.275,-0.055 -0.474,-0.297 -0.474,-0.576c0,-0.05 0.006,-0.101 0.02,-0.15c0.062,-0.304 0.193,-0.591 0.382,-0.838c0.491,-0.669 1.095,-1.249 1.784,-1.715c0.875,-0.652 1.865,-1.135 2.919,-1.425c0.26,-0.051 0.545,-0.084 0.824,-0.135Zm-18.63,4.652c-1.807,-0.074 -3.422,-0.616 -4.749,-1.867c-0.417,-0.378 -0.73,-0.857 -0.908,-1.389c-0.314,-0.889 0.045,-1.883 0.856,-2.37c0.578,-0.368 1.242,-0.58 1.927,-0.615c1.572,-0.119 3.138,0.305 4.434,1.199c0.61,0.391 1.113,0.926 1.466,1.557c0.196,0.34 0.307,0.721 0.324,1.112c0.022,0.658 -0.297,1.284 -0.843,1.657c-0.524,0.367 -1.136,0.589 -1.774,0.645c-0.247,0.042 -0.493,0.051 -0.733,0.071Zm9.594,-2.131c-0.976,0.042 -1.937,-0.254 -2.718,-0.838c-0.785,-0.596 -1.188,-1.568 -1.054,-2.541c0.117,-0.944 0.554,-1.821 1.239,-2.485c0.796,-0.829 1.806,-1.426 2.919,-1.725c0.792,-0.234 1.627,-0.295 2.445,-0.177c0.756,0.092 1.465,0.41 2.034,0.912c0.795,0.699 1.123,1.791 0.843,2.808c-0.249,1.003 -0.835,1.893 -1.66,2.521c-1.134,0.954 -2.563,1.492 -4.048,1.525Zm14.975,-11.144c-0.037,0.933 -0.277,1.846 -0.704,2.678c-0.457,0.997 -1.142,1.874 -2.001,2.56c-0.397,0.326 -0.864,0.558 -1.366,0.677c-0.78,0.21 -1.603,-0.212 -1.881,-0.967c-0.19,-0.442 -0.27,-0.923 -0.233,-1.402c0.114,-1.977 1.055,-3.818 2.594,-5.074c0.441,-0.394 0.984,-0.659 1.567,-0.765c0.778,-0.171 1.57,0.276 1.82,1.029c0.149,0.404 0.218,0.833 0.204,1.264Zm-17.184,-0.007c-0.114,1.828 -1.145,3.401 -3.149,4.307c-1.064,0.475 -2.255,0.588 -3.39,0.322c-1.707,-0.325 -3.169,-1.422 -3.95,-2.965c-1.293,-2.459 -0.356,-5.537 2.092,-6.87c1.012,-0.573 2.186,-0.8 3.34,-0.645c2.972,0.278 5.221,2.876 5.054,5.838l0.003,0.013Zm-24.099,-2.953c-0.027,-0.751 0.134,-1.498 0.467,-2.173c0.206,-0.421 0.549,-0.762 0.973,-0.967c0.481,-0.206 1.027,-0.206 1.508,0c0.719,0.293 1.335,0.789 1.774,1.425c0.636,0.851 1.067,1.836 1.259,2.879c0.185,0.85 0.178,1.731 -0.02,2.579c-0.102,0.452 -0.305,0.876 -0.593,1.241c-0.545,0.709 -1.528,0.937 -2.332,0.542c-0.679,-0.319 -1.259,-0.815 -1.677,-1.435c-0.861,-1.194 -1.335,-2.622 -1.359,-4.091Zm37.235,-2.601c-0.068,1.934 -0.736,3.526 -2.248,4.703c-0.839,0.675 -1.91,1.002 -2.987,0.912c-1.026,-0.077 -1.984,-0.538 -2.682,-1.289c-0.635,-0.665 -1.075,-1.488 -1.275,-2.382c-0.195,-0.816 -0.212,-1.664 -0.049,-2.486c0.234,-1.342 0.949,-2.556 2.011,-3.417c0.628,-0.524 1.393,-0.86 2.206,-0.967c1.442,-0.214 2.894,0.359 3.795,1.499c0.62,0.734 1.016,1.629 1.142,2.579c0.048,0.296 0.064,0.603 0.087,0.848Zm4.077,0.428c-0.001,-1.009 0.157,-2.013 0.467,-2.975c0.134,-0.454 0.354,-0.879 0.649,-1.251c0.073,-0.085 0.156,-0.162 0.246,-0.229c0.115,-0.097 0.26,-0.151 0.411,-0.151c0.186,0 0.362,0.081 0.481,0.222c0.226,0.248 0.389,0.545 0.477,0.867c0.157,0.481 0.247,0.981 0.269,1.487c0.02,0.386 0.039,0.776 0.023,1.166c-0.019,1.103 -0.26,2.19 -0.707,3.198c-0.141,0.344 -0.371,0.645 -0.668,0.871c-0.243,0.188 -0.591,0.169 -0.811,-0.045c-0.246,-0.241 -0.425,-0.541 -0.519,-0.871c-0.166,-0.492 -0.266,-1.003 -0.295,-1.521c-0.01,-0.303 -0.013,-0.603 -0.023,-0.768Zm-27.462,-4.709c-0.001,1.367 -0.481,2.693 -1.356,3.749c-0.551,0.683 -1.28,1.203 -2.108,1.502c-0.657,0.246 -1.368,0.315 -2.06,0.2c-1.602,-0.284 -2.653,-1.248 -3.302,-2.682c-0.459,-1.037 -0.592,-2.188 -0.379,-3.301c0.2,-1.326 0.865,-2.54 1.878,-3.427c0.71,-0.644 1.617,-1.034 2.575,-1.109c1.273,-0.109 2.526,0.39 3.37,1.344c0.605,0.653 1.025,1.454 1.216,2.321c0.112,0.459 0.167,0.93 0.166,1.403Zm-13.36,0.241c-0.004,1.085 -0.204,2.161 -0.591,3.176c-0.117,0.321 -0.288,0.621 -0.506,0.886c-0.1,0.124 -0.218,0.232 -0.35,0.323c-0.23,0.162 -0.548,0.133 -0.746,-0.068c-0.246,-0.241 -0.422,-0.543 -0.512,-0.874c-0.175,-0.547 -0.273,-1.115 -0.292,-1.689c-0.082,-1.27 0.092,-2.544 0.512,-3.746c0.125,-0.379 0.316,-0.732 0.565,-1.044c0.08,-0.095 0.172,-0.181 0.272,-0.255c0.248,-0.211 0.627,-0.185 0.843,0.058c0.24,0.253 0.411,0.561 0.5,0.896c0.226,0.758 0.329,1.547 0.305,2.337Zm35.156,-4.806c-0.012,-0.685 0.134,-1.363 0.428,-1.983c0.158,-0.336 0.395,-0.63 0.691,-0.857c0.571,-0.43 1.342,-0.499 1.982,-0.177c0.719,0.33 1.329,0.859 1.754,1.524c0.758,1.076 1.207,2.336 1.298,3.646c0.076,0.767 -0.036,1.542 -0.325,2.257c-0.169,0.442 -0.47,0.822 -0.862,1.089c-0.529,0.341 -1.196,0.397 -1.775,0.149c-0.655,-0.262 -1.227,-0.698 -1.651,-1.261c-0.714,-0.883 -1.192,-1.931 -1.391,-3.046c-0.081,-0.438 -0.114,-0.89 -0.169,-1.335l0.02,-0.006Zm-12.325,-5.222c1.823,0.074 3.5,1.023 4.495,2.543c0.581,0.853 0.891,1.86 0.891,2.89c0,1.84 -0.991,3.546 -2.594,4.466c-1.024,0.611 -2.228,0.857 -3.412,0.697c-1.931,-0.176 -3.638,-1.337 -4.502,-3.063c-0.514,-0.949 -0.694,-2.042 -0.512,-3.104c0.347,-2.054 1.55,-3.404 3.493,-4.123c0.687,-0.236 1.414,-0.34 2.141,-0.306Zm-16.649,1.154c-0.011,0.622 -0.12,1.239 -0.325,1.827c-0.332,0.998 -0.87,1.916 -1.579,2.695c-0.427,0.49 -0.949,0.888 -1.534,1.171c-0.415,0.217 -0.89,0.294 -1.353,0.219c-0.548,-0.111 -0.992,-0.513 -1.154,-1.045c-0.213,-0.597 -0.26,-1.241 -0.137,-1.863c0.256,-1.602 1.028,-3.08 2.199,-4.21c0.448,-0.466 1.005,-0.814 1.622,-1.012c0.397,-0.139 0.832,-0.125 1.22,0.038c0.464,0.228 0.8,0.653 0.914,1.154c0.096,0.334 0.138,0.679 0.127,1.026Zm8.822,-7.505c0.825,-0.019 1.639,0.193 2.348,0.612c0.672,0.382 1.154,1.025 1.33,1.773c0.117,0.521 0.093,1.062 -0.068,1.57c-0.396,1.29 -1.278,2.205 -2.407,2.902c-0.566,0.351 -1.186,0.608 -1.835,0.76c-1.07,0.296 -2.207,0.243 -3.244,-0.151c-0.875,-0.31 -1.554,-1.013 -1.829,-1.896c-0.197,-0.669 -0.155,-1.386 0.12,-2.027c0.472,-1.13 1.322,-2.064 2.406,-2.644c0.962,-0.572 2.059,-0.882 3.179,-0.899Zm11.887,4.1c-1.839,-0.071 -3.477,-0.644 -4.79,-1.966c-0.365,-0.361 -0.637,-0.803 -0.795,-1.29c-0.313,-0.888 0.052,-1.882 0.866,-2.362c0.488,-0.314 1.044,-0.507 1.622,-0.565c1.81,-0.21 3.633,0.295 5.073,1.406c0.546,0.393 0.979,0.922 1.255,1.534c0.454,0.937 0.108,2.078 -0.791,2.608c-0.595,0.364 -1.272,0.574 -1.969,0.61c-0.156,0.019 -0.312,0.019 -0.471,0.025Zm-15.993,-6.489c0.188,0.023 0.374,0.056 0.558,0.1c0.27,0.068 0.447,0.332 0.405,0.606c-0.046,0.336 -0.181,0.653 -0.392,0.919c-0.449,0.622 -0.997,1.166 -1.622,1.612c-0.899,0.692 -1.92,1.211 -3.01,1.531c-0.337,0.102 -0.689,0.146 -1.041,0.129c-0.626,-0.045 -0.873,-0.413 -0.649,-0.996c0.157,-0.401 0.395,-0.766 0.701,-1.07c1.296,-1.504 3.085,-2.507 5.05,-2.831Zm7.135,0.819c-0.884,0.049 -1.771,-0.06 -2.617,-0.322c-0.262,-0.086 -0.503,-0.223 -0.71,-0.403c-0.164,-0.127 -0.26,-0.323 -0.26,-0.529c0,-0.17 0.065,-0.334 0.182,-0.458c0.221,-0.263 0.498,-0.474 0.811,-0.619c0.718,-0.332 1.484,-0.55 2.27,-0.645c0.582,-0.087 1.17,-0.123 1.758,-0.106c0.699,0.003 1.392,0.124 2.05,0.358c0.245,0.087 0.467,0.228 0.649,0.413c0.23,0.22 0.263,0.579 0.078,0.838c-0.185,0.265 -0.434,0.48 -0.724,0.625c-0.705,0.381 -1.475,0.63 -2.27,0.735c-0.467,0.039 -0.97,0.084 -1.217,0.113Zm6.929,-3.192c0.738,0.051 1.469,0.181 2.179,0.387c0.868,0.227 1.71,0.542 2.514,0.938c0.397,0.175 0.763,0.414 1.083,0.706c0.078,0.081 0.169,0.168 0.13,0.294c-0.039,0.125 -0.169,0.148 -0.286,0.167c-0.353,0.041 -0.711,0.027 -1.06,-0.042c-1.414,-0.238 -2.788,-0.672 -4.08,-1.289c-0.401,-0.163 -0.769,-0.398 -1.084,-0.693c-0.02,-0.02 -0.038,-0.041 -0.055,-0.065c-0.107,-0.158 -0.074,-0.283 0.11,-0.322c0.181,-0.037 0.364,-0.064 0.549,-0.081Z" style="fill:#111;fill-rule:nonzero;"/></svg>