<?xml version="1.0" encoding="UTF-8" standalone="no"?><!DOCTYPE svg PUBLIC "-//W3C//DTD SVG 1.1//EN" "http://www.w3.org/Graphics/SVG/1.1/DTD/svg11.dtd"><svg width="100%" height="100%" viewBox="0 0 240 55" version="1.1" xmlns="http://www.w3.org/2000/svg" xmlns:xlink="http://www.w3.org/1999/xlink" xml:space="preserve" xmlns:serif="http://www.serif.com/" style="fill-rule:evenodd;clip-rule:evenodd;stroke-linejoin:round;stroke-miterlimit:1.41421;"><g><path d="M94.523,28.289c-1.108,0 -2.215,-0.369 -3.323,-1.477c-4.431,-4.061 -11.077,-4.061 -15.508,0c-1.846,1.847 -4.8,1.847 -6.277,0c-1.846,-1.846 -1.846,-4.8 0,-6.276c7.754,-7.754 20.308,-7.754 28.062,0c2.215,1.846 2.215,4.8 0.369,6.646c-0.738,0.738 -2.215,1.107 -3.323,1.107" style="fill:#111;fill-rule:nonzero;"/><path d="M72.738,50.074c-1.107,0 -2.215,-0.369 -3.323,-1.477c-3.692,-3.692 -5.907,-8.861 -5.907,-14.031c0,-5.169 2.215,-10.338 5.907,-14.03c1.847,-1.847 4.8,-1.847 6.277,0c1.846,1.846 1.846,4.8 0,6.276c-2.215,2.216 -3.323,4.8 -3.323,7.754c0,2.954 1.108,5.539 3.323,7.754c1.846,1.846 1.846,4.8 0,6.277c-0.369,1.108 -1.846,1.477 -2.954,1.477" style="fill:#111;fill-rule:nonzero;"/><path d="M83.815,54.874c-5.169,0 -10.338,-1.846 -14.03,-5.908c-1.847,-1.846 -1.847,-4.8 0,-6.277c1.846,-1.846 4.8,-1.846 6.277,0c4.43,4.062 11.076,4.431 15.507,0c1.846,-1.846 4.8,-1.846 6.277,0c1.846,1.847 1.846,4.8 0,6.277c-4.061,3.693 -8.861,5.908 -14.031,5.908" style="fill:#111;fill-rule:nonzero;"/><path d="M56.492,4.659c0,2.584 -1.846,4.43 -4.43,4.43c-2.585,0 -4.431,-1.846 -4.431,-4.43c0,-2.585 2.215,-4.431 4.431,-4.431c2.215,0 4.43,2.215 4.43,4.431" style="fill:#111;fill-rule:nonzero;"/><path d="M52.062,54.874c-2.585,0 -4.431,-1.846 -4.431,-4.431l0,-31.015c0,-2.585 1.846,-4.431 4.431,-4.431c2.584,0 4.43,1.846 4.43,4.431l0,30.646c0,2.585 -2.215,4.8 -4.43,4.8" style="fill:#111;fill-rule:nonzero;"/><path d="M224.123,43.428c-2.585,0 -4.431,-1.846 -4.431,-4.431l0,-33.969c0,-2.585 1.846,-4.8 4.431,-4.8c2.585,0 4.431,1.846 4.431,4.431l0,33.969c0,2.584 -1.846,4.8 -4.431,4.8" style="fill:#111;fill-rule:nonzero;"/><path d="M235.569,54.874c-8.861,0 -15.877,-7.015 -15.877,-15.877c0,-2.585 1.846,-4.431 4.431,-4.431c2.585,0 4.431,1.846 4.431,4.431c0,3.692 2.954,6.646 7.015,6.646c2.585,0 4.431,1.846 4.431,4.431c0,2.585 -1.846,4.8 -4.431,4.8" style="fill:#111;fill-rule:nonzero;"/><path d="M235.569,23.859l-11.446,0c-2.585,0 -4.431,-1.847 -4.431,-4.431c0,-2.585 1.846,-4.431 4.431,-4.431l11.446,0c2.585,0 4.431,1.846 4.431,4.431c0,2.584 -1.846,4.431 -4.431,4.431" style="fill:#111;fill-rule:nonzero;"/><path d="M196.8,54.874c-2.585,0 -4.431,-1.846 -4.431,-4.431l0,-31.384c0,-2.585 1.846,-4.431 4.431,-4.431c2.585,0 4.431,1.846 4.431,4.431l0,31.015c0,2.954 -1.846,4.8 -4.431,4.8" style="fill:#111;fill-rule:nonzero;"/><path d="M196.8,35.674c-2.585,0 -4.431,-1.846 -4.431,-4.431c0,-9.231 7.754,-16.615 16.985,-16.615c2.584,0 4.431,1.846 4.431,4.431c0,2.584 -1.847,4.43 -4.431,4.43c-4.431,0 -7.754,3.323 -7.754,7.385c-0.369,2.585 -2.215,4.8 -4.8,4.8" style="fill:#111;fill-rule:nonzero;"/><path d="M4.431,54.874c-2.585,0 -4.431,-1.846 -4.431,-4.431l0,-30.646c0,-2.585 1.846,-4.431 4.431,-4.431c2.584,0 4.431,1.846 4.431,4.431l0,30.277c0.369,2.585 -1.847,4.8 -4.431,4.8" style="fill:#111;fill-rule:nonzero;"/><path d="M4.431,24.228c-2.216,0 -4.431,-1.846 -4.431,-4.431c0,-10.708 8.862,-19.569 19.938,-19.569c2.585,0 4.431,1.846 4.431,4.431c0,2.584 -1.846,4.43 -4.431,4.43c-5.907,0 -11.076,4.8 -11.076,10.339c0.369,2.954 -1.847,4.8 -4.431,4.8" style="fill:#111;fill-rule:nonzero;"/><path d="M145.846,54.874c-0.369,0 -1.108,0 -1.477,-0.369c-2.215,-0.739 -3.323,-3.693 -2.584,-5.908l17.723,-45.785c0.738,-2.215 3.692,-3.323 5.907,-2.584c2.216,0.738 3.323,3.692 2.585,5.908l-18.092,45.784c-0.739,1.846 -2.216,2.954 -4.062,2.954" style="fill:#111;fill-rule:nonzero;"/><path d="M181.292,54.874c-1.846,0 -3.692,-1.108 -4.061,-2.954l-17.723,-45.415c-0.739,-2.216 0.369,-4.8 2.584,-5.908c2.216,-0.738 4.8,0.369 5.908,2.585l17.723,45.784c0.739,2.216 -0.369,4.8 -2.585,5.908l-1.846,0" style="fill:#111;fill-rule:nonzero;"/><path d="M177.231,44.536l-27.323,0c-2.585,0 -4.431,-1.847 -4.431,-4.431c0,-2.585 1.846,-4.431 4.431,-4.431l27.323,0c2.584,0 4.431,1.846 4.431,4.431c0,2.584 -1.847,4.431 -4.431,4.431" style="fill:#111;fill-rule:nonzero;"/><path d="M110.769,31.243c-2.584,0 -4.431,-1.846 -4.431,-4.431c0,-2.953 1.108,-5.907 3.693,-8.123c2.954,-2.584 6.646,-4.061 11.446,-3.692c4.431,0.369 8.861,1.846 12.923,5.539c1.846,1.476 2.215,4.43 0.369,6.276c-1.477,1.847 -4.431,2.216 -6.277,0.37c-3.323,-2.954 -5.538,-3.323 -7.384,-3.323c-1.846,0 -3.693,0.369 -4.8,1.477c-0.37,0.369 -0.739,1.107 -0.739,1.476c0,2.216 -2.215,4.431 -4.8,4.431" style="fill:#111;fill-rule:nonzero;"/><path d="M121.477,54.874l-0.739,0c-4.43,-0.369 -8.861,-1.846 -12.923,-5.538c-1.846,-1.477 -2.215,-4.431 -0.369,-6.277c1.477,-1.847 4.431,-2.216 6.277,-0.37c3.323,2.954 5.539,3.323 7.385,3.323c1.846,0 3.692,-0.369 4.8,-1.476c0.369,-0.37 0.738,-1.108 0.738,-1.477c0,-2.585 1.846,-4.431 4.431,-4.431c2.585,0 4.431,1.846 4.431,4.431c0,2.953 -1.108,5.907 -3.693,8.123c-2.215,2.215 -5.907,3.692 -10.338,3.692" style="fill:#111;fill-rule:nonzero;"/><path d="M131.077,47.489c-2.585,0 -4.431,-1.846 -4.431,-4.43c0,-0.739 0,-2.216 -6.646,-3.693c-3.323,-0.738 -13.662,-2.954 -13.662,-12.554c0,-2.584 1.847,-4.43 4.431,-4.43c2.585,0 4.431,1.846 4.431,4.43c0,0.739 0,2.216 6.646,3.693c3.323,0.738 13.662,2.954 13.662,12.554c0,2.215 -1.846,4.43 -4.431,4.43" style="fill:#111;fill-rule:nonzero;"/><path d="M35.446,24.228c-2.584,0 -4.431,-1.846 -4.431,-4.431c0,-5.908 -4.8,-10.338 -11.077,-10.338c-2.584,0 -4.43,-1.847 -4.43,-4.431c0,-2.585 1.846,-4.8 4.43,-4.8c11.077,0 19.939,8.861 19.939,19.569c0,2.585 -1.846,4.431 -4.431,4.431" style="fill:#111;fill-rule:nonzero;"/><path d="M19.938,39.366c-11.076,0 -19.938,-8.861 -19.938,-19.569c0,-2.585 1.846,-4.431 4.431,-4.431c2.584,0 4.431,1.846 4.431,4.431c0,5.908 4.8,10.339 11.076,10.339c5.908,0 11.077,-4.8 11.077,-10.339c0,-2.585 1.847,-4.431 4.431,-4.431c2.585,0 4.431,1.846 4.431,4.431c0,10.708 -8.862,19.569 -19.939,19.569" style="fill:#111;fill-rule:nonzero;"/></g></svg>