<?xml version="1.0" encoding="UTF-8" standalone="no"?><!DOCTYPE svg PUBLIC "-//W3C//DTD SVG 1.1//EN" "http://www.w3.org/Graphics/SVG/1.1/DTD/svg11.dtd"><svg width="100%" height="100%" viewBox="0 0 240 240" version="1.1" xmlns="http://www.w3.org/2000/svg" xmlns:xlink="http://www.w3.org/1999/xlink" xml:space="preserve" xmlns:serif="http://www.serif.com/" style="fill-rule:evenodd;clip-rule:evenodd;stroke-linejoin:round;stroke-miterlimit:1.41421;"><g><path d="M99.355,134.49c-0.784,0.784 -1.828,1.306 -3.394,1.306c-6.005,0.261 -10.705,4.96 -10.966,10.965c0,2.611 -2.089,4.7 -4.439,4.439c-2.61,0 -4.699,-2.089 -4.438,-4.439c0,-10.965 8.877,-19.842 19.843,-19.842c2.871,-0.261 4.96,1.827 4.96,4.438c0,1.045 -0.783,2.35 -1.566,3.133" style="fill:#111;fill-rule:nonzero;"/><path d="M99.355,165.298c-0.784,0.784 -1.828,1.306 -3.394,1.306c-5.222,0 -10.444,-2.089 -14.099,-5.744c-3.655,-3.655 -5.744,-8.877 -5.744,-14.099c0,-2.611 2.089,-4.699 4.438,-4.438c2.611,0 4.7,2.089 4.439,4.438c0,3.133 1.044,5.744 3.133,7.833c2.089,2.089 4.7,3.133 7.833,3.133c2.61,0 4.699,2.089 4.438,4.438c0.522,1.045 -0.261,2.35 -1.044,3.133" style="fill:#111;fill-rule:nonzero;"/><path d="M110.581,160.86c-3.655,3.655 -8.616,6.005 -14.098,5.744c-2.611,0 -4.7,-2.089 -4.439,-4.439c0,-2.611 2.089,-4.699 4.439,-4.438c6.005,-0.261 10.965,-4.7 10.965,-10.966c0,-2.611 2.089,-4.699 4.439,-4.438c2.611,0 4.699,2.089 4.438,4.438c-0.261,5.483 -2.088,10.444 -5.744,14.099" style="fill:#111;fill-rule:nonzero;"/><path d="M55.753,144.673c1.828,1.827 1.828,4.438 0,6.266c-1.827,1.827 -4.438,1.827 -6.266,0c-1.827,-1.828 -1.566,-4.7 0,-6.266c1.567,-1.567 4.7,-1.567 6.266,0" style="fill:#111;fill-rule:nonzero;"/><path d="M88.128,183.313c-1.828,1.828 -4.438,1.828 -6.266,0l-21.931,-21.931c-1.828,-1.828 -1.828,-4.438 0,-6.266c1.827,-1.828 4.438,-1.828 6.266,0l21.67,21.67c1.827,1.828 1.827,4.961 0.261,6.527" style="fill:#111;fill-rule:nonzero;"/><path d="M201.7,53.554c-1.827,1.827 -4.438,1.827 -6.266,0l-24.02,-24.02c-1.827,-1.828 -2.088,-4.7 -0.261,-6.527c1.828,-1.828 4.439,-1.828 6.266,0l24.02,24.02c1.828,1.827 2.089,4.699 0.261,6.527" style="fill:#111;fill-rule:nonzero;"/><path d="M217.887,53.554c-6.266,6.266 -16.187,6.266 -22.453,0c-1.827,-1.828 -1.827,-4.439 0,-6.266c1.828,-1.828 4.439,-1.828 6.266,0c2.611,2.611 6.788,2.611 9.66,-0.261c1.828,-1.828 4.439,-1.828 6.266,0c1.828,1.827 2.089,4.699 0.261,6.527" style="fill:#111;fill-rule:nonzero;"/><path d="M195.956,31.623l-8.093,8.093c-1.828,1.828 -4.439,1.828 -6.266,0c-1.828,-1.827 -1.828,-4.438 0,-6.266l8.093,-8.094c1.828,-1.827 4.439,-1.827 6.266,0c1.828,1.828 1.828,4.439 0,6.267" style="fill:#111;fill-rule:nonzero;"/><path d="M190.474,80.968c-1.828,1.827 -4.439,1.827 -6.267,0l-22.192,-22.193c-1.827,-1.827 -1.827,-4.438 0,-6.266c1.828,-1.827 4.439,-1.827 6.266,0l21.931,21.932c2.089,2.088 2.089,4.699 0.262,6.527" style="fill:#111;fill-rule:nonzero;"/><path d="M176.897,67.391c-1.828,1.828 -4.438,1.828 -6.266,0c-6.527,-6.527 -6.266,-17.231 0.261,-23.759c1.828,-1.827 4.439,-1.827 6.266,0c1.828,1.828 1.828,4.439 0,6.267c-3.133,3.133 -3.133,7.832 -0.261,10.704c1.567,2.089 1.828,4.961 0,6.788" style="fill:#111;fill-rule:nonzero;"/><path d="M54.448,216.993c-1.828,1.828 -4.439,1.828 -6.266,0l-21.67,-21.67c-1.828,-1.827 -1.828,-4.438 0,-6.266c1.827,-1.827 4.438,-1.827 6.266,0l21.409,21.409c2.089,1.567 2.089,4.7 0.261,6.527" style="fill:#111;fill-rule:nonzero;"/><path d="M32.778,195.323c-1.567,1.567 -4.439,1.828 -6.266,0c-7.572,-7.571 -7.572,-20.103 0.261,-27.936c1.827,-1.828 4.438,-1.828 6.266,0c1.828,1.828 1.828,4.438 0,6.266c-4.177,4.177 -4.439,11.227 -0.522,15.143c2.35,1.828 2.088,4.7 0.261,6.527" style="fill:#111;fill-rule:nonzero;"/><path d="M154.444,116.998c-0.261,0.261 -0.784,0.783 -1.306,0.783c-2.088,1.044 -4.96,-0.261 -6.005,-2.35l-19.842,-44.907c-1.045,-2.088 0.261,-4.96 2.35,-6.005c2.088,-1.044 4.96,0.261 6.005,2.35l19.581,45.168c0.783,1.827 0.522,3.655 -0.783,4.961" style="fill:#111;fill-rule:nonzero;"/><path d="M179.508,91.933c-1.306,1.306 -3.394,1.828 -4.961,0.784l-44.645,-19.582c-2.089,-1.044 -3.133,-3.655 -2.35,-6.005c1.044,-2.089 3.655,-3.133 6.005,-2.35l44.907,19.843c2.088,1.044 3.133,3.655 2.349,6.005c-0.522,0.522 -0.783,0.783 -1.305,1.305" style="fill:#111;fill-rule:nonzero;"/><path d="M169.326,87.495l-19.321,19.32c-1.827,1.828 -4.438,1.828 -6.266,0c-1.827,-1.827 -1.827,-4.438 0,-6.266l19.321,-19.32c1.827,-1.828 4.438,-1.828 6.266,0c1.827,1.827 1.827,4.438 0,6.266" style="fill:#111;fill-rule:nonzero;"/><path d="M112.931,125.091c-1.828,1.828 -4.438,1.828 -6.266,0c-2.089,-2.089 -3.394,-4.96 -3.133,-8.355c0.261,-3.916 1.828,-7.571 5.483,-10.704c3.394,-2.872 7.571,-4.961 13.054,-5.222c2.35,-0.261 4.7,1.567 4.7,4.178c0.261,2.349 -1.567,4.699 -4.178,4.699c-4.438,0.261 -6.266,1.567 -7.571,2.872c-1.306,1.305 -2.35,2.872 -2.35,4.439c0,0.522 0.261,1.305 0.522,1.566c1.567,1.567 1.567,4.7 -0.261,6.527" style="fill:#111;fill-rule:nonzero;"/><path d="M137.212,134.229c-0.261,0.261 -0.522,0.522 -0.522,0.522c-3.394,2.872 -7.572,4.961 -13.054,5.222c-2.35,0.261 -4.7,-1.566 -4.7,-4.177c-0.261,-2.35 1.567,-4.7 4.177,-4.7c4.439,-0.261 6.266,-1.566 7.572,-2.872c1.305,-1.305 2.35,-2.872 2.35,-4.438c0,-0.522 -0.261,-1.306 -0.522,-1.567c-1.828,-1.827 -1.828,-4.438 0,-6.266c1.827,-1.827 4.438,-1.827 6.266,0c2.088,2.089 3.394,4.961 3.133,8.355c0,3.133 -1.567,6.788 -4.7,9.921" style="fill:#111;fill-rule:nonzero;"/><path d="M138.779,122.219c-1.828,1.828 -4.439,1.828 -6.266,0c-0.523,-0.522 -1.567,-1.566 -7.311,2.089c-2.872,1.828 -11.749,7.571 -18.537,0.783c-1.828,-1.827 -1.828,-4.438 0,-6.266c1.828,-1.827 4.438,-1.827 6.266,0c0.522,0.522 1.567,1.567 7.31,-2.089c2.872,-1.827 11.749,-7.571 18.538,-0.783c1.566,1.567 1.827,4.439 0,6.266" style="fill:#111;fill-rule:nonzero;"/><path d="M54.709,173.392c-1.828,1.828 -4.438,1.828 -6.266,0c-4.177,-4.177 -10.705,-3.916 -15.143,0.522c-1.828,1.828 -4.438,1.828 -6.266,0c-1.828,-1.827 -2.089,-4.699 -0.261,-6.527c7.832,-7.833 20.365,-7.833 27.936,-0.261c1.828,1.828 1.828,4.438 0,6.266" style="fill:#111;fill-rule:nonzero;"/><path d="M54.448,195.062c-7.833,7.833 -20.365,7.833 -27.936,0.261c-1.828,-1.827 -1.828,-4.438 0,-6.266c1.827,-1.827 4.438,-1.827 6.266,0c4.177,4.178 10.704,3.916 15.143,-0.522c4.177,-4.177 4.438,-11.227 0.522,-15.143c-1.828,-1.828 -1.828,-4.438 0,-6.266c1.828,-1.828 4.438,-1.828 6.266,0c7.571,7.571 7.571,20.104 -0.261,27.936" style="fill:#111;fill-rule:nonzero;"/></g></svg>