<?xml version="1.0" encoding="UTF-8" standalone="no"?><!DOCTYPE svg PUBLIC "-//W3C//DTD SVG 1.1//EN" "http://www.w3.org/Graphics/SVG/1.1/DTD/svg11.dtd"><svg width="100%" height="100%" viewBox="0 0 240 51" version="1.1" xmlns="http://www.w3.org/2000/svg" xmlns:xlink="http://www.w3.org/1999/xlink" xml:space="preserve" xmlns:serif="http://www.serif.com/" style="fill-rule:evenodd;clip-rule:evenodd;stroke-linejoin:round;stroke-miterlimit:1.41421;"><g><path d="M222.243,33.437l-3.078,-0.931l6.444,-11.885l-11.599,-19.261l2.72,-0.644l10.096,17.112l8.878,-17.398l2.721,0.93l-16.182,32.077Zm-12.243,-18.043l0,13.46c-1.504,1.504 -3.365,2.435 -5.227,3.366c-1.861,0.644 -3.938,1.217 -6.086,1.217c-2.148,0 -4.296,-0.287 -6.086,-1.217c-1.861,-0.645 -3.651,-1.862 -5.226,-3.366c-1.575,-1.503 -2.721,-3.365 -3.652,-5.513c-0.931,-2.148 -1.503,-4.296 -1.503,-6.73c0,-1.862 0.286,-3.938 1.217,-5.8c0.644,-1.861 1.861,-3.651 3.079,-5.226c1.503,-1.862 3.365,-3.079 5.513,-3.938c2.148,-0.859 4.296,-1.504 7.016,-1.504c2.148,0 3.938,0.287 5.8,0.931c1.861,0.644 3.365,1.504 4.869,3.079l-1.862,2.148c-1.217,-1.217 -2.721,-2.148 -4.296,-2.435c-1.503,-0.644 -3.079,-0.93 -4.869,-0.93c-3.938,0 -7.016,1.217 -9.809,3.938c-2.72,2.72 -3.938,5.799 -3.938,9.809c0,4.009 1.218,7.303 3.938,9.809c2.721,2.72 5.8,3.938 9.809,3.938c1.504,0 3.079,-0.287 4.583,-0.645c1.503,-0.644 2.72,-1.217 3.938,-2.148l0,-9.451l-10.669,0l0.931,-2.721l12.53,0l0,-0.071Zm-49.189,17.685l0,-32.077l5.227,0c3.079,0 5.513,0.931 7.303,2.435c1.862,1.861 2.721,3.938 2.721,6.73c0,2.434 -0.644,4.296 -2.148,6.086c-1.217,1.504 -3.079,2.721 -5.513,3.079l9.809,12.243l-2.434,1.504l-12.244,-15.895l2.148,0c2.435,0 3.938,-0.645 5.513,-1.862c1.218,-1.217 1.862,-2.721 1.862,-4.869c0,-2.148 -0.644,-3.651 -1.862,-4.868c-1.217,-1.217 -3.078,-1.862 -5.513,-1.862l-2.148,0l0,29.069l-2.721,0.287Zm-24.415,-0.573l0,-31.504l16.826,0l0.644,2.721l-14.677,0l0,11.313l12.529,0l0,2.434l-12.529,0l0,12.244l15.608,0l-0.644,2.72l-17.757,0l0,0.072Zm-32.434,0.573l0,-32.721l21.408,25.346l0,-25.06l2.721,-0.644l0,32.721l-21.408,-25.704l0,25.059l-2.721,1.003Zm-21.05,0.358l-3.079,-0.931l6.444,-11.885l-11.599,-19.261l2.721,-0.644l10.095,17.112l8.878,-17.398l2.721,0.93l-16.181,32.077Zm-29.07,-7.661c0.931,1.503 2.148,2.72 3.366,3.365c1.217,0.644 2.72,1.217 4.296,1.217c2.148,0 3.651,-0.644 5.226,-1.862c1.217,-1.217 2.148,-2.72 2.148,-4.582c0,-3.079 -2.434,-5.227 -7.661,-6.73c-0.644,-0.287 -0.931,-0.287 -1.217,-0.287c-2.434,-0.93 -4.582,-1.861 -5.8,-3.078c-1.217,-1.218 -1.861,-3.079 -1.861,-5.227c0,-2.434 0.931,-4.296 2.721,-6.086c1.861,-1.504 3.938,-2.434 6.73,-2.434c1.504,0 3.079,0.286 4.582,0.93c1.217,0.645 2.721,1.504 3.938,2.721l-1.861,2.148c-1.217,-1.217 -2.435,-1.861 -3.365,-2.434c-0.931,-0.573 -2.148,-0.645 -3.366,-0.645c-1.861,0 -3.365,0.645 -4.582,1.862c-1.217,1.217 -1.862,2.434 -1.862,4.296c0,0.931 0.287,1.861 0.645,2.721c0.644,0.644 1.217,1.503 2.148,1.861c0.644,0.287 2.148,0.931 3.938,1.504c0.931,0.286 1.861,0.644 2.434,0.644c2.435,0.931 3.938,1.862 5.227,3.365c1.217,1.504 1.861,3.079 1.861,5.227c0,2.721 -0.93,4.869 -2.72,6.444c-1.862,1.862 -4.296,2.721 -7.303,2.721c-2.148,0 -3.938,-0.645 -5.514,-1.504c-1.861,-0.931 -3.078,-2.434 -4.295,-4.296l2.147,-1.861Z" style="fill:#111;fill-rule:nonzero;"/><path d="M233.27,47.47c0.286,0.645 0.644,0.931 1.217,1.217c0.286,0.287 0.931,0.287 1.503,0.287c0.645,0 1.218,-0.287 1.862,-0.645c0.644,-0.286 0.644,-0.93 0.644,-1.503c0,-0.931 -0.93,-1.862 -2.72,-2.435l-0.287,0c-0.931,-0.286 -1.503,-0.644 -2.148,-1.217c-0.286,-0.644 -0.644,-1.217 -0.644,-1.861c0,-0.931 0.286,-1.504 0.931,-2.148c0.644,-0.645 1.503,-0.931 2.434,-0.931c0.644,0 1.217,0 1.504,0.286c0.644,0.287 0.93,0.645 1.503,0.931l-0.644,0.931c-0.287,-0.287 -0.931,-0.645 -1.217,-0.931c-0.287,-0.286 -0.931,-0.286 -1.218,-0.286c-0.644,0 -1.217,0.286 -1.503,0.644c-0.287,0.358 -0.645,0.931 -0.645,1.504c0,0.286 0,0.644 0.287,0.93c0.286,0.287 0.286,0.645 0.931,0.645c0.286,0 0.644,0.286 1.503,0.644c0.287,0 0.645,0.287 0.931,0.287c0.931,0.286 1.504,0.644 1.862,1.217c0.358,0.573 0.644,1.217 0.644,1.861c0,0.931 -0.286,1.862 -0.931,2.435c-0.644,0.644 -1.503,0.931 -2.434,0.931c-0.645,0 -1.504,-0.287 -2.148,-0.645c-0.645,-0.286 -1.217,-0.931 -1.504,-1.503l0.287,-0.645Zm-14.678,2.435l2.434,-11.886l3.938,9.451l3.938,-9.451l2.435,11.886l-0.931,0.286l-1.862,-8.592l-3.651,8.592l-3.652,-8.592l-1.862,8.592l-0.787,-0.286Zm-7.661,0l0,-11.313l6.086,0l0.286,0.931l-5.227,0l0,4.296l4.583,0l0,0.93l-4.583,0l0,4.296l5.513,0l-0.286,0.931l-6.372,0l0,-0.071Zm-6.086,0.358l0,-10.74l-3.079,0l0.287,-0.931l6.73,0l0,0.931l-3.079,0l0,10.382l-0.859,0.358Zm-10.74,-2.793c0.286,0.645 0.644,0.931 1.217,1.217c0.287,0.287 0.931,0.287 1.504,0.287c0.644,0 1.217,-0.287 1.861,-0.645c0.645,-0.286 0.645,-0.93 0.645,-1.503c0,-0.931 -0.931,-1.862 -2.721,-2.435l-0.286,0c-0.931,-0.286 -1.504,-0.644 -2.148,-1.217c-0.287,-0.644 -0.645,-1.217 -0.645,-1.861c0,-0.931 0.287,-1.504 0.931,-2.148c0.644,-0.645 1.504,-0.931 2.434,-0.931c0.645,0 1.218,0 1.504,0.286c0.644,0.287 0.931,0.645 1.504,0.931l-0.645,0.931c-0.286,-0.287 -0.931,-0.645 -1.217,-0.931c-0.286,-0.286 -0.931,-0.286 -1.217,-0.286c-0.645,0 -1.217,0.286 -1.504,0.644c-0.286,0.358 -0.644,0.931 -0.644,1.504c0,0.286 0,0.644 0.286,0.93c0.287,0.287 0.287,0.645 0.931,0.645c0.286,0 0.644,0.286 1.504,0.644c0.286,0 0.644,0.287 0.93,0.287c0.931,0.286 1.504,0.644 1.862,1.217c0.286,0.644 0.644,1.217 0.644,1.861c0,0.931 -0.286,1.862 -0.93,2.435c-0.645,0.573 -1.504,0.931 -2.435,0.931c-0.644,0 -1.503,-0.287 -2.148,-0.645c-0.644,-0.286 -1.217,-0.931 -1.503,-1.503l0.286,-0.645Zm-7.947,2.793l-0.931,-0.287l2.434,-4.296l-4.296,-7.017l0.931,-0.286l3.651,6.086l3.366,-6.086l0.93,0.286l-6.085,11.6Zm-10.024,-2.793c0.286,0.645 0.644,0.931 1.217,1.217c0.286,0.287 0.931,0.287 1.503,0.287c0.645,0 1.218,-0.287 1.862,-0.645c0.644,-0.286 0.644,-0.93 0.644,-1.503c0,-0.931 -0.93,-1.862 -2.72,-2.435l-0.287,0c-0.931,-0.286 -1.503,-0.644 -2.148,-1.217c-0.286,-0.644 -0.644,-1.217 -0.644,-1.861c0,-0.931 0.286,-1.504 0.931,-2.148c0.644,-0.645 1.503,-0.931 2.434,-0.931c0.644,0 1.217,0 1.504,0.286c0.644,0.287 0.93,0.645 1.503,0.931l-0.644,0.931c-0.287,-0.287 -0.931,-0.645 -1.217,-0.931c-0.287,-0.286 -0.931,-0.286 -1.218,-0.286c-0.644,0 -1.217,0.286 -1.503,0.644c-0.287,0.358 -0.645,0.931 -0.645,1.504c0,0.286 0,0.644 0.287,0.93c0.286,0.287 0.286,0.645 0.931,0.645c0.286,0 0.644,0.286 1.503,0.644c0.287,0 0.645,0.287 0.931,0.287c0.931,0.286 1.504,0.644 1.862,1.217c0.286,0.644 0.644,1.217 0.644,1.861c0,0.931 -0.286,1.862 -0.931,2.435c-0.644,0.573 -1.503,0.931 -2.434,0.931c-0.645,0 -1.504,-0.287 -2.148,-0.645c-0.645,-0.286 -1.217,-0.931 -1.504,-1.503l0.287,-0.645Zm-12.53,2.435l0,-11.313l0.931,0l0,10.382l3.938,0l-0.287,0.931l-4.582,0Zm-13.174,0l6.086,-11.6l5.799,11.6l-0.931,0.286l-2.434,-4.582l-5.227,0l-2.434,4.582l-0.859,-0.286Zm3.651,-5.514l3.938,0l-2.148,-3.938l-1.79,3.938Zm-13.747,5.872l0,-11.886l7.661,9.165l0,-8.879l0.931,-0.286l0,11.886l-7.661,-9.165l0,8.878l-0.931,0.287Zm-14.32,-5.872c0,-0.93 0.287,-1.503 0.645,-2.434c0.286,-0.644 0.93,-1.504 1.503,-1.862c0.645,-0.644 1.217,-0.93 1.862,-1.217c0.644,-0.286 1.503,-0.286 2.148,-0.286c0.931,0 1.503,0 2.148,0.286c0.644,0.287 1.217,0.645 1.861,1.217c0.645,0.645 0.931,1.218 1.504,1.862c0.286,0.644 0.644,1.504 0.644,2.434c0,0.931 -0.286,1.504 -0.644,2.435c-0.358,0.931 -0.931,1.503 -1.217,1.861c-0.645,0.645 -1.217,0.931 -1.862,1.218c-0.644,0.286 -1.503,0.286 -2.148,0.286c-0.931,0 -1.503,0 -2.148,-0.286c-0.644,-0.287 -1.217,-0.645 -1.861,-1.218c-0.645,-0.644 -0.931,-1.217 -1.504,-2.148c-0.644,-0.572 -0.931,-1.503 -0.931,-2.148Zm1.218,0c0,1.504 0.644,2.435 1.503,3.652c0.931,0.931 2.148,1.504 3.365,1.504c1.217,0 2.435,-0.645 3.365,-1.504c0.931,-0.859 1.504,-2.148 1.504,-3.652c0,-1.503 -0.644,-2.434 -1.504,-3.651c-0.93,-0.931 -2.148,-1.504 -3.365,-1.504c-1.503,0 -2.434,0.645 -3.365,1.504c-1.217,0.931 -1.503,2.148 -1.503,3.651Zm-4.583,5.872l0,-11.6l0.931,0l0,11.6l-0.931,0Zm-6.157,0l0,-10.74l-3.079,0l0.286,-0.931l6.731,0l0,0.931l-3.079,0l0,10.382l-0.859,0.358Zm-14.32,-0.358l6.086,-11.6l5.799,11.6l-0.931,0.286l-2.434,-4.582l-5.227,0l-2.434,4.582l-0.859,-0.286Zm3.938,-5.514l3.938,0l-1.862,-3.938l-2.076,3.938Zm-14.034,5.872l0,-11.886l7.661,9.165l0,-8.879l0.931,-0.286l0,11.886l-7.661,-9.165l0,8.878l-0.931,0.287Zm-7.947,0l0,-11.6l1.861,0c1.218,0 1.862,0.287 2.721,0.931c0.645,0.645 0.931,1.504 0.931,2.435c0,0.93 -0.286,1.503 -0.644,2.148c-0.645,0.644 -1.218,0.93 -1.862,1.217l3.365,4.296l-0.931,0.644l-4.296,-5.799l0.931,0c0.931,0 1.504,-0.287 1.862,-0.645c0.644,-0.286 0.644,-0.931 0.644,-1.861c0,-0.645 -0.286,-1.218 -0.644,-1.862c-0.645,-0.286 -1.217,-0.644 -2.148,-0.644l-0.931,0l0,10.382l-0.859,0.358Zm-8.592,-0.358l0,-11.313l6.086,0l0.286,0.931l-5.226,0l0,4.296l4.582,0l0,0.93l-4.582,0l0,4.296l5.513,0l-0.287,0.931l-6.372,0l0,-0.071Zm-5.8,0.358l0,-10.74l-3.078,0l0.286,-0.931l6.73,0l0,0.931l-3.007,0l0,10.382l-0.931,0.358Zm-13.747,0l0,-11.886l7.662,9.165l0,-8.879l0.93,-0.286l0,11.886l-7.661,-9.165l0,8.878l-0.931,0.287Zm-3.937,0l0,-11.6l0.93,0l0,11.6l-0.93,0Z" style="fill:#111;fill-rule:nonzero;"/><path d="M26.635,25.489c-1.217,11.599 -2.148,23.198 -26.563,23.843l0,0.286c0,0.287 0.286,0.645 0.644,0.645l43.103,0c0.286,0 0.644,-0.287 0.644,-0.645l0,-39.451c-16.611,0 -17.184,7.661 -17.828,15.322Z" style="fill:#111;fill-rule:nonzero;"/><path d="M43.747,0.43l-43.103,0c-0.286,0 -0.644,0.286 -0.644,0.644l0,39.451c16.468,-0.644 17.112,-8.234 18.043,-15.895c1.217,-11.599 2.148,-22.912 26.563,-23.198l0,-0.286c-0.215,-0.43 -0.501,-0.716 -0.859,-0.716Z" style="fill:#111;fill-rule:nonzero;"/></g></svg>