<?xml version="1.0" encoding="UTF-8" standalone="no"?><!DOCTYPE svg PUBLIC "-//W3C//DTD SVG 1.1//EN" "http://www.w3.org/Graphics/SVG/1.1/DTD/svg11.dtd"><svg width="100%" height="100%" viewBox="0 0 240 240" version="1.1" xmlns="http://www.w3.org/2000/svg" xmlns:xlink="http://www.w3.org/1999/xlink" xml:space="preserve" xmlns:serif="http://www.serif.com/" style="fill-rule:evenodd;clip-rule:evenodd;stroke-linejoin:round;stroke-miterlimit:1.41421;"><g><path d="M211.814,41.324l-3.315,1.776l-4.499,-15.153l-25.511,-6.333l1.717,-2.782l22.492,5.801l-7.043,-21.723l3.018,-1.48l13.141,39.894Zm-25.038,-4.794l11.128,11.128c0,2.486 -0.77,4.794 -1.539,7.103c-1.006,2.071 -2.249,4.261 -4.025,6.037c-1.776,1.776 -3.788,3.315 -6.037,4.025c-2.072,1.006 -4.558,1.48 -7.103,1.539c-2.546,0.059 -5.032,-0.533 -7.577,-1.539c-2.545,-1.006 -4.794,-2.308 -6.807,-4.321c-1.539,-1.539 -3.018,-3.492 -3.788,-5.801c-1.006,-2.071 -1.48,-4.557 -1.776,-6.866c-0.295,-2.782 0.237,-5.327 1.303,-7.813c1.065,-2.486 2.308,-4.794 4.557,-7.043c1.776,-1.776 3.493,-3.019 5.564,-4.025c2.072,-1.007 4.025,-1.539 6.57,-1.48l0.237,3.315c-2.012,0 -4.025,0.473 -5.564,1.538c-1.775,0.711 -3.314,1.776 -4.794,3.256c-3.256,3.255 -4.795,6.807 -4.854,11.365c0,4.498 1.539,8.049 4.854,11.364c3.314,3.315 7.043,5.031 11.364,4.854c4.499,0 8.05,-1.539 11.365,-4.854c1.243,-1.243 2.308,-2.782 3.255,-4.321c0.711,-1.776 1.243,-3.255 1.48,-5.031l-7.813,-7.813l-8.819,8.819l-1.48,-3.018l10.358,-10.359l-0.059,-0.059Zm-26.044,55.284l-26.517,-26.517l4.321,-4.321c2.545,-2.546 5.327,-3.789 8.05,-4.025c3.078,0 5.504,1.006 7.813,3.314c2.012,2.013 3.019,4.085 3.255,6.807c0.237,2.25 -0.296,4.795 -2.012,7.103l18.231,2.013l-0.77,3.255l-23.262,-3.019l1.776,-1.775c2.012,-2.013 2.723,-3.789 3.019,-6.097c0,-2.012 -0.711,-3.788 -2.486,-5.564c-1.776,-1.776 -3.552,-2.486 -5.564,-2.486c-2.013,0 -4.084,1.006 -6.097,3.019l-1.776,1.776l24.032,24.031l-2.013,2.486Zm-20.657,19.71l-26.044,-26.043l13.91,-13.91l2.782,1.716l-12.134,12.134l9.352,9.352l10.358,-10.358l2.013,2.013l-10.359,10.358l10.122,10.121l12.903,-12.903l1.717,2.782l-14.679,14.679l0.059,0.059Zm-26.34,27.287l-27.05,-27.05l38.651,3.256l-20.716,-20.717l1.716,-2.782l27.05,27.05l-38.947,-3.551l20.717,20.716l-1.421,3.078Zm-17.106,17.698l-3.315,1.776l-4.498,-15.153l-25.511,-6.333l1.716,-2.782l22.493,5.8l-7.044,-21.723l3.019,-1.479l13.14,39.894Zm-30.365,17.698c2.013,0.474 4.025,0.474 5.564,0c1.539,-0.473 3.256,-1.243 4.558,-2.545c1.775,-1.776 2.486,-3.552 2.782,-5.86c0,-2.012 -0.474,-4.025 -2.013,-5.564c-2.545,-2.545 -6.333,-2.308 -11.897,0.77c-0.77,0.296 -1.006,0.532 -1.243,0.769c-2.782,1.243 -5.327,2.249 -7.34,2.249c-2.012,0 -4.084,-1.006 -5.86,-2.782c-2.012,-2.012 -2.781,-4.321 -2.781,-7.28c0.295,-2.782 1.243,-5.268 3.551,-7.576c1.243,-1.243 2.782,-2.309 4.558,-3.019c1.539,-0.474 3.492,-1.006 5.504,-1.006l0.237,3.314c-2.012,0 -3.551,0.474 -4.794,0.77c-1.243,0.296 -2.309,1.243 -3.315,2.249c-1.539,1.539 -2.249,3.315 -2.249,5.327c0,2.013 0.473,3.552 2.012,5.091c0.77,0.769 1.776,1.302 2.782,1.716c1.066,0 2.249,0.237 3.315,-0.237c0.769,-0.296 2.545,-1.006 4.498,-2.012c1.007,-0.533 2.072,-1.006 2.546,-1.48c2.781,-1.243 4.794,-1.716 7.102,-1.539c2.25,0.237 4.085,1.006 5.86,2.782c2.249,2.249 3.256,4.794 3.078,7.576c0,3.078 -1.302,5.801 -3.788,8.287c-1.776,1.776 -3.788,2.723 -5.801,3.315c-2.308,0.769 -4.557,0.532 -7.103,0l0.237,-3.315Z" style="fill:#111;fill-rule:nonzero;"/><path d="M232.53,43.81c0.77,0.296 1.303,0.237 2.013,0c0.473,0 1.006,-0.532 1.48,-1.006c0.532,-0.533 0.769,-1.243 1.006,-2.071c0.296,-0.77 -0.237,-1.303 -0.71,-1.776c-0.77,-0.77 -2.309,-0.77 -4.262,0.237l-0.237,0.236c-1.006,0.533 -1.776,0.711 -2.782,0.77c-0.769,-0.296 -1.539,-0.474 -2.072,-1.006c-0.769,-0.77 -1.006,-1.48 -1.006,-2.546c0,-1.065 0.474,-2.012 1.243,-2.782c0.533,-0.532 1.006,-1.006 1.48,-1.006c0.769,-0.296 1.302,-0.237 2.012,-0.473l0.237,1.302c-0.473,0 -1.302,0.237 -1.776,0.237c-0.473,0 -1.006,0.532 -1.243,0.769c-0.532,0.533 -0.769,1.243 -0.71,1.776c0.059,0.533 0.237,1.302 0.71,1.776c0.237,0.236 0.533,0.532 1.007,0.532c0.473,0 0.769,0.296 1.302,-0.237c0.237,-0.236 0.769,-0.295 1.776,-0.71c0.236,-0.237 0.769,-0.296 1.006,-0.533c1.006,-0.532 1.776,-0.71 2.545,-0.532c0.77,0.177 1.539,0.473 2.072,1.006c0.769,0.769 1.302,1.776 1.243,2.782c0,1.065 -0.474,2.012 -1.243,2.782c-0.533,0.533 -1.48,1.006 -2.309,1.243c-0.769,0.296 -1.775,0.237 -2.486,0l-0.296,-0.77Zm-10.121,14.147l-7.813,-11.838l11.068,4.558l-4.557,-11.069l11.838,7.813l-0.533,1.006l-8.642,-5.564l4.084,10.122l-10.121,-4.084l5.564,8.642l-0.888,0.414Zm-6.334,6.333l-9.352,-9.352l5.031,-5.031l1.007,0.533l-4.321,4.321l3.551,3.551l3.788,-3.788l0.77,0.769l-3.788,3.789l3.551,3.551l4.558,-4.558l0.532,1.007l-5.267,5.268l-0.06,-0.06Zm-4.735,5.327l-8.878,-8.878l-2.546,2.545l-0.532,-1.006l5.564,-5.564l0.769,0.769l-2.545,2.546l8.582,8.582l-0.414,1.006Zm-11.187,6.571c0.77,0.296 1.302,0.236 2.013,0c0.473,0 1.006,-0.533 1.479,-1.007c0.533,-0.532 0.77,-1.243 1.007,-2.071c0.296,-0.77 -0.237,-1.302 -0.711,-1.776c-0.769,-0.769 -2.308,-0.769 -4.261,0.237l-0.237,0.237c-1.006,0.532 -1.776,0.71 -2.782,0.769c-0.77,-0.296 -1.539,-0.474 -2.072,-1.006c-0.769,-0.77 -1.006,-1.48 -1.006,-2.545c0,-1.066 0.473,-2.013 1.243,-2.782c0.533,-0.533 1.006,-1.007 1.48,-1.007c0.769,-0.296 1.302,-0.236 2.012,-0.473l0.237,1.302c-0.474,0 -1.302,0.237 -1.776,0.237c-0.473,0 -1.006,0.533 -1.243,0.769c-0.532,0.533 -0.769,1.243 -0.71,1.776c0.059,0.533 0.237,1.302 0.71,1.776c0.237,0.236 0.533,0.532 1.006,0.532c0.474,0 0.77,0.296 1.303,-0.236c0.236,-0.237 0.769,-0.296 1.775,-0.711c0.237,-0.236 0.77,-0.296 1.007,-0.532c1.006,-0.533 1.775,-0.711 2.545,-0.533c0.769,0.296 1.539,0.473 2.071,1.006c0.77,0.77 1.303,1.776 1.243,2.782c-0.059,1.006 -0.473,2.013 -1.243,2.782c-0.532,0.533 -1.479,1.006 -2.308,1.243c-0.769,0.296 -1.776,0.237 -2.486,0l-0.296,-0.769Zm-4.262,8.878l-1.006,0.533l-1.539,-5.564l-9.352,-2.249l0.533,-1.006l8.05,2.012l-2.25,-7.813l1.007,-0.533l4.557,14.62Zm-10.595,5.978c0.77,0.296 1.302,0.237 2.013,0c0.473,0 1.006,-0.532 1.48,-1.006c0.532,-0.533 0.769,-1.243 1.006,-2.071c0.296,-0.77 -0.237,-1.303 -0.711,-1.776c-0.769,-0.77 -2.308,-0.77 -4.261,0.237l-0.237,0.236c-1.006,0.533 -1.776,0.711 -2.782,0.77c-0.769,-0.296 -1.539,-0.474 -2.072,-1.006c-0.769,-0.77 -1.006,-1.48 -1.006,-2.546c0,-1.065 0.474,-2.012 1.243,-2.782c0.533,-0.532 1.006,-1.006 1.48,-1.006c0.769,-0.296 1.302,-0.237 2.012,-0.473l0.237,1.302c-0.473,0 -1.302,0.237 -1.776,0.237c-0.473,0 -1.006,0.532 -1.243,0.769c-0.532,0.533 -0.769,1.243 -0.71,1.776c0.059,0.533 0.237,1.302 0.71,1.776c0.237,0.236 0.533,0.532 1.007,0.532c0.473,0 0.769,0.296 1.302,-0.237c0.237,-0.236 0.769,-0.295 1.776,-0.71c0.236,-0.237 0.769,-0.296 1.006,-0.533c1.006,-0.532 1.776,-0.71 2.545,-0.532c0.769,0.296 1.539,0.473 2.072,1.006c0.769,0.769 1.302,1.776 1.243,2.782c-0.06,1.006 -0.474,2.012 -1.243,2.782c-0.533,0.533 -1.48,1.006 -2.309,1.243c-0.769,0.296 -1.775,0.237 -2.486,0l-0.296,-0.77Zm-8.346,12.371l-9.352,-9.352l0.77,-0.769l8.582,8.582l3.256,-3.255l0.533,1.006l-3.789,3.788Zm-10.891,10.891l-4.557,-14.62l14.383,4.795l-0.533,1.006l-5.8,-1.776l-4.321,4.321l1.775,5.801l-0.947,0.473Zm-1.539,-7.576l3.256,-3.256l-5.031,-1.479l1.775,4.735Zm-6.511,16.218l-9.825,-9.826l13.91,1.243l-7.34,-7.339l0.533,-1.006l9.825,9.825l-13.909,-1.243l7.339,7.34l-0.533,1.006Zm-16.691,6.985c-0.77,-0.77 -1.006,-1.48 -1.48,-2.546c-0.296,-0.769 -0.474,-2.012 -0.296,-2.782c0,-1.065 0.237,-1.775 0.533,-2.545c0.296,-0.769 1.006,-1.479 1.539,-2.012c0.769,-0.77 1.243,-1.243 2.012,-1.539c0.77,-0.296 1.539,-0.474 2.545,-0.533c1.066,0 1.776,0.237 2.782,0.296c0.77,0.296 1.776,0.71 2.546,1.48c0.769,0.769 1.006,1.48 1.479,2.545c0.474,1.065 0.474,2.013 0.533,2.545c0,1.066 -0.237,1.776 -0.533,2.545c-0.296,0.77 -1.006,1.48 -1.539,2.013c-0.769,0.769 -1.243,1.243 -2.012,1.539c-0.77,0.296 -1.539,0.473 -2.545,0.533c-1.066,0 -1.776,-0.237 -3.019,-0.533c-1.006,0.059 -2.013,-0.474 -2.545,-1.006Zm1.006,-1.007c1.243,1.243 2.545,1.48 4.262,1.776c1.539,0 3.018,-0.533 4.025,-1.539c1.006,-1.006 1.479,-2.545 1.539,-4.025c0.059,-1.48 -0.533,-3.019 -1.776,-4.262c-1.243,-1.243 -2.545,-1.479 -4.262,-1.775c-1.539,0 -3.019,0.532 -4.025,1.539c-1.243,1.243 -1.48,2.545 -1.539,4.025c-0.236,1.775 0.533,3.018 1.776,4.261Zm1.065,8.642l-9.588,-9.589l0.769,-0.769l9.589,9.589l-0.77,0.769Zm-5.09,5.091l-8.879,-8.879l-2.545,2.545l-0.532,-1.006l5.563,-5.564l0.77,0.77l-2.545,2.545l8.582,8.582l-0.414,1.007Zm-12.134,11.542l-4.558,-14.62l14.384,4.794l-0.533,1.006l-5.801,-1.775l-4.321,4.321l1.776,5.8l-0.947,0.474Zm-1.302,-7.813l3.255,-3.256l-4.794,-1.716l1.539,4.972Zm-6.748,16.455l-9.826,-9.826l13.91,1.243l-7.339,-7.34l0.532,-1.006l9.826,9.826l-13.91,-1.243l7.34,7.339l-0.533,1.007Zm-6.57,6.57l-9.589,-9.589l1.539,-1.539c1.006,-1.006 1.776,-1.302 3.019,-1.48c1.065,0 2.012,0.474 2.782,1.243c0.769,0.77 1.006,1.48 1.243,2.309c0,1.065 -0.237,1.775 -0.533,2.545l6.333,0.769l-0.236,1.302l-8.346,-1.243l0.769,-0.769c0.77,-0.77 1.006,-1.48 1.006,-2.072c0.296,-0.769 -0.236,-1.302 -1.006,-2.071c-0.533,-0.533 -1.243,-0.77 -2.071,-1.007c-0.77,0.296 -1.539,0.474 -2.309,1.243l-0.769,0.77l8.582,8.582l-0.414,1.007Zm-7.399,6.807l-9.352,-9.353l5.031,-5.031l1.006,0.533l-4.32,4.321l3.551,3.551l3.788,-3.788l0.77,0.77l-3.789,3.788l3.552,3.551l4.558,-4.557l0.532,1.006l-5.268,5.268l-0.059,-0.059Zm-4.498,5.09l-8.879,-8.879l-2.545,2.546l-0.533,-1.007l5.564,-5.564l0.77,0.77l-2.486,2.486l8.582,8.583l-0.473,1.065Zm-11.365,11.365l-9.826,-9.826l13.91,1.243l-7.339,-7.34l0.532,-1.006l9.826,9.826l-13.91,-1.243l7.34,7.339l-0.533,1.007Zm-3.255,3.255l-9.589,-9.589l0.769,-0.769l9.589,9.589l-0.769,0.769Z" style="fill:#111;fill-rule:nonzero;"/><path d="M43.535,196.463c8.583,10.595 17.402,20.953 -2.249,41.67l0.237,0.237c0.236,0.236 0.769,0.296 1.065,0l35.633,-35.633c0.236,-0.237 0.296,-0.77 0,-1.066l-32.614,-32.613c-13.733,13.732 -7.873,20.539 -2.072,27.405Z" style="fill:#111;fill-rule:nonzero;"/><path d="M36.965,161.6l-35.633,35.632c-0.237,0.237 -0.296,0.77 0,1.066l32.614,32.614c13.081,-14.147 7.34,-20.954 1.776,-28.057c-8.583,-10.595 -17.165,-20.716 2.782,-41.137l-0.237,-0.237c-0.533,-0.177 -1.006,-0.177 -1.302,0.119Z" style="fill:#111;fill-rule:nonzero;"/></g></svg>