<?xml version="1.0" encoding="UTF-8" standalone="no"?><!DOCTYPE svg PUBLIC "-//W3C//DTD SVG 1.1//EN" "http://www.w3.org/Graphics/SVG/1.1/DTD/svg11.dtd"><svg width="100%" height="100%" viewBox="0 0 240 53" version="1.1" xmlns="http://www.w3.org/2000/svg" xmlns:xlink="http://www.w3.org/1999/xlink" xml:space="preserve" xmlns:serif="http://www.serif.com/" style="fill-rule:evenodd;clip-rule:evenodd;stroke-linejoin:round;stroke-miterlimit:1.41421;"><g><path d="M16.713,6.103c0,-1.604 -0.802,-2.807 -4.347,-2.807c-3.553,0 -4.352,1.203 -4.352,2.807l0,4.348c0,1.317 0.458,2.633 1.718,3.719l12.014,10.304c1.721,1.43 2.75,3.205 2.75,5.036l0,6.523c0,3.898 -4.582,6.07 -12.134,6.07c-8.355,0 -12.366,-1.889 -12.362,-6.07l0,-5.66l7.556,0l-0.003,5.433c0,1.949 1.49,3.092 4.809,3.092c3.091,0 4.578,-1.143 4.578,-3.092l0,-5.781c0,-1.431 -0.571,-2.52 -2.172,-3.947l-11.105,-9.671c-2.059,-1.779 -3.205,-3.152 -3.205,-5.267l0,-4.98c0,-4.064 4.238,-6.069 11.908,-6.069c8.471,0 11.9,2.005 11.9,5.781l0,5.268l-7.553,0l0,-5.037Z" style="fill:#111;fill-rule:nonzero;"/><path d="M97.127,34.913c0,2.289 0.912,3.894 5.721,3.894c4.809,0 5.725,-1.605 5.725,-3.894l0,-27.818c0,-2.286 -0.916,-3.89 -5.721,-3.89c-4.809,0 -5.725,1.604 -5.725,3.89l0,27.818Zm-7.553,-27.932c0,-4.064 3.088,-6.981 13.278,-6.981c10.186,0 13.277,2.917 13.277,6.981l-0.004,28.046c0,4.064 -3.087,6.985 -13.277,6.985c-10.186,0 -13.277,-2.921 -13.277,-6.985l0.003,-28.046Z" style="fill:#111;fill-rule:nonzero;"/><path d="M131.522,19.861c3.435,0 5.838,-0.458 5.838,-2.577l0,-11.158c0,-2.119 -2.403,-2.577 -5.838,-2.577l-3.659,0l0,16.312l3.659,0Zm-11.216,-19.517l12.022,0c9.732,0 12.592,1.601 12.592,6.297l-0.007,10.129c0,4.692 -2.861,6.296 -12.585,6.296l-4.465,0l0,18.601l-7.557,0l0,-41.323Z" style="fill:#111;fill-rule:nonzero;"/><path d="M163.786,6.012c0,-1.604 -0.802,-2.807 -4.347,-2.807c-3.553,0 -4.355,1.203 -4.355,2.807l0,4.348c0,1.317 0.457,2.634 1.717,3.72l12.022,10.303c1.714,1.43 2.743,3.205 2.743,5.036l0,6.527c0,3.894 -4.575,6.066 -12.131,6.066c-8.355,0 -12.366,-1.888 -12.366,-6.07l0,-5.664l7.557,0l0,5.437c0,1.949 1.491,3.092 4.809,3.092c3.091,0 4.578,-1.143 4.578,-3.092l0,-5.781c0,-1.431 -0.567,-2.516 -2.175,-3.947l-11.102,-9.675c-2.066,-1.775 -3.205,-3.148 -3.205,-5.263l0,-4.984c0,-4.063 4.234,-6.065 11.908,-6.065c8.468,0 11.9,2.002 11.9,5.785l0,5.264l-7.553,0l0,-5.037Z" style="fill:#111;fill-rule:nonzero;"/><path d="M219.537,6.012c0,-1.604 -0.802,-2.807 -4.347,-2.807c-3.55,0 -4.352,1.203 -4.352,2.807l0,4.352c0,1.313 0.458,2.63 1.718,3.716l12.017,10.307c1.718,1.43 2.744,3.201 2.744,5.032l0,6.527c0,3.894 -4.575,6.066 -12.127,6.066c-8.359,0 -12.37,-1.888 -12.37,-6.066l0,-5.668l7.56,0l-0.004,5.437c0,1.949 1.491,3.092 4.814,3.092c3.083,0 4.574,-1.143 4.574,-3.092l0,-5.781c0,-1.431 -0.571,-2.516 -2.176,-3.947l-11.101,-9.675c-2.062,-1.771 -3.205,-3.144 -3.205,-5.263l0,-4.984c0,-4.056 4.234,-6.065 11.908,-6.065c8.468,0 11.903,2.009 11.903,5.785l0,5.264l-7.556,0l0,-5.037Z" style="fill:#111;fill-rule:nonzero;"/><path d="M47.877,0.344l7.567,0l-16.558,51.88l-7.564,0l16.555,-51.88Z" style="fill:#111;fill-rule:nonzero;"/><path d="M35.942,32.571l-10.235,-32.132l7.564,0l6.452,20.255l-3.781,11.877Z" style="fill:#111;fill-rule:nonzero;"/><path d="M194.867,0.344l7.563,0l-16.558,51.888l-7.563,0l16.558,-51.888Z" style="fill:#111;fill-rule:nonzero;"/><path d="M182.967,32.48l-10.236,-32.136l7.564,0l6.455,20.259l-3.783,11.877Z" style="fill:#111;fill-rule:nonzero;"/><path d="M84.913,41.667l0.037,0l0,-35.015c0,-4.696 -2.864,-6.3 -12.588,-6.3l-14.572,0l-0.004,41.331l7.553,0l0.004,-0.016l0,-38.11l6.217,0c3.431,0 5.834,0.461 5.834,2.577l0,35.533l7.519,0Z" style="fill:#111;fill-rule:nonzero;"/><path d="M235.13,5.116c0.712,0 1.347,-0.049 1.347,-0.901c0,-0.692 -0.62,-0.813 -1.207,-0.813l-1.146,0l0,1.714l1.006,0Zm-1.006,3.118l-0.844,0l0,-5.547l2.115,0c1.313,0 1.964,0.48 1.964,1.574c0,0.999 -0.628,1.43 -1.442,1.532l1.578,2.441l-0.938,0l-1.468,-2.403l-0.965,0l0,2.403Zm1.021,1.237c2.176,0 3.89,-1.707 3.89,-4.026c0,-2.278 -1.714,-3.996 -3.89,-3.996c-2.209,0 -3.923,1.718 -3.923,3.996c0,2.319 1.714,4.026 3.923,4.026m-4.892,-4.026c0,-2.758 2.24,-4.798 4.892,-4.798c2.619,0 4.855,2.04 4.855,4.798c0,2.789 -2.236,4.828 -4.855,4.828c-2.652,0 -4.892,-2.039 -4.892,-4.828" style="fill:#111;fill-rule:nonzero;"/></g></svg>