<?xml version="1.0" standalone="no"?>
<!DOCTYPE svg PUBLIC "-//W3C//DTD SVG 1.1//EN" "http://www.w3.org/Graphics/SVG/1.1/DTD/svg11.dtd" >
<svg xmlns="http://www.w3.org/2000/svg" xmlns:xlink="http://www.w3.org/1999/xlink" version="1.1">
<metadata>
Created by FontForge 20170924 at Tue Jun 11 09:09:38 2019
 By www-data
</metadata>
<defs>
<font id="BraindYerevanRegular" horiz-adv-x="411" >
  <font-face 
    font-family="Braind Yerevan"
    font-weight="400"
    font-stretch="normal"
    units-per-em="1000"
    panose-1="0 0 0 0 0 0 0 0 0 0"
    ascent="800"
    descent="-200"
    x-height="636.952"
    cap-height="743.57"
    bbox="-161.001 -190.882 849.234 900.574"
    underline-thickness="50"
    underline-position="-100"
    unicode-range="U+000A-F00A"
  />
<missing-glyph horiz-adv-x="527" 
d="M50 700h427v-700h-427v700zM78 680l185 -309l186 309h-371zM251 350l-180 300v-601zM264 329l-185 -308h370zM276 350l181 -303v605z" />
    <glyph glyph-name="zaarmenianyiarmenian.liga" unicode="&#x566;&#x575;" horiz-adv-x="666" 
d="M237.193 575.439v0.227539c44.5371 0 76.4775 -6.29785 95.5967 -25.417c25.417 -19.1191 31.9404 -57.3574 31.9404 -95.5957v-497.329c0 -12.8213 6.29785 -19.1191 25.417 -19.1191h19.1191c25.417 0 44.5361 -12.8213 44.5361 -44.5371v-12.8213
c0 -25.417 -19.1191 -38.2383 -44.5361 -38.2383h-108.193c-25.417 0 -38.2383 12.8213 -38.2383 38.2383v69.9541l-6.52344 25.417c0 12.8213 -6.29785 19.1191 -19.1191 19.1191h-63.6553c-44.5371 0 -76.4775 12.8213 -95.5967 31.9404
s-31.9404 51.0596 -31.9404 95.5967v331.552c0 38.2383 12.8213 76.4766 31.9404 95.5957s51.0596 25.417 95.5967 25.417h63.6562zM619.805 97.459c0 -44.5371 -12.8213 -76.4766 -31.9404 -95.5957c-19.1191 -25.6426 -50.835 -31.9404 -82.7754 -31.9404h-57.3574
c-25.417 0 -38.2383 12.8213 -38.2383 38.2383v12.8213c0 31.7158 12.8213 44.5371 38.2383 44.5371h25.6426c25.417 0 38.2383 12.8213 38.2383 38.2383v433.671c0 25.417 19.1191 38.2383 44.5361 38.2383h19.1191c31.7158 0 44.5371 -12.8213 44.5371 -38.2383v-439.97z
M256.312 116.579l-0.000976562 325.254c0 25.417 -12.8213 44.5361 -38.2383 44.5361h-25.417c-25.417 0 -38.2383 -19.1191 -38.2383 -44.5361v-312.433c0 -19.1191 12.8213 -38.2383 38.2383 -38.2383h44.5371c12.8213 0 19.1191 6.29785 19.1191 25.417z" />
    <glyph glyph-name="liwnarmenianyiarmenian.liga" unicode="&#x56c;&#x575;" horiz-adv-x="455" 
d="M160.716 -156.394v-0.225586c-38.2383 0 -63.6553 12.8213 -83 31.9404c-19.1191 19.1191 -31.7158 51.0596 -31.7158 95.5967v567.507c0 25.417 12.8213 38.2383 44.5371 38.2383h19.1191c31.9404 0 44.5371 -12.8213 44.5371 -38.2383v-560.983
c0 -25.417 12.8213 -38.2383 38.2383 -38.2383h25.417c25.417 0 38.2383 -12.8213 38.2383 -44.5371v-12.8213c0 -25.417 -12.8213 -38.2383 -38.2383 -38.2383h-57.1328zM409.492 98.4551c0 -44.5371 -12.8232 -76.4766 -31.9424 -95.5957
c-19.1191 -25.6426 -57.583 -31.9404 -83 -31.9404h-57.3574c-25.417 0 -44.5361 12.8213 -44.5361 38.2383v12.8213c0 31.7158 19.1191 44.5371 44.5361 44.5371h19.3447c31.7158 0 44.5371 12.8213 44.5371 38.2383v433.671c0 25.417 12.5967 38.2383 44.5371 38.2383
h19.3447c25.417 0 44.5361 -12.8213 44.5361 -38.2383v-439.97z" />
    <glyph glyph-name="shaarmenianyiarmenian.liga" unicode="&#x577;&#x575;" horiz-adv-x="621" 
d="M46 -30.082l0.000976562 19.1201c0 63.6562 12.8213 102.12 70.1797 133.836c12.8213 12.8213 31.9404 25.418 57.3574 38.2393l38.2383 25.417c31.9404 12.8213 44.5371 31.9404 44.5371 70.1787v185.12c0 25.417 -12.8213 38.2383 -44.5371 38.2383h-12.8213
c-31.9404 0 -44.5371 -12.8213 -44.5371 -38.2383v-102.12c0 -25.417 -12.8213 -44.5361 -38.2383 -44.5361h-25.6426c-25.417 0 -38.2383 19.1191 -38.2383 44.5361v114.716c0 38.2383 6.29785 76.4766 25.417 95.5957s57.3574 25.417 102.119 25.417h57.3584
c44.5371 0 76.4775 -6.29785 95.5967 -25.417c19.1191 -18.8945 31.9404 -57.3584 31.9404 -95.5967v-210.312c0 -63.6562 -25.417 -108.418 -83 -140.358c-31.7158 -12.5967 -57.3584 -31.7158 -89.2988 -50.835c-31.7158 -25.6426 -44.5371 -25.6426 -44.5371 -70.1797
v-6.29785c0 -25.417 19.1191 -38.2383 44.5361 -38.2383h127.538c31.9404 0 44.5371 -12.8213 44.5371 -44.5371v-12.8213c0 -25.417 -12.8213 -38.2383 -44.5371 -38.2383h-146.656c-44.5371 0 -76.4775 6.29785 -102.12 31.9404
c-18.8945 18.8945 -25.1924 50.835 -25.1924 95.3721zM575.27 97.4561c0 -44.5371 -12.8232 -76.4766 -31.9424 -95.5957c-25.6426 -25.6426 -57.583 -31.9404 -83 -31.9404h-57.3574c-31.7158 0 -44.5371 12.8213 -44.5371 38.2383v12.8213
c0 31.7158 12.5967 44.5371 44.5371 44.5371h19.3447c31.7158 0 44.5371 12.8213 44.5371 38.2383v433.671c0 25.417 12.5967 38.2383 44.5371 38.2383h19.3447c25.417 0 44.5361 -12.8213 44.5361 -38.2383v-439.97z" />
    <glyph glyph-name="jheharmenianyiarmenian.liga" unicode="&#x57b;&#x575;" horiz-adv-x="628" 
d="M46 -9.96191l0.451172 -0.000976562c0 63.6562 19.1191 102.12 70.1787 133.836c19.1191 12.8213 38.2383 25.418 57.3574 38.2393h6.29785c-12.8213 6.29785 -31.9404 19.1191 -44.5371 25.417c-12.8213 6.29785 -31.9404 19.1191 -38.2383 25.417
c-12.8213 12.8213 -25.418 25.418 -31.9414 44.5371c-6.29785 12.8213 -12.8213 31.9404 -12.8213 57.3574v140.583c0 38.2383 12.8213 76.4766 31.9404 95.5957s51.0596 25.417 95.5967 25.417h57.3584c44.5371 0 76.4775 -6.29785 102.12 -25.417
c19.1191 -19.1191 25.417 -57.3574 25.417 -95.5957v-210.312c0 -63.6562 -19.1191 -108.418 -83 -140.358c-25.418 -12.8213 -57.3584 -31.9404 -83.001 -51.0596c-38.2383 -25.417 -44.5361 -25.417 -44.5361 -70.1787v-6.29785
c0 -25.417 12.8213 -38.2383 44.5371 -38.2383h127.537c25.417 0 38.2383 -12.8213 38.2383 -44.5371v-12.8213c0 -25.417 -12.8213 -38.2383 -38.2383 -38.2383h-153.18c-44.5371 0 -76.4775 6.29785 -95.5967 31.9404c-19.1191 19.1191 -31.9404 51.0596 -31.9404 95.5967
v19.1191zM582.242 98.4551c0 -44.5371 -12.8213 -76.4766 -31.9404 -95.5957c-19.1191 -25.6426 -51.0596 -31.9404 -83 -31.9404h-57.3574c-25.417 0 -38.2383 12.8213 -38.2383 38.2383v12.8213c0 31.7158 12.8213 44.5371 38.2383 44.5371h25.8672
c25.417 0 38.2383 12.8213 38.2383 38.2383v433.671c0 25.417 19.1191 38.2383 44.5361 38.2383h19.1191c31.7158 0 44.5371 -12.8213 44.5371 -38.2383v-439.97zM263.287 257.934l-0.000976562 184.895c0 25.417 -19.1191 38.2383 -44.5361 38.2383h-19.1191
c-25.417 0 -38.2383 -12.8213 -38.2383 -38.2383v-140.358c6.29785 -6.29785 6.29785 -12.8213 12.8213 -19.1191c0 -6.29785 6.29785 -6.29785 12.8213 -12.8213c6.29785 0 12.8213 -6.29785 19.1191 -6.29785c31.7158 -19.1191 57.1328 -38.2383 57.1328 -6.29785z" />
    <glyph glyph-name="vewarmenianyiarmenian.liga" unicode="&#x57e;&#x575;" horiz-adv-x="665" 
d="M255.863 2.85938h-82.3242c-44.7617 0 -76.7021 6.29785 -102.119 25.417c-19.1191 25.6426 -25.417 57.583 -25.417 102.12v408.029c0 25.417 12.8213 44.5361 38.2383 44.5361h25.417c25.417 0 38.2383 -19.1191 38.2383 -44.5361v-401.506
c0 -25.417 12.5967 -38.2383 44.5371 -38.2383h19.1191c31.7158 0 44.5371 12.8213 44.5371 38.2383v560.983c0 31.7158 12.5967 44.5371 44.5371 44.5371h19.1191c25.417 0 44.5361 -12.8213 44.5361 -44.5371v-739.806c0 -12.8213 6.29785 -19.1191 19.1191 -19.1191
h19.1191c31.7158 0 44.5371 -12.5967 44.5371 -44.5371v-12.8213c0 -25.417 -12.5967 -38.2383 -44.5371 -38.2383h-102.12c-31.7158 0 -44.5371 12.8213 -44.5371 38.2383v121.239zM619.356 98.4561c0 -44.5371 -12.8213 -76.4766 -31.9404 -95.5957
c-25.417 -25.6426 -57.3574 -31.9404 -82.5498 -31.9404h-57.3574c-31.7158 0 -44.5371 12.8213 -44.5371 38.2383v12.8213c0 31.7158 12.5967 44.5371 44.5371 44.5371h19.1191c31.7158 0 44.5371 12.8213 44.5371 38.2383v433.671
c0 25.417 12.8213 38.2383 38.2383 38.2383h25.417c25.417 0 44.5361 -12.8213 44.5361 -38.2383v-439.97z" />
    <glyph glyph-name="zaarmeniankeharmenian.liga" unicode="&#x566;&#x584;" horiz-adv-x="883" 
d="M173.537 583.246l63.8799 0.00195312c44.5371 0 76.4775 -12.8213 102.12 -31.9404c19.1191 -19.1191 25.417 -51.0596 25.417 -95.5967v-497.329c0 -12.8213 12.8213 -19.1191 25.418 -19.1191h19.1191c31.9404 0 44.5371 -12.8213 44.5371 -44.5371v-6.52344
c0 -31.9404 -12.8213 -44.5371 -44.5371 -44.5371h-108.418c-25.417 0 -38.2383 12.8213 -38.2383 44.5371v89.2988c0 12.8213 -6.29785 19.1191 -25.417 19.1191h-63.8809c-44.5371 0 -76.4775 12.8213 -95.5967 31.9404s-31.9404 51.0596 -31.9404 95.5967v331.552
c0 44.5371 12.8213 76.4775 31.9404 95.5967s51.0596 31.9404 95.5967 31.9404zM518.134 -118.319l-0.000976562 574.029c0 44.5371 6.29785 76.4775 25.417 95.5967c25.417 19.1191 57.3574 31.9404 102.119 31.9404h63.6562c44.5371 0 76.4775 -12.8213 95.5967 -31.9404
s31.9404 -51.0596 31.9404 -95.5967v-287.015c0 -44.5371 -12.8213 -76.4775 -31.9404 -95.5967s-51.0596 -31.9404 -95.5967 -31.9404h-63.8809c-19.1191 0 -25.417 -6.29785 -25.417 -19.1191v-140.358c0 12.8213 6.29785 25.418 25.417 25.418h146.656
c25.417 0 44.5361 12.8213 44.5361 38.2383v13.0459c0 25.417 -19.1191 38.2383 -44.5361 38.2383h-146.656c-19.1191 0 -25.417 12.8213 -25.417 25.418v-140.358c0 -25.417 -12.8213 -38.2383 -38.2383 -38.2383h-25.417c-25.417 0 -38.2383 12.8213 -38.2383 38.2383z
M728.445 442.889c0 25.417 -12.8213 44.5352 -44.5371 44.5352h-19.1191c-25.417 0 -44.5361 -19.1191 -44.5361 -44.5361v-287.015c0 -12.8213 6.29785 -19.1191 25.417 -19.1191h44.5371c25.417 0 38.2383 12.8213 38.2383 44.5371v261.598zM263.059 117.634
l-0.000976562 325.253c0 25.417 -19.1191 44.5361 -44.5361 44.5361h-19.1191c-31.9404 0 -44.5371 -19.1191 -44.5371 -44.5361v-312.433c0 -19.1191 12.8213 -31.9404 38.2383 -38.2383h44.5371c18.8945 0 25.418 12.8213 25.418 25.418z" />
    <glyph glyph-name="liwnarmeniankeharmenian.liga" unicode="&#x56c;&#x584;" horiz-adv-x="679" 
d="M46.2246 538.484c0 25.417 19.1201 38.2373 44.5371 38.2373h19.1191c31.9404 0 44.5371 -12.8213 44.5371 -38.2383v-580.328c0 -12.8213 6.29785 -19.1191 25.417 -19.1191h19.1191c25.417 0 44.5361 -19.1191 44.5361 -44.5361v-12.8213
c0 -25.417 -19.1191 -38.2383 -44.5361 -38.2383h-108.418c-25.417 0 -44.5361 12.8213 -44.5361 38.2383c0.224609 216.836 0.224609 439.97 0.224609 656.806zM314.346 232.574h-0.226562v216.611c0 44.5371 12.8213 76.4775 31.9404 102.12
c19.1191 19.1191 51.0596 25.417 95.5967 25.417h63.6562c44.5371 0 76.4775 -6.29785 102.12 -25.417c19.1191 -25.417 25.417 -57.3574 25.417 -102.119v-280.492c0 -44.5371 -6.29785 -76.4775 -25.417 -95.5967c-25.417 -19.1191 -57.3574 -31.9404 -102.119 -31.9404
h-63.6562c-12.8213 0 -19.1191 -6.29785 -19.1191 -19.1191v-140.358c0 12.8213 6.29785 19.1191 19.1191 19.1191h152.955c25.417 0 38.2383 19.1191 38.2383 44.5361v13.0459c0 25.417 -12.8213 38.2383 -38.2383 38.2383h-152.955
c-12.8213 0 -19.1191 6.29785 -19.1191 25.417v-140.358c0 -25.417 -12.8213 -38.2383 -44.5371 -38.2383h-19.1191c-25.417 0 -44.5361 12.8213 -44.5361 38.2383v350.896zM530.955 442.887c0 25.417 -19.1201 38.2373 -44.5371 38.2373h-19.1191
c-31.9404 0 -44.5371 -12.8213 -44.5371 -38.2383v-287.015c0 -12.8213 6.29785 -19.1191 19.1191 -19.1191h44.5371c31.9404 0 44.5371 12.8213 44.5371 44.5371v261.598z" />
    <glyph glyph-name="daarmeniankeharmenian.liga" unicode="&#x564;&#x584;" horiz-adv-x="895" 
d="M371.254 -22.499h-0.675781v-95.5967c0 -25.417 -19.1191 -38.2383 -44.5361 -38.2383h-19.1191c-31.7158 0 -44.5371 12.8213 -44.5371 38.2383v560.983c0 25.417 -12.5967 38.2383 -44.5371 38.2383h-19.1191c-31.7158 0 -44.5371 -12.8213 -44.5371 -38.2383v-401.731
c0 -25.417 -12.8213 -44.5361 -38.2383 -44.5361h-25.417c-25.417 0 -44.5361 19.1191 -44.5361 44.5361v408.029c0 44.7617 12.8213 76.7021 31.9404 102.119c19.1191 19.1191 51.0596 25.417 95.5967 25.417h63.6562c51.0596 0 83 -6.29785 102.119 -25.417
c19.1191 -25.6426 31.9404 -57.583 31.9404 -102.12v-331.552c0 -19.1191 6.29785 -25.417 19.1191 -25.417h44.5371c25.417 0 44.5361 -12.8213 44.5361 -38.2383v-12.8213c0 -25.417 -19.1191 -44.5361 -44.5361 -44.5361h-44.5371
c-12.8213 0 -19.1191 -6.29785 -19.1191 -19.1191zM530.73 232.575l-0.225586 0.000976562v216.61c0 44.5371 6.29785 76.4775 25.417 102.12c25.417 19.1191 57.3574 25.417 102.119 25.417h63.6562c44.5371 0 76.4775 -6.29785 95.5967 -25.417
c19.1191 -25.417 31.9404 -57.3574 31.9404 -102.119v-280.492c0 -44.5371 -12.8213 -76.4775 -31.9404 -95.5967s-51.0596 -31.9404 -95.5967 -31.9404h-63.6562c-19.1191 0 -25.417 -6.29785 -25.417 -19.1191v-140.358c0 12.8213 6.29785 19.1191 25.417 19.1191h146.656
c25.417 0 44.5361 19.1191 44.5361 44.5361v13.0459c0 25.417 -19.1191 38.2383 -44.5361 38.2383h-146.656c-19.1191 0 -25.417 6.29785 -25.417 25.417v-140.358c0 -25.417 -12.8213 -38.2383 -38.2383 -38.2383h-25.417c-25.417 0 -38.2383 12.8213 -38.2383 38.2383
v350.896zM741.043 442.889c0 25.417 -12.8213 38.2373 -44.5371 38.2373h-19.1191c-25.417 0 -44.5361 -12.8213 -44.5361 -38.2383v-287.015c0 -12.8213 6.29785 -19.1191 25.417 -19.1191h44.5371c25.417 0 38.2383 12.8213 38.2383 44.5371v261.598z" />
    <glyph glyph-name=".notdef" horiz-adv-x="527" 
d="M50 700h427v-700h-427v700zM78 680l185 -309l186 309h-371zM251 350l-180 300v-601zM264 329l-185 -308h370zM276 350l181 -303v605z" />
    <glyph glyph-name=".null" horiz-adv-x="0" 
 />
    <glyph glyph-name=".null" horiz-adv-x="0" 
 />
    <glyph glyph-name="controlLF" unicode="&#xa;" horiz-adv-x="0" 
 />
    <glyph glyph-name="controlCR" unicode="&#xd;" horiz-adv-x="0" 
 />
    <glyph glyph-name="space" unicode=" " horiz-adv-x="224" 
 />
    <glyph glyph-name="exclam" unicode="!" horiz-adv-x="198" 
d="M88.5352 180.396c-14.1709 0 -21.5938 7.19727 -22.2686 21.3682l-20.2441 498.902c-0.674805 28.3418 13.4961 42.5127 42.5127 42.5127h21.1436c29.2412 0 43.4121 -14.1709 42.5127 -42.7373l-20.2441 -498.902
c-0.674805 -14.1709 -8.09766 -21.1436 -22.2686 -21.1436h-21.1436zM109.679 106.168c28.3418 0 42.5127 -14.1709 42.5127 -42.5127v-21.1436c0 -28.3418 -14.1709 -42.5127 -42.5127 -42.5127h-21.1436c-28.3418 0 -42.5127 14.1709 -42.5127 42.5127v21.1436
c0 28.3418 14.1709 42.5127 42.5127 42.5127h21.1436z" />
    <glyph glyph-name="numbersign" unicode="#" horiz-adv-x="543" 
d="M409.207 324.294c-6.97266 0 -11.0225 -3.60156 -11.6973 -10.5742l-7.42285 -53.084c-0.674805 -6.97266 2.69922 -10.5713 9.67188 -10.5713h58.4824c14.3955 0 20.2441 -6.97266 18.2197 -21.1436l-4.27344 -31.7158
c-2.24902 -14.1709 -10.3467 -21.1436 -24.5176 -21.1436h-58.4824c-7.87305 0 -12.1465 -3.59863 -12.8213 -10.5713l-20.2441 -143.282c-2.02441 -14.1709 -9.89746 -21.1436 -23.3936 -21.1436h-42.5127c-14.8457 0 -21.1436 6.97266 -19.1191 21.1436l20.2441 143.282
c0.674805 6.97266 -2.24902 10.5713 -8.54688 10.5713h-53.3096c-7.87305 0 -12.1465 -3.59863 -12.8213 -10.5713l-20.2441 -143.282c-2.24902 -14.1709 -9.89648 -21.1436 -23.3926 -21.1436h-42.5127c-14.8457 0 -21.1436 6.97266 -19.1191 21.1436l20.2441 143.282
c0.674805 6.97266 -2.24902 10.5713 -8.54688 10.5713h-58.4824c-14.3955 0 -20.2441 6.97266 -18.2197 21.1436l4.27344 31.7158c2.24902 13.9463 10.3467 21.1445 24.5176 21.1445h58.4824c6.97266 0 11.0215 3.59863 11.6963 10.5713l7.42285 53.084
c0.674805 6.97266 -2.69922 10.5713 -9.67188 10.5713h-58.4824c-14.1709 0 -20.2441 6.97266 -18.2197 21.1436l4.27344 31.9404c2.24902 14.1709 10.3467 21.1436 24.5176 21.1436h58.4824c7.87305 0 12.1465 3.59863 12.8213 10.5713l20.2441 143.282
c2.02441 13.9463 9.89746 21.1445 23.3936 21.1445h42.5127c14.8457 0 21.1436 -6.97266 19.1191 -21.1436l-20.2441 -143.282c-0.674805 -6.97266 2.24902 -10.5713 8.54688 -10.5713h53.3096c7.87305 0 12.1465 3.59863 12.8213 10.5713l20.2441 143.282
c2.02441 13.9463 9.89746 21.1445 23.3936 21.1445h42.5127c14.8457 0 21.1436 -6.97266 19.1191 -21.1436l-20.2441 -143.282c-0.674805 -6.97266 2.24902 -10.5713 8.54688 -10.5713h58.4824c14.3955 0 20.2441 -6.97266 18.2197 -21.1436l-4.27344 -31.9404
c-2.24902 -14.1709 -10.3467 -21.1436 -24.5176 -21.1436h-58.4824zM304.837 260.635l7.64746 53.084c0.674805 6.97266 -2.69922 10.5713 -9.67188 10.5713h-53.3096c-7.19824 0 -11.0225 -3.59863 -11.6973 -10.5713l-7.42285 -53.084
c-0.899414 -6.97266 2.47461 -10.5713 9.44727 -10.5713h53.3096c7.19824 0 11.0225 3.59863 11.6973 10.5713z" />
    <glyph glyph-name="dollar" unicode="$" 
d="M357.533 235.445c4.94824 -14.3955 7.42578 -34.415 7.65039 -60.0576v-47.6855c0 -43.4121 -9.44727 -75.1279 -28.1172 -95.1475c-18.6699 -20.2441 -48.3613 -31.041 -88.624 -32.3906v-63.6562c0 -28.3418 -14.1709 -42.5127 -42.5127 -42.5127
s-42.5127 14.1709 -42.5127 42.5127v63.6562h-74.4531c-28.3418 0 -42.5127 14.1709 -42.5127 42.5127v10.5723c0 28.3418 14.1709 42.5127 42.5127 42.5127h127.537c28.3418 0 42.5127 14.1709 42.5127 42.5127v15.9707c0 12.8213 -0.899414 22.9434 -2.69922 30.3662
s-4.72363 13.4961 -8.54785 17.9951c-4.04883 4.49902 -8.77246 8.54785 -13.9463 12.1465s-11.2471 7.42285 -17.5449 11.6963l-41.3877 25.417c-16.1953 9.89746 -31.9404 18.6699 -47.2363 26.0928s-28.792 16.1953 -40.9385 26.542s-21.8184 23.3926 -29.2412 39.3633
c-7.64746 15.9707 -11.2461 37.5645 -11.2461 65.2314v100.995c0 42.5127 9.22266 74.0029 27.667 94.4717c18.4443 20.6943 48.1357 31.4912 89.2988 33.0654v63.6562c0 28.3418 14.1709 42.5127 42.5127 42.5127s42.5127 -14.1709 42.5127 -42.5127v-64.5557
c38.9131 -2.02441 67.2549 -13.2715 85.0244 -33.5156s26.542 -51.0596 26.542 -92.8975v-58.4824c0 -28.3418 -14.1709 -42.5127 -42.5127 -42.5127h-21.1436c-28.3418 0 -42.5127 14.1709 -42.5127 42.5127v47.6855c0 28.3418 -14.1709 42.5127 -42.5127 42.5127h-15.9707
c-28.3418 0 -42.5127 -14.1709 -42.5127 -42.5127v-69.2793c0 -14.1709 1.125 -24.9678 3.59961 -32.8408c2.47461 -7.64746 5.84863 -14.1709 10.1221 -19.1191c4.49902 -5.17383 8.99805 -8.77246 13.9463 -11.2471s10.3467 -5.39844 15.9697 -8.99707l41.3877 -24.293
c22.0439 -13.4961 40.9385 -24.5176 57.3584 -33.0654c16.1953 -8.54785 29.4668 -17.7705 39.8135 -28.1172c10.1221 -10.1221 17.7695 -22.7188 22.7178 -37.1143z" />
    <glyph glyph-name="percent" unicode="%" horiz-adv-x="548" 
d="M130.862 304.31c-26.9922 0 -46.3369 6.07227 -58.4834 17.9941s-18.2197 31.2666 -18.2197 58.2588v282.291c0 26.7666 6.07324 46.3359 18.2197 58.2578c11.9219 11.9219 31.4912 17.9951 58.4834 17.9951h38.2383c26.9922 0 46.3369 -5.84863 58.4834 -17.9951
c12.1465 -11.9219 18.2197 -31.4912 18.2197 -58.2578v-282.291c0 -26.7666 -6.07324 -46.3359 -18.2197 -58.2578c-11.9219 -11.9219 -31.4912 -17.9951 -58.4834 -17.9951h-38.2383zM121.415 648.007v-252.6c0 -15.5205 7.87305 -23.3936 23.3936 -23.3936h10.5723
c15.5205 0 23.3936 7.87305 23.3936 23.3936v252.601c0 15.7451 -7.87305 23.3926 -23.3936 23.3926h-10.5723c-15.5205 0 -23.3936 -7.87305 -23.3936 -23.3936zM220.386 263.821c9.22266 -2.02441 17.7676 -9.67285 25.6406 -23.3936
c6.29785 -11.2471 9.44727 -21.8193 9.44727 -31.7168s-6.29785 -18.6699 -19.1191 -26.543l-121.239 -83.9004c-23.3936 -16.1953 -43.1875 -12.3711 -59.6074 11.6973c-7.64746 12.1465 -10.7969 22.7188 -8.99707 31.9414s8.54785 17.9951 20.6943 26.543l120.34 82.7754
c12.5967 10.5723 23.6182 14.8457 32.8408 12.5967zM416.3 431.621c26.7666 0 46.3369 -6.07324 58.4834 -18.2197c12.1465 -11.9219 18.2197 -31.4912 18.2197 -58.2578v-282.066c0 -26.9922 -6.07324 -46.3369 -18.2197 -58.4834
c-11.9219 -11.9219 -31.4912 -17.9951 -58.4834 -17.9951h-38.2383c-26.9922 0 -46.3369 6.07324 -58.4834 17.9951c-12.1465 12.1465 -18.2197 31.4912 -18.2197 58.4834v282.291c0 26.7666 6.07324 46.1113 18.2197 58.2578
c11.9219 11.9219 31.4912 17.9951 58.4834 17.9951h38.2383zM425.748 87.9229v252.376c0 15.7451 -7.87305 23.3926 -23.3936 23.3926h-10.5723c-15.7451 0 -23.3926 -7.87305 -23.3926 -23.3936v-252.375c0 -15.5205 7.64746 -23.3936 23.3926 -23.3936h10.5723
c15.5205 0 23.3936 7.87305 23.3936 23.3936zM326.777 470.985c-9.22266 2.02441 -17.7676 9.89746 -25.415 23.3936c-6.52344 11.2471 -9.67285 21.8193 -9.67285 31.7168s6.29785 18.6699 19.1191 26.543l122.363 83.9004
c23.3936 16.1953 43.1875 12.3711 59.6074 -11.6973c7.87305 -12.1465 10.7969 -22.7188 8.99707 -31.9414s-8.54785 -17.9951 -20.6943 -26.543l-121.239 -82.7754c-12.8213 -10.5723 -23.8428 -14.8457 -33.0654 -12.5967z" />
    <glyph glyph-name="ampersand" unicode="&#x26;" horiz-adv-x="485" 
d="M396.446 462.094c28.3418 0 42.5146 -14.1709 42.29 -42.2871v-10.7969c0 -28.3418 -14.1709 -42.5127 -42.5127 -42.5127h-10.5723c-14.1709 0 -21.1436 -6.97266 -21.1436 -21.1436v-217.735c0 -44.5371 -9.89746 -76.9277 -30.1416 -97.1719
c-20.0195 -20.2441 -52.6348 -30.3662 -97.1719 -30.3662h-63.6562c-44.5371 0 -77.1523 10.1221 -97.1719 30.3662c-20.2441 20.2441 -30.3662 52.6348 -30.3662 97.1719v180.621c0 37.3389 5.84863 64.5557 17.5449 81.2012s30.5908 24.9678 56.9082 24.9678
c-22.2686 0 -43.6377 6.07324 -56.9092 24.9678c-11.6963 16.6455 -17.5449 43.6377 -17.5449 81.2012v95.5967c0 44.5371 10.1221 76.9277 30.3662 97.1719c20.0195 20.2441 52.6348 30.3662 97.1719 30.3662h63.6562c44.5371 0 76.9277 -10.3467 97.1719 -30.3662
c20.0195 -20.2441 30.1416 -52.6348 30.1416 -97.1719v-69.0547c0 -28.3418 -14.1709 -42.5127 -42.5127 -42.5127h-21.1436c-28.3418 0 -42.5127 14.1709 -42.5127 42.5127v79.626c0 14.1709 -7.19824 21.1436 -21.3691 21.1436h-63.6562
c-14.1709 0 -21.1436 -6.97266 -21.1436 -21.1436v-143.508c0 -14.1709 6.97266 -21.1436 21.1436 -21.1436h223.134zM258.564 117.046v228.308c0 14.1709 -7.19824 21.1436 -21.3691 21.1436h-63.6562c-14.1709 0 -21.1436 -6.97266 -21.1436 -21.1436v-228.308
c0 -14.1709 6.97266 -21.1436 21.1436 -21.1436h63.6562c14.1709 0 21.3691 6.97266 21.3691 21.1436z" />
    <glyph glyph-name="quotesingle" unicode="'" horiz-adv-x="238" 
d="M184.935 733.898c6.74805 -6.97266 8.32227 -17.7715 4.94824 -31.9424l-47.9111 -201.766c-3.59863 -13.9463 -7.87207 -24.7432 -12.8203 -31.7158s-14.8457 -10.5713 -29.6914 -10.5713h-10.5723c-31.2656 0 -45.4365 13.9463 -42.5127 42.2881l9.67188 116.966
v84.7998c1.57422 14.8457 5.17285 25.6426 11.2461 32.3906c5.84863 6.74805 16.4209 10.1221 31.2666 10.1221h59.3828c11.2471 0 20.2441 -3.59863 26.9922 -10.5713z" />
    <glyph glyph-name="quotesingle" unicode="&#x2019;" horiz-adv-x="238" 
d="M184.935 733.898c6.74805 -6.97266 8.32227 -17.7715 4.94824 -31.9424l-47.9111 -201.766c-3.59863 -13.9463 -7.87207 -24.7432 -12.8203 -31.7158s-14.8457 -10.5713 -29.6914 -10.5713h-10.5723c-31.2656 0 -45.4365 13.9463 -42.5127 42.2881l9.67188 116.966
v84.7998c1.57422 14.8457 5.17285 25.6426 11.2461 32.3906c5.84863 6.74805 16.4209 10.1221 31.2666 10.1221h59.3828c11.2471 0 20.2441 -3.59863 26.9922 -10.5713z" />
    <glyph glyph-name="quotesingle" unicode="&#x2018;" horiz-adv-x="238" 
d="M184.935 733.898c6.74805 -6.97266 8.32227 -17.7715 4.94824 -31.9424l-47.9111 -201.766c-3.59863 -13.9463 -7.87207 -24.7432 -12.8203 -31.7158s-14.8457 -10.5713 -29.6914 -10.5713h-10.5723c-31.2656 0 -45.4365 13.9463 -42.5127 42.2881l9.67188 116.966
v84.7998c1.57422 14.8457 5.17285 25.6426 11.2461 32.3906c5.84863 6.74805 16.4209 10.1221 31.2666 10.1221h59.3828c11.2471 0 20.2441 -3.59863 26.9922 -10.5713z" />
    <glyph glyph-name="plus" unicode="+" horiz-adv-x="496" 
d="M429.062 430.688c14.1709 0 21.1436 -6.97168 21.1436 -21.1426v-53.3096c0 -14.1709 -6.97266 -21.1436 -21.1436 -21.1436h-122.363c-6.97266 0 -10.5713 -3.59863 -10.5713 -10.5713v-121.914c0 -14.1709 -7.19824 -21.1436 -21.3691 -21.1436h-53.3096
c-14.1709 0 -21.1436 6.97266 -21.1436 21.1436v122.139c0 6.97266 -3.59863 10.5713 -10.5713 10.5713h-122.363c-14.3955 0 -21.3682 6.97266 -21.3682 21.1436v53.084c0 14.1709 7.19824 21.1436 21.3691 21.1436h122.363c6.97266 0 10.5713 3.59863 10.5713 10.5713
v122.139c0 14.1709 6.97266 21.1436 21.1436 21.1436h53.3096c14.3955 0 21.3682 -6.97266 21.3682 -21.1436v-122.139c0 -6.97266 3.59863 -10.5713 10.5713 -10.5713h122.363z" />
    <glyph glyph-name="comma" unicode="," horiz-adv-x="238" 
d="M185.198 117.58c6.74805 -6.97266 8.32324 -17.5469 4.49902 -31.9424l-47.9111 -201.54c-3.59863 -13.9463 -7.87207 -24.7432 -12.8203 -31.7158s-14.8457 -10.5713 -29.6914 -10.5713h-10.5723c-30.3662 0 -44.5371 13.9463 -42.5127 42.2881l15.9707 201.54
c1.57422 14.8457 5.17285 25.6426 11.2461 32.3906s16.6455 10.1221 31.4912 10.1221h53.084c11.4717 0 20.4688 -3.59863 27.2168 -10.5713z" />
    <glyph glyph-name="hyphen" unicode="-" horiz-adv-x="390" 
d="M323.118 425.964c14.1709 0 21.1436 -7.19824 21.3682 -21.3691v-52.8594c0 -14.1709 -7.19824 -21.1436 -21.3691 -21.1436h-255.3c-14.3955 0 -21.3682 6.97266 -21.3682 21.1436v53.084c0 13.9463 7.19824 21.1445 21.3691 21.1445h255.3z" />
    <glyph glyph-name="slash" unicode="/" horiz-adv-x="405" 
d="M355.342 777.985c4.72363 -8.09766 5.17383 -19.3447 1.5752 -33.5156l-225.608 -840.352c-7.87305 -27.667 -25.1934 -37.7891 -52.1855 -30.8164c-14.8457 4.49902 -24.5176 10.5723 -29.2412 18.6699c-4.49902 8.32227 -5.17383 19.3438 -1.5752 33.5146
l225.608 840.352c4.27344 14.1709 10.5713 23.8428 18.6689 29.2412c8.09766 5.17383 19.3447 5.84863 33.5156 1.5752c14.8457 -4.27344 24.7432 -10.5713 29.2422 -18.6689z" />
    <glyph glyph-name="zero" unicode="0" 
d="M335.039 711.63c20.2441 -20.2441 30.3662 -52.4102 30.3662 -96.9473v-487.881c0 -44.7617 -10.1221 -76.9268 -30.3662 -97.1709c-20.2441 -20.0195 -52.6348 -30.1416 -97.3965 -30.1416h-63.8809c-44.5371 0 -76.9277 9.89746 -97.1719 30.1416
s-30.3662 52.6348 -30.3662 97.1719v487.881c0 44.3115 10.1221 76.7021 30.3662 96.9463c20.0195 20.0195 52.6348 30.1416 97.1719 30.1416h63.8809c44.7617 0 77.1523 -9.89746 97.3965 -30.1416zM259.012 137.374v466.512c0 28.3418 -14.1709 42.5127 -42.5127 42.5127
h-21.3691c-28.3418 0 -42.5127 -14.1709 -42.5127 -42.5127v-466.512c0 -28.3418 14.1709 -42.5127 42.5127 -42.5127h21.3691c28.3418 0 42.5127 14.1709 42.5127 42.5127z" />
    <glyph glyph-name="one" unicode="1" horiz-adv-x="340" 
d="M171.01 720.177c36.2139 22.0439 122.366 43.8623 122.591 -21.1436v-657.705c0 -28.3418 -14.1709 -42.5127 -42.5127 -42.5127h-21.3691c-28.3418 0 -42.5127 14.1709 -42.5127 42.5127v567.057l-68.1553 -40.9375c-24.293 -14.8457 -42.9629 -9.44727 -56.459 15.9697
l-9.44727 17.0947c-13.4961 24.7422 -7.87305 44.0869 16.8701 58.2578z" />
    <glyph glyph-name="two" unicode="2" 
d="M155.093 215.427c-1.7998 -7.64746 -2.69824 -17.5439 -2.92285 -30.3652v-69.0547c0 -13.9463 7.19824 -21.1445 21.3691 -21.1445h170.274c14.3955 0 21.3682 -6.97266 21.3682 -21.1436v-53.084c0 -14.1709 -7.19824 -21.1436 -21.3691 -21.1436h-276.443
c-14.3955 0 -21.3682 6.97266 -21.3682 21.1436v174.998c0 25.417 2.47461 46.1113 7.42285 61.6318s12.5957 29.0166 22.9424 40.7129c10.1221 11.6963 23.3936 22.2686 39.3643 31.9404c15.9707 9.44727 35.0898 20.9189 57.8086 34.415l41.6123 24.293
c11.2471 6.52344 21.3691 14.3965 30.1416 23.8438c8.77246 9.67188 13.2715 25.6426 13.2715 48.3613v143.058c0 28.3418 -14.1709 42.5127 -42.5127 42.5127h-15.9707c-28.3418 0 -42.5127 -14.1709 -42.5127 -42.5127v-100.545
c0 -28.1162 -14.1709 -42.2871 -42.5127 -42.2871h-21.3691c-28.3418 0 -42.5127 14.1709 -42.5127 42.2871v111.342c0 44.3115 10.1221 76.7021 30.3662 96.9463c20.2441 20.0195 52.6348 30.1416 97.3965 30.1416h58.4824c44.7617 0 77.1523 -9.89746 97.3965 -30.1416
c20.2441 -20.0195 30.3662 -52.4102 30.3662 -96.9473v-164.427c0 -27.667 -3.82422 -49.9355 -11.2471 -66.8057s-17.0947 -31.2656 -29.2412 -42.9619s-25.8672 -21.8184 -41.6123 -30.3662c-15.5205 -8.32227 -31.2656 -17.5449 -46.7861 -27.4424l-41.3877 -25.417
c-6.29785 -4.27344 -12.1465 -8.09766 -17.5449 -11.6963c-5.17383 -3.37402 -9.89746 -7.64746 -13.7217 -12.1465c-4.04883 -4.49902 -6.74805 -10.5723 -8.54785 -17.9951z" />
    <glyph glyph-name="three" unicode="3" horiz-adv-x="414" 
d="M268.459 458.805c33.9648 -4.27344 58.4834 -16.6455 73.7793 -36.665c15.2959 -20.2441 22.9434 -49.71 22.9434 -88.623v-206.714c0 -44.5371 -9.89746 -77.1523 -30.1416 -97.1719s-52.6348 -30.1416 -97.3965 -30.1416h-63.8809
c-44.7617 0 -77.1523 9.89746 -97.3965 30.1416s-30.3662 52.6348 -30.3662 97.1719v111.342c0 28.3418 14.1709 42.5127 42.5127 42.5127h21.3691c28.3418 0 42.5127 -14.1709 42.5127 -42.5127v-100.771c0 -28.3418 14.1709 -42.5127 42.5127 -42.5127h21.5938
c28.3418 0 42.5127 14.1709 42.5127 42.5127v185.57c0 28.1162 -14.1709 42.2871 -42.5127 42.2871h-21.3691c-28.3418 0 -42.5127 14.1709 -42.5127 42.5127c0 12.1465 1.57422 23.8428 5.17285 35.0898s7.64746 22.9434 12.5957 34.8652l61.8564 147.557
c3.37402 7.19824 2.69922 12.3721 -2.24902 15.9707c-4.94824 3.37402 -11.2461 5.17383 -19.1191 5.17383h-143.508c-14.1709 0 -21.3691 6.97266 -21.3691 21.1436v53.084c0 14.1709 7.19824 21.1436 21.3691 21.1436h265.871c11.4717 0 20.4688 -3.37402 27.667 -10.5723
c7.19824 -6.97266 8.54785 -17.5449 4.27441 -31.7158z" />
    <glyph glyph-name="four" unicode="4" horiz-adv-x="497" 
d="M409.051 280.433c28.3418 0 42.5107 -13.9443 42.2861 -42.2861v-10.5723c0 -28.3418 -14.1709 -42.5127 -42.5127 -42.5127h-10.5723c-14.1709 0 -21.3691 -6.97266 -21.3691 -21.1436v-121.688c0 -28.1162 -14.1709 -42.2871 -42.5127 -42.2871h-21.1436
c-28.3418 0 -42.5127 13.9463 -42.5127 42.2881v121.914c0 14.1709 -6.97266 21.1436 -21.1436 21.1436h-170.274c-11.2471 0 -20.2441 3.59863 -26.542 10.5713c-6.52344 6.97266 -8.32324 17.5449 -5.39941 31.7158l123.488 473.935
c6.97266 26.7666 25.1924 40.2627 54.209 40.2627h19.1191c11.4717 0 20.4688 -3.59863 27.2168 -10.5713c6.52344 -6.97266 8.32324 -17.5449 4.72461 -31.7158l-100.995 -397.683c-2.24902 -7.87305 -1.12402 -13.2715 3.375 -16.6455
c4.27344 -3.14941 10.1221 -4.72363 17.9951 -4.72363h53.3096c14.1709 0 21.1436 6.97266 21.1436 21.1436v116.74c0 28.1162 14.1709 42.2871 42.5127 42.2871h21.1436c28.3418 0 42.5127 -13.9463 42.5127 -42.2881v-116.74
c0 -14.1709 7.19824 -21.1436 21.3691 -21.1436h10.5723z" />
    <glyph glyph-name="five" unicode="5" 
d="M173.762 646.398c-14.1709 0 -21.1465 -6.97266 -21.1465 -21.1436v-138.109c0 -14.1709 7.19824 -21.1436 21.3691 -21.1436h63.8809c44.5371 0 76.9277 -9.89746 97.1719 -30.1416c20.2441 -20.0195 30.3662 -52.4102 30.3662 -96.9473v-212.112
c0 -44.7617 -10.1221 -76.9268 -30.3662 -97.1709c-20.0195 -20.0195 -52.6348 -30.1416 -97.1719 -30.1416h-63.8809c-44.7617 0 -77.1523 9.89746 -97.3965 30.1416s-30.3662 52.6348 -30.3662 97.1719v111.342c0 28.3418 14.1709 42.5127 42.5127 42.5127h21.3691
c28.3418 0 42.5127 -14.1709 42.5127 -42.5127v-100.995c0 -28.3418 14.1709 -42.5127 42.5127 -42.5127h21.3691c28.3418 0 42.5127 14.1709 42.5127 42.5127v190.969c0 28.1162 -14.1709 42.2871 -42.5127 42.2871h-127.762c-28.3418 0 -42.5127 14.1709 -42.5127 42.5127
v286.34c0 28.3418 14.1709 42.5127 42.5127 42.5127h255.3c14.1709 0 21.3691 -6.97266 21.3691 -21.1436v-53.084c0 -14.1709 -7.19824 -21.1436 -21.3691 -21.1436h-170.274z" />
    <glyph glyph-name="six" unicode="6" 
d="M335.039 435.861c20.2441 -20.0195 30.3662 -52.4092 30.3662 -96.9463v-212.112c0 -44.7617 -10.1221 -77.1523 -30.3662 -97.1719s-52.8594 -30.1416 -97.3965 -30.1416h-63.8809c-44.7617 0 -77.1523 9.89746 -97.3965 30.1416s-30.3662 52.6348 -30.3662 97.1719
v488.105c0 44.3115 10.1221 76.7021 30.3662 96.9463c20.2441 20.0195 52.6348 30.1416 97.3965 30.1416h127.537c28.3418 0 42.5127 -14.1709 42.5127 -42.5127v-10.7969c0 -28.1162 -14.1709 -42.2871 -42.5127 -42.2871h-106.394
c-28.3418 0 -42.5127 -14.1709 -42.5127 -42.5127v-116.74c0 -14.1709 7.19824 -21.1436 21.3691 -21.1436h63.8809c44.7617 0 77.1523 -9.89746 97.3965 -30.1416zM259.012 137.376l-0.000976562 190.969c0 28.1162 -14.1709 42.2871 -42.5127 42.2871h-42.5127
c-14.3955 0 -21.3682 -6.97266 -21.3682 -21.1436v-212.112c0 -28.3418 14.1709 -42.5127 42.5127 -42.5127h21.3691c28.3418 0 42.5127 14.1709 42.5127 42.5127z" />
    <glyph glyph-name="seven" unicode="7" horiz-adv-x="402" 
d="M349.21 731.199c6.29785 -6.97266 8.09668 -17.543 5.39746 -31.7139l-171.174 -659.505c-6.97266 -26.7666 -25.1924 -40.2627 -54.209 -40.2627h-19.1191c-11.2471 0 -20.6943 3.59863 -27.667 10.5713s-8.54688 17.5449 -4.27344 31.7158l148.906 583.252
c2.24902 7.64746 1.12402 13.2705 -3.14941 16.4199c-4.49902 3.14941 -10.3477 4.72363 -18.2207 4.72363h-138.334c-14.3955 0 -21.3682 6.97266 -21.3682 21.1436v53.084c0 14.1709 7.19824 21.1436 21.3691 21.1436h255.3c11.2471 0 20.2441 -3.37402 26.542 -10.5723z
" />
    <glyph glyph-name="eight" unicode="8" horiz-adv-x="412" 
d="M365.405 519.087c0 -37.3389 -5.84863 -64.5566 -17.5449 -81.2021c-11.6963 -16.4199 -30.5908 -24.7422 -56.9082 -24.7422c26.3174 0 45.2119 -8.32227 56.9082 -24.9678s17.5449 -43.6377 17.5449 -81.2012v-180.172c0 -44.7617 -10.1221 -76.9268 -30.3662 -97.1709
c-20.2441 -20.0195 -52.8594 -30.1416 -97.3965 -30.1416h-63.8809c-44.7617 0 -77.1523 9.89746 -97.3965 30.1416s-30.3662 52.6348 -30.3662 97.1719v180.396c0 37.5635 5.84863 64.5557 17.5449 81.2012s30.5908 24.9678 56.9082 24.9678
c-26.3174 0 -45.2119 8.09766 -56.9082 24.7432s-17.5449 43.6377 -17.5449 81.2012v95.3721c0 44.3115 10.1221 76.7021 30.3662 96.9463c20.2441 20.0195 52.6348 30.1416 97.3965 30.1416h63.8809c44.7617 0 77.1523 -9.89746 97.3965 -30.1416
c20.2441 -20.0195 30.3662 -52.4102 30.3662 -96.9473v-95.5967zM259.012 116.23l-0.000976562 233.257c0 14.1709 -6.97266 21.1436 -21.1436 21.1436h-63.8809c-14.3955 0 -21.3682 -6.97266 -21.3682 -21.1436v-233.256c0 -13.9463 7.19824 -21.1445 21.3691 -21.1445
h63.8809c14.1709 0 21.1436 6.97266 21.1436 21.1436zM259.011 476.8l-0.000976562 148.456c0 14.1709 -6.97266 21.1436 -21.1436 21.1436h-63.8809c-14.3955 0 -21.3682 -6.97266 -21.3682 -21.1436v-148.456c0 -14.1709 7.19824 -21.1436 21.3691 -21.1436h63.8809
c14.1709 0 21.1436 6.97266 21.1436 21.1436z" />
    <glyph glyph-name="nine" unicode="9" horiz-adv-x="412" 
d="M335.039 711.63c20.2441 -20.2441 30.3662 -52.4121 30.5908 -96.9492v-487.881c0 -44.7617 -10.1221 -76.9268 -30.3662 -97.1709c-20.2441 -20.0195 -52.6348 -30.1416 -97.3965 -30.1416h-127.762c-28.3418 0 -42.5127 13.9463 -42.5127 42.2881v10.5723
c0 28.3418 14.1709 42.5127 42.5127 42.5127h106.394c28.3418 0 42.5127 14.1709 42.5127 42.5127v116.74c0 13.9463 -7.19824 21.1445 -21.3691 21.1445h-63.8809c-44.7617 0 -77.1523 9.89746 -97.3965 30.1416s-30.3662 52.6348 -30.3662 97.1719v212.112
c0 44.3115 10.1221 76.7021 30.3662 96.9463c20.2441 20.0195 52.6348 30.1416 97.3965 30.1416h63.8809c44.7617 0 77.1523 -9.89746 97.3965 -30.1416zM259.012 391.997h-0.225586v211.888c0 28.3418 -14.1709 42.5127 -42.5127 42.5127h-21.1436
c-28.3418 0 -42.5127 -14.1709 -42.5127 -42.5127v-190.519c0 -28.3418 14.1709 -42.5127 42.5127 -42.5127h42.5127c14.1709 0 21.3691 6.97266 21.3691 21.1436z" />
    <glyph glyph-name="less" unicode="&#x3c;" horiz-adv-x="573" 
d="M224.147 366.582l272.845 -99.8701c26.9922 -9.89746 35.7646 -28.1172 26.542 -55.1094l-5.17383 -15.9707c-9.22266 -27.667 -26.9922 -35.7646 -53.084 -24.5176l-377.888 147.557c-14.1709 4.94824 -24.7432 11.2461 -31.4912 19.1191
c-6.52344 7.64746 -9.89746 19.1191 -9.89746 33.9648s3.14941 26.0928 9.89746 33.9658c6.97266 7.87305 17.3193 14.1709 31.4902 19.1191l377.888 148.681c26.0918 11.4717 43.8613 3.37402 53.084 -24.293l5.17383 -17.0947
c9.22266 -26.7666 0.450195 -45.2109 -26.542 -55.1084l-272.844 -99.8701c-6.97266 -2.02441 -10.5713 -3.59863 -10.5713 -4.72363s3.59863 -3.14941 10.5713 -5.84863z" />
    <glyph glyph-name="greater" unicode="&#x3e;" horiz-adv-x="573" 
d="M516.952 405.945c6.74805 -7.87305 10.1221 -19.1182 10.1221 -33.9639s-3.37402 -26.0928 -10.1221 -33.9658s-17.0947 -14.1709 -31.2656 -19.1191l-377.888 -147.557c-26.0918 -11.2471 -43.8613 -3.14941 -53.084 24.5176l-5.17383 15.9707
c-9.22266 26.7666 -0.450195 45.2109 26.542 55.1084l272.844 99.8701c6.97266 2.92383 10.5713 4.72363 10.5713 5.84863s-3.59863 2.69922 -10.5713 4.72363l-272.844 99.8701c-26.9922 9.89746 -35.7646 28.1172 -26.542 55.1094l5.17383 17.0947
c9.22266 27.4414 26.9922 35.5391 53.084 24.292l377.888 -148.681c14.1709 -4.94824 24.5176 -11.2461 31.2656 -19.1191z" />
    <glyph glyph-name="at" unicode="@" horiz-adv-x="454" 
d="M377.552 796.654c20.2441 -20.2441 30.3662 -52.6338 30.3662 -97.1709v-456.165c0 -28.3418 -14.1709 -42.5127 -42.5127 -42.5127h-127.762c-28.3418 0 -42.5127 14.1709 -42.5127 42.5127v318.28c0 28.3418 14.1709 42.5127 42.5127 42.5127h53.084
c6.97266 0 10.5713 3.59863 10.5713 10.5713v74.2275c0 28.3418 -14.1709 42.5127 -42.5127 42.5127h-63.8809c-28.3418 0 -42.5127 -14.1709 -42.5127 -42.5127v-551.762c0 -28.3418 14.1709 -42.5127 42.5127 -42.5127h159.703
c28.3418 0 42.5127 -14.1709 42.5127 -42.5127v-10.3467c0 -28.3418 -14.1709 -42.5127 -42.5127 -42.5127h-180.847c-44.7617 0 -77.1523 10.1221 -97.3965 30.1416c-20.2441 20.2441 -30.3662 52.6348 -30.3662 97.1719v572.905
c0 44.5371 10.1221 76.9277 30.3662 97.1719c20.2441 20.0195 52.6348 30.1416 97.3965 30.1416h106.394c44.7617 0 77.1523 -9.89746 97.3965 -30.1416zM301.524 280.208l0.000976562 245.178c0 6.97266 -3.37402 10.5713 -10.5723 10.5713
c-6.97266 0 -10.5713 -3.59863 -10.5713 -10.5713v-245.178c0 -6.97266 3.59863 -10.5713 10.5713 -10.5713s10.5713 3.59863 10.5713 10.5713z" />
    <glyph glyph-name="A" unicode="A" horiz-adv-x="443" 
d="M354.124 616.033l42.5107 -573.355c2.02441 -28.3418 -12.1465 -42.5127 -42.5127 -42.5127h-21.1436c-14.8457 0 -25.1924 3.37402 -31.2656 10.1221s-9.89746 17.5449 -11.2471 32.3906l-9.44727 122.139c-0.674805 14.1709 -8.09766 21.1436 -22.2686 21.1436
h-74.2275c-14.1709 0 -21.5938 -6.97266 -22.2686 -21.1436l-9.67188 -122.139c-1.34961 -14.8457 -5.39844 -25.6426 -11.6963 -32.3906s-16.6445 -10.1221 -30.8154 -10.1221h-21.1436c-30.3662 0 -44.5371 14.1709 -42.5127 42.5127l42.5127 573.355
c3.59863 44.5371 14.3955 76.9277 32.3906 97.1719s49.7109 30.3662 94.9229 30.3662h10.5723c44.5371 0 76.0273 -10.1221 94.4717 -30.3662c18.2197 -20.2441 29.2412 -52.6348 32.8398 -97.1719zM251.328 281.557c13.2715 0 19.7959 7.19922 19.1211 21.3701
l-22.2686 302.535c-1.34961 13.4961 -3.82422 23.8428 -7.42285 31.2656c-3.37402 7.64746 -9.89746 11.2461 -19.1201 11.2461c-9.89746 0 -16.4209 -3.82422 -19.5703 -11.2471s-5.39844 -17.7695 -6.97266 -31.2656l-22.2686 -302.535
c-0.674805 -14.1709 5.62305 -21.3691 19.1191 -21.3691h59.3828z" />
    <glyph glyph-name="A" unicode="&#xc5;" horiz-adv-x="443" 
d="M354.124 616.033l42.5107 -573.355c2.02441 -28.3418 -12.1465 -42.5127 -42.5127 -42.5127h-21.1436c-14.8457 0 -25.1924 3.37402 -31.2656 10.1221s-9.89746 17.5449 -11.2471 32.3906l-9.44727 122.139c-0.674805 14.1709 -8.09766 21.1436 -22.2686 21.1436
h-74.2275c-14.1709 0 -21.5938 -6.97266 -22.2686 -21.1436l-9.67188 -122.139c-1.34961 -14.8457 -5.39844 -25.6426 -11.6963 -32.3906s-16.6445 -10.1221 -30.8154 -10.1221h-21.1436c-30.3662 0 -44.5371 14.1709 -42.5127 42.5127l42.5127 573.355
c3.59863 44.5371 14.3955 76.9277 32.3906 97.1719s49.7109 30.3662 94.9229 30.3662h10.5723c44.5371 0 76.0273 -10.1221 94.4717 -30.3662c18.2197 -20.2441 29.2412 -52.6348 32.8398 -97.1719zM251.328 281.557c13.2715 0 19.7959 7.19922 19.1211 21.3701
l-22.2686 302.535c-1.34961 13.4961 -3.82422 23.8428 -7.42285 31.2656c-3.37402 7.64746 -9.89746 11.2461 -19.1201 11.2461c-9.89746 0 -16.4209 -3.82422 -19.5703 -11.2471s-5.39844 -17.7695 -6.97266 -31.2656l-22.2686 -302.535
c-0.674805 -14.1709 5.62305 -21.3691 19.1191 -21.3691h59.3828z" />
    <glyph glyph-name="A" unicode="&#xc4;" horiz-adv-x="443" 
d="M354.124 616.033l42.5107 -573.355c2.02441 -28.3418 -12.1465 -42.5127 -42.5127 -42.5127h-21.1436c-14.8457 0 -25.1924 3.37402 -31.2656 10.1221s-9.89746 17.5449 -11.2471 32.3906l-9.44727 122.139c-0.674805 14.1709 -8.09766 21.1436 -22.2686 21.1436
h-74.2275c-14.1709 0 -21.5938 -6.97266 -22.2686 -21.1436l-9.67188 -122.139c-1.34961 -14.8457 -5.39844 -25.6426 -11.6963 -32.3906s-16.6445 -10.1221 -30.8154 -10.1221h-21.1436c-30.3662 0 -44.5371 14.1709 -42.5127 42.5127l42.5127 573.355
c3.59863 44.5371 14.3955 76.9277 32.3906 97.1719s49.7109 30.3662 94.9229 30.3662h10.5723c44.5371 0 76.0273 -10.1221 94.4717 -30.3662c18.2197 -20.2441 29.2412 -52.6348 32.8398 -97.1719zM251.328 281.557c13.2715 0 19.7959 7.19922 19.1211 21.3701
l-22.2686 302.535c-1.34961 13.4961 -3.82422 23.8428 -7.42285 31.2656c-3.37402 7.64746 -9.89746 11.2461 -19.1201 11.2461c-9.89746 0 -16.4209 -3.82422 -19.5703 -11.2471s-5.39844 -17.7695 -6.97266 -31.2656l-22.2686 -302.535
c-0.674805 -14.1709 5.62305 -21.3691 19.1191 -21.3691h59.3828z" />
    <glyph glyph-name="A" unicode="&#xc3;" horiz-adv-x="443" 
d="M354.124 616.033l42.5107 -573.355c2.02441 -28.3418 -12.1465 -42.5127 -42.5127 -42.5127h-21.1436c-14.8457 0 -25.1924 3.37402 -31.2656 10.1221s-9.89746 17.5449 -11.2471 32.3906l-9.44727 122.139c-0.674805 14.1709 -8.09766 21.1436 -22.2686 21.1436
h-74.2275c-14.1709 0 -21.5938 -6.97266 -22.2686 -21.1436l-9.67188 -122.139c-1.34961 -14.8457 -5.39844 -25.6426 -11.6963 -32.3906s-16.6445 -10.1221 -30.8154 -10.1221h-21.1436c-30.3662 0 -44.5371 14.1709 -42.5127 42.5127l42.5127 573.355
c3.59863 44.5371 14.3955 76.9277 32.3906 97.1719s49.7109 30.3662 94.9229 30.3662h10.5723c44.5371 0 76.0273 -10.1221 94.4717 -30.3662c18.2197 -20.2441 29.2412 -52.6348 32.8398 -97.1719zM251.328 281.557c13.2715 0 19.7959 7.19922 19.1211 21.3701
l-22.2686 302.535c-1.34961 13.4961 -3.82422 23.8428 -7.42285 31.2656c-3.37402 7.64746 -9.89746 11.2461 -19.1201 11.2461c-9.89746 0 -16.4209 -3.82422 -19.5703 -11.2471s-5.39844 -17.7695 -6.97266 -31.2656l-22.2686 -302.535
c-0.674805 -14.1709 5.62305 -21.3691 19.1191 -21.3691h59.3828z" />
    <glyph glyph-name="A" unicode="&#xc2;" horiz-adv-x="443" 
d="M354.124 616.033l42.5107 -573.355c2.02441 -28.3418 -12.1465 -42.5127 -42.5127 -42.5127h-21.1436c-14.8457 0 -25.1924 3.37402 -31.2656 10.1221s-9.89746 17.5449 -11.2471 32.3906l-9.44727 122.139c-0.674805 14.1709 -8.09766 21.1436 -22.2686 21.1436
h-74.2275c-14.1709 0 -21.5938 -6.97266 -22.2686 -21.1436l-9.67188 -122.139c-1.34961 -14.8457 -5.39844 -25.6426 -11.6963 -32.3906s-16.6445 -10.1221 -30.8154 -10.1221h-21.1436c-30.3662 0 -44.5371 14.1709 -42.5127 42.5127l42.5127 573.355
c3.59863 44.5371 14.3955 76.9277 32.3906 97.1719s49.7109 30.3662 94.9229 30.3662h10.5723c44.5371 0 76.0273 -10.1221 94.4717 -30.3662c18.2197 -20.2441 29.2412 -52.6348 32.8398 -97.1719zM251.328 281.557c13.2715 0 19.7959 7.19922 19.1211 21.3701
l-22.2686 302.535c-1.34961 13.4961 -3.82422 23.8428 -7.42285 31.2656c-3.37402 7.64746 -9.89746 11.2461 -19.1201 11.2461c-9.89746 0 -16.4209 -3.82422 -19.5703 -11.2471s-5.39844 -17.7695 -6.97266 -31.2656l-22.2686 -302.535
c-0.674805 -14.1709 5.62305 -21.3691 19.1191 -21.3691h59.3828z" />
    <glyph glyph-name="A" unicode="&#xc1;" horiz-adv-x="443" 
d="M354.124 616.033l42.5107 -573.355c2.02441 -28.3418 -12.1465 -42.5127 -42.5127 -42.5127h-21.1436c-14.8457 0 -25.1924 3.37402 -31.2656 10.1221s-9.89746 17.5449 -11.2471 32.3906l-9.44727 122.139c-0.674805 14.1709 -8.09766 21.1436 -22.2686 21.1436
h-74.2275c-14.1709 0 -21.5938 -6.97266 -22.2686 -21.1436l-9.67188 -122.139c-1.34961 -14.8457 -5.39844 -25.6426 -11.6963 -32.3906s-16.6445 -10.1221 -30.8154 -10.1221h-21.1436c-30.3662 0 -44.5371 14.1709 -42.5127 42.5127l42.5127 573.355
c3.59863 44.5371 14.3955 76.9277 32.3906 97.1719s49.7109 30.3662 94.9229 30.3662h10.5723c44.5371 0 76.0273 -10.1221 94.4717 -30.3662c18.2197 -20.2441 29.2412 -52.6348 32.8398 -97.1719zM251.328 281.557c13.2715 0 19.7959 7.19922 19.1211 21.3701
l-22.2686 302.535c-1.34961 13.4961 -3.82422 23.8428 -7.42285 31.2656c-3.37402 7.64746 -9.89746 11.2461 -19.1201 11.2461c-9.89746 0 -16.4209 -3.82422 -19.5703 -11.2471s-5.39844 -17.7695 -6.97266 -31.2656l-22.2686 -302.535
c-0.674805 -14.1709 5.62305 -21.3691 19.1191 -21.3691h59.3828z" />
    <glyph glyph-name="A" unicode="&#xc0;" horiz-adv-x="443" 
d="M354.124 616.033l42.5107 -573.355c2.02441 -28.3418 -12.1465 -42.5127 -42.5127 -42.5127h-21.1436c-14.8457 0 -25.1924 3.37402 -31.2656 10.1221s-9.89746 17.5449 -11.2471 32.3906l-9.44727 122.139c-0.674805 14.1709 -8.09766 21.1436 -22.2686 21.1436
h-74.2275c-14.1709 0 -21.5938 -6.97266 -22.2686 -21.1436l-9.67188 -122.139c-1.34961 -14.8457 -5.39844 -25.6426 -11.6963 -32.3906s-16.6445 -10.1221 -30.8154 -10.1221h-21.1436c-30.3662 0 -44.5371 14.1709 -42.5127 42.5127l42.5127 573.355
c3.59863 44.5371 14.3955 76.9277 32.3906 97.1719s49.7109 30.3662 94.9229 30.3662h10.5723c44.5371 0 76.0273 -10.1221 94.4717 -30.3662c18.2197 -20.2441 29.2412 -52.6348 32.8398 -97.1719zM251.328 281.557c13.2715 0 19.7959 7.19922 19.1211 21.3701
l-22.2686 302.535c-1.34961 13.4961 -3.82422 23.8428 -7.42285 31.2656c-3.37402 7.64746 -9.89746 11.2461 -19.1201 11.2461c-9.89746 0 -16.4209 -3.82422 -19.5703 -11.2471s-5.39844 -17.7695 -6.97266 -31.2656l-22.2686 -302.535
c-0.674805 -14.1709 5.62305 -21.3691 19.1191 -21.3691h59.3828z" />
    <glyph glyph-name="B" unicode="B" 
d="M364.73 520.437c0 -37.3389 -6.0752 -64.5537 -17.5469 -81.1992s-30.5908 -24.9678 -56.6826 -24.9678c22.0439 0 43.4131 -6.07324 56.6846 -24.9678c11.6963 -16.6455 17.5449 -43.8623 17.5449 -81.2012v-180.172c0 -44.5371 -10.1221 -76.9277 -30.3662 -97.1719
s-52.6348 -30.3662 -97.1719 -30.3662h-148.681c-28.3418 0 -42.5127 14.1709 -42.5127 42.5127v658.155c0 28.3418 14.1709 42.5127 42.5127 42.5127h148.681c44.7617 0 77.1523 -10.3467 97.1719 -30.3662c20.2441 -20.2441 30.3662 -52.6348 30.3662 -97.1719v-95.5967z
M258.56 117.133v228.082c0 14.1709 -7.19824 21.3691 -21.3691 21.3691h-63.6562c-14.1709 0 -21.1436 -7.19824 -21.1436 -21.3691v-228.082c0 -14.1709 6.97266 -21.1436 21.1436 -21.1436h63.6562c14.1709 0 21.3691 6.97266 21.3691 21.1436zM258.56 483.324v143.283
c0 14.1709 -7.19824 21.1436 -21.3691 21.1436h-63.6562c-14.1709 0 -21.1436 -6.97266 -21.1436 -21.1436v-143.282c0 -13.9463 6.97266 -21.1445 21.1436 -21.1445h63.6562c14.1709 0 21.3691 6.97266 21.3691 21.1436z" />
    <glyph glyph-name="C" unicode="C" 
d="M334.14 713.204c20.2441 -20.2441 30.1426 -52.6348 30.3672 -97.1719v-111.342c0 -28.3418 -14.1709 -42.5127 -42.5127 -42.5127h-21.1436c-28.3418 0 -42.5127 14.1709 -42.5127 42.5127v100.771c0 28.3418 -14.1709 42.5127 -42.5127 42.5127h-21.1436
c-28.3418 0 -42.5127 -14.1709 -42.5127 -42.5127v-467.187c0 -28.3418 14.1709 -42.5127 42.5127 -42.5127h116.74c28.1162 0 42.2871 -14.1709 42.2871 -42.5127v-10.5723c0 -28.3418 -13.9463 -42.5127 -42.2881 -42.5127h-138.109
c-44.5371 0 -76.9277 10.1221 -97.1719 30.3662c-20.0195 20.2441 -30.1416 52.6348 -30.1416 97.1719v488.33c0 44.5371 9.89746 76.9277 30.1416 97.1719s52.6348 30.3662 97.1719 30.3662h63.6562c44.5371 0 76.9277 -10.1221 97.1719 -30.3662z" />
    <glyph glyph-name="C" unicode="&#xc7;" 
d="M334.14 713.204c20.2441 -20.2441 30.1426 -52.6348 30.3672 -97.1719v-111.342c0 -28.3418 -14.1709 -42.5127 -42.5127 -42.5127h-21.1436c-28.3418 0 -42.5127 14.1709 -42.5127 42.5127v100.771c0 28.3418 -14.1709 42.5127 -42.5127 42.5127h-21.1436
c-28.3418 0 -42.5127 -14.1709 -42.5127 -42.5127v-467.187c0 -28.3418 14.1709 -42.5127 42.5127 -42.5127h116.74c28.1162 0 42.2871 -14.1709 42.2871 -42.5127v-10.5723c0 -28.3418 -13.9463 -42.5127 -42.2881 -42.5127h-138.109
c-44.5371 0 -76.9277 10.1221 -97.1719 30.3662c-20.0195 20.2441 -30.1416 52.6348 -30.1416 97.1719v488.33c0 44.5371 9.89746 76.9277 30.1416 97.1719s52.6348 30.3662 97.1719 30.3662h63.6562c44.5371 0 76.9277 -10.1221 97.1719 -30.3662z" />
    <glyph glyph-name="D" unicode="D" 
d="M334.364 713.204c20.2441 -20.2441 30.3662 -52.6338 30.1416 -97.1709v-488.105c0 -44.5371 -9.89746 -76.9277 -30.1416 -97.1719s-52.6348 -30.3662 -97.1719 -30.3662h-148.681c-28.3418 0 -42.5127 14.1709 -42.5127 42.5127v658.155
c0 28.3418 14.1709 42.5127 42.5127 42.5127h148.681c44.5371 0 76.9277 -10.1221 97.1719 -30.3662zM258.562 138.275v466.961c0 28.3418 -14.1709 42.5127 -42.5127 42.5127h-42.5127c-14.1709 0 -21.1436 -6.97266 -21.1436 -21.1436v-509.699
c0 -14.1709 6.97266 -21.1436 21.1436 -21.1436h42.5127c28.3418 0 42.5127 14.1709 42.5127 42.5127z" />
    <glyph glyph-name="E" unicode="E" horiz-adv-x="357" 
d="M173.312 647.974c-14.1709 0 -21.1426 -7.19629 -21.1426 -21.3672v-143.282c0 -13.9463 6.97266 -21.1445 21.1436 -21.1445h53.084c28.3418 0 42.5127 -14.1709 42.5127 -42.5127v-10.7969c0 -28.1162 -14.1709 -42.2871 -42.5127 -42.2871h-53.084
c-13.9463 0 -21.1445 -7.19824 -21.1445 -21.3691v-228.308c0 -14.1709 6.97266 -21.1436 21.1436 -21.1436h95.5967c28.3418 0 42.5127 -14.1709 42.5127 -42.5127v-10.3467c0 -28.3418 -14.1709 -42.5127 -42.5127 -42.5127h-180.396
c-28.3418 0 -42.5127 14.1709 -42.5127 42.5127v658.155c0 28.3418 14.1709 42.5127 42.5127 42.5127h180.396c28.3418 0 42.5127 -14.1709 42.5127 -42.5127v-10.5723c0 -28.3418 -14.1709 -42.5127 -42.5127 -42.5127h-95.5967z" />
    <glyph glyph-name="E" unicode="&#xcb;" horiz-adv-x="357" 
d="M173.312 647.974c-14.1709 0 -21.1426 -7.19629 -21.1426 -21.3672v-143.282c0 -13.9463 6.97266 -21.1445 21.1436 -21.1445h53.084c28.3418 0 42.5127 -14.1709 42.5127 -42.5127v-10.7969c0 -28.1162 -14.1709 -42.2871 -42.5127 -42.2871h-53.084
c-13.9463 0 -21.1445 -7.19824 -21.1445 -21.3691v-228.308c0 -14.1709 6.97266 -21.1436 21.1436 -21.1436h95.5967c28.3418 0 42.5127 -14.1709 42.5127 -42.5127v-10.3467c0 -28.3418 -14.1709 -42.5127 -42.5127 -42.5127h-180.396
c-28.3418 0 -42.5127 14.1709 -42.5127 42.5127v658.155c0 28.3418 14.1709 42.5127 42.5127 42.5127h180.396c28.3418 0 42.5127 -14.1709 42.5127 -42.5127v-10.5723c0 -28.3418 -14.1709 -42.5127 -42.5127 -42.5127h-95.5967z" />
    <glyph glyph-name="E" unicode="&#xca;" horiz-adv-x="357" 
d="M173.312 647.974c-14.1709 0 -21.1426 -7.19629 -21.1426 -21.3672v-143.282c0 -13.9463 6.97266 -21.1445 21.1436 -21.1445h53.084c28.3418 0 42.5127 -14.1709 42.5127 -42.5127v-10.7969c0 -28.1162 -14.1709 -42.2871 -42.5127 -42.2871h-53.084
c-13.9463 0 -21.1445 -7.19824 -21.1445 -21.3691v-228.308c0 -14.1709 6.97266 -21.1436 21.1436 -21.1436h95.5967c28.3418 0 42.5127 -14.1709 42.5127 -42.5127v-10.3467c0 -28.3418 -14.1709 -42.5127 -42.5127 -42.5127h-180.396
c-28.3418 0 -42.5127 14.1709 -42.5127 42.5127v658.155c0 28.3418 14.1709 42.5127 42.5127 42.5127h180.396c28.3418 0 42.5127 -14.1709 42.5127 -42.5127v-10.5723c0 -28.3418 -14.1709 -42.5127 -42.5127 -42.5127h-95.5967z" />
    <glyph glyph-name="E" unicode="&#xc9;" horiz-adv-x="357" 
d="M173.312 647.974c-14.1709 0 -21.1426 -7.19629 -21.1426 -21.3672v-143.282c0 -13.9463 6.97266 -21.1445 21.1436 -21.1445h53.084c28.3418 0 42.5127 -14.1709 42.5127 -42.5127v-10.7969c0 -28.1162 -14.1709 -42.2871 -42.5127 -42.2871h-53.084
c-13.9463 0 -21.1445 -7.19824 -21.1445 -21.3691v-228.308c0 -14.1709 6.97266 -21.1436 21.1436 -21.1436h95.5967c28.3418 0 42.5127 -14.1709 42.5127 -42.5127v-10.3467c0 -28.3418 -14.1709 -42.5127 -42.5127 -42.5127h-180.396
c-28.3418 0 -42.5127 14.1709 -42.5127 42.5127v658.155c0 28.3418 14.1709 42.5127 42.5127 42.5127h180.396c28.3418 0 42.5127 -14.1709 42.5127 -42.5127v-10.5723c0 -28.3418 -14.1709 -42.5127 -42.5127 -42.5127h-95.5967z" />
    <glyph glyph-name="E" unicode="&#xc8;" horiz-adv-x="357" 
d="M173.312 647.974c-14.1709 0 -21.1426 -7.19629 -21.1426 -21.3672v-143.282c0 -13.9463 6.97266 -21.1445 21.1436 -21.1445h53.084c28.3418 0 42.5127 -14.1709 42.5127 -42.5127v-10.7969c0 -28.1162 -14.1709 -42.2871 -42.5127 -42.2871h-53.084
c-13.9463 0 -21.1445 -7.19824 -21.1445 -21.3691v-228.308c0 -14.1709 6.97266 -21.1436 21.1436 -21.1436h95.5967c28.3418 0 42.5127 -14.1709 42.5127 -42.5127v-10.3467c0 -28.3418 -14.1709 -42.5127 -42.5127 -42.5127h-180.396
c-28.3418 0 -42.5127 14.1709 -42.5127 42.5127v658.155c0 28.3418 14.1709 42.5127 42.5127 42.5127h180.396c28.3418 0 42.5127 -14.1709 42.5127 -42.5127v-10.5723c0 -28.3418 -14.1709 -42.5127 -42.5127 -42.5127h-95.5967z" />
    <glyph glyph-name="F" unicode="F" horiz-adv-x="358" 
d="M268.909 743.57c28.3418 0 42.5127 -14.1699 42.5127 -42.5117v-10.7969c0 -28.3418 -14.1709 -42.5127 -42.5127 -42.5127h-95.5967c-14.1709 0 -21.1436 -6.97266 -21.1436 -21.1436v-143.282c0 -13.9463 6.97266 -21.1445 21.1436 -21.1445h53.084
c28.3418 0 42.5127 -14.1709 42.5127 -42.5127v-10.7969c0 -28.1162 -14.1709 -42.2871 -42.5127 -42.2871h-53.084c-14.1709 0 -21.1436 -7.19824 -21.1436 -21.3691v-302.311c0 -28.3418 -14.1709 -42.5127 -42.5127 -42.5127h-21.1436
c-28.3418 0 -42.5127 14.1709 -42.5127 42.5127v658.155c0 28.3418 14.1709 42.5127 42.5127 42.5127h180.396z" />
    <glyph glyph-name="G" unicode="G" 
d="M194.681 647.974c-28.3418 0 -42.5107 -14.1699 -42.5107 -42.5117v-466.962c0 -28.3418 14.1709 -42.5127 42.5127 -42.5127h21.1436c28.3418 0 42.5127 14.1709 42.5127 42.5127v244.053c0 28.3418 14.1709 42.5127 42.5127 42.5127h21.3691
c28.1162 0 42.2871 -14.1709 42.2871 -42.5127v-254.85c0 -44.5371 -10.1221 -76.9277 -30.1416 -97.1719c-20.2441 -20.2441 -52.6348 -30.3662 -97.1719 -30.3662h-63.6562c-44.5371 0 -76.9277 10.1221 -97.1719 30.3662s-30.3662 52.6348 -30.3662 97.1719v488.33
c0 44.5371 10.1221 76.9277 30.3662 97.1719s52.6348 30.3662 97.1719 30.3662h148.681c28.1162 0 42.2871 -14.1709 42.2871 -42.5127v-10.5723c0 -28.3418 -13.9463 -42.5127 -42.2881 -42.5127h-127.537z" />
    <glyph glyph-name="H" unicode="H" 
d="M321.993 743.57c28.1162 0 42.2881 -14.1699 42.5127 -42.5117v-658.38c0 -28.3418 -14.1709 -42.5127 -42.5127 -42.5127h-21.1436c-28.3418 0 -42.5127 14.1709 -42.5127 42.5127v302.535c0 14.1709 -6.97266 21.3691 -21.1436 21.3691h-63.6562
c-14.1709 0 -21.1436 -7.19824 -21.1436 -21.3691v-302.311c0 -28.3418 -14.1709 -42.5127 -42.5127 -42.5127h-21.1436c-28.3418 0 -42.5127 14.1709 -42.5127 42.5127v658.155c0 28.3418 14.1709 42.5127 42.5127 42.5127h21.1436
c28.3418 0 42.5127 -14.1709 42.5127 -42.5127v-217.735c0 -13.9463 6.97266 -21.1445 21.1436 -21.1445h63.6562c14.1709 0 21.1436 6.97266 21.1436 21.1436v217.735c0 28.3418 14.1709 42.5127 42.5127 42.5127h21.1436z" />
    <glyph glyph-name="I" unicode="I" horiz-adv-x="199" 
d="M109.881 743.57c28.3418 0 42.5127 -14.1709 42.5127 -42.5127v-658.155c0 -28.3418 -14.1709 -42.5127 -42.5127 -42.5127h-21.3691c-28.3418 0 -42.5127 14.1709 -42.5127 42.5127v658.155c0 28.3418 14.1709 42.5127 42.5127 42.5127h21.3691z" />
    <glyph glyph-name="I" unicode="&#xcf;" horiz-adv-x="199" 
d="M109.881 743.57c28.3418 0 42.5127 -14.1709 42.5127 -42.5127v-658.155c0 -28.3418 -14.1709 -42.5127 -42.5127 -42.5127h-21.3691c-28.3418 0 -42.5127 14.1709 -42.5127 42.5127v658.155c0 28.3418 14.1709 42.5127 42.5127 42.5127h21.3691z" />
    <glyph glyph-name="I" unicode="&#xce;" horiz-adv-x="199" 
d="M109.881 743.57c28.3418 0 42.5127 -14.1709 42.5127 -42.5127v-658.155c0 -28.3418 -14.1709 -42.5127 -42.5127 -42.5127h-21.3691c-28.3418 0 -42.5127 14.1709 -42.5127 42.5127v658.155c0 28.3418 14.1709 42.5127 42.5127 42.5127h21.3691z" />
    <glyph glyph-name="I" unicode="&#xcd;" horiz-adv-x="199" 
d="M109.881 743.57c28.3418 0 42.5127 -14.1709 42.5127 -42.5127v-658.155c0 -28.3418 -14.1709 -42.5127 -42.5127 -42.5127h-21.3691c-28.3418 0 -42.5127 14.1709 -42.5127 42.5127v658.155c0 28.3418 14.1709 42.5127 42.5127 42.5127h21.3691z" />
    <glyph glyph-name="I" unicode="&#xcc;" horiz-adv-x="199" 
d="M109.881 743.57c28.3418 0 42.5127 -14.1709 42.5127 -42.5127v-658.155c0 -28.3418 -14.1709 -42.5127 -42.5127 -42.5127h-21.3691c-28.3418 0 -42.5127 14.1709 -42.5127 42.5127v658.155c0 28.3418 14.1709 42.5127 42.5127 42.5127h21.3691z" />
    <glyph glyph-name="J" unicode="J" horiz-adv-x="406" 
d="M317.045 743.57c28.3418 0 42.5117 -14.1709 42.2871 -42.5127v-573.355c0 -44.5371 -9.89746 -76.9277 -30.1416 -97.1719s-52.6348 -30.3662 -97.1719 -30.3662h-58.4824c-44.5371 0 -76.9277 10.1221 -97.1719 30.3662s-30.3662 52.6348 -30.3662 97.1719v254.85
c0 28.3418 14.1709 42.5127 42.5127 42.5127h21.1436c28.3418 0 42.5127 -14.1709 42.5127 -42.5127v-244.053c0 -28.3418 14.1709 -42.5127 42.5127 -42.5127h15.9707c28.3418 0 42.5127 14.1709 42.5127 42.5127v488.33c0 14.1709 -6.97266 21.1436 -21.1436 21.1436
h-143.282c-28.3418 0 -42.5127 14.1709 -42.5127 42.5127v10.5723c0 28.3418 14.1709 42.5127 42.5127 42.5127h228.308z" />
    <glyph glyph-name="K" unicode="K" horiz-adv-x="451" 
d="M280.83 398.297l120.788 -355.842c5.17383 -13.9463 3.82422 -24.7432 -3.59863 -31.7158s-16.8701 -10.5713 -28.1172 -10.5713h-21.1436c-14.8457 0 -26.542 3.37402 -35.0898 9.67188s-14.8457 16.6445 -19.1191 30.8154l-104.145 305.685
c-4.94824 13.4961 -12.3711 20.2441 -22.2686 20.2441c-10.5723 0 -15.9707 -7.19824 -15.9707 -21.3691v-302.311c0 -28.3418 -14.1709 -42.5127 -42.5127 -42.5127h-21.1436c-28.3418 0 -42.5127 14.1709 -42.5127 42.5127v658.155
c0 28.3418 14.1709 42.5127 42.5127 42.5127h21.1436c28.3418 0 42.5127 -14.1709 42.5127 -42.5127v-217.96c0 -13.9463 4.72363 -21.1445 13.9463 -21.1445c8.54785 0 15.2959 6.74805 20.2441 20.2441l76.4775 220.885c4.27344 12.8213 10.5713 22.7188 18.6689 29.6914
s20.0195 10.5713 35.54 10.5713h21.1436c11.2471 0 20.6943 -3.37402 28.1172 -10.5723c7.19824 -7.19824 8.54785 -17.7705 3.59961 -31.9414l-89.0732 -262.272c-4.27344 -13.2715 -4.27344 -26.7676 0 -40.2637z" />
    <glyph glyph-name="L" unicode="L" horiz-adv-x="358" 
d="M269.134 95.7617c28.1162 0 42.2881 -14.1709 42.5127 -42.5127v-10.3467c0 -28.3418 -14.1709 -42.5127 -42.5127 -42.5127h-180.396c-28.3418 0 -42.5127 14.1709 -42.5127 42.5127v658.155c0 28.3418 14.1709 42.5127 42.5127 42.5127h21.1436
c28.3418 0 42.5127 -14.1709 42.5127 -42.5127v-584.152c0 -14.1709 6.97266 -21.1436 21.1436 -21.1436h95.5967z" />
    <glyph glyph-name="M" unicode="M" horiz-adv-x="623" 
d="M534.556 743.57c28.3418 0 42.5127 -14.1729 42.0625 -42.5146v-658.604c0 -28.3418 -14.1709 -42.5127 -42.5127 -42.5127h-21.1436c-28.3418 0 -42.5127 14.1709 -42.5127 42.5127v106.169l0.224609 38.9131v249.001l-106.169 -331.102
c-4.94824 -14.1709 -11.2461 -24.5176 -19.1191 -31.2656c-7.64746 -6.74805 -19.1191 -10.1221 -33.9648 -10.1221s-26.0928 3.37402 -33.9658 10.1221s-14.1709 17.0947 -19.1191 31.2656l-106.618 332.227v-211.662
c0.450195 -24.9678 0.674805 -50.6104 0.674805 -77.1523v-105.943c0 -28.3418 -14.1709 -42.5127 -42.5127 -42.5127h-21.3691c-28.1162 0 -42.2871 14.1709 -42.2871 42.5127v658.155c0 28.3418 13.9463 42.5127 42.2881 42.5127h21.3691
c28.3418 0 46.1113 -13.7207 53.084 -41.3877l143.282 -417.251c2.02441 -6.97266 3.82422 -10.5713 5.17383 -10.5713c1.57422 0 3.37402 3.37402 5.39844 10.5723l143.508 417.251c4.94824 14.1709 11.2461 24.5176 19.1191 31.2656s19.1201 10.1221 33.9658 10.1221
h21.1436z" />
    <glyph glyph-name="N" unicode="N" horiz-adv-x="442" 
d="M353.934 743.57c28.3418 0 42.5117 -14.1729 42.2871 -42.5146v-658.38c0 -28.3418 -14.1709 -42.5127 -42.5127 -42.5127h-21.1436c-28.3418 0 -46.1113 13.7207 -53.084 41.3877l-127.762 395.883v-224.708l0.450195 -63.8809v-105.943
c0 -28.3418 -13.9463 -42.5127 -42.2881 -42.5127h-21.3691c-28.3418 0 -42.5127 14.1709 -42.5127 42.5127v658.155c0 28.3418 14.1709 42.5127 42.5127 42.5127h21.3691c28.3418 0 46.1113 -13.7207 53.084 -41.3877l127.537 -394.758v254.175l-0.224609 33.29v106.169
c0 28.3418 14.1709 42.5127 42.5127 42.5127h21.1436z" />
    <glyph glyph-name="N" unicode="&#xd1;" horiz-adv-x="442" 
d="M353.934 743.57c28.3418 0 42.5117 -14.1729 42.2871 -42.5146v-658.38c0 -28.3418 -14.1709 -42.5127 -42.5127 -42.5127h-21.1436c-28.3418 0 -46.1113 13.7207 -53.084 41.3877l-127.762 395.883v-224.708l0.450195 -63.8809v-105.943
c0 -28.3418 -13.9463 -42.5127 -42.2881 -42.5127h-21.3691c-28.3418 0 -42.5127 14.1709 -42.5127 42.5127v658.155c0 28.3418 14.1709 42.5127 42.5127 42.5127h21.3691c28.3418 0 46.1113 -13.7207 53.084 -41.3877l127.537 -394.758v254.175l-0.224609 33.29v106.169
c0 28.3418 14.1709 42.5127 42.5127 42.5127h21.1436z" />
    <glyph glyph-name="O" unicode="O" 
d="M334.14 713.204c20.2441 -20.2441 30.1416 -52.6348 30.3662 -97.1719v-488.33c0 -44.5371 -10.1221 -76.9277 -30.3662 -97.1719s-52.6348 -30.3662 -97.1719 -30.3662h-63.6562c-44.5371 0 -76.9277 10.1221 -97.1719 30.3662
c-20.0195 20.2441 -30.1416 52.6348 -30.1416 97.1719v488.33c0 44.5371 10.1221 76.9277 30.1416 97.1719c20.2441 20.2441 52.6348 30.3662 97.1719 30.3662h63.6562c44.7617 0 77.1523 -10.1221 97.1719 -30.3662zM258.112 138.274v467.187
c0 28.3418 -14.1709 42.5127 -42.5127 42.5127h-21.1436c-28.3418 0 -42.5127 -14.1709 -42.5127 -42.5127v-467.187c0 -28.3418 14.1709 -42.5127 42.5127 -42.5127h21.1436c28.3418 0 42.5127 14.1709 42.5127 42.5127z" />
    <glyph glyph-name="O" unicode="&#xd8;" 
d="M334.14 713.204c20.2441 -20.2441 30.1416 -52.6348 30.3662 -97.1719v-488.33c0 -44.5371 -10.1221 -76.9277 -30.3662 -97.1719s-52.6348 -30.3662 -97.1719 -30.3662h-63.6562c-44.5371 0 -76.9277 10.1221 -97.1719 30.3662
c-20.0195 20.2441 -30.1416 52.6348 -30.1416 97.1719v488.33c0 44.5371 10.1221 76.9277 30.1416 97.1719c20.2441 20.2441 52.6348 30.3662 97.1719 30.3662h63.6562c44.7617 0 77.1523 -10.1221 97.1719 -30.3662zM258.112 138.274v467.187
c0 28.3418 -14.1709 42.5127 -42.5127 42.5127h-21.1436c-28.3418 0 -42.5127 -14.1709 -42.5127 -42.5127v-467.187c0 -28.3418 14.1709 -42.5127 42.5127 -42.5127h21.1436c28.3418 0 42.5127 14.1709 42.5127 42.5127z" />
    <glyph glyph-name="O" unicode="&#xd6;" 
d="M334.14 713.204c20.2441 -20.2441 30.1416 -52.6348 30.3662 -97.1719v-488.33c0 -44.5371 -10.1221 -76.9277 -30.3662 -97.1719s-52.6348 -30.3662 -97.1719 -30.3662h-63.6562c-44.5371 0 -76.9277 10.1221 -97.1719 30.3662
c-20.0195 20.2441 -30.1416 52.6348 -30.1416 97.1719v488.33c0 44.5371 10.1221 76.9277 30.1416 97.1719c20.2441 20.2441 52.6348 30.3662 97.1719 30.3662h63.6562c44.7617 0 77.1523 -10.1221 97.1719 -30.3662zM258.112 138.274v467.187
c0 28.3418 -14.1709 42.5127 -42.5127 42.5127h-21.1436c-28.3418 0 -42.5127 -14.1709 -42.5127 -42.5127v-467.187c0 -28.3418 14.1709 -42.5127 42.5127 -42.5127h21.1436c28.3418 0 42.5127 14.1709 42.5127 42.5127z" />
    <glyph glyph-name="O" unicode="&#xd5;" 
d="M334.14 713.204c20.2441 -20.2441 30.1416 -52.6348 30.3662 -97.1719v-488.33c0 -44.5371 -10.1221 -76.9277 -30.3662 -97.1719s-52.6348 -30.3662 -97.1719 -30.3662h-63.6562c-44.5371 0 -76.9277 10.1221 -97.1719 30.3662
c-20.0195 20.2441 -30.1416 52.6348 -30.1416 97.1719v488.33c0 44.5371 10.1221 76.9277 30.1416 97.1719c20.2441 20.2441 52.6348 30.3662 97.1719 30.3662h63.6562c44.7617 0 77.1523 -10.1221 97.1719 -30.3662zM258.112 138.274v467.187
c0 28.3418 -14.1709 42.5127 -42.5127 42.5127h-21.1436c-28.3418 0 -42.5127 -14.1709 -42.5127 -42.5127v-467.187c0 -28.3418 14.1709 -42.5127 42.5127 -42.5127h21.1436c28.3418 0 42.5127 14.1709 42.5127 42.5127z" />
    <glyph glyph-name="O" unicode="&#xd4;" 
d="M334.14 713.204c20.2441 -20.2441 30.1416 -52.6348 30.3662 -97.1719v-488.33c0 -44.5371 -10.1221 -76.9277 -30.3662 -97.1719s-52.6348 -30.3662 -97.1719 -30.3662h-63.6562c-44.5371 0 -76.9277 10.1221 -97.1719 30.3662
c-20.0195 20.2441 -30.1416 52.6348 -30.1416 97.1719v488.33c0 44.5371 10.1221 76.9277 30.1416 97.1719c20.2441 20.2441 52.6348 30.3662 97.1719 30.3662h63.6562c44.7617 0 77.1523 -10.1221 97.1719 -30.3662zM258.112 138.274v467.187
c0 28.3418 -14.1709 42.5127 -42.5127 42.5127h-21.1436c-28.3418 0 -42.5127 -14.1709 -42.5127 -42.5127v-467.187c0 -28.3418 14.1709 -42.5127 42.5127 -42.5127h21.1436c28.3418 0 42.5127 14.1709 42.5127 42.5127z" />
    <glyph glyph-name="O" unicode="&#xd3;" 
d="M334.14 713.204c20.2441 -20.2441 30.1416 -52.6348 30.3662 -97.1719v-488.33c0 -44.5371 -10.1221 -76.9277 -30.3662 -97.1719s-52.6348 -30.3662 -97.1719 -30.3662h-63.6562c-44.5371 0 -76.9277 10.1221 -97.1719 30.3662
c-20.0195 20.2441 -30.1416 52.6348 -30.1416 97.1719v488.33c0 44.5371 10.1221 76.9277 30.1416 97.1719c20.2441 20.2441 52.6348 30.3662 97.1719 30.3662h63.6562c44.7617 0 77.1523 -10.1221 97.1719 -30.3662zM258.112 138.274v467.187
c0 28.3418 -14.1709 42.5127 -42.5127 42.5127h-21.1436c-28.3418 0 -42.5127 -14.1709 -42.5127 -42.5127v-467.187c0 -28.3418 14.1709 -42.5127 42.5127 -42.5127h21.1436c28.3418 0 42.5127 14.1709 42.5127 42.5127z" />
    <glyph glyph-name="O" unicode="&#xd2;" 
d="M334.14 713.204c20.2441 -20.2441 30.1416 -52.6348 30.3662 -97.1719v-488.33c0 -44.5371 -10.1221 -76.9277 -30.3662 -97.1719s-52.6348 -30.3662 -97.1719 -30.3662h-63.6562c-44.5371 0 -76.9277 10.1221 -97.1719 30.3662
c-20.0195 20.2441 -30.1416 52.6348 -30.1416 97.1719v488.33c0 44.5371 10.1221 76.9277 30.1416 97.1719c20.2441 20.2441 52.6348 30.3662 97.1719 30.3662h63.6562c44.7617 0 77.1523 -10.1221 97.1719 -30.3662zM258.112 138.274v467.187
c0 28.3418 -14.1709 42.5127 -42.5127 42.5127h-21.1436c-28.3418 0 -42.5127 -14.1709 -42.5127 -42.5127v-467.187c0 -28.3418 14.1709 -42.5127 42.5127 -42.5127h21.1436c28.3418 0 42.5127 14.1709 42.5127 42.5127z" />
    <glyph glyph-name="P" unicode="P" 
d="M334.364 713.204c20.2441 -20.2441 30.3672 -52.6338 29.917 -97.1709v-206.938c0 -44.5371 -9.89746 -76.9277 -30.1416 -97.1719s-52.6348 -30.3662 -97.1719 -30.3662h-63.6562c-14.1709 0 -21.1436 -6.97266 -21.1436 -21.1436v-217.511
c0 -28.3418 -14.1709 -42.5127 -42.5127 -42.5127h-21.1436c-28.3418 0 -42.5127 14.1709 -42.5127 42.5127v658.155c0 28.3418 14.1709 42.5127 42.5127 42.5127h148.681c44.5371 0 76.9277 -10.1221 97.1719 -30.3662zM258.562 419.667v185.569
c0 28.3418 -14.1709 42.5127 -42.5127 42.5127h-42.5127c-14.1709 0 -21.1436 -6.97266 -21.1436 -21.1436v-232.356c0.674805 -11.4717 7.64746 -17.0947 21.1436 -17.0947h42.5127c28.3418 0 42.5127 14.1709 42.5127 42.5127z" />
    <glyph glyph-name="Q" unicode="Q" 
d="M339.538 35.9297c-16.6455 -20.2441 -43.8643 -32.168 -81.4277 -35.7666v-16.4199c-1.34961 -12.1465 2.92383 -22.9434 12.8213 -32.3906c9.89746 -9.67188 19.7949 -17.3193 29.6924 -22.9424l33.0654 -19.1191c24.7422 -14.1709 30.3652 -33.7402 16.8691 -58.4834
l-9.44727 -16.8701c-13.4961 -25.417 -32.166 -30.8154 -56.2344 -15.9697l-5.39844 3.14941c-22.4932 13.4961 -41.8379 24.293 -57.8086 32.8408c-15.7451 8.54785 -28.791 17.7705 -39.1377 28.1172c-10.1221 10.3467 -17.7695 22.7178 -22.7178 37.1133
c-4.94824 14.6211 -7.42285 34.6406 -7.42285 60.0576v21.1436c-37.5635 3.37402 -64.5557 15.2959 -81.2012 35.54c-16.6455 20.0195 -24.9678 50.835 -24.9678 91.7725v488.33c0 44.5371 9.89746 76.9277 30.1416 97.1719s52.6348 30.3662 97.1719 30.3662h63.6562
c44.5371 0 76.9277 -10.1221 97.1719 -30.3662c20.0195 -20.2441 30.1416 -52.6348 30.1416 -97.1719v-488.33c0 -40.9375 -8.32227 -71.5283 -24.9678 -91.7725zM215.823 95.7598c28.3418 0 42.5127 14.1709 42.5127 42.5127v467.187
c0 28.3418 -14.1709 42.5127 -42.5127 42.5127h-21.1436c-28.3418 0 -42.5127 -14.1709 -42.5127 -42.5127v-467.187c0 -28.3418 14.1709 -42.5127 42.5127 -42.5127h21.1436z" />
    <glyph glyph-name="R" unicode="R" horiz-adv-x="428" 
d="M289.378 286.955l89.0742 -244.502c4.94824 -13.4961 3.59863 -23.8428 -3.82422 -31.2656c-7.42285 -7.64746 -16.8701 -11.2461 -28.1172 -11.2461h-19.1191c-16.8701 0 -29.916 3.37402 -38.6885 9.67188c-8.99707 6.29785 -15.7451 16.6445 -20.6934 30.8154
l-81.6504 220.885c-2.24902 5.84863 -4.72363 10.3477 -8.09766 13.9463c-3.14941 3.59863 -7.64844 5.39844 -13.2715 5.39844c-8.54785 0 -12.8213 -6.97266 -12.8213 -20.2441v-217.511c0 -28.3418 -14.1709 -42.5127 -42.5127 -42.5127h-21.1436
c-28.3418 0 -42.5127 14.1709 -42.5127 42.5127v658.155c0 28.3418 14.1709 42.5127 42.5127 42.5127h148.681c44.5371 0 76.9277 -10.1221 97.1719 -30.3662s30.3662 -52.6348 30.3662 -97.1719v-206.938c0 -35.3145 -5.84863 -62.9814 -17.9951 -82.3262
c-11.9219 -19.5693 -31.2666 -32.8408 -57.3584 -39.8135zM258.562 419.666l0.000976562 185.569c0 28.3418 -14.1709 42.5127 -42.5127 42.5127h-42.5127c-13.9463 0 -21.1445 -6.97266 -21.1445 -21.1436v-232.356c0 -11.4717 6.97266 -17.0947 21.1436 -17.0947h42.5127
c28.3418 0 42.5127 14.1709 42.5127 42.5127z" />
    <glyph glyph-name="S" unicode="S" 
d="M357.758 267.836c4.49902 -14.8457 6.97363 -35.0928 6.97363 -60.5098v-79.626c0 -44.5371 -9.89746 -76.9277 -30.1416 -97.1719s-52.6348 -30.3662 -97.1719 -30.3662h-148.681c-28.3418 0 -42.5127 14.1709 -42.5127 42.5127v10.5723
c0 28.3418 14.1709 42.5127 42.5127 42.5127h127.312c28.3418 0 42.5127 14.1709 42.5127 42.5127v47.6855c0 12.8213 -0.899414 22.9434 -2.69922 30.3662s-4.49902 13.4961 -8.54785 17.9951c-3.82422 4.49902 -8.54785 8.54785 -13.7217 12.1465
s-11.2471 7.42285 -17.5449 11.6963l-41.3877 25.417c-16.4199 9.22266 -31.9404 17.0957 -47.2363 23.3936c-15.2959 6.52344 -29.0166 14.6211 -40.9385 24.5186s-21.8193 23.1689 -29.2422 39.8145s-11.0215 39.8135 -11.0215 69.5049v175.223
c0 44.5371 9.89746 76.9277 30.1416 97.1719s52.6348 30.3662 97.1719 30.3662h58.4824c44.5371 0 76.9277 -10.1221 97.1719 -30.3662c20.0195 -20.2441 30.1416 -52.6348 30.1416 -97.1719v-111.342c0 -28.3418 -14.1709 -42.5127 -42.5127 -42.5127h-21.1436
c-28.3418 0 -42.5127 14.1709 -42.5127 42.5127v100.771c0 28.3418 -14.1709 42.5127 -42.5127 42.5127h-15.9707c-28.3418 0 -42.5127 -14.1709 -42.5127 -42.5127v-143.732c0 -14.1709 1.125 -24.9678 3.59961 -32.8408s5.84863 -14.1709 10.1221 -19.1191
c4.49902 -4.94824 8.99805 -8.54688 13.9463 -11.0215s10.3467 -5.39844 15.9697 -8.99707l41.3877 -24.5176c22.7188 -12.5967 42.2881 -23.1689 58.4834 -31.7168c16.1953 -8.32227 29.4668 -17.7695 39.8135 -28.1162
c10.1221 -10.1221 17.7695 -22.7188 22.2686 -37.5645z" />
    <glyph glyph-name="T" unicode="T" horiz-adv-x="410" 
d="M343.137 743.57c14.1709 0 21.1436 -7.19629 20.9189 -21.3672v-53.3096c0 -14.1709 -6.97266 -21.1436 -21.1436 -21.1436h-63.6562c-14.1709 0 -21.1436 -6.97266 -21.1436 -21.1436v-583.478c0 -28.3418 -14.1709 -42.5127 -42.5127 -42.5127h-21.1436
c-28.3418 0 -42.5127 14.1709 -42.5127 42.5127v583.927c0 14.1709 -6.97266 21.1436 -21.1436 21.1436h-63.6562c-14.1709 0 -21.1436 6.97266 -21.1436 21.1436v53.084c0 14.1709 6.97266 21.1436 21.1436 21.1436h275.993z" />
    <glyph glyph-name="U" unicode="U" 
d="M322.218 743.57c28.3418 0 42.5137 -14.1709 42.7383 -42.5127v-573.355c0 -44.5371 -10.1221 -76.9277 -30.3662 -97.1719s-52.6348 -30.3662 -97.1719 -30.3662h-63.6562c-44.5371 0 -76.9277 10.1221 -97.1719 30.3662s-30.3662 52.6348 -30.3662 97.1719v573.355
c0 28.3418 14.1709 42.5127 42.5127 42.5127h21.1436c28.3418 0 42.5127 -14.1709 42.5127 -42.5127v-562.559c0 -28.3418 14.1709 -42.5127 42.5127 -42.5127h21.1436c28.3418 0 42.5127 14.1709 42.5127 42.5127v562.559c0 28.3418 14.1709 42.5127 42.5127 42.5127
h21.1436z" />
    <glyph glyph-name="U" unicode="&#xdc;" 
d="M322.218 743.57c28.3418 0 42.5137 -14.1709 42.7383 -42.5127v-573.355c0 -44.5371 -10.1221 -76.9277 -30.3662 -97.1719s-52.6348 -30.3662 -97.1719 -30.3662h-63.6562c-44.5371 0 -76.9277 10.1221 -97.1719 30.3662s-30.3662 52.6348 -30.3662 97.1719v573.355
c0 28.3418 14.1709 42.5127 42.5127 42.5127h21.1436c28.3418 0 42.5127 -14.1709 42.5127 -42.5127v-562.559c0 -28.3418 14.1709 -42.5127 42.5127 -42.5127h21.1436c28.3418 0 42.5127 14.1709 42.5127 42.5127v562.559c0 28.3418 14.1709 42.5127 42.5127 42.5127
h21.1436z" />
    <glyph glyph-name="U" unicode="&#xdb;" 
d="M322.218 743.57c28.3418 0 42.5137 -14.1709 42.7383 -42.5127v-573.355c0 -44.5371 -10.1221 -76.9277 -30.3662 -97.1719s-52.6348 -30.3662 -97.1719 -30.3662h-63.6562c-44.5371 0 -76.9277 10.1221 -97.1719 30.3662s-30.3662 52.6348 -30.3662 97.1719v573.355
c0 28.3418 14.1709 42.5127 42.5127 42.5127h21.1436c28.3418 0 42.5127 -14.1709 42.5127 -42.5127v-562.559c0 -28.3418 14.1709 -42.5127 42.5127 -42.5127h21.1436c28.3418 0 42.5127 14.1709 42.5127 42.5127v562.559c0 28.3418 14.1709 42.5127 42.5127 42.5127
h21.1436z" />
    <glyph glyph-name="U" unicode="&#xda;" 
d="M322.218 743.57c28.3418 0 42.5137 -14.1709 42.7383 -42.5127v-573.355c0 -44.5371 -10.1221 -76.9277 -30.3662 -97.1719s-52.6348 -30.3662 -97.1719 -30.3662h-63.6562c-44.5371 0 -76.9277 10.1221 -97.1719 30.3662s-30.3662 52.6348 -30.3662 97.1719v573.355
c0 28.3418 14.1709 42.5127 42.5127 42.5127h21.1436c28.3418 0 42.5127 -14.1709 42.5127 -42.5127v-562.559c0 -28.3418 14.1709 -42.5127 42.5127 -42.5127h21.1436c28.3418 0 42.5127 14.1709 42.5127 42.5127v562.559c0 28.3418 14.1709 42.5127 42.5127 42.5127
h21.1436z" />
    <glyph glyph-name="U" unicode="&#xd9;" 
d="M322.218 743.57c28.3418 0 42.5137 -14.1709 42.7383 -42.5127v-573.355c0 -44.5371 -10.1221 -76.9277 -30.3662 -97.1719s-52.6348 -30.3662 -97.1719 -30.3662h-63.6562c-44.5371 0 -76.9277 10.1221 -97.1719 30.3662s-30.3662 52.6348 -30.3662 97.1719v573.355
c0 28.3418 14.1709 42.5127 42.5127 42.5127h21.1436c28.3418 0 42.5127 -14.1709 42.5127 -42.5127v-562.559c0 -28.3418 14.1709 -42.5127 42.5127 -42.5127h21.1436c28.3418 0 42.5127 14.1709 42.5127 42.5127v562.559c0 28.3418 14.1709 42.5127 42.5127 42.5127
h21.1436z" />
    <glyph glyph-name="V" unicode="V" horiz-adv-x="442" 
d="M354.124 743.57c30.3662 0 44.5381 -14.1719 42.2891 -42.7383l-42.5127 -573.355c-2.92383 -44.5371 -13.7207 -76.9277 -32.3906 -97.1719s-50.3857 -30.3662 -94.9229 -30.3662h-10.5723c-45.2119 0 -77.1523 10.1221 -95.5967 30.3662
c-18.2197 20.2441 -28.792 52.6348 -31.7158 97.1719l-42.5127 573.355c-2.02441 28.3418 12.1465 42.5127 42.5127 42.5127h21.1436c14.1709 0 24.5176 -3.37402 30.8154 -10.1221c6.52344 -6.74805 10.3477 -17.5449 11.6973 -32.3906l42.5127 -562.559
c0.674805 -13.4961 2.69922 -23.8428 6.29785 -31.2656c3.59863 -7.64746 10.3467 -11.2461 20.2441 -11.2461c16.1953 0 25.1924 14.1709 26.542 42.5127l42.5127 562.783c1.57422 14.8457 5.17285 25.6426 11.2461 32.3906
c5.84863 6.74805 16.4209 10.1221 31.2666 10.1221h21.1436z" />
    <glyph glyph-name="W" unicode="W" horiz-adv-x="692" 
d="M602.678 743.57c30.3662 0 44.5352 -14.1729 42.5107 -42.5146l-37.1143 -573.355c-2.92383 -44.5371 -13.2705 -76.9277 -31.4902 -97.1719c-17.9951 -20.2441 -48.1357 -30.3662 -90.6484 -30.3662h-10.5723c-37.5635 0 -63.8809 10.1221 -79.1768 30.3662
c-15.0703 20.2441 -24.293 52.6348 -26.9922 97.1719l-6.29785 85.0244c-2.92383 37.5635 -4.72363 72.8779 -5.84863 106.168s-2.47461 68.6045 -3.82422 106.168c-0.674805 11.2471 -2.69922 16.8701 -6.29785 16.8701s-5.84766 -5.62305 -6.52246 -16.8701
c-1.34961 -37.5635 -2.47461 -72.8779 -3.59961 -106.168s-3.14941 -68.6045 -5.84863 -106.168l-6.29785 -85.0244c-3.59863 -44.5371 -12.8213 -76.9277 -27.667 -97.1719s-40.9375 -30.3662 -78.501 -30.3662h-10.5723c-43.1875 0 -73.5537 10.1221 -90.874 30.3662
s-27.667 52.6348 -31.2656 97.1719l-39.3633 573.355c-2.02441 28.3418 12.1465 42.5127 42.5127 42.5127h21.1436c14.8457 0 25.1924 -3.37402 31.2656 -10.1221s9.67188 -17.5449 11.2461 -32.3906l39.3633 -562.559c1.34961 -13.4961 3.37402 -23.8428 5.84863 -31.2656
c2.47461 -7.64746 7.64844 -11.2461 15.2959 -11.2461c9.22266 0 15.5205 3.82422 19.1191 11.2471c3.37402 7.42285 6.07324 17.7695 7.42285 31.2656l42.5127 456.615c1.57422 14.8457 5.17285 25.6426 11.2461 32.3906s16.4199 10.1221 31.2656 10.1221h44.5371
c14.8457 0 25.1924 -3.37402 31.2656 -10.1221s9.89746 -17.5449 11.2471 -32.3906l42.5127 -456.615c1.34961 -13.4961 3.82422 -23.8428 6.97363 -31.2656c3.14941 -7.64746 9.67285 -11.2461 19.5703 -11.2461c7.64746 0 12.8213 3.82422 15.2959 11.2471
s4.27441 17.7695 5.84863 31.2656l37.1143 562.559c1.34961 14.8457 4.94824 25.6426 10.5713 32.3906s16.1953 10.1221 31.7158 10.1221h21.3691z" />
    <glyph glyph-name="X" unicode="X" horiz-adv-x="443" 
d="M282.86 366.582l111.118 -323.904c4.94824 -13.9463 3.59863 -24.7432 -3.82422 -31.7158s-16.8701 -10.5713 -28.1172 -10.5713h-21.3691c-14.8457 0 -26.542 3.37402 -35.0898 9.67188s-14.8457 16.6445 -19.1191 30.8154l-22.2686 65.6807
c-7.87305 25.6426 -15.0713 51.2852 -21.8193 77.6025c-6.74805 26.0918 -13.7207 52.1836 -20.6934 78.501c-6.97266 -26.0918 -13.9453 -52.4092 -20.6934 -78.501c-6.74805 -26.3174 -13.9463 -52.1846 -21.8193 -77.6016l-22.2686 -65.6807
c-4.94824 -13.4961 -11.4717 -23.6182 -19.1191 -30.3662c-7.87305 -6.74805 -19.5693 -10.1221 -35.0898 -10.1221h-21.1436c-11.2471 0 -20.6943 3.37402 -28.1172 10.5723c-7.19824 6.97266 -8.54785 17.5449 -3.59961 31.7158l110.442 323.904
c4.27344 13.2715 4.27344 26.7676 0 40.2637l-99.8701 293.988c-5.17383 14.3955 -3.82422 24.9678 3.59863 31.9404s16.8701 10.5713 28.1172 10.5713h21.1436c15.0703 0 26.542 -3.14941 34.6396 -9.44727s14.6211 -16.6445 19.5693 -30.8154l22.2686 -65.9053
c6.29785 -20.4688 11.6963 -41.3877 16.4199 -62.5312c4.49902 -21.1436 9.67285 -42.0625 15.2959 -62.5312c5.62305 20.4688 10.7969 41.3877 15.2959 62.5312s10.1221 42.0625 16.4199 62.5312l22.2686 65.9053c4.94824 13.2715 11.2461 23.3936 19.1191 30.1416
s19.5693 10.1221 35.0898 10.1221h21.1436c11.2471 0 20.6943 -3.37402 28.1172 -10.5723s8.77246 -17.7705 3.82422 -31.9414l-99.8701 -293.988c-4.27344 -13.2715 -4.27344 -26.7676 0 -40.2637z" />
    <glyph glyph-name="Y" unicode="Y" 
d="M321.993 743.57c28.3418 0 42.5127 -14.1699 42.5127 -42.5117v-387.561c0 -40.9375 -8.32227 -71.5283 -24.9678 -91.7725c-16.6455 -20.0195 -43.6377 -31.9414 -81.2012 -35.54v-143.282c0 -28.3418 -14.1709 -42.5127 -42.5127 -42.5127h-21.1436
c-28.3418 0 -42.5127 14.1709 -42.5127 42.5127v143.282c-37.5635 2.92383 -64.5557 14.3955 -81.2012 35.0898c-16.6455 20.4688 -24.9678 51.2842 -24.9678 92.2217v387.561c0 28.3418 14.1709 42.5127 42.5127 42.5127h21.1436
c28.3418 0 42.5127 -14.1709 42.5127 -42.5127v-376.764c0 -28.3418 14.1709 -42.5127 42.5127 -42.5127h21.1436c28.3418 0 42.5127 14.1709 42.5127 42.5127v376.764c0 28.3418 14.1709 42.5127 42.5127 42.5127h21.1436z" />
    <glyph glyph-name="Y" unicode="&#xdd;" 
d="M321.993 743.57c28.3418 0 42.5127 -14.1699 42.5127 -42.5117v-387.561c0 -40.9375 -8.32227 -71.5283 -24.9678 -91.7725c-16.6455 -20.0195 -43.6377 -31.9414 -81.2012 -35.54v-143.282c0 -28.3418 -14.1709 -42.5127 -42.5127 -42.5127h-21.1436
c-28.3418 0 -42.5127 14.1709 -42.5127 42.5127v143.282c-37.5635 2.92383 -64.5557 14.3955 -81.2012 35.0898c-16.6455 20.4688 -24.9678 51.2842 -24.9678 92.2217v387.561c0 28.3418 14.1709 42.5127 42.5127 42.5127h21.1436
c28.3418 0 42.5127 -14.1709 42.5127 -42.5127v-376.764c0 -28.3418 14.1709 -42.5127 42.5127 -42.5127h21.1436c28.3418 0 42.5127 14.1709 42.5127 42.5127v376.764c0 28.3418 14.1709 42.5127 42.5127 42.5127h21.1436z" />
    <glyph glyph-name="Z" unicode="Z" horiz-adv-x="392" 
d="M196.045 95.7617l116.741 0.00195312c14.1709 0 21.3691 -6.97266 21.3691 -21.1436v-52.8594c0 -14.1709 -7.19824 -21.1436 -21.3691 -21.1436h-233.48c-11.2471 0 -20.2441 3.37402 -26.542 10.5723c-6.29785 6.97266 -8.09766 17.5449 -5.17383 31.7158
l169.824 583.927c2.02441 7.64746 1.125 13.2705 -3.14844 16.4199c-4.04883 3.14941 -10.3467 4.72363 -17.9941 4.72363h-116.74c-13.9463 0 -21.1445 6.97266 -21.1445 21.1436v53.084c0 14.1709 6.97266 21.1436 21.1436 21.1436h233.48
c11.2471 0 20.2441 -3.37402 26.542 -10.5723s8.09766 -17.7705 5.17383 -31.9414l-169.825 -583.927c-2.02441 -7.87305 -1.125 -13.2715 3.14844 -16.4209s10.1221 -4.72363 17.9951 -4.72363z" />
    <glyph glyph-name="bracketleft" unicode="[" horiz-adv-x="358" 
d="M173.762 754.367c-14.1709 0 -21.3672 -6.97461 -21.3672 -21.1455v-796.039c0 -14.1709 7.19824 -21.1436 21.3691 -21.1436h116.966c14.3955 0 21.3682 -6.97266 21.3682 -21.1436v-53.3096c0 -14.1709 -7.19824 -21.1436 -21.3691 -21.1436h-202.215
c-28.3418 0 -42.5127 14.1709 -42.5127 42.5127v944.271c0 28.3418 14.1709 42.5127 42.5127 42.5127h202.215c14.3955 0 21.3682 -6.97266 21.3682 -21.1436v-53.084c0 -14.1709 -7.19824 -21.1436 -21.3691 -21.1436h-116.966z" />
    <glyph glyph-name="bracketright" unicode="]" horiz-adv-x="358" 
d="M269.584 849.964c28.3418 0 42.7363 -14.1699 42.5117 -42.5117v-943.82c0 -28.3418 -14.1709 -42.5127 -42.5127 -42.5127h-202.215c-14.3955 0 -21.3682 6.97266 -21.3682 21.1436v53.084c0 13.9463 7.19824 21.1445 21.3691 21.1445h117.19
c14.3955 0 21.3682 6.97266 21.3682 21.1436v795.814c0 14.1709 -7.19824 21.1436 -21.3691 21.1436h-117.19c-14.3955 0 -21.3682 6.97266 -21.3682 21.1436v53.084c0 14.1709 7.19824 21.1436 21.3691 21.1436h202.215z" />
    <glyph glyph-name="underscore" unicode="_" horiz-adv-x="496" 
d="M429.062 425.964c14.1709 0 21.3701 -7.19824 21.3701 -21.3691v-52.8594c0 -14.1709 -7.19824 -21.1436 -21.3691 -21.1436h-361.918c-13.9463 0 -21.1445 6.97266 -21.1445 21.1436v53.084c0 13.9463 6.97266 21.1445 21.1436 21.1445h361.918z" />
    <glyph glyph-name="grave" unicode="`" horiz-adv-x="279" 
d="M216.106 733.898c14.1709 -6.29785 19.5693 -14.8467 16.1953 -25.6436l-2.24902 -5.17383c-2.92383 -6.29785 -5.84766 -10.7969 -8.99707 -13.2715s-8.77246 -3.14941 -16.4199 -1.5752l-132.711 29.6914c-21.3691 4.94824 -29.4668 19.1191 -24.5186 42.5127
l3.14941 10.5723c3.59863 11.2471 8.99707 19.7949 15.9697 24.9688c6.97266 5.39844 15.5205 5.17383 25.418 -0.449219z" />
    <glyph glyph-name="a" unicode="a" 
d="M334.14 607.035c20.2441 -20.2441 30.3662 -52.6377 30.5908 -97.1748v-382.611c0 -44.5371 -10.1221 -76.9277 -30.3662 -97.1719s-52.6348 -30.3662 -97.1719 -30.3662h-63.6562c-44.5371 0 -76.9277 10.1221 -97.1719 30.3662
c-20.0195 20.2441 -30.1416 52.6348 -30.1416 97.1719v116.74c0 25.417 3.59863 46.1113 11.0215 62.082s17.3203 29.6914 29.6914 40.9385c12.3711 11.4717 26.0918 20.9189 41.3877 28.792s30.5918 16.1953 46.3369 25.418l41.3877 24.5176
c5.62305 3.59863 11.0215 6.97266 16.4199 10.1221c5.17383 3.37402 9.89746 7.42285 13.7217 12.3711s6.74805 11.0215 8.99707 18.4443c2.02441 7.42285 3.14941 16.8701 3.14941 28.1172c0 15.5205 -2.92383 27.2168 -8.54688 35.0898s-17.0947 11.6973 -33.9648 11.6973
h-106.169c-28.3418 0 -42.5127 14.1709 -42.5127 42.5127v10.5723c0 28.3418 14.1709 42.5127 42.5127 42.5127h127.312c44.7617 0 77.1523 -9.89746 97.1719 -30.1416zM258.337 138.271l0.00292969 198.617l-62.7568 -36.2139
c-6.52344 -3.59863 -12.3721 -6.97266 -17.5459 -10.1221s-9.89746 -7.19824 -13.7217 -11.6973s-6.97363 -10.7969 -8.99805 -18.4443c-2.02441 -7.87305 -3.14941 -18.4453 -3.14941 -31.9414v-90.1982c0 -28.3418 14.1709 -42.5127 42.5127 -42.5127h21.1436
c28.3418 0 42.5127 14.1709 42.5127 42.5127z" />
    <glyph glyph-name="a" unicode="&#xe5;" 
d="M334.14 607.035c20.2441 -20.2441 30.3662 -52.6377 30.5908 -97.1748v-382.611c0 -44.5371 -10.1221 -76.9277 -30.3662 -97.1719s-52.6348 -30.3662 -97.1719 -30.3662h-63.6562c-44.5371 0 -76.9277 10.1221 -97.1719 30.3662
c-20.0195 20.2441 -30.1416 52.6348 -30.1416 97.1719v116.74c0 25.417 3.59863 46.1113 11.0215 62.082s17.3203 29.6914 29.6914 40.9385c12.3711 11.4717 26.0918 20.9189 41.3877 28.792s30.5918 16.1953 46.3369 25.418l41.3877 24.5176
c5.62305 3.59863 11.0215 6.97266 16.4199 10.1221c5.17383 3.37402 9.89746 7.42285 13.7217 12.3711s6.74805 11.0215 8.99707 18.4443c2.02441 7.42285 3.14941 16.8701 3.14941 28.1172c0 15.5205 -2.92383 27.2168 -8.54688 35.0898s-17.0947 11.6973 -33.9648 11.6973
h-106.169c-28.3418 0 -42.5127 14.1709 -42.5127 42.5127v10.5723c0 28.3418 14.1709 42.5127 42.5127 42.5127h127.312c44.7617 0 77.1523 -9.89746 97.1719 -30.1416zM258.337 138.271l0.00292969 198.617l-62.7568 -36.2139
c-6.52344 -3.59863 -12.3721 -6.97266 -17.5459 -10.1221s-9.89746 -7.19824 -13.7217 -11.6973s-6.97363 -10.7969 -8.99805 -18.4443c-2.02441 -7.87305 -3.14941 -18.4453 -3.14941 -31.9414v-90.1982c0 -28.3418 14.1709 -42.5127 42.5127 -42.5127h21.1436
c28.3418 0 42.5127 14.1709 42.5127 42.5127z" />
    <glyph glyph-name="a" unicode="&#xe4;" 
d="M334.14 607.035c20.2441 -20.2441 30.3662 -52.6377 30.5908 -97.1748v-382.611c0 -44.5371 -10.1221 -76.9277 -30.3662 -97.1719s-52.6348 -30.3662 -97.1719 -30.3662h-63.6562c-44.5371 0 -76.9277 10.1221 -97.1719 30.3662
c-20.0195 20.2441 -30.1416 52.6348 -30.1416 97.1719v116.74c0 25.417 3.59863 46.1113 11.0215 62.082s17.3203 29.6914 29.6914 40.9385c12.3711 11.4717 26.0918 20.9189 41.3877 28.792s30.5918 16.1953 46.3369 25.418l41.3877 24.5176
c5.62305 3.59863 11.0215 6.97266 16.4199 10.1221c5.17383 3.37402 9.89746 7.42285 13.7217 12.3711s6.74805 11.0215 8.99707 18.4443c2.02441 7.42285 3.14941 16.8701 3.14941 28.1172c0 15.5205 -2.92383 27.2168 -8.54688 35.0898s-17.0947 11.6973 -33.9648 11.6973
h-106.169c-28.3418 0 -42.5127 14.1709 -42.5127 42.5127v10.5723c0 28.3418 14.1709 42.5127 42.5127 42.5127h127.312c44.7617 0 77.1523 -9.89746 97.1719 -30.1416zM258.337 138.271l0.00292969 198.617l-62.7568 -36.2139
c-6.52344 -3.59863 -12.3721 -6.97266 -17.5459 -10.1221s-9.89746 -7.19824 -13.7217 -11.6973s-6.97363 -10.7969 -8.99805 -18.4443c-2.02441 -7.87305 -3.14941 -18.4453 -3.14941 -31.9414v-90.1982c0 -28.3418 14.1709 -42.5127 42.5127 -42.5127h21.1436
c28.3418 0 42.5127 14.1709 42.5127 42.5127z" />
    <glyph glyph-name="a" unicode="&#xe3;" 
d="M334.14 607.035c20.2441 -20.2441 30.3662 -52.6377 30.5908 -97.1748v-382.611c0 -44.5371 -10.1221 -76.9277 -30.3662 -97.1719s-52.6348 -30.3662 -97.1719 -30.3662h-63.6562c-44.5371 0 -76.9277 10.1221 -97.1719 30.3662
c-20.0195 20.2441 -30.1416 52.6348 -30.1416 97.1719v116.74c0 25.417 3.59863 46.1113 11.0215 62.082s17.3203 29.6914 29.6914 40.9385c12.3711 11.4717 26.0918 20.9189 41.3877 28.792s30.5918 16.1953 46.3369 25.418l41.3877 24.5176
c5.62305 3.59863 11.0215 6.97266 16.4199 10.1221c5.17383 3.37402 9.89746 7.42285 13.7217 12.3711s6.74805 11.0215 8.99707 18.4443c2.02441 7.42285 3.14941 16.8701 3.14941 28.1172c0 15.5205 -2.92383 27.2168 -8.54688 35.0898s-17.0947 11.6973 -33.9648 11.6973
h-106.169c-28.3418 0 -42.5127 14.1709 -42.5127 42.5127v10.5723c0 28.3418 14.1709 42.5127 42.5127 42.5127h127.312c44.7617 0 77.1523 -9.89746 97.1719 -30.1416zM258.337 138.271l0.00292969 198.617l-62.7568 -36.2139
c-6.52344 -3.59863 -12.3721 -6.97266 -17.5459 -10.1221s-9.89746 -7.19824 -13.7217 -11.6973s-6.97363 -10.7969 -8.99805 -18.4443c-2.02441 -7.87305 -3.14941 -18.4453 -3.14941 -31.9414v-90.1982c0 -28.3418 14.1709 -42.5127 42.5127 -42.5127h21.1436
c28.3418 0 42.5127 14.1709 42.5127 42.5127z" />
    <glyph glyph-name="a" unicode="&#xe2;" 
d="M334.14 607.035c20.2441 -20.2441 30.3662 -52.6377 30.5908 -97.1748v-382.611c0 -44.5371 -10.1221 -76.9277 -30.3662 -97.1719s-52.6348 -30.3662 -97.1719 -30.3662h-63.6562c-44.5371 0 -76.9277 10.1221 -97.1719 30.3662
c-20.0195 20.2441 -30.1416 52.6348 -30.1416 97.1719v116.74c0 25.417 3.59863 46.1113 11.0215 62.082s17.3203 29.6914 29.6914 40.9385c12.3711 11.4717 26.0918 20.9189 41.3877 28.792s30.5918 16.1953 46.3369 25.418l41.3877 24.5176
c5.62305 3.59863 11.0215 6.97266 16.4199 10.1221c5.17383 3.37402 9.89746 7.42285 13.7217 12.3711s6.74805 11.0215 8.99707 18.4443c2.02441 7.42285 3.14941 16.8701 3.14941 28.1172c0 15.5205 -2.92383 27.2168 -8.54688 35.0898s-17.0947 11.6973 -33.9648 11.6973
h-106.169c-28.3418 0 -42.5127 14.1709 -42.5127 42.5127v10.5723c0 28.3418 14.1709 42.5127 42.5127 42.5127h127.312c44.7617 0 77.1523 -9.89746 97.1719 -30.1416zM258.337 138.271l0.00292969 198.617l-62.7568 -36.2139
c-6.52344 -3.59863 -12.3721 -6.97266 -17.5459 -10.1221s-9.89746 -7.19824 -13.7217 -11.6973s-6.97363 -10.7969 -8.99805 -18.4443c-2.02441 -7.87305 -3.14941 -18.4453 -3.14941 -31.9414v-90.1982c0 -28.3418 14.1709 -42.5127 42.5127 -42.5127h21.1436
c28.3418 0 42.5127 14.1709 42.5127 42.5127z" />
    <glyph glyph-name="a" unicode="&#xe1;" 
d="M334.14 607.035c20.2441 -20.2441 30.3662 -52.6377 30.5908 -97.1748v-382.611c0 -44.5371 -10.1221 -76.9277 -30.3662 -97.1719s-52.6348 -30.3662 -97.1719 -30.3662h-63.6562c-44.5371 0 -76.9277 10.1221 -97.1719 30.3662
c-20.0195 20.2441 -30.1416 52.6348 -30.1416 97.1719v116.74c0 25.417 3.59863 46.1113 11.0215 62.082s17.3203 29.6914 29.6914 40.9385c12.3711 11.4717 26.0918 20.9189 41.3877 28.792s30.5918 16.1953 46.3369 25.418l41.3877 24.5176
c5.62305 3.59863 11.0215 6.97266 16.4199 10.1221c5.17383 3.37402 9.89746 7.42285 13.7217 12.3711s6.74805 11.0215 8.99707 18.4443c2.02441 7.42285 3.14941 16.8701 3.14941 28.1172c0 15.5205 -2.92383 27.2168 -8.54688 35.0898s-17.0947 11.6973 -33.9648 11.6973
h-106.169c-28.3418 0 -42.5127 14.1709 -42.5127 42.5127v10.5723c0 28.3418 14.1709 42.5127 42.5127 42.5127h127.312c44.7617 0 77.1523 -9.89746 97.1719 -30.1416zM258.337 138.271l0.00292969 198.617l-62.7568 -36.2139
c-6.52344 -3.59863 -12.3721 -6.97266 -17.5459 -10.1221s-9.89746 -7.19824 -13.7217 -11.6973s-6.97363 -10.7969 -8.99805 -18.4443c-2.02441 -7.87305 -3.14941 -18.4453 -3.14941 -31.9414v-90.1982c0 -28.3418 14.1709 -42.5127 42.5127 -42.5127h21.1436
c28.3418 0 42.5127 14.1709 42.5127 42.5127z" />
    <glyph glyph-name="a" unicode="&#xe0;" 
d="M334.14 607.035c20.2441 -20.2441 30.3662 -52.6377 30.5908 -97.1748v-382.611c0 -44.5371 -10.1221 -76.9277 -30.3662 -97.1719s-52.6348 -30.3662 -97.1719 -30.3662h-63.6562c-44.5371 0 -76.9277 10.1221 -97.1719 30.3662
c-20.0195 20.2441 -30.1416 52.6348 -30.1416 97.1719v116.74c0 25.417 3.59863 46.1113 11.0215 62.082s17.3203 29.6914 29.6914 40.9385c12.3711 11.4717 26.0918 20.9189 41.3877 28.792s30.5918 16.1953 46.3369 25.418l41.3877 24.5176
c5.62305 3.59863 11.0215 6.97266 16.4199 10.1221c5.17383 3.37402 9.89746 7.42285 13.7217 12.3711s6.74805 11.0215 8.99707 18.4443c2.02441 7.42285 3.14941 16.8701 3.14941 28.1172c0 15.5205 -2.92383 27.2168 -8.54688 35.0898s-17.0947 11.6973 -33.9648 11.6973
h-106.169c-28.3418 0 -42.5127 14.1709 -42.5127 42.5127v10.5723c0 28.3418 14.1709 42.5127 42.5127 42.5127h127.312c44.7617 0 77.1523 -9.89746 97.1719 -30.1416zM258.337 138.271l0.00292969 198.617l-62.7568 -36.2139
c-6.52344 -3.59863 -12.3721 -6.97266 -17.5459 -10.1221s-9.89746 -7.19824 -13.7217 -11.6973s-6.97363 -10.7969 -8.99805 -18.4443c-2.02441 -7.87305 -3.14941 -18.4453 -3.14941 -31.9414v-90.1982c0 -28.3418 14.1709 -42.5127 42.5127 -42.5127h21.1436
c28.3418 0 42.5127 14.1709 42.5127 42.5127z" />
    <glyph glyph-name="b" unicode="b" 
d="M334.59 607.035c20.2441 -20.2441 30.1406 -52.6328 30.5908 -97.1699v-381.937c0 -44.5371 -10.1221 -76.9277 -30.3662 -97.1719s-52.6348 -30.3662 -97.1719 -30.3662h-148.681c-28.3418 0 -42.5127 14.1709 -42.5127 42.5127v711.239
c0 28.3418 14.1709 42.5127 42.5127 42.5127h21.1436c28.3418 0 42.5127 -14.1709 42.5127 -42.5127v-95.5967c0 -14.1709 6.97266 -21.3691 21.1436 -21.3691h63.6562c44.5371 0 76.9277 -9.89746 97.1719 -30.1416zM258.786 138.276l0.000976562 360.793
c0 28.3418 -14.1709 42.5127 -42.5127 42.5127h-42.5127c-13.2715 0 -20.4697 -5.62305 -21.1445 -16.8701v-407.805c0 -14.1709 6.97266 -21.1436 21.1436 -21.1436h42.5127c28.3418 0 42.5127 14.1709 42.5127 42.5127z" />
    <glyph glyph-name="c" unicode="c" 
d="M300.85 377.153c-28.3418 0 -42.5127 14.1719 -42.2881 42.5137v79.626c0 28.3418 -14.1709 42.5127 -42.5127 42.5127h-21.1436c-28.3418 0 -42.5127 -14.1709 -42.5127 -42.5127v-361.019c0 -28.3418 14.1709 -42.5127 42.5127 -42.5127h116.74
c28.3418 0 42.5127 -14.1709 42.5127 -42.5127v-10.5723c0 -28.3418 -14.1709 -42.5127 -42.5127 -42.5127h-138.109c-44.5371 0 -76.9277 10.1221 -97.1719 30.3662c-20.0195 20.2441 -30.1416 52.6348 -30.1416 97.1719v382.162
c0 44.5371 9.89746 76.9277 30.1416 97.1719c20.2441 20.0195 52.6348 30.1416 97.1719 30.1416h63.6562c44.5371 0 76.9277 -9.89746 97.1719 -30.1416c20.0195 -20.2441 30.1416 -52.6348 30.1416 -97.1719v-90.1982c0 -28.3418 -14.1709 -42.5127 -42.5127 -42.5127
h-21.1436z" />
    <glyph glyph-name="c" unicode="&#xe7;" 
d="M300.85 377.153c-28.3418 0 -42.5127 14.1719 -42.2881 42.5137v79.626c0 28.3418 -14.1709 42.5127 -42.5127 42.5127h-21.1436c-28.3418 0 -42.5127 -14.1709 -42.5127 -42.5127v-361.019c0 -28.3418 14.1709 -42.5127 42.5127 -42.5127h116.74
c28.3418 0 42.5127 -14.1709 42.5127 -42.5127v-10.5723c0 -28.3418 -14.1709 -42.5127 -42.5127 -42.5127h-138.109c-44.5371 0 -76.9277 10.1221 -97.1719 30.3662c-20.0195 20.2441 -30.1416 52.6348 -30.1416 97.1719v382.162
c0 44.5371 9.89746 76.9277 30.1416 97.1719c20.2441 20.0195 52.6348 30.1416 97.1719 30.1416h63.6562c44.5371 0 76.9277 -9.89746 97.1719 -30.1416c20.0195 -20.2441 30.1416 -52.6348 30.1416 -97.1719v-90.1982c0 -28.3418 -14.1709 -42.5127 -42.5127 -42.5127
h-21.1436z" />
    <glyph glyph-name="d" unicode="d" 
d="M322.218 796.43c28.3418 0 42.5117 -14.1738 42.5117 -42.29v-711.689c0 -28.3418 -14.1709 -42.5127 -42.5127 -42.5127h-148.681c-44.5371 0 -76.9277 10.1221 -97.1719 30.3662s-30.3662 52.6348 -30.3662 97.1719v382.162c0 44.5371 10.1221 76.9277 30.3662 97.1719
c20.2441 20.0195 52.6348 30.1416 97.1719 30.1416h63.6562c14.1709 0 21.1436 7.19824 21.1436 21.3691v95.5967c0 28.3418 14.1709 42.5127 42.5127 42.5127h21.3691zM258.561 117.128v407.805c-0.450195 11.2471 -7.64844 16.8701 -21.1445 16.8701h-42.5127
c-28.1162 0 -42.2871 -14.1709 -42.2871 -42.5127v-360.793c0 -28.3418 13.9463 -42.5127 42.2881 -42.5127h42.5127c14.1709 0 21.1436 6.97266 21.1436 21.1436z" />
    <glyph glyph-name="e" unicode="e" 
d="M173.537 186.186c-14.1709 0 -21.1436 -7.19727 -21.1436 -21.3682v-26.542c0 -28.3418 14.1709 -42.5127 42.5127 -42.5127h116.74c28.3418 0 42.5127 -14.1709 42.5127 -42.5127v-10.5723c0 -28.3418 -14.1709 -42.5127 -42.5127 -42.5127h-138.109
c-44.5371 0 -76.9277 10.1221 -97.1719 30.3662s-30.3662 52.6348 -30.3662 97.1719v382.162c0 44.5371 10.1221 76.9277 30.3662 97.1719c20.2441 20.0195 52.6348 30.1416 97.1719 30.1416h63.6562c44.5371 0 76.9277 -9.89746 97.1719 -30.1416
c20.0195 -20.2441 30.1416 -52.6348 30.1416 -97.1719v-196.142c0 -44.5371 -9.89746 -76.9277 -30.1416 -97.1719s-52.6348 -30.3662 -97.1719 -30.3662h-63.6562zM152.394 499.294h0.226562v-196.367c0 -14.1709 6.97266 -21.3691 21.1436 -21.3691h63.6562
c14.1709 0 21.1436 7.19824 21.1436 21.3691v196.367c0 28.3418 -13.9463 42.5127 -42.2881 42.5127h-21.3691c-28.3418 0 -42.5127 -14.1709 -42.5127 -42.5127z" />
    <glyph glyph-name="e" unicode="&#xeb;" 
d="M173.537 186.186c-14.1709 0 -21.1436 -7.19727 -21.1436 -21.3682v-26.542c0 -28.3418 14.1709 -42.5127 42.5127 -42.5127h116.74c28.3418 0 42.5127 -14.1709 42.5127 -42.5127v-10.5723c0 -28.3418 -14.1709 -42.5127 -42.5127 -42.5127h-138.109
c-44.5371 0 -76.9277 10.1221 -97.1719 30.3662s-30.3662 52.6348 -30.3662 97.1719v382.162c0 44.5371 10.1221 76.9277 30.3662 97.1719c20.2441 20.0195 52.6348 30.1416 97.1719 30.1416h63.6562c44.5371 0 76.9277 -9.89746 97.1719 -30.1416
c20.0195 -20.2441 30.1416 -52.6348 30.1416 -97.1719v-196.142c0 -44.5371 -9.89746 -76.9277 -30.1416 -97.1719s-52.6348 -30.3662 -97.1719 -30.3662h-63.6562zM152.394 499.294h0.226562v-196.367c0 -14.1709 6.97266 -21.3691 21.1436 -21.3691h63.6562
c14.1709 0 21.1436 7.19824 21.1436 21.3691v196.367c0 28.3418 -13.9463 42.5127 -42.2881 42.5127h-21.3691c-28.3418 0 -42.5127 -14.1709 -42.5127 -42.5127z" />
    <glyph glyph-name="e" unicode="&#xea;" 
d="M173.537 186.186c-14.1709 0 -21.1436 -7.19727 -21.1436 -21.3682v-26.542c0 -28.3418 14.1709 -42.5127 42.5127 -42.5127h116.74c28.3418 0 42.5127 -14.1709 42.5127 -42.5127v-10.5723c0 -28.3418 -14.1709 -42.5127 -42.5127 -42.5127h-138.109
c-44.5371 0 -76.9277 10.1221 -97.1719 30.3662s-30.3662 52.6348 -30.3662 97.1719v382.162c0 44.5371 10.1221 76.9277 30.3662 97.1719c20.2441 20.0195 52.6348 30.1416 97.1719 30.1416h63.6562c44.5371 0 76.9277 -9.89746 97.1719 -30.1416
c20.0195 -20.2441 30.1416 -52.6348 30.1416 -97.1719v-196.142c0 -44.5371 -9.89746 -76.9277 -30.1416 -97.1719s-52.6348 -30.3662 -97.1719 -30.3662h-63.6562zM152.394 499.294h0.226562v-196.367c0 -14.1709 6.97266 -21.3691 21.1436 -21.3691h63.6562
c14.1709 0 21.1436 7.19824 21.1436 21.3691v196.367c0 28.3418 -13.9463 42.5127 -42.2881 42.5127h-21.3691c-28.3418 0 -42.5127 -14.1709 -42.5127 -42.5127z" />
    <glyph glyph-name="e" unicode="&#xe9;" 
d="M173.537 186.186c-14.1709 0 -21.1436 -7.19727 -21.1436 -21.3682v-26.542c0 -28.3418 14.1709 -42.5127 42.5127 -42.5127h116.74c28.3418 0 42.5127 -14.1709 42.5127 -42.5127v-10.5723c0 -28.3418 -14.1709 -42.5127 -42.5127 -42.5127h-138.109
c-44.5371 0 -76.9277 10.1221 -97.1719 30.3662s-30.3662 52.6348 -30.3662 97.1719v382.162c0 44.5371 10.1221 76.9277 30.3662 97.1719c20.2441 20.0195 52.6348 30.1416 97.1719 30.1416h63.6562c44.5371 0 76.9277 -9.89746 97.1719 -30.1416
c20.0195 -20.2441 30.1416 -52.6348 30.1416 -97.1719v-196.142c0 -44.5371 -9.89746 -76.9277 -30.1416 -97.1719s-52.6348 -30.3662 -97.1719 -30.3662h-63.6562zM152.394 499.294h0.226562v-196.367c0 -14.1709 6.97266 -21.3691 21.1436 -21.3691h63.6562
c14.1709 0 21.1436 7.19824 21.1436 21.3691v196.367c0 28.3418 -13.9463 42.5127 -42.2881 42.5127h-21.3691c-28.3418 0 -42.5127 -14.1709 -42.5127 -42.5127z" />
    <glyph glyph-name="e" unicode="&#xe8;" 
d="M173.537 186.186c-14.1709 0 -21.1436 -7.19727 -21.1436 -21.3682v-26.542c0 -28.3418 14.1709 -42.5127 42.5127 -42.5127h116.74c28.3418 0 42.5127 -14.1709 42.5127 -42.5127v-10.5723c0 -28.3418 -14.1709 -42.5127 -42.5127 -42.5127h-138.109
c-44.5371 0 -76.9277 10.1221 -97.1719 30.3662s-30.3662 52.6348 -30.3662 97.1719v382.162c0 44.5371 10.1221 76.9277 30.3662 97.1719c20.2441 20.0195 52.6348 30.1416 97.1719 30.1416h63.6562c44.5371 0 76.9277 -9.89746 97.1719 -30.1416
c20.0195 -20.2441 30.1416 -52.6348 30.1416 -97.1719v-196.142c0 -44.5371 -9.89746 -76.9277 -30.1416 -97.1719s-52.6348 -30.3662 -97.1719 -30.3662h-63.6562zM152.394 499.294h0.226562v-196.367c0 -14.1709 6.97266 -21.3691 21.1436 -21.3691h63.6562
c14.1709 0 21.1436 7.19824 21.1436 21.3691v196.367c0 28.3418 -13.9463 42.5127 -42.2881 42.5127h-21.3691c-28.3418 0 -42.5127 -14.1709 -42.5127 -42.5127z" />
    <glyph glyph-name="f" unicode="f" horiz-adv-x="368" 
d="M279.48 796.43c28.3418 0 42.5117 -14.1709 42.7363 -42.2871v-10.5723c0 -28.3418 -14.1709 -42.5127 -42.5127 -42.5127h-85.0244c-28.3418 0 -42.5127 -14.1709 -42.5127 -42.5127v-95.5967c0 -14.1709 6.97266 -21.1436 21.1436 -21.1436h85.0244
c28.3418 0 42.5127 -14.1709 42.5127 -42.5127v-10.5723c0 -28.3418 -14.1709 -42.5127 -42.5127 -42.5127h-85.0244c-14.1709 0 -21.1436 -6.97266 -21.1436 -21.1436v-382.387c0 -28.3418 -14.1709 -42.5127 -42.5127 -42.5127h-21.1436
c-28.3418 0 -42.5127 14.1709 -42.5127 42.5127v626.439c0 44.5371 10.1221 76.9277 30.1416 97.1719c20.2441 20.0195 52.6348 30.1416 97.1719 30.1416h106.169z" />
    <glyph glyph-name="g" unicode="g" 
d="M321.993 637.177c28.3418 0 42.5127 -14.1738 42.2881 -42.29v-616.093c0 -25.6426 -2.47461 -45.4365 -7.42285 -60.0576c-5.17383 -14.3955 -12.5967 -26.7666 -22.9434 -37.1133s-23.6182 -19.5693 -39.8135 -28.1172
c-16.4199 -8.32227 -35.5391 -19.3438 -57.3574 -32.8398l-5.39844 -3.14941c-24.0684 -14.8457 -42.7383 -9.44727 -56.2344 15.9697l-9.44727 16.8701c-14.1709 25.6426 -8.54785 44.9873 16.8691 58.4834l33.0654 19.1191
c9.89746 5.84863 19.7949 13.2715 29.6924 22.9434c9.89746 9.44727 14.1709 20.2441 12.8213 32.3906c-0.674805 11.2471 -7.64746 16.8701 -21.1436 16.8701h-63.6562c-44.5371 0 -76.9277 10.1221 -97.1719 30.3662c-20.0195 20.2441 -30.1416 52.6348 -30.1416 97.1719
v382.162c0 44.5371 9.89746 76.9277 30.1416 97.1719c20.2441 20.0195 52.6348 30.1416 97.1719 30.1416h148.681zM258.337 112.854l-0.000976562 407.805c0 14.1709 -6.97266 21.1436 -21.1436 21.1436h-42.5127c-28.3418 0 -42.5127 -14.1709 -42.5127 -42.5127v-360.793
c0 -28.3418 14.1709 -42.5127 42.5127 -42.5127h42.5127c13.2715 0 20.4697 5.62305 21.1445 16.8701z" />
    <glyph glyph-name="h" unicode="h" horiz-adv-x="410" 
d="M334.14 607.035c20.0195 -20.2441 30.1426 -52.6338 30.1426 -97.1709v-467.411c0 -28.3418 -14.1709 -42.5127 -42.5127 -42.5127h-21.1436c-28.3418 0 -42.5127 14.1709 -42.5127 42.5127v456.615c0 28.3418 -13.9463 42.5127 -42.2881 42.5127h-42.5127
c-13.4961 0 -20.4688 -5.62305 -21.1436 -16.8701v-481.808c0 -28.3418 -14.1709 -42.5127 -42.5127 -42.5127h-21.1436c-28.3418 0 -42.5127 14.1709 -42.5127 42.5127v711.239c0 28.3418 14.1709 42.5127 42.5127 42.5127h21.1436
c28.3418 0 42.5127 -14.1709 42.5127 -42.5127v-95.5967c0 -14.1709 6.97266 -21.3691 21.1436 -21.3691h63.6562c44.7617 0 76.9268 -9.89746 97.1709 -30.1416z" />
    <glyph glyph-name="i" unicode="i" horiz-adv-x="198" 
d="M109.656 637.177c28.3418 0 42.5127 -14.1719 42.5127 -42.2881v-552.437c0 -28.3418 -14.1709 -42.5127 -42.5127 -42.5127h-21.1436c-28.3418 0 -42.5127 14.1709 -42.5127 42.5127v552.212c0 28.3418 14.1709 42.5127 42.5127 42.5127h21.1436zM109.656 796.429
c28.3418 0 42.5127 -14.1709 42.5127 -42.2871v-21.3691c0 -28.3418 -14.1709 -42.5127 -42.5127 -42.5127h-21.1436c-28.3418 0 -42.5127 14.1709 -42.5127 42.5127v21.1436c0 28.3418 14.1709 42.5127 42.5127 42.5127h21.1436z" />
    <glyph glyph-name="i" unicode="&#xef;" horiz-adv-x="198" 
d="M109.656 637.177c28.3418 0 42.5127 -14.1719 42.5127 -42.2881v-552.437c0 -28.3418 -14.1709 -42.5127 -42.5127 -42.5127h-21.1436c-28.3418 0 -42.5127 14.1709 -42.5127 42.5127v552.212c0 28.3418 14.1709 42.5127 42.5127 42.5127h21.1436zM109.656 796.429
c28.3418 0 42.5127 -14.1709 42.5127 -42.2871v-21.3691c0 -28.3418 -14.1709 -42.5127 -42.5127 -42.5127h-21.1436c-28.3418 0 -42.5127 14.1709 -42.5127 42.5127v21.1436c0 28.3418 14.1709 42.5127 42.5127 42.5127h21.1436z" />
    <glyph glyph-name="i" unicode="&#xee;" horiz-adv-x="198" 
d="M109.656 637.177c28.3418 0 42.5127 -14.1719 42.5127 -42.2881v-552.437c0 -28.3418 -14.1709 -42.5127 -42.5127 -42.5127h-21.1436c-28.3418 0 -42.5127 14.1709 -42.5127 42.5127v552.212c0 28.3418 14.1709 42.5127 42.5127 42.5127h21.1436zM109.656 796.429
c28.3418 0 42.5127 -14.1709 42.5127 -42.2871v-21.3691c0 -28.3418 -14.1709 -42.5127 -42.5127 -42.5127h-21.1436c-28.3418 0 -42.5127 14.1709 -42.5127 42.5127v21.1436c0 28.3418 14.1709 42.5127 42.5127 42.5127h21.1436z" />
    <glyph glyph-name="i" unicode="&#xed;" horiz-adv-x="198" 
d="M109.656 637.177c28.3418 0 42.5127 -14.1719 42.5127 -42.2881v-552.437c0 -28.3418 -14.1709 -42.5127 -42.5127 -42.5127h-21.1436c-28.3418 0 -42.5127 14.1709 -42.5127 42.5127v552.212c0 28.3418 14.1709 42.5127 42.5127 42.5127h21.1436zM109.656 796.429
c28.3418 0 42.5127 -14.1709 42.5127 -42.2871v-21.3691c0 -28.3418 -14.1709 -42.5127 -42.5127 -42.5127h-21.1436c-28.3418 0 -42.5127 14.1709 -42.5127 42.5127v21.1436c0 28.3418 14.1709 42.5127 42.5127 42.5127h21.1436z" />
    <glyph glyph-name="i" unicode="&#xec;" horiz-adv-x="198" 
d="M109.656 637.177c28.3418 0 42.5127 -14.1719 42.5127 -42.2881v-552.437c0 -28.3418 -14.1709 -42.5127 -42.5127 -42.5127h-21.1436c-28.3418 0 -42.5127 14.1709 -42.5127 42.5127v552.212c0 28.3418 14.1709 42.5127 42.5127 42.5127h21.1436zM109.656 796.429
c28.3418 0 42.5127 -14.1709 42.5127 -42.2871v-21.3691c0 -28.3418 -14.1709 -42.5127 -42.5127 -42.5127h-21.1436c-28.3418 0 -42.5127 14.1709 -42.5127 42.5127v21.1436c0 28.3418 14.1709 42.5127 42.5127 42.5127h21.1436z" />
    <glyph glyph-name="j" unicode="j" horiz-adv-x="253" 
d="M164.249 637.177c28.1162 0 42.2871 -14.1719 42.5117 -42.2881v-616.317c0 -25.6426 -2.47461 -45.4365 -7.42285 -60.0576c-4.94824 -14.3955 -12.5957 -26.7666 -22.9424 -37.1133s-23.6182 -19.5693 -39.8135 -28.1172
c-16.4199 -8.32227 -35.5391 -19.3438 -57.3574 -32.8398l-5.39844 -3.14941c-24.0684 -14.8457 -42.7383 -9.44727 -56.2344 15.9697l-9.44727 16.8701c-13.4961 24.9678 -7.87305 44.3125 16.8691 58.4834l33.0654 19.1191
c9.89746 5.84863 19.5693 13.2715 28.792 22.9434c9.22266 9.44727 13.7217 20.2441 13.7217 32.3906v611.594c0 28.3418 14.1709 42.5127 42.5127 42.5127h21.1436zM164.249 796.429c28.1162 0 42.2881 -14.1709 42.5127 -42.2871v-21.3691
c0 -28.3418 -14.1709 -42.5127 -42.5127 -42.5127h-21.1436c-28.3418 0 -42.5127 14.1709 -42.5127 42.5127v21.1436c0 28.3418 14.1709 42.5127 42.5127 42.5127h21.1436z" />
    <glyph glyph-name="k" unicode="k" horiz-adv-x="433" 
d="M280.605 345.213l102.794 -302.76c5.17383 -13.9463 3.82422 -24.7432 -3.59863 -31.7158s-16.8701 -10.5713 -28.1172 -10.5713h-21.1436c-14.8457 0 -26.542 3.37402 -35.0898 9.67188s-14.8457 16.6445 -19.1191 30.8154l-85.9248 252.601
c-4.94824 13.2715 -12.3711 20.0195 -22.2686 20.0195c-10.5723 0 -15.9707 -6.97266 -15.9707 -21.1436v-249.451c0 -28.3418 -14.1709 -42.5127 -42.5127 -42.5127h-21.1436c-28.3418 0 -42.5127 14.1709 -42.5127 42.5127v711.239
c0 28.3418 14.1709 42.5127 42.5127 42.5127h21.1436c28.3418 0 42.5127 -14.1709 42.5127 -42.5127v-323.904c0 -14.1709 4.49902 -21.3691 13.7217 -21.3691c8.54785 0 15.2959 6.74805 20.2441 20.2441l58.4824 167.801c4.27344 12.5967 10.5713 22.7188 18.6689 29.6914
s20.0195 10.5713 35.54 10.5713h21.1436c11.2471 0 20.6943 -3.59863 28.1172 -10.5713c7.19824 -6.97266 8.54785 -17.5449 3.59961 -31.7158l-71.0791 -209.188c-4.27344 -13.2715 -4.27344 -26.7676 0 -40.2637z" />
    <glyph glyph-name="l" unicode="l" horiz-adv-x="198" 
d="M109.656 796.43c28.3418 0 42.5127 -14.1719 42.5127 -42.2881v-711.464c0 -28.3418 -14.1709 -42.5127 -42.5127 -42.5127h-21.1436c-28.3418 0 -42.5127 14.1709 -42.5127 42.5127v711.239c0 28.3418 14.1709 42.5127 42.5127 42.5127h21.1436z" />
    <glyph glyph-name="m" unicode="m" horiz-adv-x="624" 
d="M546.702 607.035c20.2441 -20.2441 30.3652 -52.6348 29.6904 -97.1719v-467.187c0 -28.3418 -14.1709 -42.5127 -42.5127 -42.5127h-21.1436c-28.3418 0 -42.5127 14.1709 -42.5127 42.5127v477.759c0 14.1709 -6.97266 21.1436 -21.1436 21.1436h-63.6562
c-14.1709 0 -21.1436 -6.97266 -21.1436 -21.1436v-477.759c0 -28.3418 -14.1709 -42.5127 -42.5127 -42.5127h-21.1436c-28.3418 0 -42.5127 14.1709 -42.5127 42.5127v477.759c0 14.1709 -6.97266 21.1436 -21.1436 21.1436h-63.6562
c-13.9463 0 -21.1445 -6.97266 -21.1445 -21.1436v-477.759c0 -28.3418 -14.1709 -42.5127 -42.5127 -42.5127h-21.1436c-28.3418 0 -42.5127 14.1709 -42.5127 42.5127v467.187c0 44.5371 10.1221 76.9277 30.3662 97.1719
c20.2441 20.0195 52.6348 30.1416 97.1719 30.1416h26.542c37.3389 0 64.5557 -5.84863 81.2012 -17.5449s24.9678 -30.5908 24.9678 -56.9082h10.5723c0 26.3174 8.32227 45.2119 24.9678 56.9082s43.6377 17.5449 81.2012 17.5449h26.542
c44.5371 0 76.9277 -9.89746 97.1719 -30.1416z" />
    <glyph glyph-name="n" unicode="n" 
d="M334.364 607.035c20.2441 -20.2441 30.1416 -52.6348 30.3662 -97.1719v-467.187c0 -28.3418 -14.1709 -42.5127 -42.5127 -42.5127h-21.3691c-28.3418 0 -42.5127 14.1709 -42.5127 42.5127v456.615c0 28.3418 -14.1709 42.5127 -42.5127 42.5127h-21.1436
c-28.3418 0 -42.5127 -14.1709 -42.5127 -42.5127v-456.615c0 -28.3418 -14.1709 -42.5127 -42.5127 -42.5127h-21.1436c-28.3418 0 -42.5127 14.1709 -42.5127 42.5127v467.187c0 44.5371 10.1221 76.9277 30.3662 97.1719
c20.2441 20.0195 52.6348 30.1416 97.1719 30.1416h63.6562c44.5371 0 76.9277 -9.89746 97.1719 -30.1416z" />
    <glyph glyph-name="n" unicode="&#xf1;" 
d="M334.364 607.035c20.2441 -20.2441 30.1416 -52.6348 30.3662 -97.1719v-467.187c0 -28.3418 -14.1709 -42.5127 -42.5127 -42.5127h-21.3691c-28.3418 0 -42.5127 14.1709 -42.5127 42.5127v456.615c0 28.3418 -14.1709 42.5127 -42.5127 42.5127h-21.1436
c-28.3418 0 -42.5127 -14.1709 -42.5127 -42.5127v-456.615c0 -28.3418 -14.1709 -42.5127 -42.5127 -42.5127h-21.1436c-28.3418 0 -42.5127 14.1709 -42.5127 42.5127v467.187c0 44.5371 10.1221 76.9277 30.3662 97.1719
c20.2441 20.0195 52.6348 30.1416 97.1719 30.1416h63.6562c44.5371 0 76.9277 -9.89746 97.1719 -30.1416z" />
    <glyph glyph-name="o" unicode="o" 
d="M334.14 607.035c20.2441 -20.2441 30.3662 -52.6348 30.3662 -97.1719v-382.162c0 -44.5371 -10.1221 -76.9277 -30.3662 -97.1719s-52.6348 -30.3662 -97.1719 -30.3662h-63.6562c-44.5371 0 -76.9277 10.1221 -97.1719 30.3662
c-20.0195 20.2441 -30.1416 52.6348 -30.1416 97.1719v382.162c0 44.5371 9.89746 76.9277 30.1416 97.1719c20.2441 20.0195 52.6348 30.1416 97.1719 30.1416h63.6562c44.7617 0 77.1523 -9.89746 97.1719 -30.1416zM258.337 138.274v361.019
c0 28.3418 -14.1709 42.5127 -42.5127 42.5127h-21.1436c-28.3418 0 -42.5127 -14.1709 -42.5127 -42.5127v-361.019c0 -28.3418 14.1709 -42.5127 42.5127 -42.5127h21.1436c28.3418 0 42.5127 14.1709 42.5127 42.5127z" />
    <glyph glyph-name="o" unicode="&#xf8;" 
d="M334.14 607.035c20.2441 -20.2441 30.3662 -52.6348 30.3662 -97.1719v-382.162c0 -44.5371 -10.1221 -76.9277 -30.3662 -97.1719s-52.6348 -30.3662 -97.1719 -30.3662h-63.6562c-44.5371 0 -76.9277 10.1221 -97.1719 30.3662
c-20.0195 20.2441 -30.1416 52.6348 -30.1416 97.1719v382.162c0 44.5371 9.89746 76.9277 30.1416 97.1719c20.2441 20.0195 52.6348 30.1416 97.1719 30.1416h63.6562c44.7617 0 77.1523 -9.89746 97.1719 -30.1416zM258.337 138.274v361.019
c0 28.3418 -14.1709 42.5127 -42.5127 42.5127h-21.1436c-28.3418 0 -42.5127 -14.1709 -42.5127 -42.5127v-361.019c0 -28.3418 14.1709 -42.5127 42.5127 -42.5127h21.1436c28.3418 0 42.5127 14.1709 42.5127 42.5127z" />
    <glyph glyph-name="o" unicode="&#xf6;" 
d="M334.14 607.035c20.2441 -20.2441 30.3662 -52.6348 30.3662 -97.1719v-382.162c0 -44.5371 -10.1221 -76.9277 -30.3662 -97.1719s-52.6348 -30.3662 -97.1719 -30.3662h-63.6562c-44.5371 0 -76.9277 10.1221 -97.1719 30.3662
c-20.0195 20.2441 -30.1416 52.6348 -30.1416 97.1719v382.162c0 44.5371 9.89746 76.9277 30.1416 97.1719c20.2441 20.0195 52.6348 30.1416 97.1719 30.1416h63.6562c44.7617 0 77.1523 -9.89746 97.1719 -30.1416zM258.337 138.274v361.019
c0 28.3418 -14.1709 42.5127 -42.5127 42.5127h-21.1436c-28.3418 0 -42.5127 -14.1709 -42.5127 -42.5127v-361.019c0 -28.3418 14.1709 -42.5127 42.5127 -42.5127h21.1436c28.3418 0 42.5127 14.1709 42.5127 42.5127z" />
    <glyph glyph-name="o" unicode="&#xf5;" 
d="M334.14 607.035c20.2441 -20.2441 30.3662 -52.6348 30.3662 -97.1719v-382.162c0 -44.5371 -10.1221 -76.9277 -30.3662 -97.1719s-52.6348 -30.3662 -97.1719 -30.3662h-63.6562c-44.5371 0 -76.9277 10.1221 -97.1719 30.3662
c-20.0195 20.2441 -30.1416 52.6348 -30.1416 97.1719v382.162c0 44.5371 9.89746 76.9277 30.1416 97.1719c20.2441 20.0195 52.6348 30.1416 97.1719 30.1416h63.6562c44.7617 0 77.1523 -9.89746 97.1719 -30.1416zM258.337 138.274v361.019
c0 28.3418 -14.1709 42.5127 -42.5127 42.5127h-21.1436c-28.3418 0 -42.5127 -14.1709 -42.5127 -42.5127v-361.019c0 -28.3418 14.1709 -42.5127 42.5127 -42.5127h21.1436c28.3418 0 42.5127 14.1709 42.5127 42.5127z" />
    <glyph glyph-name="o" unicode="&#xf4;" 
d="M334.14 607.035c20.2441 -20.2441 30.3662 -52.6348 30.3662 -97.1719v-382.162c0 -44.5371 -10.1221 -76.9277 -30.3662 -97.1719s-52.6348 -30.3662 -97.1719 -30.3662h-63.6562c-44.5371 0 -76.9277 10.1221 -97.1719 30.3662
c-20.0195 20.2441 -30.1416 52.6348 -30.1416 97.1719v382.162c0 44.5371 9.89746 76.9277 30.1416 97.1719c20.2441 20.0195 52.6348 30.1416 97.1719 30.1416h63.6562c44.7617 0 77.1523 -9.89746 97.1719 -30.1416zM258.337 138.274v361.019
c0 28.3418 -14.1709 42.5127 -42.5127 42.5127h-21.1436c-28.3418 0 -42.5127 -14.1709 -42.5127 -42.5127v-361.019c0 -28.3418 14.1709 -42.5127 42.5127 -42.5127h21.1436c28.3418 0 42.5127 14.1709 42.5127 42.5127z" />
    <glyph glyph-name="o" unicode="&#xf3;" 
d="M334.14 607.035c20.2441 -20.2441 30.3662 -52.6348 30.3662 -97.1719v-382.162c0 -44.5371 -10.1221 -76.9277 -30.3662 -97.1719s-52.6348 -30.3662 -97.1719 -30.3662h-63.6562c-44.5371 0 -76.9277 10.1221 -97.1719 30.3662
c-20.0195 20.2441 -30.1416 52.6348 -30.1416 97.1719v382.162c0 44.5371 9.89746 76.9277 30.1416 97.1719c20.2441 20.0195 52.6348 30.1416 97.1719 30.1416h63.6562c44.7617 0 77.1523 -9.89746 97.1719 -30.1416zM258.337 138.274v361.019
c0 28.3418 -14.1709 42.5127 -42.5127 42.5127h-21.1436c-28.3418 0 -42.5127 -14.1709 -42.5127 -42.5127v-361.019c0 -28.3418 14.1709 -42.5127 42.5127 -42.5127h21.1436c28.3418 0 42.5127 14.1709 42.5127 42.5127z" />
    <glyph glyph-name="o" unicode="&#xf2;" 
d="M334.14 607.035c20.2441 -20.2441 30.3662 -52.6348 30.3662 -97.1719v-382.162c0 -44.5371 -10.1221 -76.9277 -30.3662 -97.1719s-52.6348 -30.3662 -97.1719 -30.3662h-63.6562c-44.5371 0 -76.9277 10.1221 -97.1719 30.3662
c-20.0195 20.2441 -30.1416 52.6348 -30.1416 97.1719v382.162c0 44.5371 9.89746 76.9277 30.1416 97.1719c20.2441 20.0195 52.6348 30.1416 97.1719 30.1416h63.6562c44.7617 0 77.1523 -9.89746 97.1719 -30.1416zM258.337 138.274v361.019
c0 28.3418 -14.1709 42.5127 -42.5127 42.5127h-21.1436c-28.3418 0 -42.5127 -14.1709 -42.5127 -42.5127v-361.019c0 -28.3418 14.1709 -42.5127 42.5127 -42.5127h21.1436c28.3418 0 42.5127 14.1709 42.5127 42.5127z" />
    <glyph glyph-name="p" unicode="p" horiz-adv-x="410" 
d="M334.364 607.035c20.0195 -20.2441 30.1416 -52.6328 29.917 -97.1699v-382.162c0 -44.5371 -9.89746 -76.9277 -30.1416 -97.1719s-52.6348 -30.3662 -97.1719 -30.3662h-63.6562c-14.1709 0 -21.1436 -6.97266 -21.1436 -21.1436v-95.5967
c0 -28.3418 -14.1709 -42.5127 -42.5127 -42.5127h-21.1436c-28.3418 0 -42.5127 14.1709 -42.5127 42.5127v711.239c0 28.3418 14.1709 42.5127 42.5127 42.5127h148.681c44.5371 0 76.9277 -9.89746 97.1719 -30.1416zM258.337 138.276l0.000976562 360.793
c0 28.3418 -13.9463 42.5127 -42.2881 42.5127h-42.5127c-14.1709 0 -21.1436 -6.97266 -21.1436 -21.1436v-407.805c0.674805 -11.2471 7.64746 -16.8701 21.1436 -16.8701h42.5127c28.1162 0 42.2871 14.1709 42.2871 42.5127z" />
    <glyph glyph-name="q" unicode="q" 
d="M321.993 637.177c28.1162 0 42.2881 -14.1738 42.2881 -42.29v-711.464c0 -28.3418 -14.1709 -42.5127 -42.5127 -42.5127h-21.1436c-28.3418 0 -42.5127 14.1709 -42.5127 42.5127v95.5967c0 14.1709 -6.97266 21.1436 -21.1436 21.1436h-63.6562
c-44.5371 0 -76.9277 10.1221 -97.1719 30.3662c-20.0195 20.2441 -30.1416 52.6348 -30.1416 97.1719v382.162c0 44.5371 9.89746 76.9277 30.1416 97.1719c20.2441 20.0195 52.6348 30.1416 97.1719 30.1416h148.681zM258.113 112.854l-0.000976562 407.805
c0 14.1709 -6.97266 21.1436 -21.1436 21.1436h-42.5127c-28.3418 0 -42.5127 -14.1709 -42.5127 -42.5127v-360.793c0 -28.3418 14.1709 -42.5127 42.5127 -42.5127h42.5127c13.2715 0 20.4697 5.62305 21.1445 16.8701z" />
    <glyph glyph-name="r" unicode="r" 
d="M334.364 607.035c20.2441 -20.2441 30.3652 -52.6338 30.3652 -97.1709v-90.1982c0 -28.3418 -14.1709 -42.5127 -42.5127 -42.5127h-21.1436c-28.3418 0 -42.5127 14.1709 -42.5127 42.5127v79.626c0 28.3418 -14.1709 42.5127 -42.5127 42.5127h-21.1436
c-28.3418 0 -42.5127 -14.1709 -42.5127 -42.5127v-456.615c0 -28.3418 -14.1709 -42.5127 -42.5127 -42.5127h-21.1436c-28.3418 0 -42.5127 14.1709 -42.5127 42.5127v467.187c0 44.5371 9.89746 76.9277 30.1416 97.1719
c20.2441 20.0195 52.6348 30.1416 97.1719 30.1416h63.6562c44.5371 0 76.9277 -9.89746 97.1719 -30.1416z" />
    <glyph glyph-name="s" unicode="s" 
d="M357.308 218.575c4.94824 -14.6211 7.42578 -34.1904 7.42578 -58.9336v-31.9404c0 -44.5371 -10.3467 -76.9277 -30.3662 -97.1719c-20.2441 -20.2441 -52.6348 -30.3662 -97.1719 -30.3662h-148.681c-28.3418 0 -42.5127 14.1709 -42.5127 42.5127v10.5723
c0 28.3418 14.1709 42.5127 42.5127 42.5127h127.312c17.0947 0 28.3418 3.82422 33.9648 11.6973c5.84863 7.87305 8.54785 19.5693 8.54785 35.0898c0 11.4717 -1.125 20.6943 -3.14941 27.667s-5.17383 13.0459 -8.99805 17.9941
c-3.82422 5.17383 -8.54785 9.22266 -13.7217 12.3721c-5.39844 3.14941 -10.7969 6.52344 -16.4199 10.1221l-41.3877 25.417c-14.8457 9.22266 -30.1416 17.9951 -45.6621 26.0928s-29.4668 17.5449 -41.3887 28.5664c-11.9219 10.7969 -21.8193 24.293 -29.6924 40.2637
s-11.6973 36.665 -11.6973 62.082v116.74c0 44.5371 10.1221 76.9277 30.3662 97.1719c20.2441 20.0195 52.6348 30.1416 97.1719 30.1416h58.4824c44.5371 0 76.9277 -9.89746 97.1719 -30.1416c20.0195 -20.2441 30.1416 -52.6348 30.1416 -97.1719v-90.1982
c0 -28.3418 -14.1709 -42.5127 -42.5127 -42.5127h-21.1436c-28.3418 0 -42.5127 14.1709 -42.5127 42.5127v79.626c0 28.3418 -14.1709 42.5127 -42.5127 42.5127h-15.9707c-28.1162 0 -42.2871 -14.1709 -42.2871 -42.5127v-84.7998
c0 -13.4961 1.125 -24.0684 3.14941 -31.9414c2.02441 -7.64746 5.17383 -13.9453 8.99805 -18.4443c3.82422 -4.72363 8.54785 -8.54785 13.7217 -11.6973c5.39844 -3.14941 11.2471 -6.52344 17.5449 -10.1221l41.3877 -24.5176
c21.8184 -13.4961 40.9375 -24.7432 57.3574 -33.5156c16.1953 -8.77246 29.4668 -18.2197 39.8135 -28.5664c10.1221 -10.3467 17.7695 -22.7178 22.7178 -37.1133z" />
    <glyph glyph-name="s" unicode="&#xdf;" 
d="M357.308 218.575c4.94824 -14.6211 7.42578 -34.1904 7.42578 -58.9336v-31.9404c0 -44.5371 -10.3467 -76.9277 -30.3662 -97.1719c-20.2441 -20.2441 -52.6348 -30.3662 -97.1719 -30.3662h-148.681c-28.3418 0 -42.5127 14.1709 -42.5127 42.5127v10.5723
c0 28.3418 14.1709 42.5127 42.5127 42.5127h127.312c17.0947 0 28.3418 3.82422 33.9648 11.6973c5.84863 7.87305 8.54785 19.5693 8.54785 35.0898c0 11.4717 -1.125 20.6943 -3.14941 27.667s-5.17383 13.0459 -8.99805 17.9941
c-3.82422 5.17383 -8.54785 9.22266 -13.7217 12.3721c-5.39844 3.14941 -10.7969 6.52344 -16.4199 10.1221l-41.3877 25.417c-14.8457 9.22266 -30.1416 17.9951 -45.6621 26.0928s-29.4668 17.5449 -41.3887 28.5664c-11.9219 10.7969 -21.8193 24.293 -29.6924 40.2637
s-11.6973 36.665 -11.6973 62.082v116.74c0 44.5371 10.1221 76.9277 30.3662 97.1719c20.2441 20.0195 52.6348 30.1416 97.1719 30.1416h58.4824c44.5371 0 76.9277 -9.89746 97.1719 -30.1416c20.0195 -20.2441 30.1416 -52.6348 30.1416 -97.1719v-90.1982
c0 -28.3418 -14.1709 -42.5127 -42.5127 -42.5127h-21.1436c-28.3418 0 -42.5127 14.1709 -42.5127 42.5127v79.626c0 28.3418 -14.1709 42.5127 -42.5127 42.5127h-15.9707c-28.1162 0 -42.2871 -14.1709 -42.2871 -42.5127v-84.7998
c0 -13.4961 1.125 -24.0684 3.14941 -31.9414c2.02441 -7.64746 5.17383 -13.9453 8.99805 -18.4443c3.82422 -4.72363 8.54785 -8.54785 13.7217 -11.6973c5.39844 -3.14941 11.2471 -6.52344 17.5449 -10.1221l41.3877 -24.5176
c21.8184 -13.4961 40.9375 -24.7432 57.3574 -33.5156c16.1953 -8.77246 29.4668 -18.2197 39.8135 -28.5664c10.1221 -10.3467 17.7695 -22.7178 22.7178 -37.1133z" />
    <glyph glyph-name="t" unicode="t" horiz-adv-x="389" 
d="M173.312 446.208c-14.1709 0 -21.1426 -6.97168 -21.3672 -21.1426v-286.79c0 -28.3418 14.1709 -42.5127 42.5127 -42.5127s42.5127 14.1709 42.5127 42.5127v79.626c0 28.3418 14.1709 42.5127 42.5127 42.5127h21.1436c28.3418 0 42.5127 -14.1709 42.5127 -42.5127
v-90.1982c0 -44.5371 -9.89746 -76.9277 -30.1416 -97.1719s-52.6348 -30.3662 -97.1719 -30.3662h-42.5127c-44.5371 0 -76.9277 10.1221 -97.1719 30.3662c-20.0195 20.2441 -30.1416 52.6348 -30.1416 97.1719v530.843c0 28.3418 14.1709 42.5127 42.5127 42.5127
h21.1436c28.3418 0 42.5127 -14.1709 42.5127 -42.5127v-95.5967c0 -14.1709 6.97266 -21.1436 21.1436 -21.1436h127.312c28.3418 0 42.5127 -14.1709 42.5127 -42.5127v-10.5723c0 -28.3418 -14.1709 -42.5127 -42.5127 -42.5127h-127.312z" />
    <glyph glyph-name="u" unicode="u" 
d="M321.993 637.177c28.3418 0 42.5137 -14.1729 42.5137 -42.2891v-467.411c0 -44.5371 -10.1221 -76.9277 -30.3662 -97.1719s-52.6348 -30.3662 -97.1719 -30.3662h-63.6562c-44.5371 0 -76.9277 10.1221 -97.1719 30.3662
c-20.0195 20.2441 -30.1416 52.6348 -30.1416 97.1719v467.187c0 28.3418 14.1709 42.5127 42.5127 42.5127h21.1436c28.3418 0 42.5127 -14.3955 42.5127 -42.5117v-456.615c0 -28.3418 14.1709 -42.5127 42.5127 -42.5127h21.1436
c28.3418 0 42.5127 14.1709 42.5127 42.5127v456.615c0 28.3418 14.1709 42.5127 42.5127 42.5127h21.1436z" />
    <glyph glyph-name="u" unicode="&#xfc;" 
d="M321.993 637.177c28.3418 0 42.5137 -14.1729 42.5137 -42.2891v-467.411c0 -44.5371 -10.1221 -76.9277 -30.3662 -97.1719s-52.6348 -30.3662 -97.1719 -30.3662h-63.6562c-44.5371 0 -76.9277 10.1221 -97.1719 30.3662
c-20.0195 20.2441 -30.1416 52.6348 -30.1416 97.1719v467.187c0 28.3418 14.1709 42.5127 42.5127 42.5127h21.1436c28.3418 0 42.5127 -14.3955 42.5127 -42.5117v-456.615c0 -28.3418 14.1709 -42.5127 42.5127 -42.5127h21.1436
c28.3418 0 42.5127 14.1709 42.5127 42.5127v456.615c0 28.3418 14.1709 42.5127 42.5127 42.5127h21.1436z" />
    <glyph glyph-name="u" unicode="&#xfb;" 
d="M321.993 637.177c28.3418 0 42.5137 -14.1729 42.5137 -42.2891v-467.411c0 -44.5371 -10.1221 -76.9277 -30.3662 -97.1719s-52.6348 -30.3662 -97.1719 -30.3662h-63.6562c-44.5371 0 -76.9277 10.1221 -97.1719 30.3662
c-20.0195 20.2441 -30.1416 52.6348 -30.1416 97.1719v467.187c0 28.3418 14.1709 42.5127 42.5127 42.5127h21.1436c28.3418 0 42.5127 -14.3955 42.5127 -42.5117v-456.615c0 -28.3418 14.1709 -42.5127 42.5127 -42.5127h21.1436
c28.3418 0 42.5127 14.1709 42.5127 42.5127v456.615c0 28.3418 14.1709 42.5127 42.5127 42.5127h21.1436z" />
    <glyph glyph-name="u" unicode="&#xfa;" 
d="M321.993 637.177c28.3418 0 42.5137 -14.1729 42.5137 -42.2891v-467.411c0 -44.5371 -10.1221 -76.9277 -30.3662 -97.1719s-52.6348 -30.3662 -97.1719 -30.3662h-63.6562c-44.5371 0 -76.9277 10.1221 -97.1719 30.3662
c-20.0195 20.2441 -30.1416 52.6348 -30.1416 97.1719v467.187c0 28.3418 14.1709 42.5127 42.5127 42.5127h21.1436c28.3418 0 42.5127 -14.3955 42.5127 -42.5117v-456.615c0 -28.3418 14.1709 -42.5127 42.5127 -42.5127h21.1436
c28.3418 0 42.5127 14.1709 42.5127 42.5127v456.615c0 28.3418 14.1709 42.5127 42.5127 42.5127h21.1436z" />
    <glyph glyph-name="u" unicode="&#xf9;" 
d="M321.993 637.177c28.3418 0 42.5137 -14.1729 42.5137 -42.2891v-467.411c0 -44.5371 -10.1221 -76.9277 -30.3662 -97.1719s-52.6348 -30.3662 -97.1719 -30.3662h-63.6562c-44.5371 0 -76.9277 10.1221 -97.1719 30.3662
c-20.0195 20.2441 -30.1416 52.6348 -30.1416 97.1719v467.187c0 28.3418 14.1709 42.5127 42.5127 42.5127h21.1436c28.3418 0 42.5127 -14.3955 42.5127 -42.5117v-456.615c0 -28.3418 14.1709 -42.5127 42.5127 -42.5127h21.1436
c28.3418 0 42.5127 14.1709 42.5127 42.5127v456.615c0 28.3418 14.1709 42.5127 42.5127 42.5127h21.1436z" />
    <glyph glyph-name="v" unicode="v" horiz-adv-x="454" 
d="M364.834 637.177c31.2656 0 45.4375 -14.1709 42.2881 -42.5127l-47.6855 -467.187c-2.24902 -22.7188 -5.84766 -41.8379 -11.2461 -57.8086s-13.0459 -29.2422 -22.9434 -39.3643c-9.67188 -10.3467 -22.2686 -17.9941 -37.5645 -22.9424
s-33.7402 -7.42285 -55.7842 -7.42285h-10.5723c-22.4932 0 -41.3877 2.47461 -56.6836 7.42285s-27.667 12.5957 -37.1143 22.9424s-17.0947 23.3926 -22.2686 39.3633c-5.39844 15.7451 -8.99707 35.0898 -11.2461 57.8086l-47.6855 467.187
c-2.69922 28.3418 11.2471 42.5127 42.5127 42.5127h21.1436c14.8457 0 25.1924 -3.37402 31.2656 -10.1221s9.89746 -17.5449 11.2471 -32.3906l47.9111 -456.615c1.34961 -13.4961 3.59863 -23.8428 6.74805 -31.2656c3.37402 -7.64746 9.89746 -11.2461 19.7949 -11.2461
c9.22266 0 15.5205 3.82422 19.1191 11.2471s6.07324 17.7695 7.42285 31.2656l47.6855 456.615c1.57422 14.8457 5.17285 25.6426 11.2461 32.3906s16.4199 10.1221 31.2656 10.1221h21.1436z" />
    <glyph glyph-name="w" unicode="w" horiz-adv-x="678" 
d="M589.404 637.177c30.5908 0 44.7588 -14.1729 42.2842 -42.5146l-31.7158 -467.187c-3.59863 -44.5371 -14.1709 -76.9277 -31.9404 -97.1719c-17.5449 -20.2441 -47.6855 -30.3662 -90.1982 -30.3662h-10.5723c-37.5635 0 -63.8809 10.1221 -79.1768 30.3662
c-15.0703 20.2441 -24.0674 52.6348 -26.9912 97.1719l-6.29785 85.0244c-2.92383 37.5635 -4.72363 72.8779 -5.84863 106.168c-0.899414 33.29 -2.24902 68.6045 -3.59863 106.168c-0.674805 11.2471 -2.69922 16.8701 -6.29785 16.8701
c-3.37402 0 -5.62305 -5.62305 -6.29785 -16.8701c-1.34961 -37.5635 -2.47461 -72.8779 -3.59961 -106.168s-3.14941 -68.6045 -5.84863 -106.168l-6.29785 -85.0244c-3.59863 -44.5371 -12.8213 -76.9277 -27.667 -97.1719s-40.9375 -30.3662 -78.501 -30.3662h-10.5723
c-43.4121 0 -73.5527 10.1221 -90.873 30.3662s-27.667 52.6348 -31.2656 97.1719l-31.9404 467.187c-2.02441 28.3418 12.1465 42.5127 42.5127 42.5127h21.1436c15.0703 0 25.417 -3.37402 31.4902 -10.1221c5.84863 -6.74805 9.67285 -17.5449 11.0225 -32.3906
l31.9404 -456.615c1.57422 -13.4961 3.37402 -23.8428 5.84863 -31.2656c2.69922 -7.64746 7.64746 -11.2461 15.5205 -11.2461c9.22266 0 15.5205 3.82422 19.1191 11.2471s6.07324 17.7695 7.42285 31.2656l42.5127 403.306
c1.57422 14.8457 5.17285 25.6426 11.2461 32.3906s16.4199 10.1221 31.2656 10.1221h44.5371c14.8457 0 25.1924 -3.37402 31.2656 -10.1221c5.84863 -6.74805 9.67285 -17.5449 11.0225 -32.3906l42.5127 -403.306c1.57422 -13.4961 3.82324 -23.8428 6.97266 -31.2656
c3.14941 -7.64746 9.67285 -11.2461 19.5703 -11.2461c7.64746 0 12.8213 3.82422 15.2959 11.2471s4.49902 17.7695 5.84863 31.2656l31.7158 456.615c1.34961 14.8457 4.94824 25.6426 10.5713 32.3906s16.1953 10.1221 31.7158 10.1221h21.1436z" />
    <glyph glyph-name="x" unicode="x" horiz-adv-x="428" 
d="M275.213 313.497l103.468 -270.598c4.94824 -13.9463 3.59863 -24.7432 -3.82422 -31.7158s-16.8701 -10.5713 -28.1172 -10.5713h-21.1436c-29.0166 0 -47.2363 13.2715 -54.209 40.2637l-14.8457 55.1084c-7.87305 24.0684 -15.0713 48.1367 -21.8193 72.2051
s-13.7207 48.5859 -20.6934 73.3291c-6.97266 -24.9678 -13.9453 -49.2607 -20.6934 -73.3291s-14.1709 -48.1367 -21.8184 -72.2041l-14.8457 -55.1084c-4.94824 -13.4961 -11.2461 -23.6182 -19.1191 -30.3662s-19.5693 -10.1221 -35.0898 -10.1221h-21.1436
c-11.2471 0 -20.6943 3.37402 -28.1172 10.5723c-7.42285 6.97266 -8.77246 17.5449 -3.82422 31.7158l103.02 270.819c4.27344 13.4961 4.27344 26.9922 0 40.4883l-92.4473 240.903c-4.94824 14.1709 -3.59863 24.7432 3.82422 31.7158s16.8701 10.5713 28.1172 10.5713
h21.1436c14.8457 0 26.3174 -3.14941 34.415 -9.44727c8.32227 -6.29785 14.8457 -16.6445 19.7939 -30.8154l14.8457 -55.334c6.29785 -18.4443 11.9209 -37.5635 16.4199 -56.9082s9.67285 -38.6895 15.2959 -57.8086c5.62305 19.1191 10.7969 38.4639 15.2959 57.8086
c4.49902 19.5693 10.1221 38.4639 16.4199 56.9082l14.8457 55.334c4.94824 13.2715 11.4717 23.3936 19.1191 30.1416c7.87305 6.74805 19.5693 10.1221 35.0898 10.1221h21.1436c11.2471 0 20.4697 -3.59863 28.1172 -10.5713s8.77246 -17.5449 3.82422 -31.7158
l-92.4473 -240.903c-4.27344 -13.4961 -4.27344 -26.9922 0 -40.4883z" />
    <glyph glyph-name="y" unicode="y" 
d="M321.993 637.177c28.3418 0 42.5098 -14.1729 42.2852 -42.2891v-616.093c0 -25.6426 -2.47461 -45.4365 -7.42285 -60.0576c-4.94824 -14.3955 -12.3711 -26.7666 -22.7178 -37.1133c-10.1221 -10.3467 -23.3936 -19.5693 -39.8135 -28.1172
c-16.4199 -8.32227 -35.5391 -19.3438 -57.3574 -32.8398l-5.39844 -3.14941c-24.0684 -14.8457 -42.7383 -9.44727 -56.2344 15.9697l-9.44727 16.8701c-13.4961 24.9678 -7.87305 44.3125 16.8701 58.4834l32.8398 19.1191
c9.89746 5.84863 19.7949 13.2715 29.6924 22.9434c9.89746 9.44727 14.3965 20.2441 12.8223 32.3906c-0.674805 11.2471 -7.64746 16.8701 -21.1436 16.8701h-63.6562c-44.5371 0 -76.9277 10.1221 -97.1719 30.3662c-20.0195 20.2441 -30.1416 52.6348 -30.1416 97.1719
v467.187c0 28.3418 14.1709 42.5127 42.5127 42.5127h21.1436c28.3418 0 42.5127 -14.3955 42.5127 -42.5117v-456.615c0 -28.3418 14.1709 -42.5127 42.5127 -42.5127h42.5127c13.2715 0 20.4697 5.62305 21.1445 16.8701v482.032
c0 28.3418 14.1709 42.5127 42.5127 42.5127h21.1436z" />
    <glyph glyph-name="y" unicode="&#xff;" 
d="M321.993 637.177c28.3418 0 42.5098 -14.1729 42.2852 -42.2891v-616.093c0 -25.6426 -2.47461 -45.4365 -7.42285 -60.0576c-4.94824 -14.3955 -12.3711 -26.7666 -22.7178 -37.1133c-10.1221 -10.3467 -23.3936 -19.5693 -39.8135 -28.1172
c-16.4199 -8.32227 -35.5391 -19.3438 -57.3574 -32.8398l-5.39844 -3.14941c-24.0684 -14.8457 -42.7383 -9.44727 -56.2344 15.9697l-9.44727 16.8701c-13.4961 24.9678 -7.87305 44.3125 16.8701 58.4834l32.8398 19.1191
c9.89746 5.84863 19.7949 13.2715 29.6924 22.9434c9.89746 9.44727 14.3965 20.2441 12.8223 32.3906c-0.674805 11.2471 -7.64746 16.8701 -21.1436 16.8701h-63.6562c-44.5371 0 -76.9277 10.1221 -97.1719 30.3662c-20.0195 20.2441 -30.1416 52.6348 -30.1416 97.1719
v467.187c0 28.3418 14.1709 42.5127 42.5127 42.5127h21.1436c28.3418 0 42.5127 -14.3955 42.5127 -42.5117v-456.615c0 -28.3418 14.1709 -42.5127 42.5127 -42.5127h42.5127c13.2715 0 20.4697 5.62305 21.1445 16.8701v482.032
c0 28.3418 14.1709 42.5127 42.5127 42.5127h21.1436z" />
    <glyph glyph-name="y" unicode="&#xfd;" 
d="M321.993 637.177c28.3418 0 42.5098 -14.1729 42.2852 -42.2891v-616.093c0 -25.6426 -2.47461 -45.4365 -7.42285 -60.0576c-4.94824 -14.3955 -12.3711 -26.7666 -22.7178 -37.1133c-10.1221 -10.3467 -23.3936 -19.5693 -39.8135 -28.1172
c-16.4199 -8.32227 -35.5391 -19.3438 -57.3574 -32.8398l-5.39844 -3.14941c-24.0684 -14.8457 -42.7383 -9.44727 -56.2344 15.9697l-9.44727 16.8701c-13.4961 24.9678 -7.87305 44.3125 16.8701 58.4834l32.8398 19.1191
c9.89746 5.84863 19.7949 13.2715 29.6924 22.9434c9.89746 9.44727 14.3965 20.2441 12.8223 32.3906c-0.674805 11.2471 -7.64746 16.8701 -21.1436 16.8701h-63.6562c-44.5371 0 -76.9277 10.1221 -97.1719 30.3662c-20.0195 20.2441 -30.1416 52.6348 -30.1416 97.1719
v467.187c0 28.3418 14.1709 42.5127 42.5127 42.5127h21.1436c28.3418 0 42.5127 -14.3955 42.5127 -42.5117v-456.615c0 -28.3418 14.1709 -42.5127 42.5127 -42.5127h42.5127c13.2715 0 20.4697 5.62305 21.1445 16.8701v482.032
c0 28.3418 14.1709 42.5127 42.5127 42.5127h21.1436z" />
    <glyph glyph-name="z" unicode="z" horiz-adv-x="392" 
d="M196.039 95.7617h116.74c14.1709 0 21.1436 -6.97266 21.1436 -21.1436v-53.084c0 -14.1709 -6.97266 -21.1436 -21.1436 -21.1436h-233.48c-11.2471 0 -20.2441 3.37402 -26.542 10.5723c-6.52344 6.97266 -8.32324 17.5449 -5.39941 31.7158l169.824 477.759
c2.02441 7.64746 1.125 13.2705 -3.14844 16.4199s-10.3467 4.72363 -17.9941 4.72363h-116.74c-14.1709 0 -21.1436 6.97266 -21.1436 21.1436v53.084c0 14.1709 6.97266 21.1436 21.1436 21.1436h233.48c11.2471 0 20.2441 -3.59863 26.542 -10.5713
c6.52344 -6.97266 8.32324 -17.5449 5.39941 -31.7158l-169.825 -477.759c-2.02441 -7.87305 -1.125 -13.2715 3.14844 -16.4209s10.1221 -4.72363 17.9951 -4.72363z" />
    <glyph glyph-name="braceleft" unicode="{" horiz-adv-x="347" 
d="M198.28 301.352c-11.6963 -16.6455 -30.5908 -24.9658 -56.9082 -24.9658v-10.5723c26.3174 0 45.2119 -8.32227 56.9082 -24.9678s17.5449 -43.6377 17.5449 -81.2012v-169.825c0 -28.3418 14.1709 -42.5127 42.5127 -42.5127s42.5127 -14.1709 42.5127 -42.5127
v-10.7969c0 -28.3418 -14.1709 -42.5127 -42.5127 -42.5127h-21.1436c-44.5371 0 -76.9277 10.1221 -97.1719 30.3662c-20.2441 20.0195 -30.3662 52.6348 -30.3662 97.1719v223.134c0 14.1709 -6.97266 21.1436 -21.1436 21.1436
c-28.3418 0 -42.5127 14.1709 -42.5127 42.5127v10.5723c0 28.3418 14.1709 42.5127 42.5127 42.5127c14.1709 0 21.1436 6.97266 21.1436 21.1436v223.134c0 44.5371 10.1221 76.9277 30.3662 97.1719s52.6348 30.3662 97.1719 30.3662h21.1436
c28.3418 0 42.5127 -14.1709 42.5127 -42.5127v-10.5723c0 -28.3418 -14.1709 -42.5127 -42.5127 -42.5127s-42.5127 -14.1709 -42.5127 -42.5127v-170.05c0 -37.5635 -5.84863 -64.5557 -17.5449 -81.2012z" />
    <glyph glyph-name="braceright" unicode="}" horiz-adv-x="347" 
d="M258.337 318.896c28.3418 0 42.5137 -14.1729 42.5137 -42.5146v-10.5723c0 -28.3418 -14.1709 -42.5127 -42.5127 -42.5127c-14.1709 0 -21.1436 -6.97266 -21.1436 -21.1436v-223.134c0 -44.5371 -10.1221 -77.1523 -30.3662 -97.1719
c-20.2441 -20.2441 -52.6348 -30.3662 -97.1719 -30.3662h-21.1436c-28.3418 0 -42.5127 14.1709 -42.5127 42.5127v10.5723c0 28.3418 14.1709 42.5127 42.5127 42.5127s42.5127 14.1709 42.5127 42.5127v170.274c0 37.3389 5.84863 64.5557 17.5449 81.2012
s30.8154 24.9678 56.9072 24.9678v10.5723c-26.3174 0 -45.2119 8.32227 -56.9082 24.9678s-17.5449 43.6377 -17.5449 81.2012v169.825c0 28.3418 -14.1709 42.5127 -42.5127 42.5127s-42.5127 14.1709 -42.5127 42.5127v10.5723
c0 28.3418 14.1709 42.5127 42.5127 42.5127h21.1436c44.5371 0 76.9277 -10.3467 97.1719 -30.3662c20.2441 -20.2441 30.3662 -52.6348 30.3662 -97.1719v-223.134c0 -14.1709 6.97266 -21.1436 21.1436 -21.1436z" />
    <glyph glyph-name="asciitilde" unicode="~" horiz-adv-x="504" 
d="M453.739 425.964c4.49902 -5.62305 5.84668 -14.3965 3.82227 -27.2178l-10.5723 -45.6611c-6.29785 -26.7666 -18.6689 -50.1592 -37.1133 -69.5039c-18.4443 -19.5693 -46.7861 -29.2412 -85.0244 -29.2412c-26.3174 0 -45.8867 4.49902 -58.9326 13.7217
c-13.0459 8.99707 -23.8428 19.1191 -32.3906 30.1406s-16.6455 21.1436 -24.5186 30.3662c-7.64746 9.22266 -19.7939 13.9463 -35.9893 13.9463c-4.27344 0 -10.1221 -0.899414 -17.5449 -3.14844c-7.42285 -2.02441 -12.8213 -9.22266 -16.4199 -21.1445
l-9.44727 -28.5664c-0.674805 -1.34961 -1.34961 -3.82422 -2.02441 -7.42285s-2.69922 -7.42285 -5.84863 -11.6963s-8.09766 -8.09766 -14.3955 -11.2471c-6.52344 -3.14941 -15.5205 -4.72363 -27.667 -4.72363c-9.67188 0 -18.4443 2.47461 -25.8672 6.97363
s-9.44727 13.9463 -5.84863 28.1172l9.44727 45.6611c7.87305 31.9404 21.3691 56.458 40.9385 73.3281c19.3447 17.0947 46.1113 25.6426 80.0762 25.6426c26.0918 0 45.8857 -4.49902 59.3818 -13.7217c13.2715 -9.22266 24.293 -19.3447 32.8408 -30.3662
c8.54785 -10.7969 16.6455 -20.9189 24.5186 -30.1416s19.1201 -13.7217 33.9658 -13.7217c9.89746 0 17.9951 2.24902 24.5186 6.97266c6.29785 4.49902 9.89648 10.3477 10.5713 17.5459l10.5723 28.5664c0.674805 2.69922 1.57422 6.29785 3.14844 10.5713
c1.34961 4.27344 3.82422 8.09766 7.42285 11.6963s8.54688 6.52246 14.8447 8.99707s14.8457 3.82422 25.418 3.82422c14.1709 0 23.6182 -2.92383 28.1172 -8.54688z" />
    <glyph glyph-name="nonbreakingspace" unicode="&#xa0;" horiz-adv-x="224" 
 />
    <glyph glyph-name="cent" unicode="&#xa2;" 
d="M301.074 292.354c-28.3418 0 -42.5117 14.1719 -42.5117 42.5137v58.4824c0 28.3418 -14.1709 42.5127 -42.5127 42.5127h-21.1436c-28.3418 0 -42.5127 -14.1709 -42.5127 -42.5127v-254.85c0 -28.3418 14.1709 -42.5127 42.5127 -42.5127h116.74
c28.3418 0 42.5127 -14.1709 42.5127 -42.5127v-10.7969c0 -28.3418 -14.1709 -42.5127 -42.5127 -42.5127h-63.6562v-63.6562c0 -28.3418 -14.1709 -42.5127 -42.5127 -42.5127s-42.5127 14.1709 -42.5127 42.5127v63.6562
c-41.1631 1.34961 -70.8545 12.1465 -89.2988 32.3906s-27.667 51.96 -27.667 95.1475v276.218c0 42.2871 9.22266 73.7773 27.667 94.4717c18.4443 20.4688 48.3604 31.4902 89.2979 32.8398v65.9053c0 28.3418 14.1709 42.5127 42.5127 42.5127
s42.5127 -14.1709 42.5127 -42.5127v-65.9053c40.2627 -1.34961 69.9541 -12.3711 88.624 -32.8398s28.1172 -51.959 28.1172 -94.4717v-69.0547c0 -28.3418 -14.1709 -42.5127 -42.5127 -42.5127h-21.1436z" />
    <glyph glyph-name="guillemotleft" unicode="&#xab;" horiz-adv-x="379" 
d="M156.218 390.2c-4.27344 -14.1709 -4.27344 -26.0908 0 -35.9883l51.0596 -129.337c4.94824 -14.1709 3.59863 -24.7432 -3.82422 -31.7158s-16.8701 -10.5713 -28.1172 -10.5713h-21.3691c-15.5205 0 -27.2168 3.59863 -35.0898 10.5713
s-14.1709 16.8701 -19.1191 29.6914l-51.0596 129.337c-3.59863 13.4961 -3.59863 26.7676 0 40.2637l51.0596 129.562c4.94824 12.5967 11.2461 22.7188 19.1191 29.6914s19.3447 10.5713 35.0898 10.5713h21.3691c11.2471 0 20.6943 -3.37402 28.1172 -10.5723
s8.77246 -17.7705 3.82422 -31.9414zM289.378 387.053c-2.92383 -11.2471 -2.92578 -21.1436 -0.00195312 -29.6914l41.6123 -103.02c3.37402 -11.2471 2.24902 -19.7949 -3.82422 -25.418s-13.2715 -8.54688 -21.8193 -8.54688h-17.0947
c-12.8213 0 -22.4932 2.92383 -28.791 8.54688s-11.2461 13.4961 -14.8447 23.3936l-41.6123 103.919c-2.92383 10.5723 -2.92383 21.1445 0 31.7168l41.6123 103.919c3.59863 9.89746 8.32227 17.7705 14.8457 23.3936s15.9707 8.54688 28.792 8.54688h17.0947
c8.54785 0 15.7461 -2.92383 21.8193 -8.54688s7.42285 -14.1709 3.82422 -25.418z" />
    <glyph glyph-name="softhyphen" unicode="&#xad;" horiz-adv-x="0" 
 />
    <glyph glyph-name="periodcentered" unicode="&#xb7;" horiz-adv-x="305" 
d="M227.971 484.896c20.6943 -20.4688 30.8145 -45.6611 30.8145 -75.3525s-10.3467 -54.8838 -30.8154 -75.3525s-45.6611 -30.8154 -75.5771 -30.8154s-54.8838 10.3467 -75.5781 30.8154c-20.4688 20.4688 -30.8154 45.6611 -30.8154 75.3525
s10.3467 54.8838 30.8154 75.3525c20.6943 20.4688 45.8867 30.8154 75.5781 30.8154c29.916 0 54.8838 -10.3467 75.5781 -30.8154z" />
    <glyph glyph-name="guillemotright" unicode="&#xbb;" horiz-adv-x="379" 
d="M175.961 388.176c2.69922 -10.7969 2.7002 -21.3711 0.000976562 -31.7178l-41.6123 -103.919c-3.59863 -9.89746 -8.54688 -17.7705 -14.8447 -23.3936c-6.52344 -5.62305 -15.9707 -8.54688 -28.792 -8.54688h-17.0947c-8.54785 0 -15.7461 2.92383 -21.8193 8.54688
s-7.42285 14.1709 -3.82422 25.418l41.6123 103.02c2.92383 8.54785 2.92383 18.4453 0 29.6924l-41.6123 102.795c-3.37402 11.2471 -2.24902 19.7949 3.82422 25.418s13.2715 8.54688 21.8193 8.54688h17.0947c12.8213 0 22.4932 -2.92383 28.791 -8.54688
c6.29785 -5.84863 11.2461 -13.4961 14.8447 -23.3936zM279.206 521.784l51.0605 -129.562c3.59863 -13.2715 3.59863 -26.7676 0 -40.2637l-51.0596 -129.337c-4.94824 -12.8213 -11.2461 -22.7188 -19.1191 -29.6914
c-7.64746 -6.97266 -19.5693 -10.5713 -35.0898 -10.5713h-21.1436c-11.4717 0 -20.9189 3.59863 -28.3418 10.5713s-8.54785 17.5449 -3.59961 31.7158l51.0596 129.337c4.27344 9.89746 4.27344 21.8193 0 35.9902l-51.0596 129.562
c-5.17383 14.1709 -3.82422 24.9678 3.59863 31.9404c7.64746 6.97266 17.0947 10.5713 28.3418 10.5713h21.1436c15.5205 0 27.4424 -3.59863 35.0898 -10.5713s14.1709 -17.0947 19.1191 -29.6914z" />
    <glyph glyph-name="Iocyrillic" unicode="&#x401;" horiz-adv-x="358" 
d="M105.607 796.43c-22.7188 0 -34.1904 11.4717 -33.9658 34.1904v16.8701c0 22.7188 11.2471 33.9658 33.9658 33.9658h17.0947c22.7188 0 33.9658 -11.2471 33.9658 -33.9658v-17.0947c0 -22.7188 -11.2471 -33.9658 -33.9658 -33.9658h-17.0947zM232.92 796.43
c-22.7188 0 -33.9658 11.4717 -33.9658 34.1904v16.8701c0 22.7188 11.2471 33.9658 33.9658 33.9658h17.0947c22.7188 0 33.9658 -11.2471 33.9658 -33.9658v-17.0947c0 -22.7188 -11.2471 -33.9658 -33.9658 -33.9658h-17.0947zM173.537 647.974
c-14.1709 0 -21.3701 -7.19629 -21.3701 -21.3672v-143.282c0 -13.9463 7.19824 -21.1445 21.3691 -21.1445h53.084c28.3418 0 42.5127 -14.1709 42.5127 -42.5127v-10.7969c0 -28.1162 -14.1709 -42.2871 -42.5127 -42.2871h-53.084
c-14.1709 0 -21.3691 -7.19824 -21.3691 -21.3691v-228.308c0 -14.1709 7.19824 -21.1436 21.3691 -21.1436h95.5967c28.3418 0 42.5127 -14.1709 42.5127 -42.5127v-10.3467c0 -28.3418 -14.1709 -42.5127 -42.5127 -42.5127h-180.396
c-28.1162 0 -42.2871 14.1709 -42.2871 42.5127v658.155c0 28.3418 13.9463 42.5127 42.2881 42.5127h180.396c28.3418 0 42.5127 -14.1709 42.5127 -42.5127v-10.5723c0 -28.3418 -14.1709 -42.5127 -42.5127 -42.5127h-95.5967z" />
    <glyph glyph-name="Acyrillic" unicode="&#x410;" horiz-adv-x="443" 
d="M354.124 616.033l42.2881 -573.355c2.24902 -28.3418 -11.9219 -42.5127 -42.2881 -42.5127h-21.3691c-14.8457 0 -25.1924 3.37402 -31.2656 10.1221c-5.84863 6.74805 -9.67285 17.5449 -11.0225 32.3906l-9.44727 122.139
c-0.674805 14.1709 -8.09766 21.1436 -22.2686 21.1436h-74.4531c-14.1709 0 -21.5938 -6.97266 -22.2686 -21.1436l-9.44727 -122.139c-1.57422 -14.8457 -5.39844 -25.6426 -11.6963 -32.3906s-16.6445 -10.1221 -30.8154 -10.1221h-21.1436
c-30.3662 0 -44.5371 14.1709 -42.5127 42.5127l42.5127 573.355c3.59863 44.5371 14.3955 76.9277 32.3906 97.1719s49.7109 30.3662 94.9229 30.3662h10.5723c44.5371 0 76.0273 -10.1221 94.4717 -30.3662c18.2197 -20.2441 29.2412 -52.6348 32.8398 -97.1719z
M251.105 281.557c13.4961 0 19.7959 7.19922 19.1211 21.3701l-22.2686 302.535c-1.34961 13.4961 -3.82422 23.8428 -7.42285 31.2656c-3.59863 7.64746 -9.89648 11.2461 -19.1191 11.2461c-9.89746 0 -16.4209 -3.82422 -19.5703 -11.2471
s-5.62402 -17.7695 -6.97363 -31.2656l-22.2686 -302.535c-0.674805 -14.1709 5.62305 -21.3691 19.1191 -21.3691h59.3828z" />
    <glyph glyph-name="Becyrillic" unicode="&#x411;" 
d="M334.364 431.812c20.2441 -20.0195 30.3672 -52.4082 30.5918 -96.9453v-206.938c0 -44.5371 -10.1221 -76.9277 -30.3662 -97.1719s-52.6348 -30.3662 -97.1719 -30.3662h-148.681c-28.3418 0 -42.5127 14.1709 -42.5127 42.5127v658.155
c0 28.3418 14.1709 42.5127 42.5127 42.5127h222.909c28.3418 0 42.5127 -14.1709 42.5127 -42.5127v-10.7969c0 -28.3418 -14.1709 -42.5127 -42.5127 -42.5127h-138.109c-13.9463 0 -21.1445 -6.97266 -21.1445 -21.1436v-143.282
c0 -13.9463 6.97266 -21.1445 21.1436 -21.1445h63.6562c44.5371 0 76.9277 -10.1221 97.1719 -30.3662zM258.562 138.276l0.000976562 185.795c0 28.3418 -14.1709 42.5127 -42.5127 42.5127h-42.5127c-13.2715 0 -20.4697 -5.84863 -21.1445 -17.0957v-232.581
c0 -14.1709 6.97266 -21.1436 21.1436 -21.1436h42.5127c28.3418 0 42.5127 14.1709 42.5127 42.5127z" />
    <glyph glyph-name="Vecyrillic" unicode="&#x412;" 
d="M364.73 520.437c0 -37.3389 -6.07422 -64.5537 -17.5459 -81.1992c-11.6963 -16.6455 -30.5908 -24.9678 -56.9082 -24.9678c22.2686 0 43.6377 -6.07324 56.9092 -24.9678c11.6963 -16.6455 17.5449 -43.8623 17.5449 -81.2012v-180.172
c0 -44.5371 -10.1221 -76.9277 -30.3662 -97.1719s-52.6348 -30.3662 -97.1719 -30.3662h-148.681c-28.3418 0 -42.5127 14.1709 -42.5127 42.5127v658.155c0 28.3418 14.1709 42.5127 42.5127 42.5127h148.681c44.5371 0 76.9277 -10.3467 97.1719 -30.3662
c20.2441 -20.2441 30.3662 -52.6348 30.3662 -97.1719v-95.5967zM258.561 117.133v228.082c0 14.1709 -7.19824 21.3691 -21.3691 21.3691h-63.6562c-14.1709 0 -21.1436 -7.19824 -21.1436 -21.3691v-228.082c0 -14.1709 6.97266 -21.1436 21.1436 -21.1436h63.6562
c14.1709 0 21.3691 6.97266 21.3691 21.1436zM258.561 483.324v143.283c0 14.1709 -7.19824 21.1436 -21.3691 21.1436h-63.6562c-14.1709 0 -21.1436 -6.97266 -21.1436 -21.1436v-143.282c0 -13.9463 6.97266 -21.1445 21.1436 -21.1445h63.6562
c14.1709 0 21.3691 6.97266 21.3691 21.1436z" />
    <glyph glyph-name="Gecyrillic" unicode="&#x413;" horiz-adv-x="317" 
d="M269.134 743.57c28.3418 0 42.5127 -14.1709 42.5127 -42.5127v-10.7969c0 -28.3418 -14.1709 -42.5127 -42.5127 -42.5127h-95.5967c-14.1709 0 -21.1436 -6.97266 -21.1436 -21.1436v-583.702c0 -28.3418 -14.1709 -42.5127 -42.5127 -42.5127h-21.1436
c-28.3418 0 -42.5127 14.1709 -42.5127 42.5127v658.155c0 28.3418 14.1709 42.5127 42.5127 42.5127h180.396z" />
    <glyph glyph-name="Decyrillic" unicode="&#x414;" horiz-adv-x="485" 
d="M449.98 95.7617c21.1436 0 31.7188 -14.1689 31.9434 -42.5107v-127.312c0 -28.3418 -14.1709 -42.5127 -42.5127 -42.5127h-10.5723c-28.1162 0 -42.2871 14.3955 -42.2871 42.5117v53.084c0 14.1709 -7.19824 21.1436 -21.3691 21.1436h-201.766
c-14.1709 0 -21.3691 -6.97266 -21.3691 -21.1436v-53.084c0 -28.3418 -14.1709 -42.5127 -42.5127 -42.5127h-10.5723c-28.3418 0 -42.5127 14.3955 -42.5127 42.5117v127.312c0 15.0703 2.92383 24.5176 8.54688 28.791c5.84863 4.49902 13.4961 8.99805 23.3936 13.9463
c15.7451 7.64746 25.1924 18.2197 28.791 31.7158s6.07324 26.0928 7.42285 38.2393l48.8105 535.116c0 28.3418 14.1709 42.5127 42.5127 42.5127h180.396c28.1162 0 42.2871 -14.1709 42.2871 -42.5127v-584.152c0 -14.1709 7.19824 -21.1436 21.3691 -21.1436z
M322.446 117.133l-0.000976562 509.475c0 14.1709 -7.19824 21.1436 -21.3691 21.1436h-21.1436c-13.4961 0 -20.4688 -6.97266 -21.1436 -21.1436l-40.4883 -460.663c-1.34961 -10.1221 -2.92383 -18.6699 -4.72363 -26.0928s-3.82422 -15.0703 -5.84863 -22.7178
c-2.24902 -7.19824 -1.12402 -12.3721 3.14941 -15.9707c4.04883 -3.37402 10.1221 -5.17383 17.9951 -5.17383h72.2041c14.1709 0 21.3691 6.97266 21.3691 21.1436z" />
    <glyph glyph-name="Iecyrillic" unicode="&#x415;" horiz-adv-x="357" 
d="M173.312 647.974c-14.1709 0 -21.1436 -7.19629 -21.1436 -21.3672v-143.282c0 -13.9463 6.97266 -21.1445 21.1436 -21.1445h53.084c28.3418 0 42.5127 -14.1709 42.5127 -42.5127v-10.7969c0 -28.1162 -14.1709 -42.2871 -42.5127 -42.2871h-53.084
c-14.1709 0 -21.1436 -7.19824 -21.1436 -21.3691v-228.308c0 -14.1709 6.97266 -21.1436 21.1436 -21.1436h95.5967c28.3418 0 42.5127 -14.1709 42.5127 -42.5127v-10.3467c0 -28.3418 -14.1709 -42.5127 -42.5127 -42.5127h-180.396
c-28.3418 0 -42.5127 14.1709 -42.5127 42.5127v658.155c0 28.3418 14.1709 42.5127 42.5127 42.5127h180.396c28.3418 0 42.5127 -14.1709 42.5127 -42.5127v-10.5723c0 -28.3418 -14.1709 -42.5127 -42.5127 -42.5127h-95.5967z" />
    <glyph glyph-name="Zhecyrillic" unicode="&#x416;" horiz-adv-x="663" 
d="M533.276 398.297l121.238 -355.841c5.17383 -13.9463 3.82422 -24.7432 -3.59863 -31.7158s-16.8701 -10.5713 -28.1172 -10.5713h-21.3691c-14.8457 0 -26.542 3.37402 -35.0898 9.67188s-14.8457 16.6445 -19.1191 30.8154l-104.145 305.685
c-4.94824 13.4961 -12.3711 20.2441 -22.2686 20.2441c-10.7969 0 -15.9707 -7.19824 -15.9707 -21.3691v-302.086c0 -28.3418 -14.1709 -42.5127 -42.5127 -42.5127h-21.1436c-28.3418 0 -42.5127 14.1709 -42.5127 42.5127v302.535
c0 14.1709 -5.39844 21.3691 -15.9707 21.3691c-9.89746 0 -17.3203 -6.74805 -22.2686 -20.2441l-103.919 -305.685c-4.27344 -14.1709 -10.5713 -24.5176 -19.1191 -30.8154c-8.54785 -6.52344 -20.2441 -9.67285 -35.0898 -9.67285h-21.3691
c-11.2471 0 -20.6943 3.37402 -28.1172 10.5723c-7.64746 6.97266 -8.77246 17.5449 -3.82422 31.7158l121.015 355.62c4.27344 13.2715 4.27344 26.7676 0 40.2637l-89.0732 262.272c-4.94824 14.3955 -3.59863 24.9678 3.82422 31.9404s16.8701 10.5713 28.1172 10.5713
h21.1436c15.5205 0 27.4424 -3.37402 35.54 -10.5723c8.09766 -6.97266 14.3955 -16.8701 18.6689 -29.6914l76.4775 -220.885c4.94824 -13.4961 11.6963 -20.2441 20.2441 -20.2441c9.22266 0 13.7217 6.97266 13.7217 21.1436v217.735
c0 28.3418 14.1709 42.5127 42.5127 42.5127h21.1436c28.3418 0 42.5127 -14.1709 42.5127 -42.5127v-217.96c0 -13.9463 4.49902 -21.1445 13.7217 -21.1445c8.54785 0 15.2959 6.74805 20.2441 20.2441l76.4775 220.885c4.27344 12.8213 10.5713 22.7188 18.6689 29.6914
s20.0195 10.5713 35.54 10.5713h21.1436c11.2471 0 20.6943 -3.37402 28.1172 -10.5723s8.77246 -17.7705 3.82422 -31.9414l-89.2988 -262.272c-4.27344 -13.2715 -4.27344 -26.7676 0 -40.2637z" />
    <glyph glyph-name="Zecyrillic" unicode="&#x417;" 
d="M364.73 435.637c0 -37.5635 -5.84766 -64.7822 -17.5439 -81.2021c-11.6963 -16.6455 -30.5908 -24.9678 -56.9082 -24.9678c26.3174 0 45.2119 -6.74805 56.9082 -19.7939s17.5449 -38.2383 17.5449 -75.8018v-47.6855c0 -25.417 -2.47461 -45.6611 -6.97363 -60.5068
s-11.9219 -27.4424 -22.2686 -37.7891s-23.3926 -19.5693 -39.3633 -28.1172c-15.7451 -8.54785 -35.0898 -19.1201 -57.8086 -31.9414l-60.5068 -33.9648c-24.0684 -14.8457 -42.7383 -9.44727 -56.2344 15.9697l-9.67188 16.8701
c-13.4961 24.9678 -7.87305 44.3125 16.8691 58.4834l88.1738 49.9355c9.89746 5.62305 19.3447 13.2705 28.1172 22.9424c8.77246 9.44727 13.2715 20.4688 13.2715 32.3906v48.8105c0 28.1162 -14.1709 42.2871 -42.5127 42.2871h-21.1436
c-28.3418 0 -42.5127 14.1709 -42.5127 42.5127v10.5723c0 28.3418 14.1709 42.5127 42.5127 42.5127h21.1436c28.3418 0 42.5127 14.1709 42.5127 42.5127v185.795c0 28.3418 -14.1709 42.5127 -42.5127 42.5127h-21.1436c-28.3418 0 -42.5127 -14.1709 -42.5127 -42.5127
v-100.995c0 -28.3418 -14.1709 -42.5127 -42.5127 -42.5127h-21.1436c-28.3418 0 -42.5127 14.1709 -42.5127 42.5127v111.567c0 44.5371 10.1221 76.9277 30.3662 97.1719s52.6348 30.3662 97.1719 30.3662h63.6562c44.7617 0 77.1523 -10.1221 97.1719 -30.3662
c20.2441 -20.2441 30.3662 -52.6348 30.3662 -97.1719v-180.396z" />
    <glyph glyph-name="Iicyrillic" unicode="&#x418;" horiz-adv-x="443" 
d="M353.934 743.57c28.3418 0 42.5127 -14.1719 42.2881 -42.5137v-657.705c0 -28.3418 -14.1709 -42.5127 -42.5127 -42.5127h-21.1436c-28.3418 0 -42.5127 14.1709 -42.5127 42.5127v392.959l-127.312 -394.533c-6.97266 -27.667 -24.7422 -41.3877 -53.084 -41.3877
h-21.1436c-28.3418 0 -42.5127 14.1709 -42.5127 42.5127v658.155c0 28.3418 14.1709 42.5127 42.5127 42.5127h21.1436c28.3418 0 42.5127 -14.1709 42.5127 -42.5127v-393.408l127.537 394.533c6.97266 27.667 24.7422 41.3877 53.084 41.3877h21.1436z" />
    <glyph glyph-name="Iishortcyrillic" unicode="&#x419;" horiz-adv-x="442" 
d="M214.925 785.857c-35.9893 0 -62.0811 6.07129 -78.2764 17.9932c-15.9707 12.1465 -23.8438 31.4912 -23.8438 58.4834v12.8213c0 16.8701 8.32227 25.418 25.417 25.418h12.8213c16.8701 0 25.418 -8.32227 25.418 -25.417v-6.29785
c0 -16.1953 13.4961 -24.7432 40.4883 -25.418h8.54785c26.7666 0.674805 40.2627 9.22266 40.2627 25.418v6.29785c0 16.8701 8.54785 25.418 25.418 25.418h12.8213c16.8701 0 25.418 -8.32227 25.418 -25.417v-12.8213c0 -26.9922 -7.87305 -46.3369 -23.8438 -58.4834
c-15.9707 -11.9219 -42.0625 -17.9951 -78.0518 -17.9951h-12.5967zM353.934 743.568c28.1162 0 42.2881 -14.1719 42.2881 -42.5137v-657.705c0 -28.3418 -14.1709 -42.5127 -42.5127 -42.5127h-21.1436c-28.3418 0 -42.5127 14.1709 -42.5127 42.5127v392.959
l-127.312 -394.533c-6.97266 -27.667 -24.7422 -41.3877 -53.084 -41.3877h-21.1436c-28.3418 0 -42.5127 14.1709 -42.5127 42.5127v658.155c0 28.3418 14.1709 42.5127 42.5127 42.5127h21.1436c28.3418 0 42.5127 -14.1709 42.5127 -42.5127v-393.408l127.537 394.533
c6.97266 27.667 24.7422 41.3877 53.084 41.3877h21.1436z" />
    <glyph glyph-name="Kacyrillic" unicode="&#x41a;" horiz-adv-x="451" 
d="M280.83 398.297l121.238 -355.842c5.17383 -13.9463 3.82422 -24.7432 -3.59863 -31.7158s-16.8701 -10.5713 -28.1172 -10.5713h-21.1436c-14.8457 0 -26.542 3.37402 -35.0898 9.67188s-14.8457 16.6445 -19.1191 30.8154l-104.145 305.685
c-4.94824 13.4961 -12.3711 20.2441 -22.2686 20.2441c-10.5723 0 -15.9707 -7.19824 -15.9707 -21.3691v-302.311c0 -28.3418 -14.1709 -42.5127 -42.5127 -42.5127h-21.3691c-28.3418 0 -42.5127 14.1709 -42.5127 42.5127v658.155
c0 28.3418 14.1709 42.5127 42.5127 42.5127h21.3691c28.3418 0 42.5127 -14.1709 42.5127 -42.5127v-217.96c0 -13.9463 4.49902 -21.1445 13.7217 -21.1445c8.54785 0 15.2959 6.74805 20.2441 20.2441l76.4775 220.885c4.27344 12.8213 10.5713 22.7188 18.6689 29.6914
s20.0195 10.5713 35.54 10.5713h21.1436c11.2471 0 20.6943 -3.37402 28.1172 -10.5723c7.19824 -7.19824 8.54785 -17.7705 3.59961 -31.9414l-89.2988 -262.272c-4.27344 -13.2715 -4.27344 -26.7676 0 -40.2637z" />
    <glyph glyph-name="Elcyrillic" unicode="&#x41b;" horiz-adv-x="434" 
d="M344.521 743.57c28.3418 0 42.5166 -14.1709 42.0664 -42.5127v-658.38c0 -28.3418 -14.1709 -42.5127 -42.5127 -42.5127h-21.1436c-28.3418 0 -42.5127 14.1709 -42.5127 42.5127v583.927c0 14.1709 -6.97266 21.1436 -21.1436 21.1436h-15.9707
c-14.1709 0 -21.1436 -6.97266 -21.1436 -21.1436l-47.6855 -482.032c-2.02441 -23.3926 -6.74805 -42.5117 -13.7207 -57.8076c-7.19824 -15.0703 -15.2959 -28.1162 -24.5186 -38.6885s-19.1201 -19.3447 -29.6924 -26.0928s-21.1445 -13.2715 -31.7168 -19.5693
c-24.0684 -14.8457 -42.7383 -9.44727 -56.2344 15.9697l-9.44727 16.8701c-13.4961 25.6426 -7.87305 44.9873 16.8701 58.4834c10.1221 5.84863 19.1191 13.4961 27.667 22.9434s13.2715 20.2441 14.8457 32.3906l53.084 551.986
c0 28.3418 14.1709 42.5127 42.5127 42.5127h180.396z" />
    <glyph glyph-name="Emcyrillic" unicode="&#x41c;" horiz-adv-x="623" 
d="M534.556 743.57c28.3418 0 42.5137 -14.1729 42.5137 -42.5146v-658.155c0 -28.3418 -14.1709 -42.5127 -42.5127 -42.5127h-21.1436c-28.3418 0 -42.5127 14.1709 -42.5127 42.5127v393.408l-106.169 -330.877c-4.94824 -14.1709 -11.4717 -24.5176 -19.1191 -31.2656
s-19.1191 -10.1221 -33.9648 -10.1221s-26.0928 3.37402 -33.9658 10.1221s-14.1709 17.0947 -19.1191 31.2656l-106.844 332.901v-200.865c0.450195 -28.5664 0.674805 -58.0322 0.674805 -88.623v-105.943c0 -28.3418 -14.1709 -42.5127 -42.5127 -42.5127h-21.3691
c-28.3418 0 -42.5127 14.1709 -42.5127 42.5127v658.155c0 28.3418 14.1709 42.5127 42.5127 42.5127h21.3691c28.3418 0 46.1113 -13.7207 53.084 -41.3877l143.282 -417.251c2.24902 -6.97266 4.04883 -10.5713 5.39844 -10.5713s3.14941 3.37402 5.17383 10.5723
l143.508 417.251c4.94824 14.1709 11.2461 24.5176 19.1191 31.2656s19.1201 10.1221 33.9658 10.1221h21.1436z" />
    <glyph glyph-name="Encyrillic" unicode="&#x41d;" horiz-adv-x="410" 
d="M321.769 743.57c28.3418 0 42.5117 -14.1699 42.5117 -42.5117v-658.38c0 -28.3418 -14.1709 -42.5127 -42.5127 -42.5127h-21.1436c-28.3418 0 -42.5127 14.1709 -42.5127 42.5127v302.535c0 14.1709 -6.97266 21.3691 -21.1436 21.3691h-63.6562
c-14.1709 0 -21.3691 -7.19824 -21.3691 -21.3691v-302.311c0 -28.3418 -14.1709 -42.5127 -42.2871 -42.5127h-21.3691c-28.1162 0 -42.2871 14.1709 -42.2871 42.5127v658.155c0 28.3418 13.9463 42.5127 42.2881 42.5127h21.3691
c28.1162 0 42.2871 -14.1709 42.2871 -42.5127v-217.735c0 -13.9463 7.19824 -21.1445 21.3691 -21.1445h63.6562c14.1709 0 21.1436 6.97266 21.1436 21.1436v217.735c0 28.3418 14.1709 42.5127 42.5127 42.5127h21.1436z" />
    <glyph glyph-name="Ocyrillic" unicode="&#x41e;" 
d="M334.364 713.204c20.0195 -20.2441 30.1416 -52.6348 30.1416 -97.1719v-488.33c0 -44.5371 -9.89746 -76.9277 -30.1416 -97.1719s-52.6348 -30.3662 -97.1719 -30.3662h-63.6562c-44.5371 0 -76.9277 10.1221 -97.1719 30.3662s-30.3662 52.6348 -30.3662 97.1719
v488.33c0 44.5371 10.1221 76.9277 30.3662 97.1719s52.6348 30.3662 97.1719 30.3662h63.6562c44.5371 0 76.9277 -10.1221 97.1719 -30.3662zM258.337 138.274v467.187c0 28.3418 -14.1709 42.5127 -42.5127 42.5127h-21.1436
c-28.3418 0 -42.5127 -14.1709 -42.5127 -42.5127v-467.187c0 -28.3418 14.1709 -42.5127 42.5127 -42.5127h21.1436c28.3418 0 42.5127 14.1709 42.5127 42.5127z" />
    <glyph glyph-name="Pecyrillic" unicode="&#x41f;" 
d="M321.993 743.57c28.3418 0 42.5127 -14.1709 42.2881 -42.5127v-658.38c0 -28.3418 -14.1709 -42.5127 -42.5127 -42.5127h-21.1436c-28.3418 0 -42.5127 14.1709 -42.5127 42.5127v583.927c0 14.1709 -6.97266 21.1436 -21.1436 21.1436h-63.6562
c-14.1709 0 -21.3691 -6.97266 -21.3691 -21.1436v-583.702c0 -28.3418 -13.9463 -42.5127 -42.2881 -42.5127h-21.3691c-28.1162 0 -42.2871 14.1709 -42.2871 42.5127v658.155c0 28.3418 13.9463 42.5127 42.2881 42.5127h233.706z" />
    <glyph glyph-name="Ercyrillic" unicode="&#x420;" 
d="M334.364 713.204c20.2441 -20.2441 30.3672 -52.6338 29.917 -97.1709v-206.938c0 -44.5371 -9.89746 -76.9277 -30.1416 -97.1719s-52.6348 -30.3662 -97.1719 -30.3662h-63.6562c-14.1709 0 -21.1436 -6.97266 -21.1436 -21.1436v-217.511
c0 -28.3418 -14.1709 -42.5127 -42.5127 -42.5127h-21.1436c-28.3418 0 -42.5127 14.1709 -42.5127 42.5127v658.155c0 28.3418 14.1709 42.5127 42.5127 42.5127h148.681c44.5371 0 76.9277 -10.1221 97.1719 -30.3662zM258.562 419.667v185.569
c0 28.3418 -14.1709 42.5127 -42.5127 42.5127h-42.5127c-14.1709 0 -21.1436 -6.97266 -21.1436 -21.1436v-232.356c0.674805 -11.4717 7.64746 -17.0947 21.1436 -17.0947h42.5127c28.3418 0 42.5127 14.1709 42.5127 42.5127z" />
    <glyph glyph-name="Escyrillic" unicode="&#x421;" 
d="M334.14 713.204c20.2441 -20.2441 30.3652 -52.6348 30.1406 -97.1719v-111.342c0 -28.3418 -14.1709 -42.5127 -42.5127 -42.5127h-21.1436c-28.3418 0 -42.5127 14.1709 -42.5127 42.5127v100.771c0 28.3418 -14.1709 42.5127 -42.5127 42.5127h-21.1436
c-28.3418 0 -42.5127 -14.1709 -42.5127 -42.5127v-467.187c0 -28.3418 14.1709 -42.5127 42.5127 -42.5127h116.74c28.3418 0 42.5127 -14.1709 42.5127 -42.5127v-10.5723c0 -28.3418 -14.1709 -42.5127 -42.5127 -42.5127h-137.884
c-44.5371 0 -76.9277 10.1221 -97.1719 30.3662c-20.0195 20.2441 -30.1416 52.6348 -30.1416 97.1719v488.33c0 44.5371 9.89746 76.9277 30.1416 97.1719s52.6348 30.3662 97.1719 30.3662h63.6562c44.5371 0 76.9277 -10.1221 97.1719 -30.3662z" />
    <glyph glyph-name="Tecyrillic" unicode="&#x422;" horiz-adv-x="366" 
d="M343.362 743.57c14.1709 0 21.3682 -7.19629 21.1436 -21.3672v-53.3096c0 -14.1709 -7.19824 -21.1436 -21.3691 -21.1436h-63.6562c-14.1709 0 -21.1436 -6.97266 -21.1436 -21.1436v-583.478c0 -28.3418 -14.1709 -42.5127 -42.5127 -42.5127h-21.1436
c-28.3418 0 -42.5127 14.1709 -42.5127 42.5127v583.927c0 14.1709 -6.97266 21.1436 -21.1436 21.1436h-63.6562c-14.3955 0 -21.3682 6.97266 -21.3682 21.1436v53.084c0 14.1709 7.19824 21.1436 21.3691 21.1436h275.993z" />
    <glyph glyph-name="Ucyrillic" unicode="&#x423;" 
d="M321.993 743.57c28.3418 0 42.5107 -14.1719 42.7354 -42.5137v-541.864c0 -25.6426 -2.47461 -45.6621 -7.42285 -60.0576s-12.5957 -26.7666 -22.9424 -37.1133c-10.1221 -10.3467 -23.3936 -19.5693 -39.8135 -28.1172
c-16.1953 -8.32227 -35.3145 -19.3438 -57.3584 -32.8398l-5.17383 -3.14941c-24.0684 -14.8457 -42.7383 -9.44727 -56.2344 15.9697l-9.44727 17.0947c-13.4961 24.9678 -7.87305 44.3125 16.8701 58.4834l33.0654 19.1191
c9.89746 5.84863 19.7949 13.2715 29.6924 22.9434c9.67188 9.44727 14.1709 20.4688 12.5967 32.3906c-0.674805 11.4717 -7.64746 17.0947 -21.1436 17.0947h-63.6562c-44.5371 0 -76.9277 9.89746 -97.1719 30.1416s-30.3662 52.6348 -30.3662 97.1719v392.733
c0 28.3418 14.1709 42.5127 42.5127 42.5127h21.1436c28.3418 0 42.5127 -14.1709 42.5127 -42.5127v-382.387c0 -28.3418 13.9463 -42.5127 42.2881 -42.5127h42.5127c13.2715 0 20.4697 5.62305 21.1445 17.0947v407.805c0 28.3418 14.1709 42.5127 42.5127 42.5127
h21.1436z" />
    <glyph glyph-name="Efcyrillic" unicode="&#x424;" horiz-adv-x="623" 
d="M546.477 607.035c20.2441 -20.2441 30.3672 -52.6348 30.1426 -97.1719v-196.367c0 -44.5371 -9.89746 -76.9277 -30.1416 -97.1719s-52.6348 -30.3662 -97.1719 -30.3662h-63.6562c-13.9463 0 -21.1445 -6.97266 -21.1445 -21.1436v-122.139
c0 -28.3418 -14.1709 -42.5127 -42.5127 -42.5127h-21.1436c-28.3418 0 -42.5127 14.1709 -42.5127 42.5127v122.139c0 14.1709 -6.97266 21.1436 -21.1436 21.1436h-63.6562c-44.5371 0 -76.9277 10.1221 -97.1719 30.3662s-30.3662 52.6348 -30.3662 97.1719v196.367
c0 44.5371 10.1221 76.9277 30.3662 97.1719c20.2441 20.0195 52.6348 30.1416 97.1719 30.1416h63.6562c14.1709 0 21.1436 7.19824 21.1436 21.3691v95.5967c0 28.3418 14.1709 42.5127 42.5127 42.5127h21.1436c28.3418 0 42.5127 -14.1709 42.5127 -42.5127v-95.5967
c0 -14.1709 6.97266 -21.3691 21.1436 -21.3691h63.6562c44.5371 0 76.9277 -9.89746 97.1719 -30.1416zM258.338 298.651l-0.000976562 222.01c0 14.1709 -6.97266 21.1436 -21.1436 21.1436h-42.5127c-28.3418 0 -42.5127 -14.1709 -42.5127 -42.5127v-175.223
c0 -28.3418 14.1709 -42.5127 42.5127 -42.5127h42.5127c13.2715 0 20.4697 5.62305 21.1445 17.0947zM470.674 324.069l0.000976562 174.997c0 28.3418 -14.1709 42.5127 -42.5127 42.5127h-42.5127c-13.9463 0 -21.1445 -6.97266 -21.1445 -21.1436v-221.784
c0.674805 -11.4717 7.64746 -17.0947 21.1436 -17.0947h42.5127c28.3418 0 42.5127 14.1709 42.5127 42.5127z" />
    <glyph glyph-name="Khacyrillic" unicode="&#x425;" horiz-adv-x="442" 
d="M282.587 366.582l110.667 -323.904c4.94824 -13.9463 3.59863 -24.7432 -3.82422 -31.7158s-16.8701 -10.5713 -28.1172 -10.5713h-21.1436c-14.8457 0 -26.542 3.37402 -35.0898 9.67188s-14.8457 16.6445 -19.1191 30.8154l-22.2686 65.6807
c-7.87305 25.6426 -15.0713 51.2852 -21.8193 77.6025c-6.74805 26.0918 -13.4961 52.1836 -20.6943 78.501c-7.19824 -26.0918 -13.9463 -52.4092 -20.6943 -78.501c-6.74805 -26.3174 -13.9463 -52.1846 -21.8193 -77.6016l-22.2686 -65.6807
c-4.94824 -13.4961 -11.4717 -23.6182 -19.1191 -30.3662c-7.87305 -6.74805 -19.5693 -10.1221 -35.0898 -10.1221h-21.1436c-11.2471 0 -20.6943 3.37402 -28.1172 10.5723c-7.19824 6.97266 -8.54785 17.5449 -3.59961 31.7158l110.442 323.904
c4.27344 13.2715 4.27344 26.7676 0 40.2637l-99.8701 293.988c-4.94824 14.3955 -3.59863 24.9678 3.82422 31.9404s16.8701 10.5713 28.1172 10.5713h21.1436c14.8457 0 26.3174 -3.14941 34.415 -9.44727s14.6211 -16.6445 19.5693 -30.8154l22.2686 -65.9053
c6.29785 -20.4688 11.9209 -41.3877 16.4199 -62.5312s9.67285 -42.0625 15.2959 -62.5312c5.84863 20.4688 11.0225 41.3877 15.5215 62.5312c4.72363 21.1436 10.1221 42.0625 16.4199 62.5312l22.2686 65.9053c4.94824 13.2715 11.2461 23.3936 19.1191 30.1416
s19.5693 10.1221 35.0898 10.1221h21.3691c11.2471 0 20.6943 -3.37402 28.1172 -10.5723c7.19824 -7.19824 8.54785 -17.7705 3.59961 -31.9414l-99.8701 -293.988c-4.27344 -13.2715 -4.27344 -26.7676 0 -40.2637z" />
    <glyph glyph-name="Tsecyrillic" unicode="&#x426;" horiz-adv-x="464" 
d="M385.874 95.7617c21.3691 0 31.9404 -14.1699 31.9404 -42.5117v-127.087c0 -28.3418 -14.1709 -42.5127 -42.5127 -42.5127h-10.5723c-28.3418 0 -42.5127 14.3955 -42.5127 42.5117v53.084c0 14.1709 -6.97266 21.1436 -21.1436 21.1436h-212.337
c-28.3418 0 -42.5127 14.1709 -42.5127 42.5127v658.155c0 28.3418 14.1709 42.5127 42.5127 42.5127h21.1436c28.3418 0 42.5127 -14.1709 42.5127 -42.5127v-583.927c0 -14.1709 6.97266 -21.1436 21.1436 -21.1436h63.6562c14.1709 0 21.1436 6.97266 21.1436 21.1436
v583.927c0 28.3418 14.1709 42.5127 42.5127 42.5127h21.1436c28.3418 0 42.5127 -14.1709 42.5127 -42.5127v-584.152c0 -14.1709 7.19824 -21.1436 21.3691 -21.1436z" />
    <glyph glyph-name="Checyrillic" unicode="&#x427;" 
d="M321.993 743.57c28.3418 0 42.5117 -14.1709 42.2871 -42.5127v-658.155c0 -28.3418 -14.1709 -42.5127 -42.5127 -42.5127h-21.1436c-28.3418 0 -42.5127 14.1709 -42.5127 42.5127v121.014c-0.674805 11.4717 -7.64746 17.0947 -21.1436 17.0947h-63.6562
c-44.5371 0 -76.9277 9.89746 -97.1719 30.1416c-20.0195 20.2441 -30.1416 52.6348 -30.1416 97.1719v392.733c0 28.3418 14.1709 42.5127 42.5127 42.5127h21.1436c28.3418 0 42.5127 -14.1709 42.5127 -42.5127v-382.387c0 -28.3418 14.1709 -42.5127 42.5127 -42.5127
h42.5127c13.2715 0 20.4697 5.62305 21.1445 17.0947v407.805c0 28.3418 14.1709 42.5127 42.5127 42.5127h21.1436z" />
    <glyph glyph-name="Shacyrillic" unicode="&#x428;" horiz-adv-x="581" 
d="M491.818 743.57c28.3418 0 42.5098 -14.1709 42.7344 -42.5127v-658.155c0 -28.3418 -14.1709 -42.5127 -42.5127 -42.5127h-403.53c-28.1162 0 -42.2871 14.1709 -42.2871 42.5127v658.155c0 28.3418 13.9463 42.5127 42.2881 42.5127h21.3691
c28.1162 0 42.2871 -14.1709 42.2871 -42.5127v-583.927c0 -14.1709 7.19824 -21.1436 21.3691 -21.1436h42.5127c13.9463 0 21.1445 6.97266 21.1445 21.1436v583.927c0 28.3418 14.1709 42.5127 42.5127 42.5127h21.1436c28.3418 0 42.5127 -14.1709 42.5127 -42.5127
v-583.927c0 -14.1709 6.97266 -21.1436 21.1436 -21.1436h42.5127c14.1709 0 21.1436 6.97266 21.1436 21.1436v583.927c0 28.3418 14.1709 42.5127 42.5127 42.5127h21.1436z" />
    <glyph glyph-name="Shchacyrillic" unicode="&#x429;" horiz-adv-x="588" 
d="M555.474 95.7617c21.1436 0 31.7158 -14.1699 31.9404 -42.5117v-127.087c0 -28.3418 -14.1709 -42.5127 -42.5127 -42.5127h-10.5723c-28.3418 0 -42.5127 14.3955 -42.5127 42.5117v53.084c0 14.1709 -6.97266 21.1436 -21.1436 21.1436h-382.162
c-28.1162 0 -42.2871 14.1709 -42.2871 42.5127v658.155c0 28.3418 13.9463 42.5127 42.2881 42.5127h21.3691c28.1162 0 42.2871 -14.1709 42.2871 -42.5127v-583.927c0 -14.1709 7.19824 -21.1436 21.3691 -21.1436h42.2871c14.3955 0 21.3682 6.97266 21.3682 21.1436
v583.927c0 28.3418 14.1709 42.5127 42.5127 42.5127h21.1436c28.3418 0 42.5127 -14.1709 42.5127 -42.5127v-583.927c0 -14.1709 6.97266 -21.1436 21.1436 -21.1436h42.5127c14.1709 0 21.1436 6.97266 21.1436 21.1436v583.927
c0 28.3418 14.1709 42.5127 42.5127 42.5127h21.1436c28.3418 0 42.5127 -14.1709 42.5127 -42.5127v-584.152c0 -14.1709 6.97266 -21.1436 21.1436 -21.1436z" />
    <glyph glyph-name="Hardsigncyrillic" unicode="&#x42a;" horiz-adv-x="527" 
d="M451.105 431.812c20.2441 -20.0195 30.3652 -52.4082 30.1406 -96.9453v-206.938c0 -44.5371 -9.89746 -76.9277 -30.1416 -97.1719s-52.6348 -30.3662 -97.1719 -30.3662h-148.681c-28.3418 0 -42.5127 14.1709 -42.5127 42.5127v583.927
c0 14.1709 -6.97266 21.1436 -21.1436 21.1436h-53.084c-28.3418 0 -42.5127 14.1709 -42.5127 42.5127v10.5723c0 28.3418 14.1709 42.5127 42.5127 42.5127h138.109c28.3418 0 42.5127 -14.1709 42.5127 -42.5127v-217.735c0 -13.9463 6.97266 -21.1445 21.1436 -21.1445
h63.6562c44.5371 0 76.9277 -10.1221 97.1719 -30.3662zM375.302 138.276l0.000976562 185.795c0 28.3418 -14.1709 42.5127 -42.5127 42.5127h-42.5127c-13.2715 0 -20.4697 -5.84863 -21.1445 -17.0957v-232.581c0 -14.1709 6.97266 -21.1436 21.1436 -21.1436h42.5127
c28.3418 0 42.5127 14.1709 42.5127 42.5127z" />
    <glyph glyph-name="Yericyrillic" unicode="&#x42b;" horiz-adv-x="591" 
d="M502.84 743.57c28.1162 0 42.2881 -14.1709 42.5127 -42.5127v-658.155c0 -28.3418 -14.1709 -42.5127 -42.5127 -42.5127h-21.3691c-28.3418 0 -42.5127 14.1709 -42.5127 42.5127v658.155c0 28.3418 14.1709 42.5127 42.5127 42.5127h21.3691zM237.42 462.179
c44.5371 0 76.9277 -10.1201 97.3965 -30.1396c20.2441 -20.2441 30.3662 -52.6348 30.3662 -97.1719v-206.938c0 -44.5371 -10.1221 -76.9277 -30.3662 -97.1719s-52.6348 -30.3662 -97.1719 -30.3662h-148.681c-28.3418 0 -42.5127 14.1709 -42.5127 42.5127v658.155
c0 28.3418 14.1709 42.5127 42.5127 42.5127h21.1436c28.3418 0 42.5127 -14.1709 42.5127 -42.5127v-217.735c0 -13.9463 6.97266 -21.1445 21.1436 -21.1445h63.6562zM258.563 138.276l0.000976562 185.795c0 28.3418 -14.1709 42.5127 -42.5127 42.5127h-42.5127
c-13.2715 0 -20.4697 -5.84863 -21.1445 -17.0957v-232.581c0 -14.1709 6.97266 -21.1436 21.1436 -21.1436h42.5127c28.3418 0 42.5127 14.1709 42.5127 42.5127z" />
    <glyph glyph-name="Softsigncyrillic" unicode="&#x42c;" 
d="M334.14 431.812c20.2441 -20.0195 30.3662 -52.4082 30.3662 -96.9453v-206.938c0 -44.5371 -9.89746 -76.9277 -30.1416 -97.1719s-52.6348 -30.3662 -97.1719 -30.3662h-148.681c-28.3418 0 -42.5127 14.1709 -42.5127 42.5127v658.155
c0 28.3418 14.1709 42.5127 42.5127 42.5127h21.1436c28.3418 0 42.5127 -14.1709 42.5127 -42.5127v-217.735c0 -13.9463 6.97266 -21.1445 21.1436 -21.1445h63.6562c44.5371 0 76.9277 -10.1221 97.1719 -30.3662zM258.337 138.276l0.000976562 185.795
c0 28.3418 -14.1709 42.5127 -42.5127 42.5127h-42.5127c-13.2715 0 -20.4697 -5.84863 -21.1445 -17.0957v-232.581c0 -14.1709 6.97266 -21.1436 21.1436 -21.1436h42.5127c28.3418 0 42.5127 14.1709 42.5127 42.5127z" />
    <glyph glyph-name="Ereversedcyrillic" unicode="&#x42d;" 
d="M334.364 713.204c20.2441 -20.2441 30.3652 -52.6357 30.1406 -97.1729v-488.105c0 -44.5371 -10.1221 -76.9277 -30.3662 -97.1719s-52.6348 -30.3662 -97.1719 -30.3662h-137.884c-28.3418 0 -42.5127 14.1709 -42.5127 42.5127v10.5723
c0 28.3418 14.1709 42.5127 42.5127 42.5127h116.74c28.3418 0 42.5127 14.1709 42.5127 42.5127v122.139c0 14.1709 -7.19824 21.1436 -21.3691 21.1436h-53.084c-28.3418 0 -42.5127 14.1709 -42.5127 42.5127v10.5723c0 28.3418 14.1709 42.5127 42.5127 42.5127h53.084
c14.1709 0 21.3691 6.97266 21.3691 21.1436v206.938c0 28.3418 -14.1709 42.5127 -42.5127 42.5127h-21.1436c-28.3418 0 -42.5127 -14.1709 -42.5127 -42.5127v-100.995c0 -28.3418 -14.1709 -42.5127 -42.5127 -42.5127h-21.1436
c-28.3418 0 -42.5127 14.1709 -42.5127 42.5127v111.567c0 44.5371 10.1221 76.9277 30.3662 97.1719s52.6348 30.3662 97.1719 30.3662h63.6562c44.5371 0 76.9277 -10.1221 97.1719 -30.3662z" />
    <glyph glyph-name="IUcyrillic" unicode="&#x42e;" horiz-adv-x="602" 
d="M525.558 713.204c20.2441 -20.2441 30.3662 -52.6348 30.3662 -97.1719v-488.33c0 -44.5371 -10.1221 -76.9277 -30.3662 -97.1719s-52.6348 -30.3662 -97.1719 -30.3662h-63.8809c-44.5371 0 -76.9277 10.1221 -97.1719 30.3662s-30.3662 52.6348 -30.3662 97.1719
v217.511c0 14.1709 -6.97266 21.3691 -21.1436 21.3691h-42.5127c-14.1709 0 -21.1436 -7.19824 -21.1436 -21.3691v-302.311c0 -28.3418 -14.1709 -42.5127 -42.5127 -42.5127h-21.1436c-28.3418 0 -42.5127 14.1709 -42.5127 42.5127v658.155
c0 28.3418 14.1709 42.5127 42.5127 42.5127h21.1436c28.3418 0 42.5127 -14.1709 42.5127 -42.5127v-217.735c0 -13.9463 6.97266 -21.1445 21.1436 -21.1445h42.5127c14.1709 0 21.1436 6.97266 21.1436 21.1436v132.711c0 44.5371 10.1221 76.9277 30.3662 97.1719
s52.6348 30.3662 97.1719 30.3662h63.8809c44.5371 0 76.9277 -10.1221 97.1719 -30.3662zM449.755 138.274v467.187c0 28.3418 -14.1709 42.5127 -42.5127 42.5127h-21.1436c-28.3418 0 -42.5127 -14.1709 -42.5127 -42.5127v-467.187
c0 -28.3418 14.1709 -42.5127 42.5127 -42.5127h21.1436c28.3418 0 42.5127 14.1709 42.5127 42.5127z" />
    <glyph glyph-name="IAcyrillic" unicode="&#x42f;" horiz-adv-x="428" 
d="M339.108 743.57c28.3418 0 42.5127 -14.1719 41.8379 -42.5137v-658.38c0 -28.3418 -14.1709 -42.5127 -42.5127 -42.5127h-21.1436c-28.3418 0 -42.5127 14.1709 -42.5127 42.5127v217.735c0 13.4961 -4.27344 20.2441 -12.8213 20.2441
c-5.62305 0 -10.1221 -1.7998 -13.2715 -5.39844s-5.84863 -8.32227 -7.87305 -13.9453l-81.6504 -220.885c-4.94824 -14.1709 -11.9209 -24.5176 -20.6934 -30.8154c-8.77246 -6.52344 -21.5938 -9.67285 -38.6885 -9.67285h-19.1191
c-11.2471 0 -20.6943 3.82422 -28.1172 11.2471c-7.19824 7.42285 -8.54785 17.7695 -3.59961 31.2656l89.2988 244.277c-26.0918 7.19824 -45.2109 20.2441 -57.3574 39.8135c-11.9219 19.5693 -17.9951 47.0107 -17.9951 82.3252v207.164
c0 44.5371 10.1221 76.9277 30.3662 97.1719c20.0195 20.2441 52.6348 30.3662 97.1719 30.3662h148.681zM275.452 394.248l-0.000976562 232.581c0 14.1709 -6.97266 21.1436 -21.1436 21.1436h-42.5127c-28.3418 0 -42.5127 -14.1709 -42.5127 -42.5127v-185.795
c0 -28.3418 14.1709 -42.5127 42.5127 -42.5127h42.5127c13.9463 0 21.1445 5.84863 21.1445 17.0957z" />
    <glyph glyph-name="acyrillic" unicode="&#x430;" 
d="M334.14 607.035c20.2441 -20.2441 30.3643 -52.6377 30.1396 -97.1748v-382.611c0 -44.5371 -9.89746 -76.9277 -30.1416 -97.1719s-52.6348 -30.3662 -97.1719 -30.3662h-63.6562c-44.5371 0 -76.9277 10.1221 -97.1719 30.3662
c-20.0195 20.2441 -30.1416 52.6348 -30.1416 97.1719v116.74c0 25.417 3.82422 46.1113 11.2471 62.082s17.3203 29.6914 29.6914 40.9385c12.3711 11.4717 26.3174 20.9189 41.3877 28.792c15.2959 7.87305 30.8164 16.1953 46.3369 25.418l41.3877 24.5176
c5.62305 3.59863 11.2461 6.97266 16.4199 10.1221c5.17383 3.37402 9.89746 7.42285 13.7217 12.3711s6.97363 11.0215 8.99805 18.4443s3.14941 16.8701 3.14941 28.1172c0 15.5205 -2.92383 27.2168 -8.54688 35.0898s-17.0947 11.6973 -33.9648 11.6973h-106.169
c-28.3418 0 -42.5127 14.1709 -42.5127 42.5127v10.5723c0 28.3418 14.1709 42.5127 42.5127 42.5127h127.312c44.5371 0 76.9277 -9.89746 97.1719 -30.1416zM258.335 138.271l0.225586 0.000976562v198.616l-62.7568 -36.2139
c-6.29785 -3.59863 -12.3711 -6.97266 -17.5449 -10.1221c-5.39844 -3.14941 -10.1221 -7.19824 -13.9463 -11.6973s-6.74805 -10.7969 -8.99707 -18.4443c-2.02441 -7.87305 -3.14941 -18.4453 -3.14941 -31.9414v-90.1982c0 -28.3418 14.1709 -42.5127 42.5127 -42.5127
h21.1436c28.3418 0 42.5127 14.1709 42.5127 42.5127z" />
    <glyph glyph-name="becyrillic" unicode="&#x431;" 
d="M334.14 500.867c20.2441 -20.2441 30.1436 -52.6348 30.3682 -97.1719v-275.543c0 -44.5371 -10.1221 -76.9277 -30.3662 -97.1719s-52.6348 -30.3662 -97.1719 -30.3662h-63.6562c-44.5371 0 -76.9277 10.1221 -97.1719 30.3662
c-20.0195 20.2441 -30.1416 52.6348 -30.1416 97.1719v392.733c0 29.6914 2.02441 53.7598 6.29785 72.6543c4.27344 18.6699 11.4717 34.415 21.8184 47.2363c10.3467 12.5967 23.3926 24.0684 39.8125 34.415c16.1953 10.3467 35.9893 22.043 59.3818 35.5391
l104.145 59.3828c24.0684 14.8457 42.7383 9.44727 56.2344 -15.9697l9.44727 -16.8701c13.4961 -24.7432 7.87305 -44.3125 -16.8691 -58.4834l-131.586 -75.3525c-9.89746 -5.84863 -19.7949 -13.4961 -29.6924 -22.9434s-14.1709 -20.4688 -12.8213 -32.3906
c0.674805 -11.2471 7.64746 -16.8701 21.1436 -16.8701h63.6562c44.5371 0 76.9277 -10.1221 97.1719 -30.3662zM258.114 138.274v254.85c0 28.3418 -14.1709 42.5127 -42.5127 42.5127h-42.5127c-14.1709 0 -21.1436 -5.84863 -21.1436 -17.0957v-280.267
c0 -28.3418 14.1709 -42.5127 42.5127 -42.5127h21.1436c28.3418 0 42.5127 14.1709 42.5127 42.5127z" />
    <glyph glyph-name="vecyrillic" unicode="&#x432;" 
d="M364.506 467.352c0 -37.3389 -5.62305 -64.5537 -17.5449 -81.1992c-13.4961 -19.1191 -34.6396 -24.9678 -56.9082 -24.9678c26.3174 0 45.2119 -8.32227 56.9082 -24.9678s17.5449 -43.8623 17.5449 -81.2012v-127.537c0 -44.5371 -9.89746 -76.9277 -30.1416 -97.1719
s-52.6348 -30.3662 -97.1719 -30.3662h-148.681c-28.3418 0 -42.5127 14.1709 -42.5127 42.5127v552.212c0 28.3418 14.1709 42.5127 42.5127 42.5127h148.681c44.5371 0 77.1523 -9.89746 97.1719 -30.1416s30.1416 -52.6348 30.1416 -97.1719v-42.5127zM258.337 117.132
v174.998c0 14.1709 -6.97266 21.1436 -21.1436 21.1436h-63.6562c-14.1709 0 -21.1436 -6.97266 -21.1436 -21.1436v-174.998c0 -14.1709 6.97266 -21.1436 21.1436 -21.1436h63.6562c14.1709 0 21.1436 6.97266 21.1436 21.1436zM258.337 430.239v90.1982
c0 14.1709 -6.97266 21.1436 -21.1436 21.1436h-63.6562c-14.1709 0 -21.1436 -6.97266 -21.1436 -21.1436v-90.1982c0 -14.1709 6.97266 -21.3691 21.1436 -21.3691h63.6562c14.1709 0 21.1436 7.19824 21.1436 21.3691z" />
    <glyph glyph-name="gecyrillic" unicode="&#x433;" horiz-adv-x="358" 
d="M269.134 637.177c28.3418 0 42.5127 -14.1719 42.2881 -42.2881v-10.7969c0 -28.3418 -14.1709 -42.5127 -42.5127 -42.5127h-95.5967c-14.1709 0 -21.1436 -6.97266 -21.1436 -21.1436v-477.983c0 -28.3418 -14.1709 -42.5127 -42.5127 -42.5127h-21.1436
c-28.3418 0 -42.5127 14.1709 -42.5127 42.5127v552.212c0 28.3418 14.1709 42.5127 42.5127 42.5127h180.621z" />
    <glyph glyph-name="decyrillic" unicode="&#x434;" horiz-adv-x="517" 
d="M439.184 95.7617c21.1436 0 31.7188 -14.1709 31.2686 -42.5127v-127.312c0 -28.3418 -14.1709 -42.5127 -42.5127 -42.5127h-10.5723c-28.1162 0 -42.2871 14.3955 -42.2871 42.5117v53.084c0 14.1709 -7.19824 21.1436 -21.3691 21.1436h-190.969
c-14.1709 0 -21.1436 -6.97266 -21.1436 -21.1436v-53.084c0 -28.3418 -14.1709 -42.5127 -42.5127 -42.5127h-10.5723c-28.3418 0 -42.5127 14.3955 -42.5127 42.5117v127.312c0 15.0703 2.92383 24.5176 8.54688 28.791c5.84863 4.49902 13.4961 8.99805 23.3936 13.9463
c15.7451 7.64746 25.1924 18.2197 28.791 31.7158s6.07324 26.0928 7.42285 38.2393l39.3633 428.948c1.57422 14.8457 5.17285 25.6426 11.2461 32.3906s16.4199 10.1221 31.2656 10.1221h179.497c28.1162 0 42.2871 -14.3955 42.2871 -42.5117v-477.983
c0 -14.1709 7.19824 -21.1436 21.3691 -21.1436zM311.649 117.131v403.307c0 14.1709 -6.97266 21.1436 -21.1436 21.1436h-21.1436c-13.2715 0 -20.4697 -6.97266 -21.1445 -21.1436l-29.6914 -354.495c-1.34961 -10.1221 -2.92383 -18.6699 -4.72363 -26.0928
s-3.59961 -15.0703 -5.84863 -22.7178c-2.24902 -7.19824 -1.12402 -12.3721 3.14941 -15.9707c4.27344 -3.37402 10.1221 -5.17383 17.9951 -5.17383h61.4072c14.1709 0 21.1436 6.97266 21.1436 21.1436z" />
    <glyph glyph-name="iecyrillic" unicode="&#x435;" 
d="M173.537 186.186c-14.1709 0 -21.1436 -7.19727 -20.9189 -21.3682v-26.542c0 -28.3418 13.9463 -42.5127 42.2881 -42.5127h116.74c28.3418 0 42.5127 -14.1709 42.5127 -42.5127v-10.5723c0 -28.3418 -14.1709 -42.5127 -42.5127 -42.5127h-138.109
c-44.5371 0 -76.9277 10.1221 -97.1719 30.3662s-30.3662 52.6348 -30.3662 97.1719v382.162c0 44.5371 10.3467 76.9277 30.3662 97.1719c20.2441 20.0195 52.6348 30.1416 97.1719 30.1416h63.6562c44.5371 0 76.9277 -9.89746 97.1719 -30.1416
c20.0195 -20.2441 30.1416 -52.6348 30.1416 -97.1719v-196.142c0 -44.5371 -9.89746 -76.9277 -30.1416 -97.1719s-52.6348 -30.3662 -97.1719 -30.3662h-63.6562zM152.394 499.294h0.225586v-196.367c0 -14.1709 6.97266 -21.3691 21.1436 -21.3691h63.6562
c14.1709 0 21.1436 7.19824 21.1436 21.3691v196.367c0 28.3418 -14.1709 42.5127 -42.5127 42.5127h-21.3691c-28.1162 0 -42.2871 -14.1709 -42.2871 -42.5127z" />
    <glyph glyph-name="zhecyrillic" unicode="&#x436;" horiz-adv-x="627" 
d="M515.168 345.213l102.796 -302.763c4.94824 -13.9463 3.59863 -24.7432 -3.82422 -31.7158s-16.8701 -10.5713 -28.1172 -10.5713h-21.1436c-14.8457 0 -26.3174 3.37402 -34.415 9.67188s-14.6211 16.6445 -19.5693 30.8154l-85.9248 252.601
c-4.94824 13.2715 -12.3711 20.0195 -22.2686 20.0195c-10.5723 0 -15.9707 -6.97266 -15.9707 -21.1436v-249.001c0 -28.3418 -14.1709 -42.5127 -42.5127 -42.5127h-21.1436c-28.3418 0 -42.5127 14.1709 -42.5127 42.5127v249.451
c0 14.1709 -5.39844 21.1436 -15.9707 21.1436c-9.89746 0 -17.3203 -6.52344 -22.2686 -20.0195l-85.9248 -252.601c-5.17383 -14.1709 -11.6973 -24.5176 -19.7949 -30.8154c-8.09766 -6.52344 -19.5693 -9.67285 -34.415 -9.67285h-21.3691
c-11.2471 0 -20.6943 3.37402 -28.1172 10.5723c-7.42285 6.97266 -8.54785 17.5449 -3.59961 31.7158l103.02 302.535c4.27344 13.2715 4.27344 26.7676 0 40.2637l-71.0791 209.188c-4.94824 14.1709 -3.59863 24.7432 3.82422 31.7158s16.6455 10.5713 28.1172 10.5713
h21.1436c15.5205 0 27.4424 -3.59863 35.54 -10.5713c7.87305 -6.97266 14.1709 -17.0947 18.4443 -29.6914l58.4824 -167.8c4.94824 -13.4961 11.6963 -20.2441 20.2441 -20.2441c9.22266 0 13.7217 7.19824 13.7217 21.3691v164.651
c0 28.3418 14.1709 42.5127 42.5127 42.5127h21.1436c28.3418 0 42.5127 -14.3955 42.5127 -42.5117v-164.876c0 -14.1709 4.49902 -21.3691 13.7217 -21.3691c8.54785 0 15.2959 6.74805 20.2441 20.2441l58.2578 167.801c4.27344 12.5967 10.5713 22.7188 18.6689 29.6914
s20.0195 10.5713 35.54 10.5713h21.3691c11.2471 0 20.6943 -3.59863 28.1172 -10.5713s8.54785 -17.5449 3.59961 -31.7158l-71.0791 -209.188c-4.27344 -13.2715 -4.27344 -26.7676 0 -40.2637z" />
    <glyph glyph-name="zecyrillic" unicode="&#x437;" 
d="M364.506 371.98c0 -37.5635 -5.84863 -64.7822 -17.7705 -81.4277c-13.4961 -18.8945 -34.6396 -24.9678 -56.9082 -24.9678c62.082 0 74.4531 -49.0352 74.4531 -100.77c0 -24.293 -2.69922 -43.1875 -8.09766 -56.9082s-13.2715 -25.6426 -23.3936 -35.54
c-10.3467 -9.89746 -23.3926 -19.3447 -38.9131 -28.1172s-34.1904 -19.5693 -56.2344 -32.3906l-60.5068 -33.9648c-24.0684 -14.8457 -42.7383 -9.44727 -56.2344 15.9697l-9.44727 17.0947c-13.2715 24.7432 -7.64844 44.0879 17.0947 58.2588l88.1738 49.9355
c9.89746 5.84863 19.3447 13.4961 28.1172 22.9434s13.2715 20.2441 13.2715 32.3906c0 29.0166 -14.1709 43.4121 -42.5127 43.4121h-21.1436c-28.3418 0 -42.5127 14.1709 -42.5127 42.5127v10.5723c0 28.3418 14.1709 42.5127 42.5127 42.5127h21.1436
c28.3418 0 42.5127 14.1709 42.5127 42.5127v143.282c0 28.3418 -14.1709 42.5127 -42.5127 42.5127h-21.1436c-28.3418 0 -42.5127 -14.1709 -42.5127 -42.5127v-79.626c0 -28.3418 -14.1709 -42.5127 -42.2871 -42.5127h-21.3691
c-28.1162 0 -42.2871 14.1709 -42.2871 42.5127v90.1982c0 44.5371 9.89746 76.9277 30.1416 97.1719c20.2441 20.0195 52.6348 30.1416 97.1719 30.1416h63.6562c44.5371 0 77.1523 -9.89746 97.1719 -30.1416c20.2441 -20.2441 30.3662 -52.6348 30.3662 -97.1719
v-137.884z" />
    <glyph glyph-name="iicyrillic" unicode="&#x438;" horiz-adv-x="421" 
d="M332.79 637.177c28.3418 0 42.5117 -14.1729 42.2871 -42.2891v-552.437c0 -28.3418 -14.1709 -42.5127 -42.5127 -42.5127h-21.1436c-28.3418 0 -42.5127 14.1709 -42.5127 42.5127v309.509l-106.169 -310.408c-6.97266 -27.667 -24.7422 -41.3877 -53.084 -41.3877
h-21.1436c-28.3418 0 -42.5127 14.1709 -42.5127 42.5127v552.212c0 28.3418 14.1709 42.5127 42.5127 42.5127h21.1436c28.3418 0 42.5127 -14.3955 42.5127 -42.5117v-309.509l106.169 310.408c4.94824 14.1709 11.2461 24.5176 19.1191 31.2656
c7.64746 6.74805 19.1191 10.1221 33.9648 10.1221h21.3691z" />
    <glyph glyph-name="iishortcyrillic" unicode="&#x439;" horiz-adv-x="421" 
d="M204.128 679.689c-35.9893 0 -62.082 6.07227 -78.0527 18.2188c-15.9707 11.9219 -23.8438 31.4912 -23.8438 58.2578v12.8213c0 16.8701 8.54785 25.418 25.418 25.418h12.8213c16.8701 0 25.418 -8.32227 25.418 -25.417v-6.29785
c0 -16.1953 13.4961 -24.7432 40.4883 -25.418h8.54785c26.7666 0.674805 40.2627 8.99707 40.2627 25.417v6.29785c0 16.8701 8.54785 25.418 25.418 25.418h12.8213c16.8701 0 25.418 -8.32227 25.418 -25.417v-13.0459c0 -26.7666 -7.87305 -46.3359 -23.8438 -58.2578
s-41.8379 -17.9951 -78.0518 -17.9951h-12.8213zM332.563 637.176c28.3418 0 42.5127 -14.1729 42.5127 -42.2891v-552.437c0 -28.3418 -14.1709 -42.5127 -42.5127 -42.5127h-21.1436c-28.3418 0 -42.5127 14.1709 -42.5127 42.5127v309.509l-106.169 -310.408
c-6.97266 -27.667 -24.7422 -41.3877 -53.084 -41.3877h-21.1436c-28.3418 0 -42.5127 14.1709 -42.5127 42.5127v552.212c0 28.3418 14.1709 42.5127 42.5127 42.5127h21.1436c28.3418 0 42.5127 -14.3955 42.5127 -42.5117v-309.509l106.169 310.408
c4.94824 14.1709 11.4717 24.5176 19.1191 31.2656s19.1191 10.1221 33.9648 10.1221h21.1436z" />
    <glyph glyph-name="kacyrillic" unicode="&#x43a;" horiz-adv-x="433" 
d="M280.605 345.213l102.569 -302.762c5.17383 -13.9463 3.82422 -24.7432 -3.59863 -31.7158s-16.8701 -10.5713 -28.1172 -10.5713h-21.1436c-14.8457 0 -26.542 3.37402 -35.0898 9.67188s-14.8457 16.6445 -19.1191 30.8154l-85.9248 252.601
c-4.94824 13.2715 -12.3711 20.0195 -22.2686 20.0195c-10.5723 0 -15.7461 -6.97266 -15.7461 -21.1436v-249.451c0 -28.3418 -14.1709 -42.5127 -42.5127 -42.5127h-21.1436c-28.3418 0 -42.5127 14.1709 -42.5127 42.5127v552.212
c0 28.3418 14.1709 42.5127 42.5127 42.5127h21.1436c28.3418 0 42.5127 -14.3955 42.5127 -42.5117v-164.876c0 -14.1709 4.49902 -21.3691 13.7217 -21.3691c8.54785 0 15.2959 6.74805 20.2441 20.2441l58.4824 167.801c4.27344 12.5967 10.5713 22.7188 18.6689 29.6914
s20.0195 10.5713 35.54 10.5713h21.1436c11.2471 0 20.6943 -3.59863 28.1172 -10.5713c7.19824 -6.97266 8.54785 -17.5449 3.59961 -31.7158l-71.0791 -209.188c-4.27344 -13.2715 -4.27344 -26.7676 0 -40.2637z" />
    <glyph glyph-name="elcyrillic" unicode="&#x43b;" horiz-adv-x="424" 
d="M334.785 637.177c28.3418 0 42.5166 -14.1719 42.292 -42.2881v-552.661c0 -28.3418 -14.1709 -42.5127 -42.5127 -42.5127h-21.3691c-28.1162 0 -42.2871 14.1709 -42.2871 42.5127v477.759c0 14.1709 -7.19824 21.1436 -21.3691 21.1436h-15.9707
c-14.1709 0 -21.1436 -6.97266 -21.1436 -21.1436l-37.1143 -375.863c-2.02441 -23.3936 -6.74805 -42.5127 -13.7207 -57.8086c-7.19824 -15.0703 -15.2959 -28.1162 -24.5186 -38.6885s-19.1201 -19.3447 -29.6924 -26.0928s-21.1445 -13.2715 -31.7168 -19.5693
c-24.0684 -14.8457 -42.7383 -9.44727 -56.2344 15.9697l-9.44727 16.8701c-13.2715 25.6426 -7.64844 44.9873 17.0947 58.4834c9.89746 5.84863 18.8945 13.4961 27.4424 22.9434s13.4961 20.2441 14.8457 32.3906l42.5127 446.043
c0 28.3418 14.1709 42.5127 42.5127 42.5127h180.396z" />
    <glyph glyph-name="emcyrillic" unicode="&#x43c;" horiz-adv-x="554" 
d="M465.95 637.177c28.3418 0 42.5137 -14.1719 42.5137 -42.2881v-552.212c0 -28.3418 -14.1709 -42.5127 -42.5127 -42.5127h-21.1436c-28.3418 0 -42.5127 14.1709 -42.5127 42.5127v289.265l-72.2041 -194.792c-5.62305 -14.1709 -12.1465 -24.5176 -19.5693 -31.2656
s-18.6699 -10.1221 -33.5156 -10.1221s-25.8672 3.37402 -33.29 10.1221s-13.9463 17.0947 -19.5693 31.2656l-73.7783 199.291v-113.816c0.450195 -7.42285 0.900391 -15.9707 1.125 -25.8682c0.450195 -10.1221 0.674805 -25.8672 0.674805 -47.9111v-106.394
c0 -28.3418 -14.1709 -42.5127 -42.5127 -42.5127h-21.1436c-28.3418 0 -42.5127 14.1709 -42.5127 42.5127v552.212c0 28.3418 14.1709 42.5127 42.5127 42.5127h21.1436c14.8457 0 26.0928 -3.37402 33.9658 -10.1221s14.1709 -17.0947 19.1191 -31.2656l109.317 -311.083
c2.02441 -6.97266 3.82422 -10.5713 5.17383 -10.5713s3.14941 3.37402 5.17383 10.5723l109.317 311.083c4.94824 14.1709 11.2461 24.5176 19.1191 31.2656c7.64746 6.74805 19.1191 10.1221 33.9648 10.1221h21.1436z" />
    <glyph glyph-name="encyrillic" unicode="&#x43d;" horiz-adv-x="410" 
d="M321.769 637.177c28.3418 0 42.5127 -14.1729 42.5127 -42.2891v-552.212c0 -28.3418 -14.1709 -42.5127 -42.5127 -42.5127h-21.1436c-28.3418 0 -42.5127 14.1709 -42.5127 42.5127v249.451c0 14.1709 -6.97266 21.1436 -21.1436 21.1436h-63.6562
c-14.1709 0 -21.1436 -6.97266 -21.1436 -21.1436v-249.451c0 -28.3418 -14.1709 -42.5127 -42.5127 -42.5127h-21.1436c-28.3418 0 -42.5127 14.1709 -42.5127 42.5127v552.212c0 28.3418 14.1709 42.5127 42.5127 42.5127h21.1436
c28.3418 0 42.5127 -14.3955 42.5127 -42.5117v-164.876c0 -14.1709 6.97266 -21.3691 21.1436 -21.3691h63.6562c14.1709 0 21.1436 7.19824 21.1436 21.3691v164.651c0 28.3418 14.1709 42.5127 42.5127 42.5127h21.1436z" />
    <glyph glyph-name="ocyrillic" unicode="&#x43e;" 
d="M334.364 607.035c20.2441 -20.2441 30.1416 -52.6348 30.3662 -97.1719v-382.162c0 -44.5371 -10.1221 -76.9277 -30.3662 -97.1719s-52.6348 -30.3662 -97.1719 -30.3662h-63.6562c-44.5371 0 -76.9277 10.1221 -97.1719 30.3662s-30.3662 52.6348 -30.3662 97.1719
v382.162c0 44.5371 10.1221 76.9277 30.3662 97.1719c20.2441 20.0195 52.6348 30.1416 97.1719 30.1416h63.6562c44.5371 0 76.9277 -9.89746 97.1719 -30.1416zM258.337 138.274v361.019c0 28.3418 -14.1709 42.5127 -42.5127 42.5127h-21.1436
c-28.3418 0 -42.5127 -14.1709 -42.5127 -42.5127v-361.019c0 -28.3418 14.1709 -42.5127 42.5127 -42.5127h21.1436c28.3418 0 42.5127 14.1709 42.5127 42.5127z" />
    <glyph glyph-name="pecyrillic" unicode="&#x43f;" 
d="M321.993 637.177c28.1162 0 42.2881 -14.1719 42.2881 -42.2881v-552.212c0 -28.3418 -14.1709 -42.5127 -42.5127 -42.5127h-21.1436c-28.3418 0 -42.5127 14.1709 -42.5127 42.5127v477.759c0 14.1709 -6.97266 21.1436 -21.1436 21.1436h-63.6562
c-14.1709 0 -21.1436 -6.97266 -21.1436 -21.1436v-477.983c0 -28.3418 -14.1709 -42.5127 -42.5127 -42.5127h-21.1436c-28.3418 0 -42.5127 14.1709 -42.5127 42.5127v552.212c0 28.3418 14.1709 42.5127 42.5127 42.5127h233.48z" />
    <glyph glyph-name="ercyrillic" unicode="&#x440;" 
d="M334.364 607.035c20.2441 -20.2441 30.3662 -52.6328 30.1416 -97.1699v-382.162c0 -44.5371 -10.1221 -76.9277 -30.3662 -97.1719s-52.6348 -30.3662 -97.1719 -30.3662h-63.6562c-14.1709 0 -21.1436 -6.97266 -21.1436 -21.1436v-95.5967
c0 -28.3418 -14.1709 -42.5127 -42.5127 -42.5127h-21.1436c-28.3418 0 -42.5127 14.1709 -42.5127 42.5127v711.239c0 28.3418 14.1709 42.5127 42.5127 42.5127h148.681c44.5371 0 76.9277 -9.89746 97.1719 -30.1416zM258.562 138.276v360.793
c0 28.3418 -14.1709 42.5127 -42.5127 42.5127h-42.5127c-14.1709 0 -21.1436 -6.97266 -21.1436 -21.1436v-407.805c0.674805 -11.2471 7.64746 -16.8701 21.1436 -16.8701h42.5127c28.3418 0 42.5127 14.1709 42.5127 42.5127z" />
    <glyph glyph-name="escyrillic" unicode="&#x441;" horiz-adv-x="410" 
d="M300.625 377.153c-28.3418 0 -42.5137 14.1719 -42.2891 42.5137v79.626c0 28.3418 -14.1709 42.5127 -42.5127 42.5127h-21.1436c-28.3418 0 -42.5127 -14.1709 -42.5127 -42.5127v-361.019c0 -28.3418 14.1709 -42.5127 42.5127 -42.5127h116.74
c28.3418 0 42.5127 -14.1709 42.5127 -42.5127v-10.5723c0 -28.3418 -14.3955 -42.5127 -42.5117 -42.5127h-138.109c-44.5371 0 -76.9277 10.1221 -97.1719 30.3662c-20.0195 20.2441 -30.1416 52.6348 -30.1416 97.1719v382.162
c0 44.5371 9.89746 76.9277 30.1416 97.1719c20.2441 20.0195 52.6348 30.1416 97.1719 30.1416h63.6562c44.5371 0 76.9277 -9.89746 97.1719 -30.1416c20.0195 -20.2441 30.1416 -52.6348 30.1416 -97.1719v-90.1982c0 -28.3418 -14.1709 -42.5127 -42.5127 -42.5127
h-21.1436z" />
    <glyph glyph-name="tecyrillic" unicode="&#x442;" horiz-adv-x="366" 
d="M343.362 637.177c14.1709 0 21.3682 -6.97266 21.1436 -21.1436v-53.3096c0 -14.1709 -7.19824 -21.1436 -21.3691 -21.1436h-63.6562c-14.1709 0 -21.1436 -6.97266 -21.1436 -21.1436v-477.533c0 -28.3418 -14.1709 -42.5127 -42.5127 -42.5127h-21.1436
c-28.3418 0 -42.5127 14.1709 -42.5127 42.5127v477.759c0 14.1709 -6.97266 21.1436 -21.1436 21.1436h-63.6562c-14.3955 0 -21.3682 6.97266 -21.3682 21.1436v53.084c0 14.1709 7.19824 21.1436 21.3691 21.1436h275.993z" />
    <glyph glyph-name="ucyrillic" unicode="&#x443;" 
d="M321.993 637.177c28.3418 0 42.5107 -14.1729 42.5107 -42.2891v-616.093c0 -25.6426 -2.47461 -45.4365 -7.42285 -60.0576c-5.17383 -14.3955 -12.5967 -26.7666 -22.9434 -37.1133c-10.1221 -10.3467 -23.3936 -19.5693 -39.8135 -28.1172
c-16.4199 -8.32227 -35.5391 -19.3438 -57.3574 -32.8398l-5.39844 -3.14941c-24.0684 -14.8457 -42.7383 -9.44727 -56.2344 15.9697l-9.44727 16.8701c-13.4961 24.9678 -7.87305 44.3125 16.8701 58.4834l32.8398 19.1191
c9.89746 5.84863 19.7949 13.2715 29.6924 22.9434c9.89746 9.44727 14.3965 20.2441 12.8223 32.3906c-0.674805 11.2471 -7.64746 16.8701 -21.1436 16.8701h-63.6562c-44.5371 0 -76.9277 10.1221 -97.1719 30.3662c-20.0195 20.2441 -30.1416 52.6348 -30.1416 97.1719
v467.187c0 28.3418 14.1709 42.5127 42.5127 42.5127h21.1436c28.3418 0 42.5127 -14.3955 42.5127 -42.5117v-456.615c0 -28.3418 14.1709 -42.5127 42.5127 -42.5127h42.5127c13.2715 0 20.4697 5.62305 21.1445 16.8701v482.032
c0 28.3418 14.1709 42.5127 42.5127 42.5127h21.1436z" />
    <glyph glyph-name="efcyrillic" unicode="&#x444;" horiz-adv-x="580" 
d="M503.965 607.035c20.2441 -20.2441 30.3662 -52.6348 30.1416 -97.1719v-382.162c0 -44.5371 -10.1221 -76.9277 -30.1416 -97.1719c-20.2441 -20.2441 -52.6348 -30.3662 -97.1719 -30.3662h-42.5127c-14.1709 0 -21.1436 -6.97266 -21.1436 -21.1436v-95.5967
c0 -28.3418 -14.1709 -42.5127 -42.5127 -42.5127h-21.1436c-28.3418 0 -42.5127 14.1709 -42.5127 42.5127v95.5967c0 14.1709 -6.97266 21.1436 -21.1436 21.1436h-42.5127c-44.5371 0 -76.9277 10.1221 -97.1719 30.3662
c-20.0195 20.2441 -30.1416 52.6348 -30.1416 97.1719v382.162c0 44.5371 9.89746 76.9277 30.1416 97.1719c20.2441 20.0195 52.6348 30.1416 97.1719 30.1416h42.5127c14.1709 0 21.1436 7.19824 21.1436 21.3691v95.5967c0 28.3418 14.1709 42.5127 42.5127 42.5127
h21.1436c28.3418 0 42.5127 -14.1709 42.5127 -42.5127v-95.5967c0 -14.1709 6.97266 -21.3691 21.1436 -21.3691h42.5127c44.5371 0 76.9277 -9.89746 97.1719 -30.1416zM236.969 112.856l-0.000976562 407.805c0 14.1709 -6.97266 21.1436 -21.1436 21.1436h-21.1436
c-28.3418 0 -42.5127 -14.1709 -42.5127 -42.5127v-360.793c0 -28.3418 14.1709 -42.5127 42.5127 -42.5127h21.1436c11.9219 0 19.1201 5.62305 21.1445 16.8701zM428.161 138.274v360.793c0 28.3418 -14.1709 42.5127 -42.5127 42.5127h-21.1436
c-14.1709 0 -21.1436 -6.97266 -21.1436 -21.1436v-407.805c0 -11.2471 6.97266 -16.8701 21.1436 -16.8701h21.1436c28.3418 0 42.5127 14.1709 42.5127 42.5127z" />
    <glyph glyph-name="khacyrillic" unicode="&#x445;" horiz-adv-x="428" 
d="M275.389 313.497l103.918 -270.598c4.94824 -13.9463 3.59863 -24.7432 -3.82422 -31.7158s-16.8701 -10.5713 -28.1172 -10.5713h-21.1436c-29.0166 0 -47.2363 13.2715 -54.209 40.2637l-14.8457 55.1084c-7.87305 24.0684 -15.0713 48.1367 -21.8193 72.2051
s-13.7207 48.5859 -20.6934 73.3291c-6.97266 -24.9678 -13.9453 -49.2607 -20.6934 -73.3291s-13.9463 -48.1367 -21.8193 -72.2041l-14.8457 -55.1084c-4.94824 -13.4961 -11.2461 -23.6182 -19.1191 -30.3662s-19.5693 -10.1221 -35.0898 -10.1221h-21.3691
c-11.2471 0 -20.6943 3.37402 -28.1172 10.5723c-7.42285 6.97266 -8.54785 17.5449 -3.59961 31.7158l103.02 270.819c4.27344 13.4961 4.27344 26.9922 0 40.4883l-92.4473 240.903c-4.94824 14.1709 -3.82324 24.7432 3.59961 31.7158s16.8701 10.5713 28.1172 10.5713
h21.1436c14.8457 0 26.3174 -3.14941 34.415 -9.44727s14.6211 -16.6445 19.5693 -30.8154l14.8457 -55.334c6.29785 -18.4443 11.6963 -37.5635 16.4199 -56.9082c4.49902 -19.3447 9.67285 -38.6895 15.2959 -57.8086c5.62305 19.1191 10.7969 38.4639 15.2959 57.8086
c4.49902 19.5693 10.1221 38.4639 16.4199 56.9082l14.8457 55.334c4.94824 13.2715 11.2461 23.3936 19.1191 30.1416s19.5693 10.1221 35.0898 10.1221h21.3691c11.2471 0 20.6943 -3.59863 28.1172 -10.5713s8.54785 -17.5449 3.59961 -31.7158l-92.4473 -240.903
c-4.27344 -13.4961 -4.27344 -26.9922 0 -40.4883z" />
    <glyph glyph-name="tsecyrillic" unicode="&#x446;" horiz-adv-x="464" 
d="M385.649 95.7617c21.1436 0 31.9414 -14.1719 32.166 -42.5137v-127.312c0 -28.3418 -14.1709 -42.5127 -42.5127 -42.5127h-10.5723c-28.3418 0 -42.5127 14.3955 -42.5127 42.5117v53.084c0 14.1709 -6.97266 21.1436 -21.1436 21.1436h-212.337
c-28.3418 0 -42.5127 14.1709 -42.5127 42.5127v552.212c0 28.3418 14.1709 42.5127 42.5127 42.5127h21.1436c28.3418 0 42.5127 -14.3955 42.5127 -42.5117v-477.759c0 -14.1709 6.97266 -21.1436 21.1436 -21.1436h63.6562c14.1709 0 21.1436 6.97266 21.1436 21.1436
v477.759c0 28.3418 14.1709 42.5127 42.5127 42.5127h21.1436c28.3418 0 42.5127 -14.3955 42.5127 -42.5117v-477.983c0 -14.1709 6.97266 -21.1436 21.1436 -21.1436z" />
    <glyph glyph-name="checyrillic" unicode="&#x447;" 
d="M321.993 637.177c28.1162 0 42.2881 -14.1738 42.2881 -42.29v-551.986c0 -28.3418 -14.1709 -42.5127 -42.5127 -42.5127h-21.1436c-28.3418 0 -42.5127 14.1709 -42.5127 42.5127v121.014c-0.674805 11.4717 -7.64746 17.0947 -21.1436 17.0947h-63.6562
c-44.5371 0 -76.9277 9.89746 -97.1719 30.1416c-20.0195 20.2441 -30.1416 52.6348 -30.1416 97.1719v286.565c0 28.3418 14.1709 42.5127 42.5127 42.5127h21.1436c28.3418 0 42.5127 -14.3955 42.5127 -42.5117v-276.218c0 -28.3418 14.1709 -42.5127 42.5127 -42.5127
h42.5127c13.4961 0 20.4688 5.62305 21.1436 17.0947v301.411c0 28.3418 14.1709 42.5127 42.5127 42.5127h21.1436z" />
    <glyph glyph-name="shacyrillic" unicode="&#x448;" horiz-adv-x="581" 
d="M491.818 637.177c28.3418 0 42.5127 -14.1738 42.7373 -42.29v-552.212c0 -28.3418 -14.1709 -42.5127 -42.5127 -42.5127h-403.306c-28.3418 0 -42.5127 14.1709 -42.5127 42.5127v552.212c0 28.3418 14.1709 42.5127 42.5127 42.5127h21.1436
c28.3418 0 42.5127 -14.3955 42.5127 -42.5117v-477.759c0 -14.1709 6.97266 -21.1436 21.1436 -21.1436h42.5127c14.1709 0 21.1436 6.97266 21.1436 21.1436v477.759c0 28.3418 14.1709 42.5127 42.5127 42.5127h21.1436c28.3418 0 42.5127 -14.3955 42.5127 -42.5117
v-477.983c0 -14.1709 6.97266 -21.1436 21.1436 -21.1436h42.5127c14.1709 0 21.1436 6.97266 21.1436 21.1436v477.759c0 28.3418 14.1709 42.5127 42.5127 42.5127h21.1436z" />
    <glyph glyph-name="shchacyrillic" unicode="&#x449;" horiz-adv-x="587" 
d="M555.474 95.7617c21.1436 0 31.7158 -14.1729 32.166 -42.5146v-127.312c0 -28.3418 -14.1709 -42.5127 -42.5127 -42.5127h-10.5723c-28.3418 0 -42.5127 14.3955 -42.5127 42.5117v53.084c0 14.1709 -6.97266 21.1436 -21.1436 21.1436h-382.162
c-28.3418 0 -42.5127 14.1709 -42.5127 42.5127v552.212c0 28.3418 14.1709 42.5127 42.5127 42.5127h21.1436c28.3418 0 42.5127 -14.3955 42.5127 -42.5117v-477.759c0 -14.1709 6.97266 -21.1436 21.1436 -21.1436h42.5127c14.1709 0 21.1436 6.97266 21.1436 21.1436
v477.759c0 28.3418 14.1709 42.5127 42.5127 42.5127h21.1436c28.3418 0 42.5127 -14.3955 42.5127 -42.5117v-477.759c0 -14.1709 6.97266 -21.1436 21.1436 -21.1436h42.5127c14.1709 0 21.1436 6.97266 21.1436 21.1436v477.759
c0 28.3418 14.1709 42.5127 42.5127 42.5127h21.1436c28.3418 0 42.5127 -14.3955 42.5127 -42.5117v-477.983c0 -14.1709 6.97266 -21.1436 21.1436 -21.1436z" />
    <glyph glyph-name="hardsigncyrillic" unicode="&#x44a;" horiz-adv-x="517" 
d="M440.758 378.729c20.0195 -20.0195 30.1406 -52.4092 30.5908 -97.1709v-153.63c0 -44.5371 -10.3467 -76.9277 -30.3662 -97.1719c-20.2441 -20.2441 -52.6348 -30.3662 -97.1719 -30.3662h-148.681c-28.3418 0 -42.5127 14.1709 -42.5127 42.5127v477.759
c0 14.1709 -6.97266 21.1436 -21.1436 21.1436h-42.5127c-28.3418 0 -42.5127 14.1709 -42.5127 42.5127v10.5723c0 28.3418 14.1709 42.5127 42.5127 42.5127h127.312c28.3418 0 42.5127 -14.3955 42.5127 -42.5117v-164.651c0 -14.1709 6.97266 -21.3691 21.1436 -21.3691
h63.6562c44.5371 0 76.9277 -9.89746 97.1719 -30.1416zM364.729 138.275l0.000976562 132.485c0 28.3418 -14.1709 42.5127 -42.5127 42.5127h-42.5127c-13.2715 0 -20.4697 -5.62305 -21.1445 -16.8701v-179.497c0 -14.1709 6.97266 -21.1436 21.1436 -21.1436h42.5127
c28.3418 0 42.5127 14.1709 42.5127 42.5127z" />
    <glyph glyph-name="yericyrillic" unicode="&#x44b;" horiz-adv-x="581" 
d="M237.193 409.094c44.5371 0 76.9277 -10.1211 97.3965 -30.3652c20.0195 -20.2441 30.1416 -52.6348 30.1416 -97.1719v-153.854c0 -44.5371 -9.89746 -76.9277 -30.1416 -97.1719s-52.6348 -30.3662 -97.1719 -30.3662h-148.681
c-28.3418 0 -42.5127 14.1709 -42.5127 42.5127v552.212c0 28.3418 14.1709 42.5127 42.5127 42.5127h21.1436c28.3418 0 42.5127 -14.3955 42.5127 -42.5117v-164.427c0 -14.1709 6.97266 -21.3691 21.1436 -21.3691h63.6562zM258.337 138.275v132.485
c0 28.3418 -14.1709 42.5127 -42.5127 42.5127h-42.5127c-13.4961 0 -20.4688 -5.62305 -21.1436 -16.8701v-179.497c0 -14.1709 6.97266 -21.1436 21.1436 -21.1436h42.5127c28.3418 0 42.5127 14.1709 42.5127 42.5127zM492.043 637.177
c28.3418 0 42.5127 -14.1719 42.5127 -42.2881v-552.437c0 -28.3418 -14.1709 -42.5127 -42.5127 -42.5127h-21.1436c-28.3418 0 -42.5127 14.1709 -42.5127 42.5127v552.212c0 28.3418 14.1709 42.5127 42.5127 42.5127h21.1436z" />
    <glyph glyph-name="softsigncyrillic" unicode="&#x44c;" 
d="M334.364 378.729c20.0195 -20.0195 30.1416 -52.4092 30.3662 -97.1709v-153.854c0 -44.5371 -9.89746 -76.9277 -30.1416 -97.1719s-52.6348 -30.3662 -97.1719 -30.3662h-148.681c-28.3418 0 -42.5127 14.1709 -42.5127 42.5127v552.212
c0 28.3418 14.1709 42.5127 42.5127 42.5127h21.1436c28.3418 0 42.5127 -14.3955 42.5127 -42.5117v-164.651c0 -14.1709 6.97266 -21.3691 21.1436 -21.3691h63.6562c44.5371 0 76.9277 -9.89746 97.1719 -30.1416zM258.337 138.275l0.000976562 132.485
c0 28.3418 -14.1709 42.5127 -42.5127 42.5127h-42.5127c-13.2715 0 -20.4697 -5.62305 -21.1445 -16.8701v-179.497c0 -14.1709 6.97266 -21.1436 21.1436 -21.1436h42.5127c28.3418 0 42.5127 14.1709 42.5127 42.5127z" />
    <glyph glyph-name="ereversedcyrillic" unicode="&#x44d;" 
d="M334.364 607.035c20.2441 -20.2441 30.3672 -52.6357 30.5918 -97.1729v-382.162c0 -44.5371 -10.3467 -76.9277 -30.3662 -97.1719c-20.2441 -20.2441 -52.6348 -30.3662 -97.1719 -30.3662h-138.109c-28.3418 0 -42.5127 14.1709 -42.5127 42.5127v10.5723
c0 28.3418 14.1709 42.5127 42.5127 42.5127h116.74c28.3418 0 42.5127 14.1709 42.5127 42.5127v58.4824c0 14.1709 -6.97266 21.1436 -21.1436 21.1436h-53.084c-28.3418 0 -42.5127 14.1709 -42.5127 42.5127v10.5723c0 28.3418 14.1709 42.5127 42.5127 42.5127h53.084
c14.1709 0 21.1436 6.97266 21.1436 21.1436v164.651c0 28.3418 -14.1709 42.5127 -42.5127 42.5127h-21.3691c-28.3418 0 -42.5127 -14.1709 -42.5127 -42.5127v-79.626c0 -28.3418 -14.1709 -42.5127 -42.5127 -42.5127h-21.1436
c-28.3418 0 -42.5127 14.1709 -42.5127 42.5127v90.1982c0 44.5371 10.1221 76.9277 30.3662 97.1719c20.2441 20.0195 52.6348 30.1416 97.1719 30.1416h63.6562c44.5371 0 76.9277 -9.89746 97.1719 -30.1416z" />
    <glyph glyph-name="iucyrillic" unicode="&#x44e;" horiz-adv-x="592" 
d="M514.986 607.035c20.2441 -20.2441 30.3662 -52.6357 30.3662 -97.1729v-382.387c0 -44.5371 -10.1221 -76.9277 -30.3662 -97.1719s-52.6348 -30.3662 -97.1719 -30.3662h-63.8809c-44.5371 0 -76.9277 10.1221 -97.1719 30.3662s-30.3662 52.6348 -30.3662 97.1719
v164.651c0 14.1709 -6.97266 21.1436 -21.1436 21.1436h-31.9404c-14.1709 0 -21.1436 -6.97266 -21.1436 -21.1436v-249.451c0 -28.3418 -14.1709 -42.5127 -42.5127 -42.5127h-21.1436c-28.3418 0 -42.5127 14.1709 -42.5127 42.5127v552.212
c0 28.3418 14.1709 42.5127 42.5127 42.5127h21.1436c28.3418 0 42.5127 -14.3955 42.5127 -42.5117v-164.651c0 -14.1709 6.97266 -21.3691 21.1436 -21.3691h31.9404c14.1709 0 21.1436 7.19824 21.1436 21.3691v79.626c0 44.5371 10.1221 76.9277 30.3662 97.1719
c20.2441 20.0195 52.6348 30.1416 97.1719 30.1416h63.8809c44.5371 0 76.9277 -9.89746 97.1719 -30.1416zM439.184 138.273v361.018c0 28.3418 -14.1709 42.5127 -42.5127 42.5127h-21.1436c-28.3418 0 -42.5127 -14.1709 -42.5127 -42.5127v-361.018
c0 -28.3418 14.1709 -42.5127 42.5127 -42.5127h21.1436c28.3418 0 42.5127 14.1709 42.5127 42.5127z" />
    <glyph glyph-name="iacyrillic" unicode="&#x44f;" horiz-adv-x="429" 
d="M339.54 637.177c28.3418 0 42.5156 -14.1748 42.0654 -42.291v-552.437c0 -28.3418 -14.1709 -42.5127 -42.5127 -42.5127h-21.1436c-28.3418 0 -42.5127 14.1709 -42.5127 42.5127v164.651c0 13.4961 -4.04883 20.2441 -12.5967 20.2441
c-5.62305 0 -10.1221 -1.57422 -13.2715 -5.17285s-5.84863 -8.32227 -7.87305 -13.9453l-81.6504 -167.575c-6.52344 -13.4961 -13.7217 -23.6182 -21.8193 -30.3662c-8.32227 -6.74805 -20.9189 -10.1221 -37.7891 -10.1221h-19.1191
c-11.2471 0 -20.6943 3.82422 -28.5674 11.6973s-8.77246 17.9951 -3.14941 30.8164l89.0732 191.193c-26.0918 6.97266 -45.2109 20.2441 -57.3574 39.8135c-11.9219 19.5693 -17.9951 47.0107 -17.9951 82.3252v153.854c0 44.5371 10.1221 76.9277 30.3662 97.1719
c20.2441 20.0195 52.6348 30.1416 97.1719 30.1416h148.681zM275.662 341.16v179.723c0 14.1709 -6.97266 21.1436 -21.1436 21.1436h-42.5127c-28.1162 0 -42.2871 -14.1709 -42.2871 -42.5127v-132.711c0 -28.3418 14.1709 -42.5127 42.2871 -42.5127h42.5127
c14.1709 0 21.1436 5.62305 21.1436 16.8701z" />
    <glyph glyph-name="iocyrillic" unicode="&#x451;" 
d="M257.213 690.261c-22.7188 0 -33.9658 11.4717 -33.9658 34.1904v16.8701c0 22.7188 11.2471 33.9658 33.9658 33.9658h17.0947c22.7188 0 33.9658 -11.2471 33.9658 -33.9658v-17.0947c0 -22.7188 -11.2471 -33.9658 -33.9658 -33.9658h-17.0947zM173.312 186.185
c-14.1709 0 -21.3691 -7.19727 -21.3691 -21.3682v-26.542c0 -28.3418 14.1709 -42.5127 42.5127 -42.5127h116.74c28.3418 0 42.5127 -14.1709 42.5127 -42.5127v-10.5723c0 -28.3418 -14.1709 -42.5127 -42.5127 -42.5127h-137.884
c-44.5371 0 -76.9277 10.1221 -97.1719 30.3662c-20.0195 20.2441 -30.1416 52.6348 -30.1416 97.1719v382.162c0 44.5371 9.89746 76.9277 30.1416 97.1719c20.2441 20.0195 52.6348 30.1416 97.1719 30.1416h63.6562c44.5371 0 76.9277 -9.89746 97.1719 -30.1416
s30.3662 -52.6348 30.3662 -97.1719v-196.142c0 -44.5371 -10.1221 -76.9277 -30.3662 -97.1719s-52.6348 -30.3662 -97.1719 -30.3662h-63.6562zM151.943 499.293h0.225586v-196.367c0 -14.1709 6.97266 -21.3691 21.1436 -21.3691h63.6562
c14.1709 0 21.1436 7.19824 21.1436 21.3691v196.367c0 28.3418 -14.1709 42.5127 -42.5127 42.5127h-21.1436c-28.3418 0 -42.5127 -14.1709 -42.5127 -42.5127zM129.676 690.262c-22.4932 0 -33.9658 11.4717 -33.9658 34.1904v16.8701
c0 22.7188 11.2471 33.9658 33.9658 33.9658h16.8701c22.7188 0 33.9658 -11.2471 33.9658 -33.9658v-17.0947c0 -22.7188 -11.2471 -33.9658 -33.9658 -33.9658h-16.8701z" />
    <glyph glyph-name="Aybarmenian" unicode="&#x531;" horiz-adv-x="446" 
d="M427.487 99.1357c24.5176 -14.1709 29.915 -33.5166 15.7441 -58.0342l-10.5723 -18.4443c-14.1709 -24.5176 -33.5156 -29.6914 -58.0332 -15.5205l-39.3633 22.7188v-0.224609c-20.2441 -20.0195 -52.8594 -30.1416 -97.3965 -30.1416h-63.8809
c-44.7617 0 -77.1523 9.89746 -97.3965 30.1416s-30.3662 52.6348 -30.3662 97.1719v572.681c0 28.3418 14.1709 42.5127 42.5127 42.5127h21.3691c28.3418 0 42.5127 -14.1709 42.5127 -42.5127v-562.108c0 -28.3418 14.1709 -42.5127 42.5127 -42.5127h21.3691
c28.3418 0 42.5127 14.1709 42.5127 42.5127v562.108c0 28.3418 14.1709 42.5127 42.5127 42.5127h21.1436c28.3418 0 42.5127 -14.1709 42.5127 -42.5127v-564.583z" />
    <glyph glyph-name="Benarmenian" unicode="&#x532;" 
d="M301.524 323.619c-28.3418 0 -42.5107 13.9453 -42.9609 42.2871v237.979c0 28.3418 -14.1709 42.5127 -42.5127 42.5127h-21.3691c-28.3418 0 -42.5127 -14.1709 -42.5127 -42.5127v-373.39c0 -14.1709 6.97266 -21.1436 21.1436 -21.1436h148.906
c28.3418 0 42.5127 -14.3955 42.5127 -42.5117v-10.5723c0 -28.3418 -14.1709 -42.5127 -42.5127 -42.5127h-148.906c-14.1709 0 -21.1436 -6.97266 -21.1436 -21.1436v-50.6104c0 -28.1162 -14.1709 -42.2871 -42.5127 -42.2871h-21.1436
c-28.3418 0 -42.5127 13.9463 -42.5127 42.2881v572.681c0 44.3115 10.1221 76.7021 30.3662 96.9463c20.2441 20.0195 52.8594 30.1416 97.3965 30.1416h63.8809c44.7617 0 77.1523 -9.89746 97.3965 -30.1416c20.2441 -20.0195 30.3662 -52.4102 30.3662 -96.9473
v-248.776c0 -28.1162 -14.1709 -42.2871 -42.5127 -42.2871h-21.3691z" />
    <glyph glyph-name="Gimarmenian" unicode="&#x533;" horiz-adv-x="469" 
d="M431.985 209.128c28.3418 0 42.5117 -14.1729 42.5117 -42.2891v-10.5723c0 -28.3418 -14.1709 -42.5127 -42.5127 -42.5127h-45.4365c-14.3955 0 -21.3682 -6.97266 -21.3682 -21.1436v-50.3848c0 -28.1162 -14.1709 -42.2871 -42.5127 -42.2871h-21.3691
c-28.3418 0 -42.5127 13.9463 -42.5127 42.2881v50.6104c0 14.1709 -7.19824 21.1436 -21.3691 21.1436h-63.2061c-44.7617 0 -77.1523 9.89746 -97.3965 30.1416c-20.2441 20.0195 -30.3662 52.4102 -30.3662 96.9473v35.3145
c-0.224609 2.69922 -0.449219 86.5996 -0.449219 89.5234v248.776c0 44.3115 10.1221 76.7021 30.3662 96.9463c20.0195 20.0195 52.4102 30.1416 97.1719 30.1416h63.8809c44.7617 0 77.1523 -9.89746 97.3965 -30.1416
c20.2441 -20.0195 30.3662 -52.4102 30.3662 -96.9473v-384.411c0 -14.1709 7.19824 -21.1436 21.3691 -21.1436h45.4365zM258.786 230.495l-0.223633 -0.000976562v373.39c0 28.3418 -14.1709 42.5127 -42.5127 42.5127h-21.1436
c-28.3418 0 -42.5127 -14.1709 -42.5127 -42.5127v-237.979c0 -2.92383 0 -86.8242 -0.450195 -89.5234v-24.7422c0 -28.1162 15.0703 -42.2871 43.4121 -42.2871h42.0625c14.3955 0 21.3682 6.97266 21.3682 21.1436z" />
    <glyph glyph-name="Daarmenian" unicode="&#x534;" horiz-adv-x="473" 
d="M431.985 209.128c28.5664 0 42.7393 -14.1719 42.0645 -42.2881v-10.5723c0 -28.3418 -14.1709 -42.5127 -42.5127 -42.5127h-45.4365c-14.1709 0 -21.1436 -6.97266 -21.1436 -21.1436v-50.835c0 -28.1162 -14.1709 -42.2871 -42.5127 -42.2871h-21.3691
c-28.3418 0 -42.5127 13.9463 -42.5127 42.2881v562.108c0 28.3418 -14.1709 42.5127 -42.5127 42.5127h-21.1436c-28.3418 0 -42.5127 -14.1709 -42.5127 -42.5127v-237.979c0 -28.1162 -14.1709 -42.2871 -42.5127 -42.2871h-21.3691
c-28.3418 0 -42.5127 13.9463 -42.5127 42.2881v248.776c0 44.3115 10.1221 76.7021 30.3662 96.9463c20.2441 20.0195 52.6348 30.1416 97.3965 30.1416h63.8809c44.7617 0 77.1523 -9.89746 97.3965 -30.1416c20.2441 -20.0195 30.3662 -52.4102 30.3662 -96.9473
v-384.411c0 -14.1709 6.97266 -21.1436 21.1436 -21.1436h45.4365z" />
    <glyph glyph-name="Echarmenian" unicode="&#x535;" 
d="M173.762 484.222c-14.1709 0 -21.3701 -6.97266 -21.1455 -21.1436v-325.703c0 -28.3418 14.1709 -42.5127 42.5127 -42.5127h21.3691c28.3418 0 42.5127 14.1709 42.5127 42.5127v143.732c0 28.3418 14.1709 42.5127 42.5127 42.5127h21.1436
c28.3418 0 42.5127 -14.1709 42.5127 -42.5127v-154.305c0 -44.7617 -10.1221 -76.9268 -30.3662 -97.1709c-20.0195 -20.0195 -52.6348 -30.1416 -97.1719 -30.1416h-63.8809c-44.7617 0 -77.1523 9.89746 -97.3965 30.1416s-30.3662 52.6348 -30.3662 97.1719v572.681
c0 28.3418 14.1709 42.5127 42.5127 42.5127h21.3691c28.3418 0 42.5127 -14.1709 42.5127 -42.5127v-98.7461c0 -14.1709 7.19824 -21.1436 21.3691 -21.1436h148.906c28.3418 0 42.5127 -13.9463 42.5127 -42.2881v-10.5723
c0 -28.3418 -14.1709 -42.5127 -42.5127 -42.5127h-148.906z" />
    </font>
</defs>
</svg>
