<svg id="Capa_1" enable-background="new 0 0 504.049 504.049" height="512" viewBox="0 0 504.049 504.049" width="512" xmlns="http://www.w3.org/2000/svg"><g fill="#65daf9"><path d="m496.549 166.825h-25.594c-4.143 0-7.5 3.358-7.5 7.5s3.357 7.5 7.5 7.5h7.737l-10.267 10.267c-2.929 2.929-2.929 7.678 0 10.606 1.465 1.464 3.385 2.197 5.304 2.197s3.839-.732 5.304-2.197l10.016-10.016v4.712c0 4.142 3.357 7.5 7.5 7.5s7.5-3.358 7.5-7.5v-23.07c0-4.141-3.357-7.499-7.5-7.499z"/><path d="m144.921 441.085h-7.738l10.266-10.267c2.929-2.929 2.929-7.678 0-10.606-2.929-2.929-7.678-2.929-10.606 0l-10.016 10.016v-4.713c0-4.142-3.358-7.5-7.5-7.5s-7.5 3.358-7.5 7.5v23.07c0 4.142 3.358 7.5 7.5 7.5h25.594c4.142 0 7.5-3.358 7.5-7.5s-3.358-7.5-7.5-7.5z"/><path d="m496.549 418.015c-4.143 0-7.5 3.358-7.5 7.5v4.712l-10.016-10.016c-2.93-2.929-7.678-2.929-10.607 0s-2.929 7.678 0 10.606l10.267 10.267h-7.737c-4.143 0-7.5 3.358-7.5 7.5s3.357 7.5 7.5 7.5h25.594c4.143 0 7.5-3.358 7.5-7.5v-23.07c-.001-4.141-3.358-7.499-7.501-7.499z"/></g><path d="m156.755 325.57h-137.413c-10.682 0-19.342-8.659-19.342-19.341v-238.923c0-10.682 8.66-19.342 19.342-19.342h378.269c10.682 0 19.342 8.66 19.342 19.342v144.158 114.106z" fill="#e5eef8"/><path d="m178.377 193.464c-21.882 0-39.621 17.739-39.621 39.621v23.379c0 8.954-9.483 14.629-17.443 10.527-46.022-23.714-77.497-71.695-77.497-127.033v-89.714c0-1.259-1.021-2.28-2.28-2.28h-19.915c-11.941 0-21.621 9.68-21.621 21.621v234.364c0 11.941 9.68 21.621 21.621 21.621h117.134 18 257.917c1.259 0 2.28-1.021 2.28-2.28v-40.505-71.322-15.72c0-1.259-1.021-2.28-2.28-2.28h-236.295z" fill="#c5e1ff"/><path d="m152.421 174.325c0-4.142-3.358-7.5-7.5-7.5h-25.594c-4.142 0-7.5 3.358-7.5 7.5v23.07c0 4.142 3.358 7.5 7.5 7.5s7.5-3.358 7.5-7.5v-4.713l10.016 10.016c1.464 1.465 3.384 2.197 5.303 2.197s3.839-.732 5.303-2.197c2.929-2.929 2.929-7.678 0-10.606l-10.266-10.267h7.738c4.142 0 7.5-3.358 7.5-7.5z" fill="#65daf9"/><path d="m397.611 47.964h-378.269c-10.682 0-19.342 8.66-19.342 19.342v18.161h416.952v-18.161c0-10.682-8.659-19.342-19.341-19.342z" fill="#34d0e0"/><path d="m43.816 47.964h-24.474c-2.003 0-3.935.304-5.752.87-6.057 1.884-10.837 6.664-12.72 12.72-.566 1.817-.87 3.749-.87 5.752v18.161h43.816z" fill="#16c6db"/><circle cx="31.9" cy="66.688" fill="#f93442" r="7.107"/><circle cx="57.575" cy="66.688" fill="#fcb64d" r="7.107"/><circle cx="83.25" cy="66.688" fill="#05f2a7" r="7.107"/><path d="m437.78 411.447h-261.683c-10.682 0-19.342-8.66-19.342-19.342v-161.3c0-10.682 8.66-19.342 19.342-19.342h261.683c10.682 0 19.342 8.66 19.342 19.342v161.3c-.001 10.682-8.66 19.342-19.342 19.342z" fill="#e5eef8"/><path d="m310.811 366.937c-63.342 0-114.692-51.349-114.692-114.692v-40.782h-20.022c-10.682 0-19.342 8.66-19.342 19.342v161.3c0 10.682 8.66 19.342 19.342 19.342h261.683c10.682 0 19.342-8.66 19.342-19.342v-25.169h-146.311z" fill="#d5e2f3"/><path d="m437.78 211.464h-261.683c-10.682 0-19.342 8.66-19.342 19.342v17.674h300.366v-17.674c0-10.683-8.659-19.342-19.341-19.342z" fill="#fd6773"/><path d="m196.119 211.464h-20.022c-2.003 0-3.935.304-5.752.87-7.873 2.449-13.59 9.793-13.59 18.472v17.674h39.364z" fill="#fc4d5a"/><circle cx="179.735" cy="229.952" fill="#f93442" r="5.12"/><circle cx="198.231" cy="229.952" fill="#fcb64d" r="5.12"/><circle cx="216.727" cy="229.952" fill="#05f2a7" r="5.12"/><path d="m252.789 336.343h-63.436c-2.562 0-4.639-2.077-4.639-4.639v-52.799c0-2.562 2.077-4.639 4.639-4.639h63.436c2.562 0 4.639 2.077 4.639 4.639v52.799c0 2.562-2.077 4.639-4.639 4.639z" fill="#d5e2f3"/><path d="m189.353 336.343h43.484c-17.462-16.198-29.868-37.764-34.597-62.077h-8.887c-2.562 0-4.639 2.077-4.639 4.639v52.799c0 2.562 2.077 4.639 4.639 4.639z" fill="#b4ceeb"/><path d="m427.017 385.936h-135.52c-2.562 0-4.639-2.077-4.639-4.639v-31.45c0-2.562 2.077-4.639 4.639-4.639h135.52c2.562 0 4.639 2.077 4.639 4.639v31.45c.001 2.562-2.076 4.639-4.639 4.639z" fill="#6dd8e6"/><path d="m310.811 366.937c-8.216 0-16.227-.871-23.953-2.513v16.873c0 2.562 2.077 4.639 4.639 4.639h135.52c2.562 0 4.639-2.077 4.639-4.639v-14.36z" fill="#16c6db"/><path d="m320.26 297.238h-30.09c-1.829 0-3.312-1.483-3.312-3.312v-16.347c0-1.829 1.483-3.312 3.312-3.312h30.089c1.829 0 3.312 1.483 3.312 3.312v16.347c.001 1.829-1.482 3.312-3.311 3.312z" fill="#6dd8e6"/><path d="m428.344 297.238h-74.958c-1.829 0-3.312-1.483-3.312-3.312v-16.347c0-1.829 1.483-3.312 3.312-3.312h74.958c1.829 0 3.312 1.483 3.312 3.312v16.347c.001 1.829-1.482 3.312-3.312 3.312z" fill="#fdcf8a"/><path d="m385.858 328.599h-99c-4.143 0-7.5-3.358-7.5-7.5s3.357-7.5 7.5-7.5h99c4.143 0 7.5 3.358 7.5 7.5s-3.358 7.5-7.5 7.5z" fill="#d5e2f3"/><path d="m431.656 328.599h-22.666c-4.143 0-7.5-3.358-7.5-7.5s3.357-7.5 7.5-7.5h22.666c4.143 0 7.5 3.358 7.5 7.5s-3.357 7.5-7.5 7.5z" fill="#d5e2f3"/><path d="m195.29 373.072h-10.576c-4.142 0-7.5-3.358-7.5-7.5s3.358-7.5 7.5-7.5h10.576c4.142 0 7.5 3.358 7.5 7.5s-3.358 7.5-7.5 7.5z" fill="#b4ceeb"/><path d="m257.428 373.072h-42.542c-4.142 0-7.5-3.358-7.5-7.5s3.358-7.5 7.5-7.5h42.542c4.143 0 7.5 3.358 7.5 7.5s-3.357 7.5-7.5 7.5z" fill="#b4ceeb"/><path d="m128.573 293.359h-92.428c-3.86 0-6.989-3.129-6.989-6.989v-44.309c0-3.86 3.129-6.989 6.989-6.989h92.428c.977 0 1.769.792 1.769 1.769v54.75c-.001.976-.793 1.768-1.769 1.768z" fill="#fd6773"/><path d="m36.145 293.359h92.428c.977 0 1.769-.792 1.769-1.768v-23.771c-2.836.873-6.039.711-9.028-.829-15.637-8.057-29.588-18.922-41.202-31.919h-43.967c-3.86 0-6.989 3.129-6.989 6.989v44.309c0 3.86 3.129 6.989 6.989 6.989z" fill="#fc4d5a"/><path d="m381.114 173.013h-198.694c-2.62 0-4.744-2.124-4.744-4.744v-39.995c0-2.62 2.124-4.744 4.744-4.744h198.694c2.62 0 4.744 2.124 4.744 4.744v39.995c0 2.62-2.124 4.744-4.744 4.744z" fill="#fd6773"/><path d="m41.145 131.031h-9.245c-4.142 0-7.5-3.358-7.5-7.5s3.358-7.5 7.5-7.5h9.245c4.142 0 7.5 3.358 7.5 7.5s-3.358 7.5-7.5 7.5z" fill="#d5e2f3"/><path d="m31.9 131.031h9.245c.942 0 1.84-.181 2.671-.499v-14.003c-.831-.317-1.729-.499-2.671-.499h-9.245c-4.142 0-7.5 3.358-7.5 7.5s3.358 7.501 7.5 7.501z" fill="#b4ceeb"/><path d="m123.967 131.031h-61.397c-4.142 0-7.5-3.358-7.5-7.5s3.358-7.5 7.5-7.5h61.397c4.142 0 7.5 3.358 7.5 7.5s-3.358 7.5-7.5 7.5z" fill="#d5e2f3"/><path d="m123.967 160.05h-9.245c-4.142 0-7.5-3.358-7.5-7.5s3.358-7.5 7.5-7.5h9.245c4.142 0 7.5 3.358 7.5 7.5s-3.358 7.5-7.5 7.5z" fill="#d5e2f3"/><path d="m93.297 160.05h-61.397c-4.142 0-7.5-3.358-7.5-7.5s3.358-7.5 7.5-7.5h61.397c4.142 0 7.5 3.358 7.5 7.5s-3.358 7.5-7.5 7.5z" fill="#d5e2f3"/><path d="m31.9 160.05h13.33c-.693-4.924-1.136-9.928-1.313-15h-12.017c-4.142 0-7.5 3.358-7.5 7.5s3.358 7.5 7.5 7.5z" fill="#b4ceeb"/><path d="m41.145 189.863h-9.245c-4.142 0-7.5-3.358-7.5-7.5s3.358-7.5 7.5-7.5h9.245c4.142 0 7.5 3.358 7.5 7.5s-3.358 7.5-7.5 7.5z" fill="#b4ceeb"/><path d="m85.274 189.863h-22.704c-4.142 0-7.5-3.358-7.5-7.5s3.358-7.5 7.5-7.5h22.704c4.142 0 7.5 3.358 7.5 7.5s-3.358 7.5-7.5 7.5z" fill="#d5e2f3"/></svg>