<?xml version="1.0" encoding="UTF-8" standalone="no"?><!DOCTYPE svg PUBLIC "-//W3C//DTD SVG 1.1//EN" "http://www.w3.org/Graphics/SVG/1.1/DTD/svg11.dtd"><svg width="100%" height="100%" viewBox="0 0 240 240" version="1.1" xmlns="http://www.w3.org/2000/svg" xmlns:xlink="http://www.w3.org/1999/xlink" xml:space="preserve" xmlns:serif="http://www.serif.com/" style="fill-rule:evenodd;clip-rule:evenodd;stroke-linejoin:round;stroke-miterlimit:1.41421;"><g><g id="Group_52510"><path id="Path_104672" d="M80.4,140.885c0.438,-1.022 0.876,-2.337 1.314,-3.359c0.438,-1.315 0.73,-2.483 1.169,-3.798c0.653,-2.477 0.948,-5.034 0.876,-7.595l4.236,-4.235l27.604,27.604l-5.988,5.989l-20.01,-20.01c-0.253,1.398 -0.645,2.768 -1.168,4.089c-0.496,1.4 -1.081,2.766 -1.753,4.09l-6.28,-2.775Z" style="fill:#111;fill-rule:nonzero;"/><path id="Path_104673" d="M129.475,107.584c4.673,4.674 7.302,9.056 8.033,13.291c0.574,4.02 -0.781,8.083 -3.652,10.954c-2.871,2.871 -6.934,4.226 -10.954,3.652c-4.236,-0.73 -8.617,-3.359 -13.291,-8.033c-2.076,-2.058 -3.891,-4.364 -5.404,-6.865c-1.205,-2.029 -2.046,-4.253 -2.483,-6.573c-0.37,-2 -0.219,-4.063 0.438,-5.988c0.622,-1.914 1.671,-3.662 3.067,-5.112c2.777,-3.017 6.922,-4.399 10.954,-3.651c4.236,0.73 8.764,3.797 13.292,8.325Zm-6.135,6.134c-1.24,-1.294 -2.557,-2.514 -3.943,-3.651c-1.087,-0.895 -2.261,-1.678 -3.506,-2.337c-0.949,-0.486 -2.001,-0.736 -3.067,-0.73c-0.992,0.042 -1.932,0.46 -2.629,1.168c-0.676,0.719 -1.088,1.646 -1.168,2.629c-0.006,1.066 0.244,2.118 0.73,3.067c0.57,1.295 1.361,2.481 2.337,3.506c1.134,1.389 2.354,2.706 3.651,3.943c1.238,1.298 2.555,2.518 3.944,3.652c1.073,0.912 2.25,1.697 3.505,2.337c0.949,0.485 2.001,0.736 3.067,0.73c0.993,-0.043 1.933,-0.461 2.629,-1.169c0.677,-0.718 1.089,-1.645 1.169,-2.629c0.006,-1.066 -0.245,-2.118 -0.73,-3.067c-0.659,-1.244 -1.442,-2.419 -2.337,-3.505c-1.131,-1.392 -2.351,-2.709 -3.652,-3.944Z" style="fill:#111;fill-rule:nonzero;"/><path id="Path_104674" d="M141.889,73.845c1.315,0.73 3.068,1.607 4.674,2.629c1.753,0.876 3.506,2.045 5.404,3.067l5.697,3.067c1.898,1.023 3.651,1.899 5.404,2.775c-1.023,-1.606 -2.045,-3.505 -3.36,-5.404c-1.314,-1.898 -2.483,-3.943 -3.943,-5.988c-1.461,-2.045 -2.775,-3.944 -4.236,-5.988c-1.46,-2.045 -2.775,-3.944 -3.943,-5.697l6.426,-6.426c3.798,5.55 7.303,11.392 10.808,17.235c3.652,5.988 6.719,11.684 9.64,17.526l-5.696,5.697c-3.359,-1.607 -7.157,-3.36 -10.808,-5.258c-3.652,-1.899 -7.303,-3.798 -11.101,-5.843c1.899,3.652 3.798,7.303 5.989,10.955c2.19,3.651 3.651,7.156 5.404,10.662l-5.696,5.696c-5.697,-2.775 -11.539,-5.988 -17.527,-9.64c-5.989,-3.651 -11.831,-7.157 -17.235,-10.808l6.719,-6.719l5.696,3.944c2.045,1.461 3.943,2.775 6.134,4.09c2.045,1.46 4.09,2.629 5.989,3.943c1.77,1.202 3.625,2.276 5.55,3.213c-0.877,-1.752 -1.753,-3.505 -2.629,-5.55l-3.067,-5.696c-1.023,-1.899 -2.045,-3.798 -3.068,-5.404c-1.022,-1.607 -1.898,-3.359 -2.629,-4.674l5.404,-5.404Z" style="fill:#111;fill-rule:nonzero;"/><path id="Path_104675" d="M172.707,71.654c-3.143,-2.985 -5.025,-7.064 -5.258,-11.392c0.022,-1.815 0.42,-3.605 1.169,-5.258c0.713,-1.619 1.702,-3.101 2.921,-4.382c2.487,-2.769 6.064,-4.318 9.786,-4.236c4.126,0.323 7.962,2.267 10.662,5.404l1.168,1.169c0.419,0.371 0.766,0.817 1.023,1.314l-13.438,13.438c1.318,1.041 3.022,1.467 4.674,1.168c1.986,-0.455 3.777,-1.529 5.112,-3.067c1.052,-1.101 2.028,-2.273 2.921,-3.506c0.766,-1.039 1.404,-2.167 1.899,-3.359l5.55,4.09c-0.231,0.612 -0.525,1.2 -0.876,1.752l-1.315,2.191c-0.488,0.847 -1.076,1.631 -1.752,2.337c-0.603,0.845 -1.288,1.628 -2.045,2.337c-1.664,1.729 -3.649,3.118 -5.842,4.09c-1.841,0.806 -3.834,1.205 -5.843,1.168c-1.935,-0.071 -3.83,-0.569 -5.55,-1.46c-1.833,-1.015 -3.506,-2.295 -4.966,-3.798Zm11.539,-16.212c-0.525,-0.472 -1.116,-0.865 -1.753,-1.169c-0.654,-0.281 -1.341,-0.477 -2.045,-0.584c-0.695,-0.13 -1.414,-0.028 -2.044,0.292c-0.808,0.282 -1.517,0.789 -2.045,1.461c-0.582,0.609 -1.073,1.297 -1.461,2.045c-0.159,0.671 -0.256,1.355 -0.292,2.044c0.058,0.714 0.256,1.409 0.584,2.045c0.438,0.73 0.731,1.315 1.023,1.899l8.033,-8.033Z" style="fill:#111;fill-rule:nonzero;"/><path id="Path_104676" d="M216.232,27.837c1.533,1.543 2.815,3.318 3.798,5.258c0.88,1.769 1.33,3.721 1.314,5.696c0.066,1.918 -0.335,3.822 -1.168,5.551c-1.02,1.999 -2.351,3.823 -3.944,5.404c-0.709,0.757 -1.492,1.442 -2.337,2.044c-0.876,0.585 -1.752,1.461 -2.629,2.045l-2.629,1.753c-0.876,0.584 -1.606,1.022 -2.337,1.46l-29.211,-29.211l4.966,-7.011l10.37,10.37c0.711,-2.025 1.858,-3.87 3.359,-5.404c1.351,-1.344 2.935,-2.433 4.674,-3.213c1.651,-0.528 3.379,-0.775 5.112,-0.73c1.842,0.272 3.621,0.865 5.258,1.752c1.99,1.154 3.809,2.579 5.404,4.236Zm-6.134,5.842c-3.798,-3.797 -7.157,-4.235 -9.932,-1.46c-0.568,0.62 -1.058,1.306 -1.461,2.045c-0.413,0.623 -0.71,1.316 -0.876,2.044l10.808,10.809c0.292,-0.293 0.877,-0.585 1.315,-1.023l1.46,-1.46c1.458,-1.341 2.214,-3.285 2.045,-5.258c-0.602,-2.16 -1.761,-4.124 -3.359,-5.697Z" style="fill:#111;fill-rule:nonzero;"/></g><g id="Group_52511"><path id="Path_104677" d="M25.482,197.847l0,-34.469c0.008,-0.879 0.729,-1.599 1.607,-1.607l49.805,0.146c0.879,0.008 1.599,0.728 1.607,1.607l0,0.292c-0.017,4.08 -3.369,7.432 -7.449,7.449l-35.054,0c-0.878,0.008 -1.598,0.728 -1.606,1.606l0,19.572c-0.017,4.08 -3.369,7.432 -7.449,7.449c-0.8,-0.391 -1.351,-1.161 -1.461,-2.045Z" style="fill:#111;fill-rule:nonzero;"/><path id="Path_104678" d="M78.209,178.129l0,34.47c-0.008,0.878 -0.729,1.598 -1.607,1.606l-49.951,0c-0.879,-0.008 -1.599,-0.728 -1.607,-1.606c0.017,-4.08 3.369,-7.433 7.449,-7.449l34.762,0c0.878,-0.008 1.598,-0.729 1.606,-1.607l0,-19.571c0.017,-4.08 3.369,-7.433 7.449,-7.449c0.517,-0.06 1.033,0.12 1.401,0.488c0.299,0.299 0.476,0.697 0.498,1.118Z" style="fill:#111;fill-rule:nonzero;"/><path id="Path_104679" d="M53.087,185.724l-8.471,0c-2.44,-0.112 -4.416,-2.088 -4.528,-4.528l0,-0.292c-0.044,-1.213 0.419,-2.391 1.278,-3.249c0.858,-0.859 2.037,-1.322 3.25,-1.278l17.527,0c0.878,0.008 1.598,0.728 1.606,1.606l0,16.943c0.044,1.213 -0.419,2.391 -1.278,3.25c-0.858,0.858 -2.036,1.321 -3.25,1.278c-1.213,0.043 -2.391,-0.42 -3.249,-1.278c-0.859,-0.859 -1.322,-2.037 -1.278,-3.25l0,-7.887c-0.14,-0.77 -0.825,-1.33 -1.607,-1.315Z" style="fill:#111;fill-rule:nonzero;"/><path id="Path_104680" d="M47.391,190.544l-2.921,0c-1.213,-0.044 -2.392,0.42 -3.25,1.278c-0.859,0.858 -1.322,2.037 -1.278,3.25c0.112,2.44 2.088,4.416 4.528,4.528c1.213,0.043 2.391,-0.42 3.25,-1.278c0.858,-0.859 1.321,-2.037 1.277,-3.25l0,-2.921c-0.008,-0.879 -0.728,-1.599 -1.606,-1.607Z" style="fill:#111;fill-rule:nonzero;"/></g></g></svg>