<?xml version="1.0" encoding="UTF-8" standalone="no"?><!DOCTYPE svg PUBLIC "-//W3C//DTD SVG 1.1//EN" "http://www.w3.org/Graphics/SVG/1.1/DTD/svg11.dtd"><svg width="100%" height="100%" viewBox="0 0 240 240" version="1.1" xmlns="http://www.w3.org/2000/svg" xmlns:xlink="http://www.w3.org/1999/xlink" xml:space="preserve" xmlns:serif="http://www.serif.com/" style="fill-rule:evenodd;clip-rule:evenodd;stroke-linejoin:round;stroke-miterlimit:1.41421;"><g><path d="M20.606,239.793l-20.646,-20.646l7.575,-7.575c1.409,-1.409 2.783,-2.502 4.017,-3.241c1.268,-0.705 2.466,-1.198 3.593,-1.339c1.128,-0.141 2.15,-0.036 3.136,0.387c0.987,0.423 1.867,1.022 2.748,1.903c0.458,0.458 0.846,0.986 1.128,1.55c0.282,0.564 0.493,1.198 0.563,1.832c0.071,0.634 0.071,1.339 -0.07,2.114c-0.141,0.775 -0.423,1.55 -0.775,2.396c1.691,-1.057 3.241,-1.48 4.651,-1.409c1.374,0.105 2.677,0.704 3.84,1.867c0.881,0.881 1.515,1.867 1.973,2.959c0.387,1.093 0.564,2.255 0.493,3.453c-0.106,1.233 -0.493,2.467 -1.127,3.735c-0.634,1.268 -1.621,2.537 -2.854,3.77l-8.245,8.244Zm-7.187,-16.77l2.501,-2.502c0.529,-0.528 0.987,-1.057 1.339,-1.55c0.353,-0.493 0.564,-0.987 0.705,-1.48c0.106,-0.458 0.07,-0.987 -0.106,-1.445c-0.176,-0.458 -0.493,-0.986 -0.986,-1.479c-0.493,-0.494 -0.987,-0.846 -1.41,-1.057c-0.422,-0.212 -0.916,-0.282 -1.338,-0.212c-0.458,0.036 -0.916,0.212 -1.41,0.564c-0.458,0.317 -0.986,0.705 -1.55,1.268l-2.819,2.819l5.074,5.074Zm3.206,3.206l5.144,5.144l3.382,-3.383c0.635,-0.634 1.093,-1.233 1.304,-1.797c0.211,-0.563 0.352,-1.057 0.317,-1.585c-0.035,-0.458 -0.141,-0.916 -0.423,-1.339c-0.246,-0.387 -0.493,-0.775 -0.845,-1.127c-0.388,-0.388 -0.74,-0.67 -1.163,-0.881c-0.423,-0.211 -0.845,-0.282 -1.268,-0.282c-0.458,0.035 -0.916,0.211 -1.445,0.458c-0.493,0.282 -1.057,0.705 -1.691,1.339l-3.382,3.382l0.07,0.071Z" style="fill:#111;fill-rule:nonzero;"/><path d="M32.198,186.909l3.664,3.664l-8.456,8.456l4.827,4.827l6.483,-6.483l3.523,3.523l-6.483,6.483l4.898,4.898l8.456,-8.456l3.664,3.664l-13.283,13.283l-20.576,-20.576l13.283,-13.283Z" style="fill:#111;fill-rule:nonzero;"/><path d="M49.99,169.117l3.806,3.805l-5.814,5.813l16.841,16.841l-4.791,4.792l-16.841,-16.841l-5.814,5.813l-3.805,-3.805l16.418,-16.418Z" style="fill:#111;fill-rule:nonzero;"/><path d="M83.673,168.341c0.141,-0.14 0.352,-0.211 0.564,-0.211l2.254,0.071c0.106,1.796 -0.105,3.558 -0.775,5.284c-0.669,1.727 -1.797,3.418 -3.488,5.109c-1.444,1.445 -3.03,2.537 -4.756,3.206c-1.691,0.705 -3.418,1.022 -5.144,0.916c-1.762,-0.07 -3.488,-0.528 -5.215,-1.338c-1.726,-0.811 -3.382,-1.973 -4.897,-3.488c-1.515,-1.515 -2.678,-3.171 -3.488,-4.898c-0.775,-1.761 -1.198,-3.523 -1.233,-5.32c-0.035,-1.797 0.282,-3.523 1.022,-5.25c0.74,-1.726 1.797,-3.347 3.276,-4.826c1.445,-1.445 2.96,-2.467 4.545,-3.136c1.551,-0.634 3.171,-0.987 4.792,-1.057l0.352,2.184c0.036,0.176 0.036,0.317 0.036,0.458c-0.036,0.176 -0.106,0.317 -0.247,0.458c-0.176,0.176 -0.493,0.282 -0.916,0.353c-0.423,0.07 -0.951,0.176 -1.55,0.352c-0.599,0.176 -1.304,0.458 -2.079,0.881c-0.775,0.423 -1.621,1.057 -2.466,1.902c-1.057,1.057 -1.832,2.185 -2.361,3.418c-0.528,1.233 -0.74,2.501 -0.669,3.84c0.07,1.339 0.387,2.643 1.057,4.017c0.634,1.339 1.585,2.642 2.818,3.875c1.269,1.269 2.572,2.22 3.911,2.854c1.339,0.634 2.678,0.987 3.981,1.022c1.304,0.035 2.572,-0.176 3.77,-0.669c1.198,-0.494 2.29,-1.234 3.312,-2.255c0.599,-0.599 1.128,-1.198 1.515,-1.727c0.423,-0.563 0.775,-1.127 1.022,-1.656c0.282,-0.563 0.458,-1.162 0.599,-1.726c0.106,-0.599 0.211,-1.198 0.211,-1.903c0,-0.352 0.106,-0.599 0.247,-0.74Z" style="fill:#111;fill-rule:nonzero;"/><path d="M100.761,139.345c1.515,1.515 2.677,3.171 3.488,4.897c0.775,1.762 1.198,3.524 1.233,5.321c0.035,1.796 -0.317,3.558 -1.057,5.284c-0.74,1.727 -1.832,3.383 -3.312,4.863c-1.48,1.479 -3.1,2.607 -4.862,3.311c-1.727,0.74 -3.488,1.093 -5.285,1.057c-1.797,-0.035 -3.559,-0.458 -5.32,-1.233c-1.762,-0.775 -3.382,-1.973 -4.897,-3.488c-1.515,-1.515 -2.678,-3.171 -3.489,-4.897c-0.775,-1.762 -1.197,-3.523 -1.233,-5.32c-0.035,-1.797 0.317,-3.559 1.022,-5.32c0.74,-1.727 1.797,-3.348 3.312,-4.863c1.48,-1.479 3.1,-2.607 4.862,-3.311c1.726,-0.74 3.523,-1.057 5.32,-1.022c1.797,0.035 3.559,0.458 5.32,1.233c1.727,0.81 3.383,1.973 4.898,3.488Zm-2.819,2.819c-1.233,-1.233 -2.537,-2.185 -3.84,-2.854c-1.339,-0.634 -2.643,-1.022 -3.946,-1.057c-1.304,-0.035 -2.572,0.176 -3.841,0.669c-1.233,0.529 -2.431,1.304 -3.523,2.396c-1.092,1.092 -1.903,2.255 -2.396,3.523c-0.528,1.233 -0.775,2.537 -0.704,3.876c0.035,1.304 0.387,2.642 1.057,3.946c0.634,1.339 1.62,2.607 2.853,3.84c1.234,1.233 2.537,2.185 3.841,2.854c1.339,0.634 2.642,1.022 3.946,1.057c1.303,0.035 2.572,-0.176 3.875,-0.704c1.234,-0.529 2.396,-1.339 3.488,-2.432c1.093,-1.092 1.903,-2.254 2.431,-3.488c0.529,-1.233 0.776,-2.536 0.67,-3.84c-0.035,-1.304 -0.423,-2.607 -1.057,-3.946c-0.67,-1.304 -1.621,-2.607 -2.854,-3.84Z" style="fill:#111;fill-rule:nonzero;"/><path d="M96.251,123.561c0.07,-0.071 0.211,-0.141 0.282,-0.141c0.105,-0.035 0.211,-0.071 0.352,-0.071c0.141,0 0.282,0 0.458,0.036l27.024,3.558c-0.282,-0.211 -0.529,-0.458 -0.74,-0.669c-0.247,-0.247 -0.494,-0.423 -0.705,-0.634l-14.375,-14.375l2.396,-2.396l20.294,20.294l-1.374,1.374c-0.212,0.211 -0.423,0.352 -0.634,0.423c-0.212,0.07 -0.494,0.07 -0.811,0.035l-27.023,-3.559c0.282,0.212 0.493,0.423 0.74,0.67l15.079,15.079l-2.396,2.396l-20.294,-20.294l1.727,-1.726Z" style="fill:#111;fill-rule:nonzero;"/><path d="M129.722,96.432c0.07,0.211 0.07,0.422 0.035,0.599c-0.035,0.176 -0.106,0.317 -0.247,0.458c-0.176,0.176 -0.422,0.282 -0.81,0.317c-0.387,0.035 -0.845,0.141 -1.339,0.282c-0.493,0.141 -1.092,0.317 -1.691,0.634c-0.634,0.282 -1.268,0.775 -1.902,1.409c-0.599,0.599 -1.093,1.233 -1.375,1.867c-0.281,0.635 -0.458,1.234 -0.493,1.833c-0.035,0.599 0.035,1.162 0.282,1.691c0.211,0.563 0.564,1.057 0.987,1.479c0.563,0.564 1.162,0.881 1.832,0.987c0.669,0.106 1.339,0.07 2.043,-0.141c0.74,-0.176 1.48,-0.493 2.22,-0.881c0.74,-0.387 1.55,-0.775 2.396,-1.198c0.81,-0.387 1.656,-0.74 2.501,-1.092c0.811,-0.317 1.691,-0.493 2.537,-0.564c0.846,-0.07 1.691,0.071 2.537,0.353c0.845,0.282 1.691,0.845 2.536,1.691c0.881,0.881 1.586,1.867 2.044,2.959c0.458,1.093 0.705,2.185 0.705,3.383c0,1.127 -0.282,2.325 -0.776,3.523c-0.528,1.163 -1.303,2.29 -2.395,3.382c-1.339,1.339 -2.784,2.29 -4.299,2.889c-1.585,0.599 -3.135,0.881 -4.686,0.811l-0.493,-2.114c-0.035,-0.176 0,-0.352 0.035,-0.529c0.036,-0.176 0.106,-0.317 0.247,-0.458c0.106,-0.105 0.282,-0.211 0.564,-0.282c0.246,-0.035 0.528,-0.105 0.916,-0.14c0.352,-0.071 0.74,-0.106 1.162,-0.177c0.423,-0.07 0.881,-0.176 1.374,-0.387c0.458,-0.176 0.987,-0.423 1.515,-0.74c0.529,-0.317 1.022,-0.74 1.551,-1.268c0.634,-0.635 1.127,-1.339 1.444,-2.009c0.317,-0.669 0.529,-1.374 0.529,-2.078c0,-0.705 -0.071,-1.339 -0.353,-1.973c-0.281,-0.635 -0.669,-1.234 -1.233,-1.797c-0.599,-0.599 -1.268,-0.987 -1.938,-1.093c-0.669,-0.105 -1.338,-0.07 -2.078,0.106c-0.705,0.212 -1.48,0.493 -2.22,0.881c-0.775,0.423 -1.55,0.775 -2.361,1.233c-0.775,0.423 -1.62,0.775 -2.466,1.128c-0.845,0.352 -1.691,0.493 -2.537,0.563c-0.88,0.036 -1.726,-0.105 -2.607,-0.423c-0.881,-0.317 -1.797,-0.951 -2.677,-1.832c-0.705,-0.704 -1.269,-1.55 -1.656,-2.501c-0.388,-0.951 -0.599,-1.938 -0.564,-3.03c0,-1.057 0.247,-2.149 0.74,-3.206c0.458,-1.093 1.198,-2.114 2.219,-3.136c1.128,-1.127 2.326,-1.973 3.629,-2.572c1.269,-0.564 2.643,-0.881 4.017,-0.916l0.599,2.079Z" style="fill:#111;fill-rule:nonzero;"/><path d="M145.259,74.552l2.326,2.326l-6.553,6.553l17.968,17.969l-2.748,2.748l-17.969,-17.969l-6.588,6.589l-2.325,-2.326l15.889,-15.89Z" style="fill:#111;fill-rule:nonzero;"/><path d="M162.77,80.647l8.456,8.456l-2.748,2.748l-20.259,-20.258l5.743,-5.743c1.268,-1.269 2.537,-2.255 3.699,-2.925c1.198,-0.704 2.326,-1.057 3.453,-1.197c1.092,-0.106 2.149,0.035 3.101,0.422c0.986,0.423 1.902,1.057 2.748,1.903c0.704,0.705 1.268,1.48 1.656,2.361c0.422,0.845 0.634,1.761 0.704,2.677c0.071,0.916 -0.035,1.868 -0.317,2.854c-0.282,0.987 -0.704,1.903 -1.339,2.889c0.564,-0.141 1.198,-0.141 1.797,-0.035l13.988,2.149l-2.431,2.431c-0.494,0.493 -1.057,0.705 -1.656,0.529l-12.543,-1.973c-0.388,-0.036 -0.705,-0.071 -1.022,0.035c-0.282,0.07 -0.599,0.317 -0.986,0.704l-2.009,2.009l-0.035,-0.036Zm-1.973,-1.973l2.889,-2.889c0.81,-0.81 1.374,-1.585 1.832,-2.395c0.423,-0.776 0.67,-1.586 0.705,-2.326c0.07,-0.775 -0.071,-1.48 -0.352,-2.184c-0.282,-0.705 -0.705,-1.339 -1.304,-1.938c-1.198,-1.198 -2.502,-1.726 -3.946,-1.55c-1.409,0.211 -2.889,1.057 -4.475,2.642l-2.994,2.995l7.645,7.645Z" style="fill:#111;fill-rule:nonzero;"/><path d="M191.943,64.088c0.845,-0.845 1.444,-1.726 1.832,-2.678c0.387,-0.951 0.564,-1.902 0.493,-2.889c-0.035,-0.951 -0.317,-1.937 -0.775,-2.889c-0.458,-0.951 -1.128,-1.832 -1.973,-2.677l-12.332,-12.332l2.749,-2.748l12.331,12.331c1.163,1.163 2.079,2.432 2.678,3.806c0.599,1.374 0.951,2.783 1.021,4.192c0.036,1.445 -0.246,2.854 -0.81,4.263c-0.564,1.41 -1.48,2.749 -2.748,4.017c-1.233,1.233 -2.572,2.149 -4.017,2.748c-1.409,0.564 -2.853,0.881 -4.263,0.81c-1.444,-0.035 -2.818,-0.352 -4.228,-0.986c-1.374,-0.599 -2.642,-1.515 -3.805,-2.678l-12.331,-12.331l2.748,-2.748l12.331,12.331c0.846,0.846 1.727,1.515 2.678,1.973c0.951,0.458 1.903,0.705 2.889,0.775c0.951,0.036 1.938,-0.105 2.889,-0.493c0.881,-0.317 1.797,-0.951 2.643,-1.797Z" style="fill:#111;fill-rule:nonzero;"/><path d="M217.169,34.845c0.141,-0.141 0.353,-0.211 0.564,-0.211l2.255,0.07c0.106,1.797 -0.106,3.559 -0.775,5.285c-0.67,1.726 -1.797,3.418 -3.488,5.109c-1.445,1.444 -3.03,2.537 -4.757,3.206c-1.691,0.705 -3.417,1.022 -5.144,0.916c-1.761,-0.07 -3.488,-0.529 -5.214,-1.339c-1.726,-0.81 -3.382,-1.973 -4.897,-3.488c-1.515,-1.515 -2.678,-3.171 -3.488,-4.897c-0.776,-1.762 -1.198,-3.523 -1.234,-5.32c-0.035,-1.797 0.282,-3.524 1.022,-5.25c0.74,-1.726 1.797,-3.347 3.277,-4.827c1.444,-1.444 2.959,-2.466 4.545,-3.136c1.55,-0.634 3.171,-0.986 4.791,-1.057l0.353,2.185c0.035,0.176 0.035,0.317 0.035,0.458c-0.035,0.176 -0.106,0.317 -0.247,0.458c-0.176,0.176 -0.493,0.282 -0.916,0.352c-0.422,0.071 -0.951,0.176 -1.55,0.353c-0.599,0.176 -1.304,0.458 -2.079,0.88c-0.775,0.423 -1.62,1.057 -2.466,1.903c-1.057,1.057 -1.832,2.184 -2.361,3.418c-0.528,1.233 -0.739,2.501 -0.669,3.84c0.071,1.339 0.388,2.642 1.057,4.016c0.634,1.339 1.586,2.643 2.819,3.876c1.268,1.268 2.572,2.22 3.91,2.854c1.339,0.634 2.678,0.986 3.982,1.022c1.303,0.035 2.572,-0.177 3.77,-0.67c1.198,-0.493 2.29,-1.233 3.312,-2.255c0.598,-0.599 1.127,-1.198 1.515,-1.726c0.422,-0.564 0.775,-1.128 1.021,-1.656c0.282,-0.564 0.458,-1.163 0.599,-1.726c0.106,-0.599 0.212,-1.198 0.212,-1.903c0,-0.352 0.07,-0.564 0.246,-0.74Z" style="fill:#111;fill-rule:nonzero;"/><path d="M219.459,0.352l2.326,2.326l-6.554,6.553l17.969,17.969l-2.748,2.748l-17.969,-17.969l-6.588,6.589l-2.326,-2.326l15.89,-15.89Z" style="fill:#111;fill-rule:nonzero;"/></g></svg>