<?xml version="1.0" encoding="UTF-8" standalone="no"?><!DOCTYPE svg PUBLIC "-//W3C//DTD SVG 1.1//EN" "http://www.w3.org/Graphics/SVG/1.1/DTD/svg11.dtd"><svg width="100%" height="100%" viewBox="0 0 240 240" version="1.1" xmlns="http://www.w3.org/2000/svg" xmlns:xlink="http://www.w3.org/1999/xlink" xml:space="preserve" xmlns:serif="http://www.serif.com/" style="fill-rule:evenodd;clip-rule:evenodd;stroke-linejoin:round;stroke-miterlimit:1.41421;"><path d="M119.11,102.544l5.915,-5.915l19.493,19.493l-5.915,5.915l-19.493,-19.493Zm29.575,-29.575l-19.964,19.963l5.051,5.051l7.023,-7.023l14.442,14.443l5.92,-5.92l-14.443,-14.442l7.022,-7.022l-5.051,-5.05Zm31.793,-31.793l5.915,-5.915l19.493,19.492l-5.915,5.916l-19.493,-19.493Zm27.317,-27.258l11.102,11.102l-21.513,1.388c-4.526,0.119 -6.317,4.653 -2.907,8.063l15.8,15.8l5.245,-5.245l-11.393,-11.393l21.805,-1.097c4.486,0.002 6.316,-4.654 2.866,-8.105l-15.76,-15.759l-5.245,5.246Zm-125.716,137.596c-1.77,-0.633 -3.654,-0.884 -5.527,-0.735c-1.976,0.157 -3.908,0.672 -5.699,1.523c-1.881,0.878 -3.674,2.17 -5.297,3.793l-12.991,12.991l19.493,19.493l12.991,-12.991c1.623,-1.623 2.956,-3.374 3.877,-5.213c0.888,-1.741 1.448,-3.631 1.652,-5.575c0.181,-1.849 -0.051,-3.621 -0.652,-5.442c-0.6,-1.737 -1.612,-3.314 -3.031,-4.733c-1.377,-1.46 -2.997,-2.511 -4.816,-3.114l0,0.003Zm0.193,10.992c0.292,0.862 0.404,1.774 0.327,2.681c-0.071,0.904 -0.345,1.846 -0.785,2.786c-0.44,0.94 -1.086,1.756 -1.858,2.527l-7.185,7.185l-9.391,-9.392l7.184,-7.185c0.812,-0.811 1.668,-1.418 2.567,-1.899c0.853,-0.449 1.785,-0.729 2.745,-0.825c0.905,-0.07 1.811,0.025 2.639,0.283c0.869,0.3 1.615,0.804 2.326,1.515c0.667,0.667 1.131,1.455 1.431,2.324Zm77.908,-96.597l5.041,29.51l6.997,-6.997l-3.943,-21.867l7.77,1.471l-3.764,3.764l1.518,8.474l10.638,-10.638l5.539,1.038l7.038,-7.038l-29.223,-5.328c-5.044,-0.951 -8.479,2.651 -7.611,7.611Zm-41.514,55.195l5.426,5.427l-7.185,7.186c-0.757,0.757 -1.623,1.396 -2.568,1.898c-0.854,0.449 -1.786,0.73 -2.746,0.827c-0.89,0.073 -1.785,-0.023 -2.639,-0.283c-0.867,-0.301 -1.615,-0.805 -2.326,-1.516c-0.709,-0.709 -1.213,-1.457 -1.514,-2.324c-0.292,-0.862 -0.403,-1.775 -0.325,-2.682c0.07,-0.904 0.344,-1.847 0.784,-2.786c0.439,-0.942 1.087,-1.756 1.858,-2.527l13.032,-13.032l-5.051,-5.051l-12.99,12.991c-1.625,1.624 -2.958,3.376 -3.879,5.215c-0.888,1.741 -1.448,3.631 -1.652,5.576c-0.181,1.848 0.052,3.622 0.652,5.441c0.6,1.738 1.61,3.316 3.029,4.735c1.419,1.419 2.997,2.429 4.818,3.113c1.77,0.633 3.654,0.884 5.527,0.735c1.977,-0.158 3.909,-0.675 5.699,-1.527c1.882,-0.879 3.674,-2.171 5.298,-3.794l12.991,-12.992l-10.434,-10.434l-5.805,5.804Zm-37.264,19.148l5.915,-5.915l19.493,19.493l-5.915,5.915l-19.493,-19.493Zm-55.732,45.778c1.927,0.132 3.814,0.222 5.661,0.6c1.026,0.21 1.806,0.583 2.829,0.053c0.775,-0.446 3.758,-3.179 3.465,-4.287c-0.416,-1.48 -5.292,-0.885 -6.276,-0.809c-1.312,0.076 -2.747,0.111 -3.933,0.72c-0.654,0.325 -1.513,0.937 -1.919,1.59c-0.49,0.737 -0.204,0.45 -0.202,0.778c-0.04,0.533 -1.022,0.857 -0.528,1.269c0.247,0.083 0.575,0.084 0.902,0.085l0.001,0.001Zm23.184,40.327c-1.515,0.28 -2.908,0.437 -4.217,1.253c-0.49,0.325 -1.183,1.347 -1.963,0.973c-0.946,-0.453 0.402,-1.555 0.851,-2.086c0.734,-0.898 1.225,-1.143 -0.008,-1.723c-0.74,-0.411 -2.217,-0.337 -2.911,0.111c-0.857,0.61 -1.305,1.716 -2.284,2.366c-1.187,0.776 -2.539,0.892 -3.932,1.214c-1.146,0.239 -3.357,1.132 -1.548,2.205c0.699,0.455 2.176,0.299 2.913,0.301c4.715,-0.101 9.173,-2.173 13.099,-4.614Zm-22.208,3.18c-3.161,-1.041 -5.958,-2.611 -8.55,-4.715c0.616,0.373 2.88,1.819 3.533,1.33c0.939,-0.693 -1.006,-4.515 -1.215,-5.542c-0.885,-5.374 5.013,-6.577 9.117,-5.739c3.612,0.753 9.25,5.25 7.753,9.631c-0.729,2.045 -3.636,2.976 -5.562,3.335c-1.555,0.24 -4.141,0.105 -5.077,1.699l0.001,0.001Zm-9.542,-6.359c2.015,1.199 1.806,-0.074 1.223,-1.552c-0.372,-0.945 -1.032,-1.932 -1.243,-2.957c-0.251,-1.069 0.116,-1.764 0.397,-2.786c0.524,-1.844 -0.227,-4.799 -2.595,-2.678c-0.695,0.612 -1.741,4.954 -2.563,4.212c1.117,2.341 2.644,4.438 4.781,5.761Zm-5.609,-7.569c1.013,-2.334 0.515,-3.647 -0.314,-5.864c-0.416,-1.152 -0.68,-5.087 -1.543,-5.544c-0.269,3.813 0.24,7.917 1.857,11.408Zm0.128,-16.933c-1.102,1.348 -1.069,-0.252 -0.825,-0.989c0.646,-1.962 1.99,-3.966 3.048,-5.682c1.541,-2.433 3.588,-4.507 6,-6.082c0.572,-0.407 3.717,-2.73 4.582,-2.357c0.451,0.207 -2.447,3.187 -2.651,3.391c-1.265,1.265 -2.367,2.531 -3.385,4.043c-1.995,2.903 -4.279,5.188 -6.769,7.678l0,-0.002Zm5.904,9.334c-2.557,5.688 -6.395,-0.03 -6.781,-3.598c-0.385,-3.65 2.518,-5.564 5.173,-7.559c2.453,-1.877 3.753,-4.413 5.669,-6.822c1.999,-2.493 4.418,-2.112 7.211,-1.198c0.615,0.208 2.298,0.502 2.67,1.119c0.454,0.862 -0.974,2.621 -1.339,3.232c-1.669,2.658 -3.582,5.479 -5.909,7.641c-2.45,2.286 -5.313,3.912 -6.693,7.186l-0.001,-0.001Zm34.103,15.735c-0.735,0.489 -4.249,3.099 -5.156,2.192c-0.989,-0.989 4.166,-3.508 4.819,-3.997c2.494,-1.669 3.918,-4.493 5.258,-7.069c0.976,-1.882 1.178,-2.66 1.661,-4.625c0.162,-0.655 0.321,-1.229 0.568,-1.311c0.081,0.001 0.001,0.575 -0.079,1.23c-0.354,2.582 -1.165,4.874 -2.22,7.247c-1.138,2.374 -2.561,4.786 -4.851,6.333Zm-6.604,-0.809c-2.585,-0.379 -6.781,-3.351 -4.129,-6.25c1.714,-1.878 4.665,-2.193 7.004,-1.568c1.56,0.418 3.04,1.245 4.639,1.293c1.353,0.047 2.414,-0.932 1.807,0.746c-1.133,3.112 -6.039,6.286 -9.321,5.779Zm5.305,-32.24c0.871,1.929 0.549,3.405 0.394,5.291c-0.118,1.597 1.243,2.629 2.149,3.864c2.097,2.723 3.719,5.779 4.798,9.041c1.027,0.62 1.255,-3.561 1.171,-4.054c-0.172,-1.805 -0.386,-3.651 -0.845,-5.417c-0.75,-2.708 -1.993,-5.42 -3.807,-7.642c-0.413,-0.494 -5.195,-6.175 -5.971,-5.563c-0.531,0.448 1.905,4.108 2.111,4.48Zm-16.086,23.747c-6.408,-2.407 3.774,-8.388 6.722,-9.276c1.106,-0.364 2.335,-0.603 3.399,-1.01c1.719,-0.648 2.082,-1.918 3.43,-3.018c2.082,-1.754 4.564,2.685 5.679,4.208c1.36,1.933 4.535,5.761 2.331,7.882c-2.287,2.205 -4.756,0.06 -7.014,-0.81c-4.848,-1.909 -9.989,3.726 -14.546,2.025l-0.001,-0.001Zm-13.435,-5.842c-1.911,3.395 2.804,3.374 4.934,2.892c2.17,-0.522 3.925,-2.277 5.353,-3.952c1.795,-2.206 2.811,-3.964 5.716,-4.894c2.54,-0.808 5.122,-1.083 7.165,-2.96c2.857,-2.612 5.297,-6.947 3.476,-10.727c-0.456,-0.945 -1.074,-1.727 -1.569,-2.631c-0.373,-0.617 -0.295,-1.437 -0.626,-2.012c-0.206,-0.37 -5.053,-2.441 -5.378,-1.706c0.04,-0.04 0.658,0.658 0.659,0.988c0.003,0.409 -1.017,1.675 -1.261,2.004c-0.816,0.898 -1.633,1.632 -2.366,2.694c-1.752,2.493 -3.299,5.111 -4.967,7.685c-1.466,2.208 -2.807,4.868 -4.766,6.662c-1.552,1.47 -5.029,3.544 -6.37,5.957Z" style="fill:#111;"/></svg>