<?xml version="1.0" encoding="UTF-8" standalone="no"?><!DOCTYPE svg PUBLIC "-//W3C//DTD SVG 1.1//EN" "http://www.w3.org/Graphics/SVG/1.1/DTD/svg11.dtd"><svg width="100%" height="100%" viewBox="0 0 240 85" version="1.1" xmlns="http://www.w3.org/2000/svg" xmlns:xlink="http://www.w3.org/1999/xlink" xml:space="preserve" xmlns:serif="http://www.serif.com/" style="fill-rule:evenodd;clip-rule:evenodd;stroke-linejoin:round;stroke-miterlimit:1.41421;"><path d="M45.28,37.88l0,15.44c0,3.96 1.92,5.88 5.88,5.88l1.72,0c3.96,0 5.88,-1.92 5.88,-5.88l0,-7.56l9.04,0l0,7.24c0,9.92 -5,15.04 -15.04,15.04l-1.92,0c-9.92,0 -15.04,-5 -15.04,-13.84l0,-37.92c0,-11.08 5,-16.2 15.04,-16.2l1.92,0c9.92,0 15.04,5 15.04,15.04l0,22.68l-22.48,0l0,0.08l-0.04,0Zm0,-9.08l13.32,0l0,-14.08c0,-3.96 -1.92,-5.88 -5.88,-5.88l-1.48,0c-3.96,0 -5.88,1.92 -5.88,5.88l0,14.08l-0.08,0Z" style="fill:#111;fill-rule:nonzero;"/><path d="M73.96,0.88l9.36,0l0,4.28c2.24,-2.36 6.08,-5 11.4,-5c8,0 11.92,5.32 11.92,13.12l0,41.56c0,7.88 -3.96,13.12 -11.92,13.12c-5.44,0 -9.16,-2.56 -11.4,-4.8l0,21.44l-9.36,0l0,-83.72Zm9.36,54.8c2.56,2.24 5.56,3.4 8.64,3.4c3.4,0 5.44,-1.6 5.44,-5.44l0,-39.2c0,-3.84 -1.92,-5.44 -5.44,-5.44c-3.08,0 -6.08,1.28 -8.64,3.4l0,43.28Z" style="fill:#111;fill-rule:nonzero;"/><path d="M112.32,44.16c0,-8.2 2.68,-11.52 9.8,-13.96l12.56,-4.28l0,-11.2c0,-3.96 -1.92,-6.08 -5.88,-6.08l-1.48,0c-3.96,0 -5.88,2.12 -5.88,6.08l0,9.36l-9.04,0l0,-9.04c0,-9.92 5,-15.04 15.04,-15.04l1.8,0c9.92,0 15.04,5 15.04,15.04l0,52.12l-9.36,0l0,-4.16c-2.56,2.44 -6.08,4.92 -11.4,4.92c-7.48,0 -10.96,-4.28 -10.96,-11.72l0,-12.04l-0.24,0Zm22.4,11.84l0,-21.84l-8.52,3.2c-3.4,1.4 -4.6,3.08 -4.6,6.92l0,10.12c0,3.2 1.6,4.8 4.6,4.8c2.84,-0.12 5.4,-1.08 8.52,-3.2Z" style="fill:#111;fill-rule:nonzero;"/><path d="M181.8,67.2l-9.36,0l0,-53.4c0,-3.32 -1.6,-4.8 -4.48,-4.8c-2.56,0 -5.32,0.96 -8.64,3.32l0,54.88l-9.36,0l0,-66.32l9.36,0l0,4.28c2.68,-2.56 6.28,-5 11.4,-5c4.8,0 8,1.92 9.68,5.44c3.32,-2.88 7.24,-5.44 12.68,-5.44c7.24,0 10.96,4.48 10.96,11.72l0,55.4l-9.36,0l0,-53.48c0,-3.32 -1.6,-4.8 -4.48,-4.8c-2.56,0 -5.32,0.96 -8.64,3.32l0,54.88l0.24,0Z" style="fill:#111;fill-rule:nonzero;"/><path d="M23.96,6.96l0,12.24l-15.68,14.92l15.68,14.72l0,12.48l-23.96,-22.6l0,-8.96l23.96,-22.8Z" style="fill:#111;fill-rule:nonzero;"/><path d="M240,29.76l0,8.96l-23.96,22.6l0,-12.48l15.68,-14.72l-15.68,-15l0,-12.16l23.96,22.8Z" style="fill:#111;fill-rule:nonzero;"/></svg>