<?xml version="1.0" encoding="UTF-8" standalone="no"?><!DOCTYPE svg PUBLIC "-//W3C//DTD SVG 1.1//EN" "http://www.w3.org/Graphics/SVG/1.1/DTD/svg11.dtd"><svg width="100%" height="100%" viewBox="0 0 240 240" version="1.1" xmlns="http://www.w3.org/2000/svg" xmlns:xlink="http://www.w3.org/1999/xlink" xml:space="preserve" xmlns:serif="http://www.serif.com/" style="fill-rule:evenodd;clip-rule:evenodd;stroke-linejoin:round;stroke-miterlimit:1.41421;"><g><path d="M77.221,167.161l9.292,9.292c2.383,2.384 4.695,2.384 7.078,0l1.035,-1.035c2.383,-2.383 2.383,-4.694 0,-7.078l-4.55,-4.55l5.441,-5.44l4.357,4.357c5.971,5.971 6.043,12.061 0,18.104l-1.155,1.155c-5.971,5.971 -12.061,6.043 -17.382,0.723l-22.822,-22.823c-6.668,-6.668 -6.741,-12.759 -0.698,-18.801l1.156,-1.156c5.97,-5.97 12.061,-6.042 18.103,0l13.65,13.65l-13.529,13.53l0.048,0.048l-0.024,0.024Zm-5.465,-5.465l8.016,-8.017l-8.474,-8.474c-2.383,-2.383 -4.694,-2.383 -7.077,0l-0.891,0.891c-2.383,2.383 -2.383,4.695 0,7.078l8.474,8.474l-0.048,0.048Z" style="fill:#111;fill-rule:nonzero;"/><path d="M72.213,127.631l5.634,-5.633l2.575,2.576c-0.072,-2.768 0.65,-6.668 3.852,-9.87c4.815,-4.815 10.376,-3.972 15.071,0.722l25.012,25.013c4.743,4.742 5.513,10.279 0.723,15.07c-3.274,3.274 -7.054,3.972 -9.75,3.972l12.903,12.904l-5.633,5.633l-50.387,-50.387Zm38.615,27.348c2.889,-0.192 5.392,-1.3 7.246,-3.153c2.046,-2.047 2.311,-4.237 0,-6.548l-23.592,-23.593c-2.311,-2.311 -4.43,-2.118 -6.548,0c-1.854,1.854 -2.889,4.43 -3.154,7.246l26.048,26.048Z" style="fill:#111;fill-rule:nonzero;"/><path d="M121.348,130.593c-4.935,-4.936 -5.32,-8.547 -2.504,-14.3l4.984,-10.136l-6.741,-6.74c-2.383,-2.384 -4.815,-2.504 -7.198,-0.121l-0.891,0.891c-2.383,2.383 -2.263,4.815 0.121,7.198l5.633,5.634l-5.441,5.44l-5.441,-5.44c-5.97,-5.971 -6.042,-12.061 0,-18.104l1.084,-1.083c5.97,-5.971 12.061,-6.043 18.103,0l31.369,31.368l-5.634,5.633l-2.503,-2.503c-0.072,3.009 -0.698,6.62 -3.9,9.822c-4.502,4.502 -9.172,4.02 -13.65,-0.458l-7.246,-7.246l-0.145,0.145Zm20.607,-6.356l-13.144,-13.144l-3.202,7.053c-1.203,2.889 -0.915,4.623 1.397,6.934l6.09,6.09c1.926,1.926 3.852,1.926 5.658,0.121c1.637,-1.782 2.6,-3.9 3.201,-7.054Z" style="fill:#111;fill-rule:nonzero;"/><path d="M177.031,102.643l-5.633,5.633l-32.139,-32.139c-1.998,-1.998 -3.852,-1.926 -5.585,-0.192c-1.541,1.54 -2.624,3.779 -3.202,7.198l33.03,33.029l-5.634,5.634l-39.914,-39.915l5.633,-5.633l2.576,2.576c0.072,-3.154 0.77,-6.789 3.852,-9.871c2.889,-2.889 5.97,-3.659 9.1,-2.552c0.265,-3.731 1.083,-7.631 4.357,-10.905c4.357,-4.357 9.293,-3.9 13.65,0.457l33.342,33.343l-5.633,5.633l-32.187,-32.187c-1.998,-1.998 -3.852,-1.926 -5.585,-0.192c-1.541,1.54 -2.624,3.779 -3.202,7.198l33.03,33.029l0.144,-0.144Z" style="fill:#111;fill-rule:nonzero;"/><path d="M45.78,161.383l7.367,7.367l-0.458,18.416l18.296,-0.577l7.512,7.511l-28.023,0.818l-5.392,-5.392l0.698,-28.143Z" style="fill:#111;fill-rule:nonzero;"/><path d="M189.526,45.082l5.392,5.392l-0.818,28.023l-7.511,-7.512l0.577,-18.296l-18.464,0.41l-7.319,-7.319l28.143,-0.698Z" style="fill:#111;fill-rule:nonzero;"/></g></svg>