<?xml version="1.0" encoding="UTF-8" standalone="no"?><!DOCTYPE svg PUBLIC "-//W3C//DTD SVG 1.1//EN" "http://www.w3.org/Graphics/SVG/1.1/DTD/svg11.dtd"><svg width="100%" height="100%" viewBox="0 0 240 240" version="1.1" xmlns="http://www.w3.org/2000/svg" xmlns:xlink="http://www.w3.org/1999/xlink" xml:space="preserve" xmlns:serif="http://www.serif.com/" style="fill-rule:evenodd;clip-rule:evenodd;stroke-linejoin:round;stroke-miterlimit:1.41421;"><g><path d="M106.321,137.441l-14.785,-14.785l0.775,-0.775c0.014,-0.018 0.029,-0.035 0.045,-0.051c0.209,-0.21 0.548,-0.225 0.774,-0.036l2.365,2.095c-0.181,-1.483 -0.074,-2.988 0.313,-4.434c0.387,-1.438 1.157,-2.746 2.227,-3.784c0.725,-0.756 1.592,-1.363 2.55,-1.785c0.843,-0.357 1.758,-0.507 2.668,-0.438c0.94,0.094 1.852,0.376 2.68,0.827c0.969,0.541 1.855,1.219 2.63,2.012l9.456,9.456l-1.417,1.417l-9.456,-9.455c-1.384,-1.385 -2.803,-2.153 -4.22,-2.308c-1.418,-0.155 -2.8,0.452 -4.104,1.755c-0.967,0.954 -1.652,2.158 -1.977,3.475c-0.342,1.41 -0.404,2.873 -0.183,4.304l11.087,11.087l-1.428,1.423Z" style="fill:#111;fill-rule:nonzero;"/><path d="M125.574,102.229c0.123,-0.109 0.192,-0.267 0.188,-0.431c-0.056,-0.215 -0.18,-0.407 -0.352,-0.547c-0.926,-0.954 -2.012,-1.738 -3.211,-2.316c-1.014,-0.489 -2.119,-0.764 -3.247,-0.809c-1.07,-0.025 -2.134,0.181 -3.119,0.604c-1.031,0.451 -1.966,1.097 -2.754,1.902c-0.99,0.949 -1.77,2.096 -2.287,3.365c-0.459,1.153 -0.66,2.392 -0.589,3.627c0.086,1.27 0.427,2.509 1.002,3.642c0.635,1.259 1.471,2.406 2.474,3.396c1.12,1.153 2.418,2.119 3.844,2.862c1.197,0.623 2.509,0.996 3.857,1.099c1.264,0.071 2.531,-0.145 3.703,-0.633c1.245,-0.516 2.374,-1.279 3.319,-2.241c0.558,-0.564 1.063,-1.179 1.507,-1.837c0.422,-0.635 0.793,-1.302 1.111,-1.994c0.29,-0.635 0.511,-1.298 0.66,-1.979c0.125,-0.586 0.164,-1.185 0.116,-1.781l-0.872,-0.086c-0.162,-0.033 -0.33,0.021 -0.444,0.141c-0.144,0.217 -0.226,0.47 -0.234,0.73c-0.082,0.484 -0.199,0.961 -0.35,1.428c-0.21,0.674 -0.489,1.325 -0.833,1.942c-0.456,0.808 -1.027,1.546 -1.695,2.191c-0.768,0.793 -1.69,1.42 -2.71,1.842c-0.957,0.388 -1.993,0.54 -3.019,0.444c-1.129,-0.12 -2.223,-0.461 -3.219,-1.003c-1.226,-0.683 -2.345,-1.542 -3.321,-2.551l-0.269,-0.269l10.744,-10.738Zm-13.14,7.155c-0.342,-0.858 -0.522,-1.774 -0.532,-2.699c0.004,-0.895 0.19,-1.78 0.548,-2.601c0.418,-0.903 0.999,-1.723 1.712,-2.418c0.629,-0.646 1.379,-1.161 2.207,-1.516c0.771,-0.319 1.603,-0.465 2.435,-0.427c0.878,0.05 1.736,0.277 2.521,0.668c0.925,0.465 1.765,1.081 2.485,1.824l-9.815,9.815c-0.648,-0.799 -1.175,-1.691 -1.561,-2.646Z" style="fill:#111;fill-rule:nonzero;"/><path d="M141.763,102.479c-1.011,1.011 -2.063,1.524 -3.187,1.512c-1.124,-0.013 -2.259,-0.558 -3.42,-1.719l-10.108,-10.107l-2.14,2.14c-0.096,0.101 -0.223,0.165 -0.36,0.182c-0.136,0.004 -0.266,-0.054 -0.354,-0.158l-0.538,-0.539l2.358,-2.719l-4.934,-5.655c-0.081,-0.097 -0.123,-0.22 -0.118,-0.346c-0.009,-0.137 0.048,-0.272 0.153,-0.362l0.677,-0.677l5.656,5.655l4.677,-4.677l1.055,1.056l-4.679,4.68l10.016,10.016c0.347,0.363 0.755,0.664 1.204,0.89c0.357,0.177 0.748,0.276 1.148,0.291c0.368,0.004 0.732,-0.073 1.067,-0.227c0.353,-0.17 0.674,-0.399 0.948,-0.679c0.319,-0.312 0.58,-0.679 0.77,-1.083c0.138,-0.328 0.247,-0.667 0.325,-1.014c0.056,-0.267 0.097,-0.538 0.121,-0.81c-0.009,-0.15 0.033,-0.299 0.121,-0.422c0.108,-0.092 0.254,-0.125 0.392,-0.091l1.015,0.23c0.029,0.838 -0.122,1.674 -0.443,2.451c-0.324,0.821 -0.812,1.569 -1.433,2.198l0.011,-0.016Z" style="fill:#111;fill-rule:nonzero;"/><path d="M131.566,82.625l1.084,-1.084c0.117,-0.133 0.278,-0.218 0.452,-0.242c0.147,-0.019 0.296,0.004 0.429,0.066l15.423,7.922c0.281,0.147 0.554,0.309 0.817,0.487c0.248,0.172 0.504,0.336 0.741,0.503c-0.156,-0.248 -0.306,-0.518 -0.456,-0.788c-0.151,-0.269 -0.299,-0.553 -0.441,-0.863l-7.786,-15.768c-0.155,-0.233 -0.116,-0.549 0.092,-0.738l0.588,-0.588c0.191,-0.214 0.511,-0.258 0.751,-0.105l15.709,7.845c0.566,0.278 1.116,0.588 1.648,0.927c-0.172,-0.248 -0.336,-0.504 -0.503,-0.757c-0.178,-0.271 -0.335,-0.555 -0.47,-0.85l-7.906,-15.439c-0.165,-0.281 -0.1,-0.646 0.151,-0.856l1.046,-1.046l9.808,19.768l-1.046,1.046c-0.159,0.159 -0.377,0.167 -0.654,0.024l-16.071,-7.936c-0.201,-0.097 -0.396,-0.202 -0.585,-0.315c-0.188,-0.102 -0.371,-0.214 -0.547,-0.336c0.121,0.181 0.239,0.359 0.344,0.54c0.118,0.187 0.223,0.383 0.314,0.585l7.882,16.136c0.151,0.269 0.134,0.496 -0.04,0.67l-1.002,1.002l-19.772,-9.81Z" style="fill:#111;fill-rule:nonzero;"/><path d="M171.934,50.73c-1.152,-0.61 -2.419,-0.975 -3.722,-1.072c-1.249,-0.088 -2.503,0.111 -3.668,0.581c-2.559,1.125 -4.608,3.174 -5.733,5.734c-0.476,1.168 -0.68,2.428 -0.598,3.684c0.097,1.303 0.462,2.57 1.072,3.722c1.437,2.663 3.621,4.846 6.283,6.283c1.154,0.605 2.42,0.97 3.722,1.072c1.252,0.077 2.506,-0.133 3.668,-0.614c2.56,-1.125 4.609,-3.173 5.734,-5.733c0.475,-1.158 0.679,-2.407 0.597,-3.652c-0.102,-1.302 -0.466,-2.568 -1.072,-3.722c-1.448,-2.654 -3.629,-4.835 -6.283,-6.283Zm4.484,7.167c0.552,0.93 0.909,1.964 1.05,3.038c0.126,1 0.005,2.017 -0.355,2.962c-0.88,2.096 -2.551,3.768 -4.647,4.647c-0.947,0.358 -1.965,0.482 -2.967,0.36c-1.076,-0.141 -2.112,-0.495 -3.047,-1.041c-2.209,-1.304 -4.05,-3.146 -5.354,-5.354c-0.549,-0.941 -0.908,-1.982 -1.058,-3.063c-0.129,-1.005 -0.01,-2.029 0.347,-2.981c0.879,-2.096 2.551,-3.767 4.647,-4.647c0.95,-0.358 1.972,-0.476 2.975,-0.341c1.081,0.148 2.119,0.51 3.055,1.066c2.2,1.315 4.038,3.154 5.354,5.354Z" style="fill:#111;fill-rule:nonzero;"/><path d="M186.678,57.084l-14.786,-14.785l0.759,-0.759c0.118,-0.143 0.283,-0.24 0.466,-0.271c0.183,0.019 0.352,0.104 0.477,0.239l3.241,3.002c-0.679,-1.481 -0.991,-3.105 -0.91,-4.736c0.144,-1.51 0.836,-2.921 1.944,-3.963c0.412,-0.419 0.872,-0.789 1.37,-1.101c0.47,-0.284 0.972,-0.51 1.496,-0.672l0.785,1.175c0.13,0.161 0.106,0.399 -0.053,0.533c-0.095,0.081 -0.202,0.147 -0.316,0.198l-0.541,0.272c-0.212,0.121 -0.46,0.279 -0.745,0.475c-0.309,0.228 -0.601,0.48 -0.872,0.753c-1.062,0.991 -1.687,2.364 -1.732,3.812c-0.026,1.419 0.387,3.008 1.238,4.767l9.62,9.62l-1.441,1.441Z" style="fill:#111;fill-rule:nonzero;"/><path d="M178.503,22.002l13.196,13.196l0.694,-0.693c0.138,-0.133 0.253,-0.287 0.339,-0.458c0.094,-0.213 0.14,-0.443 0.137,-0.676l0.325,-11.598c0.006,-0.204 0.03,-0.407 0.069,-0.608c0.063,-0.205 0.18,-0.389 0.339,-0.533l1.258,-1.257l-0.366,12.754c-0.001,0.211 -0.007,0.384 -0.018,0.557c-0.005,0.175 -0.033,0.35 -0.083,0.519c0.223,-0.08 0.457,-0.121 0.692,-0.121c0.211,-0.001 0.443,0.004 0.692,0.014l14.367,0.564l-1.244,1.243c-0.129,0.131 -0.287,0.232 -0.46,0.293c-0.196,0.051 -0.398,0.072 -0.6,0.062l-12.89,-0.425c-0.281,-0.021 -0.563,0.013 -0.832,0.099c-0.287,0.132 -0.544,0.322 -0.753,0.559l-0.677,0.678l7.465,7.465l-1.431,1.431l-21.642,-21.643l1.423,-1.422Z" style="fill:#111;fill-rule:nonzero;"/><path d="M208.5,9.343c0.073,0.183 0.024,0.394 -0.123,0.527c-0.178,0.139 -0.392,0.222 -0.617,0.24c-0.371,0.068 -0.737,0.16 -1.097,0.273c-0.508,0.159 -1,0.369 -1.466,0.626c-0.627,0.366 -1.201,0.818 -1.704,1.342c-0.504,0.493 -0.925,1.065 -1.245,1.693c-0.275,0.552 -0.45,1.148 -0.516,1.76c-0.058,0.55 -0.001,1.106 0.168,1.631c0.158,0.508 0.434,0.97 0.806,1.348c0.401,0.433 0.937,0.715 1.522,0.801c0.58,0.068 1.169,0.015 1.729,-0.157c0.654,-0.188 1.286,-0.443 1.888,-0.762c0.655,-0.326 1.318,-0.671 1.994,-1.035c0.677,-0.364 1.353,-0.696 2.048,-0.998c0.654,-0.287 1.342,-0.486 2.047,-0.593c0.667,-0.105 1.349,-0.067 1.999,0.113c0.717,0.21 1.364,0.608 1.874,1.153c0.624,0.609 1.115,1.342 1.441,2.152c0.322,0.778 0.468,1.619 0.43,2.462c-0.048,0.898 -0.272,1.779 -0.659,2.593c-0.461,0.96 -1.089,1.831 -1.856,2.572c-0.906,0.95 -2,1.702 -3.21,2.209c-1.067,0.422 -2.195,0.669 -3.339,0.731l-0.162,-0.84c-0.031,-0.112 -0.036,-0.23 -0.015,-0.345c0.035,-0.122 0.104,-0.232 0.198,-0.317c0.206,-0.155 0.457,-0.237 0.714,-0.235c0.423,-0.047 0.842,-0.125 1.254,-0.236c0.572,-0.146 1.127,-0.355 1.655,-0.621c0.715,-0.37 1.364,-0.857 1.92,-1.44c0.571,-0.557 1.041,-1.21 1.389,-1.928c0.287,-0.596 0.456,-1.241 0.495,-1.9c0.021,-0.613 -0.09,-1.223 -0.324,-1.788c-0.243,-0.563 -0.591,-1.074 -1.025,-1.507c-0.423,-0.45 -0.979,-0.752 -1.588,-0.862c-0.592,-0.093 -1.198,-0.055 -1.776,0.111c-0.658,0.174 -1.294,0.423 -1.896,0.743c-0.66,0.332 -1.325,0.68 -2.007,1.049c-0.682,0.37 -1.367,0.699 -2.056,0.984c-0.647,0.3 -1.333,0.507 -2.036,0.614c-0.665,0.105 -1.343,0.069 -1.991,-0.104c-0.726,-0.216 -1.38,-0.621 -1.895,-1.175c-0.527,-0.525 -0.927,-1.163 -1.173,-1.866c-0.257,-0.72 -0.358,-1.488 -0.295,-2.252c0.072,-0.842 0.296,-1.664 0.661,-2.428c0.435,-0.883 1.019,-1.685 1.725,-2.372c0.808,-0.836 1.756,-1.524 2.8,-2.034c0.985,-0.447 2.046,-0.7 3.125,-0.745l0.189,0.813Z" style="fill:#111;fill-rule:nonzero;"/><path d="M152.802,106.656l-0.006,0.006l0.014,-0.014l-0.008,0.008c0.136,-0.138 0.291,-0.257 0.46,-0.352c0.155,-0.088 0.323,-0.153 0.498,-0.191l0.867,-0.867l0.11,0.111c0.054,0.054 0.057,0.116 -0.006,0.189l-0.472,0.547c0.151,0.027 0.298,0.074 0.435,0.142c0.145,0.081 0.278,0.181 0.396,0.298c0.154,0.149 0.273,0.331 0.347,0.532c0.078,0.185 0.11,0.387 0.095,0.588c-0.016,0.209 -0.071,0.413 -0.161,0.603c-0.108,0.21 -0.25,0.401 -0.42,0.566c-0.179,0.19 -0.392,0.344 -0.628,0.456c-0.044,0.137 -0.054,0.282 -0.031,0.424c0.01,0.11 0.056,0.213 0.131,0.294c0.084,0.092 0.208,0.137 0.332,0.121c0.137,-0.026 0.267,-0.081 0.381,-0.161c0.153,-0.099 0.297,-0.21 0.431,-0.334l0.46,-0.422c0.147,-0.147 0.32,-0.272 0.485,-0.399c0.151,-0.114 0.316,-0.205 0.493,-0.272c0.153,-0.064 0.32,-0.084 0.483,-0.058c0.182,0.034 0.348,0.125 0.472,0.261c0.139,0.144 0.241,0.318 0.299,0.509c0.055,0.213 0.066,0.434 0.033,0.651c-0.041,0.251 -0.122,0.494 -0.24,0.72c-0.149,0.266 -0.335,0.511 -0.553,0.725c-0.207,0.206 -0.438,0.384 -0.688,0.532c-0.2,0.121 -0.418,0.206 -0.647,0.253c-0.185,0.041 -0.377,0.035 -0.559,-0.017c-0.156,-0.04 -0.299,-0.12 -0.415,-0.231c-0.174,-0.17 -0.277,-0.401 -0.287,-0.645c-0.004,-0.271 0.062,-0.539 0.191,-0.779c-0.138,0.067 -0.29,0.101 -0.443,0.099c-0.153,-0.013 -0.295,-0.086 -0.396,-0.201c-0.053,-0.052 -0.097,-0.112 -0.13,-0.178c-0.033,-0.077 -0.055,-0.158 -0.066,-0.24c-0.016,-0.09 -0.02,-0.18 -0.01,-0.271c0.005,-0.102 0.024,-0.203 0.057,-0.3c-0.244,0.068 -0.502,0.069 -0.745,0.003c-0.258,-0.07 -0.492,-0.209 -0.674,-0.403c-0.155,-0.153 -0.277,-0.334 -0.361,-0.534c-0.076,-0.188 -0.109,-0.391 -0.095,-0.594c0.009,-0.21 0.064,-0.416 0.161,-0.603c0.103,-0.213 0.242,-0.406 0.41,-0.572Zm42.048,-32.783l-4.579,-4.578l0.19,-0.19c0.025,-0.027 0.057,-0.046 0.092,-0.054c0.036,-0.001 0.071,0.013 0.097,0.037l0.569,0.509c-0.058,-0.336 -0.047,-0.681 0.032,-1.013c0.09,-0.326 0.264,-0.623 0.505,-0.861c0.354,-0.395 0.876,-0.598 1.401,-0.544c0.641,0.12 1.221,0.453 1.645,0.946c0.238,0.231 0.438,0.497 0.595,0.789c0.147,0.256 0.244,0.537 0.287,0.829c0.07,0.589 -0.145,1.181 -0.578,1.59c-0.203,0.213 -0.453,0.375 -0.731,0.472c-0.26,0.09 -0.538,0.112 -0.808,0.065l1.651,1.651l-0.368,0.352Zm-37.131,35.192c-0.087,-0.107 -0.213,-0.175 -0.351,-0.188c-0.131,-0.009 -0.262,0.017 -0.381,0.074c-0.141,0.063 -0.274,0.146 -0.392,0.247c-0.146,0.108 -0.286,0.222 -0.42,0.344l-0.425,0.388c-0.131,0.121 -0.27,0.231 -0.417,0.331c-0.049,0.116 -0.091,0.235 -0.126,0.357c-0.023,0.113 -0.035,0.228 -0.036,0.343c0.005,0.104 0.026,0.207 0.061,0.305c0.043,0.098 0.103,0.187 0.178,0.264c0.098,0.093 0.219,0.158 0.35,0.188c0.146,0.037 0.298,0.036 0.443,-0.001c0.179,-0.049 0.35,-0.122 0.509,-0.218c0.397,-0.25 0.733,-0.587 0.984,-0.984c0.098,-0.173 0.173,-0.359 0.223,-0.551c0.048,-0.17 0.055,-0.349 0.02,-0.522c-0.034,-0.156 -0.112,-0.298 -0.225,-0.41l0.005,0.033Zm47.028,-53.384c0.012,0.041 0.001,0.086 -0.03,0.116c-0.04,0.034 -0.09,0.053 -0.141,0.055c-0.062,0.014 -0.146,0.038 -0.252,0.068c-0.114,0.034 -0.225,0.08 -0.33,0.136c-0.142,0.086 -0.274,0.189 -0.392,0.307c-0.116,0.111 -0.21,0.242 -0.28,0.387c-0.068,0.128 -0.113,0.267 -0.131,0.411c-0.007,0.126 0.007,0.252 0.043,0.373c0.036,0.115 0.099,0.22 0.182,0.307c0.093,0.101 0.22,0.166 0.356,0.183c0.133,0.016 0.268,0.005 0.398,-0.031c0.148,-0.044 0.292,-0.101 0.43,-0.172c0.148,-0.073 0.295,-0.16 0.449,-0.239c0.154,-0.079 0.314,-0.152 0.47,-0.228c0.149,-0.066 0.305,-0.112 0.466,-0.137c0.151,-0.019 0.305,-0.01 0.453,0.026c0.162,0.054 0.309,0.145 0.429,0.266c0.142,0.139 0.254,0.306 0.328,0.491c0.075,0.178 0.109,0.371 0.098,0.564c-0.011,0.206 -0.063,0.408 -0.153,0.595c-0.105,0.218 -0.248,0.416 -0.423,0.584c-0.205,0.216 -0.452,0.388 -0.726,0.505c-0.246,0.095 -0.504,0.152 -0.767,0.17l-0.035,-0.197c-0.006,-0.025 -0.006,-0.051 0,-0.076c0.007,-0.025 0.03,-0.03 0.063,-0.062c0.043,-0.037 0.098,-0.057 0.154,-0.057c0.098,-0.01 0.195,-0.029 0.289,-0.058c0.136,-0.034 0.268,-0.085 0.392,-0.15c0.163,-0.084 0.31,-0.195 0.436,-0.328c0.131,-0.129 0.239,-0.279 0.32,-0.444c0.067,-0.134 0.105,-0.28 0.112,-0.43c0.002,-0.141 -0.025,-0.28 -0.079,-0.41c-0.048,-0.133 -0.125,-0.253 -0.226,-0.351c-0.096,-0.097 -0.221,-0.161 -0.356,-0.182c-0.134,-0.022 -0.272,-0.013 -0.403,0.025c-0.152,0.036 -0.298,0.092 -0.435,0.166l-0.455,0.234c-0.159,0.084 -0.314,0.169 -0.465,0.234c-0.148,0.068 -0.305,0.114 -0.465,0.136c-0.152,0.026 -0.307,0.017 -0.454,-0.025c-0.166,-0.046 -0.316,-0.136 -0.434,-0.261c-0.118,-0.122 -0.209,-0.268 -0.266,-0.429c-0.056,-0.167 -0.079,-0.344 -0.066,-0.521c0.016,-0.19 0.068,-0.375 0.153,-0.546c0.093,-0.206 0.225,-0.392 0.388,-0.55c0.182,-0.186 0.397,-0.339 0.633,-0.45c0.223,-0.105 0.465,-0.164 0.711,-0.172l0.011,0.167Zm5.346,-5.346c0.017,0.041 0.005,0.088 -0.03,0.116c-0.041,0.032 -0.09,0.051 -0.141,0.055l-0.246,0.062c-0.117,0.039 -0.23,0.087 -0.338,0.145c-0.141,0.083 -0.271,0.184 -0.387,0.301c-0.117,0.113 -0.213,0.246 -0.285,0.392c-0.067,0.129 -0.112,0.268 -0.131,0.411c-0.014,0.126 0,0.254 0.042,0.373c0.033,0.117 0.096,0.223 0.183,0.307c0.091,0.103 0.215,0.169 0.35,0.188c0.133,0.014 0.268,0.003 0.398,-0.03c0.148,-0.045 0.291,-0.103 0.43,-0.172l0.454,-0.245c0.155,-0.078 0.314,-0.152 0.466,-0.222c0.147,-0.068 0.304,-0.114 0.465,-0.137c0.151,-0.022 0.306,-0.014 0.453,0.026c0.164,0.05 0.312,0.141 0.429,0.266c0.142,0.139 0.254,0.306 0.328,0.49c0.077,0.176 0.113,0.367 0.104,0.559c-0.014,0.206 -0.066,0.408 -0.153,0.595c-0.106,0.218 -0.249,0.416 -0.423,0.585c-0.208,0.217 -0.456,0.391 -0.731,0.51c-0.244,0.092 -0.5,0.147 -0.76,0.162l-0.043,-0.189c-0.007,-0.027 -0.005,-0.056 0.006,-0.081c0.011,-0.026 0.03,-0.03 0.054,-0.054c0.044,-0.04 0.101,-0.062 0.16,-0.063c0.095,-0.007 0.189,-0.023 0.281,-0.05c0.135,-0.037 0.266,-0.087 0.392,-0.149c0.163,-0.084 0.311,-0.195 0.436,-0.329c0.127,-0.127 0.233,-0.274 0.312,-0.435c0.063,-0.136 0.101,-0.282 0.112,-0.43c0.002,-0.141 -0.025,-0.281 -0.08,-0.411c-0.054,-0.128 -0.134,-0.245 -0.234,-0.342c-0.093,-0.099 -0.216,-0.165 -0.35,-0.188c-0.135,-0.019 -0.272,-0.01 -0.403,0.025c-0.151,0.04 -0.297,0.095 -0.435,0.167l-0.46,0.239c-0.155,0.079 -0.306,0.16 -0.466,0.233c-0.148,0.066 -0.304,0.112 -0.465,0.137c-0.151,0.022 -0.306,0.013 -0.453,-0.026c-0.165,-0.048 -0.313,-0.14 -0.429,-0.266c-0.122,-0.12 -0.213,-0.266 -0.266,-0.429c-0.062,-0.164 -0.086,-0.34 -0.072,-0.515c0.021,-0.189 0.072,-0.374 0.153,-0.546c0.095,-0.208 0.229,-0.397 0.394,-0.555c0.182,-0.188 0.397,-0.34 0.633,-0.451c0.223,-0.105 0.465,-0.164 0.711,-0.172l0.035,0.143Zm-49.812,49.65c-0.021,0.024 -0.05,0.04 -0.081,0.044c-0.033,0.001 -0.065,-0.013 -0.087,-0.038l-0.121,-0.121l0.534,-0.62l-1.122,-1.296c-0.001,0 -0.001,0 -0.001,0c-0.04,-0.04 -0.04,-0.106 0.001,-0.146c0.002,-0.003 0.005,-0.006 0.008,-0.008l0.155,-0.154l1.29,1.29l1.07,-1.071l0.24,0.24l-1.071,1.07l2.292,2.292c0.083,0.08 0.176,0.148 0.278,0.202c0.082,0.038 0.171,0.06 0.262,0.067c0.086,0 0.17,-0.022 0.246,-0.063c0.079,-0.04 0.151,-0.092 0.214,-0.155c0.072,-0.07 0.13,-0.154 0.17,-0.246c0.035,-0.075 0.059,-0.154 0.074,-0.235c0.019,-0.058 0.03,-0.118 0.033,-0.179c0.006,-0.054 0.011,-0.086 0.03,-0.105c0.026,-0.02 0.061,-0.026 0.092,-0.017l0.227,0.054c0.005,0.191 -0.031,0.382 -0.107,0.559c-0.07,0.186 -0.179,0.354 -0.321,0.493l0,0l-0.005,0.005l0.005,-0.005c-0.185,0.213 -0.449,0.341 -0.73,0.353c-0.305,-0.016 -0.589,-0.157 -0.785,-0.389l-2.305,-2.306l-0.485,0.485Zm-23.732,29.791c-0.055,0.063 -0.151,0.074 -0.219,0.025l-0.477,-0.379c0,0.171 -0.011,0.341 -0.031,0.511c-0.019,0.161 -0.054,0.319 -0.107,0.473c-0.047,0.156 -0.117,0.305 -0.209,0.441c-0.1,0.151 -0.215,0.292 -0.344,0.419c-0.113,0.118 -0.244,0.216 -0.388,0.291c-0.137,0.075 -0.288,0.121 -0.443,0.136c-0.161,0.014 -0.322,-0.009 -0.473,-0.066c-0.177,-0.068 -0.338,-0.174 -0.471,-0.309c-0.143,-0.142 -0.239,-0.323 -0.277,-0.521c-0.036,-0.237 -0.012,-0.479 0.07,-0.705c0.107,-0.316 0.258,-0.616 0.448,-0.89c0.267,-0.386 0.567,-0.748 0.898,-1.081l-0.356,-0.355c-0.239,-0.274 -0.566,-0.457 -0.925,-0.519c-0.323,-0.026 -0.64,0.105 -0.852,0.351c-0.148,0.137 -0.267,0.302 -0.35,0.485c-0.068,0.14 -0.118,0.288 -0.15,0.441c-0.022,0.113 -0.034,0.228 -0.036,0.343c0.002,0.071 -0.02,0.141 -0.063,0.197c-0.042,0.042 -0.104,0.056 -0.159,0.036l-0.159,-0.035c-0.005,-0.328 0.048,-0.654 0.157,-0.965c0.115,-0.301 0.296,-0.574 0.529,-0.798c0.158,-0.17 0.351,-0.304 0.566,-0.394c0.184,-0.078 0.384,-0.11 0.583,-0.093c0.21,0.019 0.412,0.083 0.594,0.187c0.216,0.118 0.413,0.269 0.582,0.447l2.201,2.2l-0.139,0.127Zm0.249,-6.314c-0.021,0.024 -0.05,0.04 -0.081,0.044c-0.033,0.001 -0.065,-0.013 -0.086,-0.038l-0.121,-0.121l0.534,-0.62l-1.123,-1.296c-0.017,-0.023 -0.027,-0.05 -0.029,-0.078c0.002,-0.032 0.018,-0.062 0.043,-0.081l0.155,-0.155l1.29,1.29l1.065,-1.065l0.239,0.24l-1.065,1.065l2.292,2.292c0.08,0.081 0.171,0.152 0.27,0.21c0.084,0.039 0.176,0.059 0.27,0.058c0.082,0.005 0.165,-0.014 0.238,-0.055c0.079,-0.039 0.151,-0.091 0.213,-0.154c0.073,-0.07 0.131,-0.154 0.171,-0.247c0.034,-0.075 0.059,-0.154 0.074,-0.235c0.019,-0.058 0.03,-0.118 0.033,-0.178c0.006,-0.054 0.011,-0.087 0.03,-0.106c0.026,-0.019 0.061,-0.026 0.092,-0.016l0.227,0.053c0.005,0.189 -0.029,0.376 -0.099,0.552c-0.072,0.187 -0.183,0.357 -0.326,0.498l0,0l-0.005,0.005l0.005,-0.005c-0.185,0.213 -0.449,0.341 -0.73,0.353c-0.305,-0.016 -0.589,-0.157 -0.785,-0.389l-2.306,-2.306l-0.485,0.485Zm83.796,-77.725l-4.942,-4.942l0.325,-0.325l2.155,2.155c-0.049,-0.331 -0.031,-0.669 0.051,-0.995c0.085,-0.321 0.255,-0.613 0.492,-0.847c0.359,-0.394 0.883,-0.596 1.412,-0.544c0.636,0.123 1.211,0.456 1.634,0.946c0.235,0.232 0.437,0.496 0.6,0.784c0.142,0.262 0.233,0.55 0.267,0.847c0.072,0.598 -0.149,1.197 -0.593,1.607c-0.208,0.216 -0.465,0.378 -0.75,0.47c-0.274,0.078 -0.562,0.089 -0.84,0.032l0.39,0.439c0,0 0,0 0,0c0.047,0.047 0.047,0.125 0,0.173c-0.002,0.002 -0.004,0.004 -0.006,0.005l-0.195,0.195Zm-47.786,44.123l0.062,0.062c0.22,0.23 0.473,0.425 0.752,0.578c0.227,0.126 0.476,0.205 0.734,0.231c0.237,0.026 0.477,-0.011 0.695,-0.108c0.234,-0.092 0.446,-0.233 0.623,-0.412c0.15,-0.149 0.278,-0.319 0.379,-0.504c0.078,-0.139 0.143,-0.285 0.193,-0.436c0.032,-0.109 0.056,-0.22 0.074,-0.332c0.005,-0.059 0.025,-0.116 0.058,-0.165c0.026,-0.03 0.067,-0.042 0.105,-0.03l0.203,0.018c0.009,0.135 0,0.27 -0.026,0.403c-0.039,0.153 -0.091,0.302 -0.155,0.446c-0.143,0.327 -0.345,0.625 -0.597,0.877c-0.215,0.22 -0.472,0.394 -0.756,0.513c-0.265,0.112 -0.553,0.162 -0.84,0.146c-0.309,-0.025 -0.609,-0.112 -0.883,-0.254c-0.327,-0.168 -0.624,-0.386 -0.881,-0.649c-0.23,-0.227 -0.421,-0.49 -0.568,-0.779c-0.131,-0.261 -0.212,-0.546 -0.238,-0.839c-0.011,-0.284 0.036,-0.567 0.138,-0.832c0.113,-0.293 0.289,-0.557 0.516,-0.775l0.01,0.033c0.184,-0.189 0.404,-0.337 0.647,-0.437c0.218,-0.102 0.455,-0.155 0.695,-0.156c0.256,0.016 0.507,0.083 0.737,0.195c0.274,0.13 0.523,0.308 0.736,0.524c0.054,0.054 0.086,0.086 0.081,0.13c0.004,0.036 -0.01,0.073 -0.039,0.097l-2.455,2.455Zm56.176,-56.18l0.061,0.061c0.22,0.231 0.473,0.426 0.752,0.579c0.227,0.126 0.476,0.204 0.735,0.23c0.233,0.027 0.469,-0.008 0.686,-0.099c0.235,-0.096 0.449,-0.238 0.628,-0.418c0.15,-0.149 0.278,-0.319 0.38,-0.504c0.078,-0.139 0.143,-0.284 0.193,-0.435c0.031,-0.11 0.056,-0.221 0.074,-0.333c0.003,-0.059 0.023,-0.116 0.057,-0.165c0.026,-0.03 0.068,-0.042 0.105,-0.03l0.203,0.018c0.009,0.138 -0.002,0.277 -0.034,0.411c-0.035,0.152 -0.085,0.299 -0.15,0.441c-0.07,0.161 -0.155,0.316 -0.252,0.463c-0.101,0.15 -0.217,0.291 -0.345,0.419c-0.215,0.22 -0.472,0.394 -0.755,0.513c-0.266,0.112 -0.553,0.162 -0.84,0.146c-0.309,-0.025 -0.609,-0.111 -0.883,-0.254c-0.329,-0.163 -0.627,-0.383 -0.881,-0.648c-0.23,-0.228 -0.422,-0.491 -0.568,-0.779c-0.132,-0.262 -0.212,-0.547 -0.238,-0.84c-0.011,-0.283 0.035,-0.567 0.138,-0.832c0.113,-0.293 0.289,-0.557 0.515,-0.774l0.017,0.021c0.183,-0.188 0.403,-0.337 0.647,-0.437c0.218,-0.099 0.455,-0.152 0.694,-0.156c0.256,0.017 0.507,0.083 0.737,0.195c0.274,0.131 0.524,0.308 0.736,0.525c0.04,0.034 0.068,0.079 0.081,0.129c0.004,0.037 -0.01,0.073 -0.038,0.098l-2.455,2.455Zm-102.252,102.251l0.062,0.062c0.22,0.23 0.473,0.425 0.752,0.578c0.227,0.126 0.476,0.204 0.734,0.23c0.234,0.027 0.47,-0.008 0.687,-0.099c0.235,-0.096 0.449,-0.238 0.628,-0.418c0.15,-0.149 0.278,-0.318 0.38,-0.504c0.078,-0.139 0.142,-0.284 0.193,-0.435c0.031,-0.11 0.056,-0.221 0.074,-0.333c0.005,-0.059 0.024,-0.115 0.057,-0.165c0.026,-0.03 0.068,-0.042 0.105,-0.03l0.203,0.018c0.009,0.135 0,0.27 -0.026,0.403c-0.039,0.153 -0.091,0.302 -0.155,0.446c-0.071,0.161 -0.155,0.316 -0.253,0.463c-0.101,0.151 -0.216,0.291 -0.344,0.42c-0.215,0.219 -0.472,0.394 -0.755,0.513c-0.266,0.112 -0.554,0.162 -0.841,0.145c-0.308,-0.025 -0.608,-0.111 -0.882,-0.254c-0.327,-0.167 -0.625,-0.386 -0.882,-0.648c-0.229,-0.228 -0.421,-0.49 -0.567,-0.779c-0.132,-0.262 -0.213,-0.547 -0.238,-0.839c-0.012,-0.284 0.035,-0.567 0.137,-0.833c0.114,-0.292 0.29,-0.556 0.516,-0.774l0.022,0.016c0.183,-0.188 0.403,-0.337 0.647,-0.437c0.218,-0.099 0.455,-0.152 0.694,-0.156c0.257,0.017 0.507,0.083 0.737,0.195c0.275,0.13 0.524,0.308 0.736,0.525c0.054,0.054 0.086,0.086 0.081,0.129c0.004,0.037 -0.01,0.073 -0.038,0.097l-2.464,2.464Zm-9.572,7.379c0,0 -0.005,0.044 0,0.06c-0.011,0.018 -0.025,0.033 -0.043,0.043c-0.041,0.029 -0.091,0.044 -0.141,0.044c-0.073,0.014 -0.159,0.036 -0.257,0.063c-0.121,0.035 -0.239,0.083 -0.351,0.141c-0.368,0.222 -0.657,0.554 -0.824,0.948c-0.083,0.217 -0.112,0.451 -0.083,0.681c0.026,0.248 0.106,0.486 0.232,0.699c0.142,0.26 0.32,0.496 0.53,0.704c0.211,0.215 0.453,0.398 0.717,0.543c0.216,0.122 0.453,0.201 0.699,0.233c0.224,0.024 0.451,-0.005 0.662,-0.086c0.22,-0.085 0.419,-0.218 0.582,-0.388c0.143,-0.135 0.264,-0.293 0.358,-0.465c0.062,-0.128 0.109,-0.263 0.142,-0.401c0.027,-0.096 0.044,-0.195 0.052,-0.294c0.001,-0.087 0.012,-0.135 0.036,-0.16c0.026,-0.03 0.068,-0.042 0.105,-0.03l0.203,0.019c0.01,0.13 0.005,0.262 -0.015,0.391c-0.022,0.146 -0.062,0.288 -0.117,0.425c-0.063,0.147 -0.139,0.288 -0.228,0.422c-0.096,0.146 -0.207,0.282 -0.331,0.406c-0.202,0.203 -0.442,0.365 -0.707,0.475c-0.256,0.097 -0.53,0.138 -0.802,0.119c-0.293,-0.025 -0.578,-0.106 -0.84,-0.238c-0.314,-0.159 -0.599,-0.369 -0.844,-0.622c-0.24,-0.236 -0.441,-0.509 -0.597,-0.808c-0.136,-0.26 -0.217,-0.546 -0.238,-0.84c-0.023,-0.285 0.017,-0.572 0.119,-0.84c0.117,-0.295 0.295,-0.562 0.524,-0.783c0.199,-0.205 0.437,-0.369 0.701,-0.48c0.227,-0.103 0.471,-0.164 0.719,-0.18l0.037,0.199Zm80.412,-81.429c0.222,-0.23 0.49,-0.41 0.787,-0.529c0.264,-0.109 0.549,-0.156 0.833,-0.138c0.293,0.024 0.578,0.105 0.839,0.238c0.606,0.328 1.103,0.824 1.43,1.43c0.134,0.262 0.214,0.547 0.238,0.84c0.012,0.283 -0.035,0.567 -0.138,0.832c-0.258,0.585 -0.726,1.054 -1.311,1.312c-0.266,0.102 -0.549,0.149 -0.832,0.137c-0.294,-0.02 -0.58,-0.101 -0.84,-0.237c-0.613,-0.318 -1.112,-0.818 -1.43,-1.431c-0.137,-0.259 -0.218,-0.545 -0.238,-0.839c-0.018,-0.284 0.029,-0.569 0.138,-0.832c0.118,-0.295 0.296,-0.561 0.524,-0.783Zm-26.439,33.317l-0.322,0.322l-2.155,-2.154c-0.25,-0.281 -0.588,-0.469 -0.96,-0.532c-0.357,-0.02 -0.704,0.128 -0.938,0.4c-0.221,0.217 -0.376,0.492 -0.448,0.793c-0.081,0.321 -0.094,0.655 -0.039,0.98l2.532,2.532l-0.347,0.336l-4.942,-4.942l0.325,-0.325l2.141,2.141c-0.041,-0.337 -0.015,-0.68 0.077,-1.008c0.092,-0.321 0.266,-0.614 0.505,-0.85c0.165,-0.173 0.364,-0.31 0.584,-0.401c0.19,-0.089 0.4,-0.126 0.608,-0.108c0.215,0.026 0.423,0.092 0.613,0.196c0.227,0.122 0.433,0.279 0.612,0.465l2.154,2.155Zm-19.453,19.453l-0.325,0.325l-2.154,-2.155c-0.251,-0.282 -0.594,-0.468 -0.969,-0.523c-0.355,-0.028 -0.703,0.12 -0.933,0.394c-0.221,0.217 -0.377,0.492 -0.448,0.793c-0.081,0.324 -0.097,0.66 -0.046,0.989l2.531,2.532l-0.325,0.314l-3.382,-3.383l0.179,-0.179c0.001,-0.002 0.003,-0.003 0.005,-0.005c0.048,-0.049 0.127,-0.051 0.178,-0.006l0.536,0.477c-0.035,-0.339 -0.011,-0.682 0.071,-1.014c0.092,-0.327 0.268,-0.626 0.511,-0.866c0.165,-0.172 0.364,-0.309 0.584,-0.401c0.192,-0.084 0.4,-0.121 0.608,-0.108c0.215,0.026 0.423,0.092 0.613,0.196c0.227,0.122 0.433,0.279 0.612,0.465l2.154,2.155Zm36.449,-36.513l-0.325,0.325l-2.155,-2.155c-0.251,-0.282 -0.585,-0.477 -0.954,-0.559c-0.315,-0.043 -0.632,0.072 -0.847,0.308c-0.185,0.18 -0.308,0.414 -0.35,0.668c-0.047,0.292 -0.033,0.59 0.04,0.876l2.556,2.555l-0.279,0.366l-3.386,-3.385l0.174,-0.174c0.001,-0.002 0.003,-0.004 0.005,-0.006c0.049,-0.048 0.128,-0.051 0.178,-0.005l0.52,0.46c-0.027,-0.16 -0.046,-0.321 -0.055,-0.483c-0.001,-0.147 0.014,-0.294 0.045,-0.438c0.03,-0.139 0.078,-0.273 0.141,-0.4c0.069,-0.132 0.157,-0.252 0.261,-0.358c0.211,-0.23 0.506,-0.366 0.817,-0.375c0.323,0.004 0.635,0.11 0.893,0.303c-0.091,-0.171 -0.154,-0.355 -0.187,-0.545c-0.028,-0.167 -0.027,-0.337 0.001,-0.503c0.028,-0.164 0.082,-0.322 0.161,-0.468c0.081,-0.143 0.18,-0.275 0.296,-0.392c0.155,-0.157 0.339,-0.283 0.541,-0.369c0.187,-0.076 0.388,-0.11 0.589,-0.1c0.217,0.022 0.427,0.087 0.618,0.19c0.226,0.124 0.433,0.281 0.612,0.466l2.155,2.154l-0.325,0.326l-2.155,-2.155c-0.251,-0.287 -0.594,-0.478 -0.971,-0.543c-0.331,-0.027 -0.658,0.101 -0.884,0.346c-0.118,0.115 -0.212,0.251 -0.277,0.401c-0.064,0.151 -0.099,0.314 -0.101,0.478c0.008,0.178 0.048,0.353 0.12,0.516c0.091,0.195 0.218,0.371 0.373,0.52l2.155,2.155Zm-5.932,5.996l-0.32,0.32l-3.382,-3.383l0.322,-0.317l3.38,3.38Zm-36.806,36.801l-0.325,0.325l-3.38,-3.38l0.325,-0.325l3.38,3.38Zm71.553,-71.553l-0.325,0.325l-3.38,-3.38l0.325,-0.325l3.38,3.38Zm10.178,-10.178l-0.326,0.325l-4.939,-4.939l0.325,-0.325l4.94,4.939Zm-103.75,103.75l-3.38,-3.38l0.165,-0.165c0.03,-0.033 0.069,-0.054 0.111,-0.063c0.044,0.005 0.085,0.025 0.116,0.056l0.733,0.684c-0.155,-0.336 -0.225,-0.706 -0.205,-1.077c0.03,-0.347 0.189,-0.672 0.446,-0.909c0.092,-0.09 0.193,-0.171 0.301,-0.241c0.108,-0.061 0.221,-0.112 0.338,-0.155l0.177,0.275c0.028,0.033 0.026,0.083 -0.005,0.114c-0.002,0.002 -0.005,0.005 -0.009,0.007c-0.016,0.02 -0.034,0.038 -0.054,0.055c-0.042,0.018 -0.082,0.039 -0.122,0.062c-0.06,0.031 -0.117,0.068 -0.17,0.111c-0.072,0.034 -0.14,0.075 -0.203,0.123c-0.244,0.226 -0.386,0.542 -0.394,0.873c0.007,0.381 0.102,0.754 0.277,1.091l2.201,2.2l-0.323,0.339Zm11.639,-12.006c0.127,-0.122 0.236,-0.26 0.326,-0.411c0.075,-0.133 0.137,-0.272 0.185,-0.417c0.047,-0.147 0.077,-0.3 0.088,-0.454c0.016,-0.157 0.023,-0.315 0.02,-0.473l-0.881,-0.881c-0.272,0.289 -0.527,0.592 -0.764,0.91c-0.17,0.227 -0.311,0.474 -0.419,0.736c-0.07,0.185 -0.1,0.382 -0.088,0.579c0.018,0.165 0.093,0.319 0.212,0.434c0.099,0.1 0.219,0.177 0.351,0.226c0.112,0.046 0.232,0.067 0.353,0.061c0.116,-0.01 0.228,-0.043 0.33,-0.098c0.107,-0.057 0.205,-0.129 0.29,-0.215l-0.003,0.003Zm56.901,-62.869c-0.221,0.215 -0.375,0.488 -0.443,0.788c-0.065,0.322 -0.064,0.654 0.005,0.975l1.773,1.772c0.542,0.153 1.129,-0.015 1.511,-0.434c0.185,-0.176 0.326,-0.393 0.412,-0.633c0.084,-0.22 0.11,-0.457 0.076,-0.689c-0.037,-0.249 -0.122,-0.488 -0.25,-0.705c-0.147,-0.249 -0.326,-0.477 -0.532,-0.679c-0.356,-0.421 -0.84,-0.715 -1.378,-0.836c-0.44,-0.051 -0.879,0.121 -1.169,0.458l-0.005,-0.017Zm8.901,-2.976c0.185,-0.18 0.331,-0.397 0.427,-0.637c0.082,-0.213 0.109,-0.442 0.081,-0.667c-0.031,-0.248 -0.114,-0.486 -0.244,-0.699c-0.149,-0.251 -0.33,-0.481 -0.538,-0.685c-0.204,-0.208 -0.434,-0.389 -0.685,-0.538c-0.213,-0.128 -0.451,-0.211 -0.699,-0.244c-0.226,-0.027 -0.457,-0.001 -0.673,0.075c-0.479,0.203 -0.862,0.585 -1.064,1.065c-0.077,0.216 -0.102,0.446 -0.075,0.673c0.034,0.248 0.115,0.487 0.238,0.704c0.149,0.251 0.33,0.481 0.538,0.685c0.204,0.209 0.434,0.39 0.685,0.538c0.216,0.125 0.455,0.206 0.704,0.238c0.225,0.029 0.455,0.001 0.667,-0.08c0.24,-0.097 0.458,-0.242 0.638,-0.428l-0.01,0.01l0.019,-0.019l-0.009,0.009Zm18.036,-23.972c-0.22,0.212 -0.372,0.484 -0.437,0.782c-0.068,0.322 -0.072,0.653 -0.011,0.976l1.78,1.78c0.812,0.154 1.628,-0.309 1.916,-1.087c0.081,-0.217 0.104,-0.452 0.067,-0.681c-0.035,-0.25 -0.118,-0.491 -0.244,-0.709c-0.147,-0.249 -0.326,-0.477 -0.533,-0.679c-0.352,-0.425 -0.837,-0.719 -1.377,-0.836c-0.44,-0.052 -0.879,0.12 -1.169,0.457l0.008,-0.003Zm-64.114,67.47c0.137,-0.131 0.249,-0.285 0.331,-0.455c0.064,-0.141 0.096,-0.294 0.093,-0.448c0.005,-0.155 -0.026,-0.308 -0.09,-0.449c-0.143,-0.307 -0.39,-0.554 -0.698,-0.697c-0.141,-0.06 -0.294,-0.09 -0.448,-0.091c-0.16,0.007 -0.318,0.047 -0.462,0.118c-0.168,0.08 -0.321,0.19 -0.449,0.325c-0.133,0.128 -0.242,0.278 -0.321,0.444c-0.073,0.144 -0.113,0.302 -0.117,0.463c-0.007,0.155 0.024,0.308 0.09,0.448c0.143,0.307 0.39,0.554 0.698,0.697c0.139,0.068 0.293,0.099 0.448,0.091c0.162,-0.002 0.322,-0.04 0.468,-0.112c0.166,-0.079 0.317,-0.187 0.444,-0.32l0.013,-0.014Zm17.917,-21.304c-0.164,0.157 -0.296,0.343 -0.388,0.549c-0.083,0.188 -0.127,0.391 -0.132,0.595c0.004,0.21 0.045,0.417 0.12,0.613c0.089,0.218 0.211,0.422 0.36,0.604l2.238,-2.238c-0.163,-0.17 -0.353,-0.311 -0.563,-0.417c-0.181,-0.09 -0.378,-0.142 -0.581,-0.152c-0.188,-0.013 -0.378,0.021 -0.551,0.099c-0.19,0.079 -0.363,0.196 -0.506,0.344l0.003,0.003Zm56.175,-56.181c-0.164,0.157 -0.295,0.344 -0.388,0.55c-0.082,0.188 -0.127,0.39 -0.132,0.595c0.004,0.21 0.045,0.417 0.12,0.613c0.089,0.218 0.211,0.421 0.36,0.604l2.238,-2.239c-0.163,-0.169 -0.353,-0.31 -0.563,-0.417c-0.181,-0.09 -0.378,-0.142 -0.58,-0.152c-0.189,-0.01 -0.378,0.024 -0.552,0.099c-0.19,0.079 -0.363,0.196 -0.506,0.345l0.003,0.002Zm-102.243,102.243c-0.164,0.157 -0.295,0.344 -0.388,0.55c-0.082,0.188 -0.127,0.39 -0.132,0.595c0.004,0.209 0.045,0.417 0.12,0.612c0.09,0.219 0.211,0.422 0.36,0.604l2.238,-2.238c-0.163,-0.169 -0.353,-0.31 -0.563,-0.417c-0.181,-0.09 -0.378,-0.142 -0.58,-0.152c-0.189,-0.01 -0.378,0.024 -0.552,0.099c-0.19,0.079 -0.362,0.196 -0.506,0.345l0.003,0.002Zm51.219,-53.912c0.037,0.039 0.066,0.085 0.086,0.135c0.015,0.053 0.025,0.109 0.029,0.164c-0.002,0.055 -0.014,0.109 -0.036,0.16c-0.019,0.054 -0.05,0.102 -0.092,0.141c-0.039,0.041 -0.087,0.072 -0.141,0.092c-0.049,0.019 -0.101,0.03 -0.154,0.03c-0.056,0 -0.112,-0.01 -0.164,-0.029c-0.051,-0.02 -0.096,-0.049 -0.135,-0.086c-0.038,-0.041 -0.069,-0.089 -0.092,-0.14c-0.021,-0.052 -0.031,-0.108 -0.029,-0.165c0.002,-0.054 0.011,-0.107 0.025,-0.159c0.025,-0.05 0.058,-0.096 0.098,-0.136c0.039,-0.04 0.085,-0.073 0.135,-0.097c0.054,-0.016 0.109,-0.026 0.165,-0.031c0.056,0.002 0.112,0.012 0.165,0.03c0.051,0.022 0.099,0.053 0.14,0.091Zm34.741,-34.747c0.041,0.036 0.07,0.083 0.086,0.135c0.019,0.053 0.029,0.109 0.029,0.165c0.002,0.053 -0.008,0.105 -0.03,0.154c-0.042,0.107 -0.126,0.191 -0.233,0.233c-0.051,0.021 -0.105,0.033 -0.159,0.036c-0.055,-0.006 -0.108,-0.018 -0.16,-0.035c-0.052,-0.016 -0.098,-0.046 -0.134,-0.086c-0.042,-0.039 -0.073,-0.087 -0.092,-0.14c-0.019,-0.051 -0.031,-0.105 -0.035,-0.16c0.005,-0.055 0.015,-0.111 0.031,-0.164c0.057,-0.165 0.219,-0.272 0.392,-0.258c0.057,-0.003 0.113,0.007 0.165,0.029c0.053,0.019 0.102,0.05 0.14,0.091Zm-71.553,71.553c0.041,0.036 0.071,0.083 0.086,0.135c0.047,0.101 0.046,0.217 -0.001,0.319c-0.041,0.106 -0.126,0.191 -0.233,0.233c-0.048,0.021 -0.101,0.032 -0.154,0.03c-0.056,0 -0.112,-0.01 -0.164,-0.029c-0.051,-0.02 -0.096,-0.049 -0.135,-0.086c-0.038,-0.042 -0.069,-0.089 -0.092,-0.141c-0.021,-0.052 -0.031,-0.108 -0.029,-0.164c0.006,-0.168 0.106,-0.32 0.258,-0.393c0.054,-0.016 0.109,-0.026 0.165,-0.03c0.055,0 0.109,0.012 0.159,0.035c0.054,0.018 0.102,0.05 0.14,0.091Z" style="fill:#111;fill-rule:nonzero;"/><path d="M83.246,183.209l-5.368,5.368l-26.124,-26.124l5.368,-5.368l26.124,26.124Z" style="fill:#111;fill-rule:nonzero;"/><path d="M79.692,134.5l18.782,18.782c3.135,3.135 3.904,5.845 -1.068,10.817c-4.972,4.972 -7.685,4.2 -10.817,1.068l-18.782,-18.783l-5.368,5.368l14.513,14.514c5.476,5.475 8.818,7.912 13.703,6.874c4.884,-1.039 8.716,-4.946 9.781,-6.011c1.065,-1.065 4.983,-4.913 6.011,-9.782c1.028,-4.868 -1.399,-8.227 -6.874,-13.702l-14.513,-14.513l-5.368,5.368Z" style="fill:#111;fill-rule:nonzero;"/><path d="M55.088,224.365c-0.095,0.095 -0.214,0.165 -0.325,0.244c-0.398,0.279 -0.78,0.586 -1.197,0.825c-0.666,0.385 -1.348,0.75 -2.045,1.081c-0.746,0.369 -1.537,0.635 -2.353,0.791c-0.192,0.037 -0.387,0.052 -0.581,0.042c-0.259,-0.021 -0.345,-0.193 -0.196,-0.407c0.2,-0.297 0.456,-0.553 0.753,-0.753c1.117,-0.833 2.329,-1.528 3.61,-2.07c0.67,-0.313 1.372,-0.551 2.093,-0.709c0.177,-0.035 0.358,-0.051 0.538,-0.047c0.292,0.01 0.37,0.169 0.231,0.431c-0.06,0.103 -0.136,0.195 -0.203,0.29l-0.325,0.282Zm4.923,-4.983c-0.573,0.555 -1.211,1.04 -1.901,1.443c-0.327,0.197 -0.69,0.327 -1.068,0.384c-0.314,0.067 -0.639,-0.048 -0.839,-0.297c-0.128,-0.185 -0.194,-0.406 -0.187,-0.632c0.002,-0.43 0.088,-0.856 0.252,-1.254c0.361,-0.942 0.874,-1.819 1.518,-2.595c0.727,-0.943 1.62,-1.746 2.633,-2.37c0.321,-0.198 0.672,-0.343 1.039,-0.43c0.111,-0.024 0.224,-0.038 0.338,-0.041c0.232,-0.02 0.461,0.064 0.626,0.228c0.141,0.141 0.223,0.331 0.23,0.531c0.032,0.462 -0.046,0.927 -0.228,1.354c-0.317,0.841 -0.765,1.628 -1.328,2.33c-0.336,0.471 -0.727,0.916 -1.085,1.349Zm5.026,-17.118c0.192,-0.135 0.393,-0.256 0.601,-0.364c0.241,-0.119 0.534,-0.053 0.699,0.157c0.152,0.181 0.273,0.386 0.357,0.607c0.203,0.619 0.281,1.272 0.232,1.923c-0.051,1.69 -0.473,3.352 -1.236,4.866c-0.224,0.491 -0.554,0.928 -0.965,1.278c-0.064,0.05 -0.132,0.094 -0.203,0.133c-0.276,0.183 -0.644,0.148 -0.877,-0.085c-0.042,-0.042 -0.079,-0.09 -0.109,-0.142c-0.202,-0.306 -0.332,-0.655 -0.38,-1.02c-0.149,-0.969 -0.129,-1.958 0.057,-2.923c0.187,-1.275 0.61,-2.506 1.249,-3.629c0.174,-0.26 0.385,-0.525 0.575,-0.801Zm-11.678,19.451c-1.572,1.447 -3.373,2.344 -5.527,2.407c-0.664,0.033 -1.325,-0.105 -1.919,-0.402c-1.005,-0.48 -1.535,-1.61 -1.264,-2.695c0.174,-0.79 0.552,-1.522 1.095,-2.124c1.215,-1.412 2.877,-2.367 4.706,-2.702c0.836,-0.182 1.704,-0.156 2.525,0.076c0.448,0.12 0.859,0.346 1.201,0.658c0.568,0.532 0.824,1.321 0.679,2.089c-0.131,0.744 -0.456,1.441 -0.943,2.021c-0.171,0.241 -0.369,0.455 -0.553,0.672Zm6.235,-9.796c-0.781,0.851 -1.831,1.406 -2.971,1.571c-1.153,0.157 -2.303,-0.318 -3.003,-1.242c-0.691,-0.887 -1.058,-1.984 -1.041,-3.112c-0.028,-1.357 0.317,-2.699 0.998,-3.879c0.466,-0.858 1.112,-1.606 1.895,-2.191c0.707,-0.555 1.566,-0.882 2.461,-0.937c1.248,-0.081 2.434,0.557 3.05,1.641c0.63,1.047 0.883,2.279 0.719,3.493c-0.151,1.744 -0.895,3.388 -2.108,4.656Zm3.2,-21.821c0.749,0.81 1.312,1.775 1.65,2.826c0.451,1.215 0.611,2.519 0.467,3.81c-0.06,0.605 -0.256,1.188 -0.575,1.707c-0.477,0.827 -1.517,1.161 -2.38,0.763c-0.528,-0.21 -0.997,-0.545 -1.367,-0.976c-1.555,-1.746 -2.307,-4.071 -2.071,-6.407c0.039,-0.697 0.272,-1.371 0.671,-1.947c0.506,-0.794 1.542,-1.081 2.379,-0.661c0.462,0.213 0.879,0.513 1.226,0.885Zm-14.361,14.351c1.432,1.622 1.885,3.798 0.967,6.229c-0.492,1.285 -1.393,2.375 -2.563,3.101c-1.698,1.155 -3.835,1.459 -5.778,0.823c-3.134,-0.974 -4.922,-4.329 -3.991,-7.487c0.367,-1.325 1.158,-2.495 2.252,-3.33c2.715,-2.25 6.765,-1.959 9.099,0.656l0.014,0.008Zm-22.6,17.666c-0.65,-0.605 -1.14,-1.363 -1.425,-2.205c-0.181,-0.525 -0.179,-1.096 0.005,-1.621c0.229,-0.575 0.685,-1.031 1.26,-1.26c0.845,-0.356 1.774,-0.457 2.672,-0.292c1.242,0.18 2.425,0.643 3.457,1.353c0.864,0.557 1.595,1.298 2.138,2.171c0.292,0.464 0.477,0.988 0.541,1.533c0.137,1.047 -0.494,2.059 -1.496,2.401c-0.833,0.301 -1.732,0.371 -2.599,0.202c-1.717,-0.279 -3.306,-1.075 -4.553,-2.282Zm28.934,-33.281c1.559,1.673 2.331,3.561 2.051,5.807c-0.137,1.266 -0.759,2.434 -1.733,3.258c-0.922,0.792 -2.108,1.208 -3.318,1.164c-1.085,-0.026 -2.142,-0.345 -3.056,-0.926c-0.844,-0.518 -1.566,-1.212 -2.117,-2.035c-0.926,-1.317 -1.343,-2.929 -1.174,-4.535c0.086,-0.963 0.445,-1.882 1.034,-2.651c1.026,-1.383 2.718,-2.117 4.423,-1.918c1.131,0.095 2.21,0.512 3.108,1.201c0.289,0.207 0.558,0.449 0.782,0.635Zm3.764,-3.048c-0.844,-0.843 -1.551,-1.813 -2.096,-2.876c-0.268,-0.491 -0.438,-1.03 -0.503,-1.587c-0.009,-0.132 -0.004,-0.265 0.015,-0.397c0.014,-0.177 0.091,-0.344 0.217,-0.47c0.155,-0.155 0.37,-0.234 0.588,-0.216c0.395,0.019 0.78,0.131 1.122,0.326c0.533,0.271 1.027,0.613 1.467,1.017c0.339,0.307 0.681,0.616 0.994,0.956c0.904,0.937 1.612,2.046 2.081,3.262c0.17,0.405 0.228,0.849 0.169,1.286c-0.046,0.359 -0.353,0.635 -0.715,0.639c-0.407,0.005 -0.807,-0.096 -1.161,-0.293c-0.55,-0.272 -1.061,-0.617 -1.518,-1.025c-0.261,-0.245 -0.514,-0.493 -0.66,-0.622Zm-26.878,19.008c1.142,1.144 1.849,2.652 2,4.265c0.111,1.031 -0.065,2.075 -0.507,3.017c-0.342,0.754 -0.879,1.406 -1.553,1.887c-1.576,1.102 -3.259,1.175 -4.999,0.518c-1.25,-0.482 -2.323,-1.334 -3.075,-2.441c-0.941,-1.275 -1.399,-2.845 -1.294,-4.431c0.056,-1.132 0.487,-2.215 1.225,-3.078c0.972,-1.156 2.436,-1.785 3.938,-1.693c1.051,0.04 2.071,0.358 2.955,0.923c0.477,0.291 0.917,0.638 1.31,1.033Zm-10.959,11.364c0.903,0.909 1.635,1.975 2.159,3.146c0.171,0.366 0.279,0.76 0.318,1.163c0.019,0.187 0.011,0.377 -0.023,0.562c-0.057,0.328 -0.347,0.57 -0.68,0.567c-0.406,0.004 -0.806,-0.1 -1.158,-0.302c-0.603,-0.311 -1.16,-0.704 -1.655,-1.167c-1.13,-0.993 -2.048,-2.202 -2.701,-3.558c-0.213,-0.42 -0.349,-0.875 -0.401,-1.344c-0.012,-0.147 -0.007,-0.295 0.015,-0.44c0.031,-0.384 0.368,-0.678 0.753,-0.656c0.41,0.011 0.811,0.125 1.166,0.331c0.822,0.445 1.567,1.018 2.207,1.698Zm25.355,-33.386c-0.582,-0.562 -1.027,-1.251 -1.299,-2.014c-0.148,-0.414 -0.196,-0.857 -0.139,-1.294c0.118,-0.836 0.705,-1.538 1.508,-1.804c0.877,-0.325 1.828,-0.392 2.739,-0.192c1.532,0.265 2.96,0.944 4.13,1.962c0.705,0.578 1.258,1.317 1.615,2.157c0.228,0.51 0.294,1.079 0.189,1.631c-0.157,0.726 -0.668,1.33 -1.358,1.606c-0.767,0.329 -1.609,0.441 -2.433,0.326c-1.334,-0.141 -2.609,-0.617 -3.707,-1.383c-0.434,-0.298 -0.838,-0.648 -1.256,-0.974l0.011,-0.021Zm-14.66,5.934c1.585,-1.461 3.78,-2.07 5.881,-1.631c1.198,0.228 2.298,0.809 3.159,1.67c1.537,1.537 2.134,3.79 1.564,5.898c-0.346,1.366 -1.146,2.578 -2.269,3.433c-1.76,1.466 -4.156,1.922 -6.32,1.202c-1.222,-0.363 -2.286,-1.125 -3.021,-2.165c-1.426,-2.006 -1.549,-4.139 -0.526,-6.363c0.377,-0.772 0.897,-1.466 1.532,-2.044Zm-12.945,14.873c0.511,0.529 0.935,1.136 1.256,1.798c0.556,1.111 0.873,2.327 0.932,3.571c0.052,0.765 -0.051,1.533 -0.304,2.259c-0.165,0.528 -0.497,0.989 -0.947,1.313c-0.55,0.365 -1.257,0.401 -1.837,0.092c-0.677,-0.322 -1.254,-0.82 -1.67,-1.442c-1.125,-1.553 -1.715,-3.432 -1.681,-5.355c-0.015,-0.763 0.16,-1.52 0.51,-2.2c0.215,-0.448 0.591,-0.8 1.051,-0.987c0.578,-0.198 1.214,-0.124 1.728,0.2c0.358,0.199 0.683,0.452 0.962,0.751Zm1.101,-13.64c0.673,-0.705 1.531,-1.208 2.474,-1.451c0.879,-0.242 1.819,-0.107 2.592,0.371c0.532,0.337 0.965,0.809 1.254,1.368c0.747,1.408 0.775,2.91 0.414,4.435c-0.18,0.766 -0.484,1.499 -0.898,2.169c-0.647,1.14 -1.641,2.046 -2.837,2.583c-0.99,0.473 -2.145,0.452 -3.112,-0.055c-0.723,-0.395 -1.287,-1.029 -1.593,-1.794c-0.55,-1.339 -0.62,-2.83 -0.198,-4.219c0.325,-1.282 0.982,-2.457 1.904,-3.407Zm13.357,-6.506c-1.596,1.477 -3.444,2.366 -5.645,2.36c-0.606,0.003 -1.203,-0.139 -1.741,-0.414c-1.004,-0.481 -1.53,-1.615 -1.251,-2.697c0.146,-0.67 0.449,-1.296 0.884,-1.826c1.336,-1.689 3.281,-2.79 5.412,-3.064c0.785,-0.128 1.589,-0.048 2.33,0.233c1.163,0.403 1.826,1.645 1.518,2.84c-0.193,0.801 -0.583,1.541 -1.136,2.154c-0.114,0.146 -0.244,0.276 -0.371,0.414Zm-18.783,7.94c0.176,-0.137 0.359,-0.265 0.549,-0.382c0.283,-0.169 0.651,-0.096 0.845,0.167c0.243,0.319 0.394,0.697 0.44,1.096c0.145,0.894 0.142,1.806 -0.008,2.701c-0.173,1.329 -0.592,2.616 -1.236,3.794c-0.195,0.367 -0.453,0.698 -0.762,0.978c-0.56,0.485 -1.073,0.384 -1.374,-0.29c-0.204,-0.466 -0.309,-0.97 -0.309,-1.48c-0.173,-2.339 0.484,-4.671 1.855,-6.584Zm6.645,-5.277c-0.698,0.78 -1.53,1.43 -2.456,1.918c-0.29,0.147 -0.606,0.235 -0.93,0.256c-0.243,0.031 -0.486,-0.052 -0.658,-0.224c-0.142,-0.142 -0.225,-0.333 -0.231,-0.535c-0.035,-0.404 0.02,-0.812 0.16,-1.194c0.322,-0.878 0.781,-1.7 1.358,-2.436c0.413,-0.559 0.875,-1.08 1.38,-1.557c0.586,-0.582 1.267,-1.06 2.012,-1.414c0.277,-0.132 0.58,-0.199 0.886,-0.197c0.377,-0.008 0.705,0.264 0.766,0.635c0.067,0.376 0.039,0.763 -0.082,1.127c-0.271,0.907 -0.706,1.758 -1.283,2.511c-0.358,0.422 -0.74,0.88 -0.922,1.11Zm3.122,-8.454c0.659,-0.575 1.378,-1.077 2.144,-1.498c0.915,-0.535 1.881,-0.976 2.884,-1.316c0.478,-0.186 0.983,-0.293 1.495,-0.315c0.132,0.002 0.281,-0.001 0.353,0.136c0.073,0.138 -0.017,0.265 -0.098,0.379c-0.261,0.33 -0.572,0.617 -0.921,0.851c-1.381,0.982 -2.891,1.767 -4.486,2.331c-0.471,0.2 -0.975,0.31 -1.485,0.326c-0.033,0.001 -0.066,-0.002 -0.099,-0.007c-0.222,-0.043 -0.3,-0.175 -0.178,-0.362c0.121,-0.182 0.251,-0.357 0.391,-0.525Z" style="fill:#111;fill-rule:nonzero;"/></g></svg>