<?xml version="1.0" encoding="utf-8"?>
<!-- Generator: Adobe Illustrator 23.0.1, SVG Export Plug-In . SVG Version: 6.00 Build 0)  -->
<svg version="1.1" id="Layer_1" xmlns="http://www.w3.org/2000/svg" xmlns:xlink="http://www.w3.org/1999/xlink" x="0px" y="0px"
	 viewBox="0 0 506.5 151.6" style="enable-background:new 0 0 506.5 151.6;" xml:space="preserve">
<style type="text/css">
	.st0{fill:#FFFFFF;}
</style>
<g>
	<g id="Layer_1-2">
		<path class="st0" d="M218,53.4c0-6.5-4.3-9.5-12.8-9.5s-12.9,3-12.9,9.5v2c0,4.6,3.3,6.3,5.4,7.1l22.9,8.2
			c8.9,3.2,15.5,9.2,15.5,18.9v10.1c0,11-7.8,21.4-31.3,21.4s-31.4-10.3-31.4-21.4v-8.3c0-2.4,0.9-3.4,3.2-3.4h11
			c2.4,0,3.2,1,3.2,3.4v5.9c0,6.5,5,9.5,13.9,9.5s13.9-3,13.9-9.5v-4.2c0-5.4-5.3-7.5-11.2-9.7l-20.4-7.6c-6.3-2.4-12-9.1-12-17V51
			c0-11,6.8-21.4,29.9-21.4S235.4,40,235.4,51v5.4c0,2.2-0.9,3.3-3.3,3.3h-11c-2.2,0-3-1-3-3.3L218,53.4z"/>
		<path class="st0" d="M301.5,30.6c2.2,0,3.3,0.8,3.3,3.2v8.3c0,2.4-1,3.3-3.3,3.3h-18.7v71.3c0,2.4-0.8,3.4-3.2,3.4h-11.4
			c-2.4,0-3.3-1-3.3-3.4V45.4h-18.7c-2.4,0-3.3-0.9-3.3-3.3v-8.3c0-2.4,0.9-3.2,3.3-3.2H301.5z"/>
		<path class="st0" d="M318.3,120.1c-2.1,0-2.8-1.2-2.8-3.4V34.1c0-2.4,0.8-3.4,3.2-3.4h28.7c23.8,0,32.1,10.4,32.1,21.4v46.6
			c0,11-8.3,21.4-32.1,21.4H318.3z M333.3,45.4v60h14.1c8.9,0,14.3-3.3,14.3-9.9V55.2c0-6.6-5.4-9.9-14.3-9.9L333.3,45.4z"/>
		<path class="st0" d="M444.2,87.2c0.1,0.9-0.5,1.7-1.3,1.8c-0.2,0-0.3,0-0.5,0h-37.2v14.6c0,6,3.2,10.1,15.3,10.1
			s15.3-4.1,15.3-10.1v-2.2c0-1.3,0.5-1.8,1.8-1.8h4.7c1.3,0,2,0.5,2,1.8v2.8c0,10.1-5.9,17-24.1,17s-23.9-6.8-23.9-17V71
			c0-10.1,6.1-17,24.2-17s23.8,6.8,23.8,17L444.2,87.2z M405.1,82.1h30.5V71.6c0-5.9-3.7-10.1-15.3-10.1c-11.8,0-15.3,4.2-15.3,10.1
			V82.1z"/>
		<path class="st0" d="M477.1,120.1c-1.2,0-1.6-0.5-2-1.8l-20.8-61.2c-0.4-1.2,0.4-2,1.7-2h5.7c1.3,0,1.8,0.8,2.2,2l14.7,43.5
			c0.8,2.6,1.7,7.2,1.8,8.2c0.4-2.7,1.1-5.4,2-8l15-43.7c0.4-1.2,0.9-2,2.2-2h5c1.4,0,2.1,0.8,1.7,2l-21.1,61.1
			c-0.4,1.3-0.8,1.8-2.1,1.8L477.1,120.1z"/>
		<path class="st0" d="M186,145.5c0,0.2-0.1,0.3-0.3,0.3H185c-0.2,0-0.2-0.1-0.3-0.3l-2.2-8.2c-0.1-0.4-0.2-0.9-0.2-1l-0.3,1.1
			l-2.3,8.2c0,0.2-0.1,0.3-0.3,0.3h-0.7c-0.1,0-0.3-0.1-0.3-0.3l-2.8-10.6c0-0.2,0-0.3,0.2-0.3h0.7c0.2,0,0.3,0.1,0.3,0.3l2.3,8.4
			c0.1,0.5,0.2,0.9,0.2,0.9l0.2-0.9l2.3-8.4c0-0.2,0.2-0.3,0.3-0.3h0.7c0.2,0,0.3,0.1,0.3,0.3l2.2,8.4c0.1,0.4,0.2,0.8,0.2,0.9
			s0.1-0.5,0.2-0.9l2.3-8.4c0-0.2,0.1-0.3,0.3-0.3h0.6c0.2,0,0.3,0.1,0.2,0.3L186,145.5z"/>
		<path class="st0" d="M198.8,140c0,0.1-0.1,0.2-0.2,0.3c0,0,0,0-0.1,0H192v2.8c0,1.1,0.6,1.9,2.9,1.9s2.9-0.8,2.9-1.9v-0.5
			c0-0.2,0.1-0.3,0.3-0.3h0.6c0.1,0,0.3,0.1,0.3,0.2c0,0,0,0,0,0.1v0.5c0,1.6-1,2.8-4,2.8s-4-1.2-4-2.8v-5.9c0-1.6,1-2.8,4-2.8
			s4,1.2,4,2.8L198.8,140z M192,139.4h5.7v-2.1c0-1.1-0.7-1.9-2.9-1.9s-2.9,0.8-2.9,1.9L192,139.4z"/>
		<path class="st0" d="M202.4,145.7c-0.2,0-0.3-0.1-0.3-0.3v-15.2c0-0.2,0.1-0.3,0.3-0.3h0.6c0.1,0,0.3,0.1,0.3,0.2c0,0,0,0,0,0.1
			v5.6c1.1-0.9,2.5-1.4,3.9-1.4c2.1,0,3.1,1.1,3.1,2.8v5.9c0,1.6-0.9,2.8-3.1,2.8c-1.4,0-2.8-0.5-3.9-1.4v0.9c0,0.1-0.1,0.3-0.2,0.3
			c0,0,0,0-0.1,0L202.4,145.7z M209.1,137.4c0-1-0.6-1.8-2.2-1.8c-1.3,0-2.6,0.5-3.6,1.3v6.6c1,0.8,2.3,1.3,3.6,1.3
			c1.6,0,2.2-0.8,2.2-1.9V137.4z"/>
		<path class="st0" d="M218.9,137.2c0-1.6,0.9-2.8,3.9-2.8s3.9,1.2,3.9,2.8v8.2c0,0.2-0.1,0.3-0.3,0.3h-0.6c-0.2,0-0.3-0.1-0.3-0.3
			v-0.9c-1.1,0.9-2.4,1.3-3.8,1.3c-2.1,0-3.1-1.2-3.1-2.6v-1.2c-0.1-1.4,1-2.6,2.4-2.6c0.1,0,0.3,0,0.4,0h4.1v-2.2
			c0-1.1-0.6-1.9-2.8-1.9s-2.8,0.8-2.8,1.9v0.3c0,0.2-0.1,0.3-0.3,0.3h-0.6c-0.2,0-0.3-0.1-0.3-0.3L218.9,137.2z M225.5,143.6v-3.1
			h-3.9c-0.9-0.1-1.7,0.5-1.9,1.4c0,0.1,0,0.3,0,0.4v0.9c0,1.1,0.7,1.8,2.2,1.8C223.3,144.9,224.5,144.4,225.5,143.6L225.5,143.6z"
			/>
		<path class="st0" d="M231.5,134.9v1c1.1-0.9,2.5-1.4,3.9-1.4c2.1,0,3.1,1.1,3.1,2.7v8.3c0,0.2-0.1,0.3-0.3,0.3h-0.7
			c-0.2,0-0.3-0.1-0.3-0.3v-8.1c0-1.1-0.7-1.9-2.2-1.9c-1.3,0-2.6,0.5-3.6,1.3v8.6c0,0.1-0.1,0.3-0.2,0.3c0,0,0,0-0.1,0h-0.6
			c-0.2,0-0.3-0.1-0.3-0.3v-10.5c0-0.2,0.1-0.3,0.3-0.3h0.6c0.1,0,0.3,0,0.3,0.2C231.5,134.8,231.5,134.9,231.5,134.9z"/>
		<path class="st0" d="M248.9,144.5c-1.1,0.9-2.5,1.4-3.9,1.4c-2.1,0-3.1-1.1-3.1-2.8v-5.9c0-1.6,0.9-2.8,3.1-2.8
			c1.4,0,2.8,0.5,3.9,1.4v-5.6c0-0.2,0.1-0.3,0.3-0.3h0.7c0.2,0,0.3,0.1,0.3,0.3v15.2c0,0.2-0.1,0.3-0.3,0.3h-0.5
			c-0.2,0-0.3-0.1-0.3-0.3L248.9,144.5z M243.1,143c0,1,0.6,1.9,2.2,1.9c1.3,0,2.6-0.5,3.6-1.3v-6.6c-1-0.9-2.3-1.3-3.6-1.3
			c-1.6,0-2.2,0.8-2.2,1.8V143z"/>
		<path class="st0" d="M260,134.6c0.1,0,0.3,0.1,0.3,0.2c0,0,0,0,0,0.1v0.9c1.1-0.9,2.4-1.4,3.8-1.4c1.2-0.1,2.3,0.5,2.9,1.5
			c1.1-1,2.5-1.6,4-1.5c2.1,0,3.1,1.1,3.1,2.7v8.3c0,0.1-0.1,0.3-0.2,0.3c0,0,0,0-0.1,0h-0.6c-0.2,0-0.3-0.1-0.3-0.3v-8.1
			c0-1.1-0.6-1.9-2.2-1.9c-1.3,0-2.5,0.5-3.5,1.4c0,0.2,0,0.3,0,0.5v8.1c0,0.2-0.1,0.3-0.3,0.3h-0.7c-0.2,0-0.3-0.1-0.3-0.3v-8.1
			c0-1.1-0.7-1.9-2.2-1.9c-1.3,0-2.5,0.5-3.5,1.3v8.6c0,0.1-0.1,0.3-0.2,0.3c0,0,0,0-0.1,0h-0.6c-0.2,0-0.3-0.1-0.3-0.3v-10.5
			c0-0.2,0.1-0.3,0.3-0.3H260z"/>
		<path class="st0" d="M277.4,137.2c0-1.6,1.1-2.8,4.1-2.8s4.1,1.2,4.1,2.8v5.9c0,1.6-1.1,2.8-4.1,2.8s-4.1-1.2-4.1-2.8V137.2z
			 M284.4,137.3c0-1.1-0.7-1.9-2.9-1.9s-2.9,0.8-2.9,1.9v5.7c0,1.1,0.7,1.9,2.9,1.9s2.9-0.7,2.9-1.9V137.3z"/>
		<path class="st0" d="M289.3,145.7c-0.2,0-0.3-0.1-0.3-0.3v-15.2c0-0.2,0.1-0.3,0.3-0.3h0.6c0.1,0,0.3,0.1,0.3,0.2c0,0,0,0,0,0.1
			v5.6c1.1-0.9,2.5-1.4,3.9-1.4c2.1,0,3.1,1.1,3.1,2.8v5.9c0,1.6-0.9,2.8-3.1,2.8c-1.4,0-2.8-0.5-3.9-1.4v0.9c0,0.1-0.1,0.3-0.2,0.3
			c0,0,0,0-0.1,0L289.3,145.7z M296.1,137.4c0-1-0.6-1.8-2.2-1.8c-1.3,0-2.6,0.5-3.6,1.3v6.6c1,0.8,2.3,1.3,3.6,1.3
			c1.6,0,2.2-0.8,2.2-1.9V137.4z"/>
		<path class="st0" d="M301.9,132.4c0,0.1-0.1,0.3-0.2,0.3c0,0,0,0-0.1,0H301c-0.2,0-0.3-0.1-0.3-0.3v-2.1c0-0.2,0.1-0.3,0.3-0.3
			h0.6c0.1,0,0.3,0.1,0.3,0.2c0,0,0,0,0,0.1V132.4z M301.9,145.4c0,0.1-0.1,0.3-0.2,0.3c0,0,0,0-0.1,0H301c-0.2,0-0.3-0.1-0.3-0.3
			v-10.5c0-0.2,0.1-0.3,0.3-0.3h0.6c0.2,0,0.3,0.1,0.3,0.3V145.4z"/>
		<path class="st0" d="M306.9,145.4c0,0.1-0.1,0.3-0.2,0.3c0,0,0,0-0.1,0H306c-0.2,0-0.3-0.1-0.3-0.3v-15.2c0-0.2,0.1-0.3,0.3-0.3
			h0.6c0.1,0,0.3,0.1,0.3,0.2c0,0,0,0,0,0.1V145.4z"/>
		<path class="st0" d="M318.4,140c0,0.1-0.1,0.2-0.2,0.3c0,0,0,0-0.1,0h-6.6v2.8c0,1.1,0.6,1.9,2.9,1.9s2.9-0.8,2.9-1.9v-0.5
			c0-0.2,0.1-0.3,0.3-0.3h0.6c0.1,0,0.3,0.1,0.3,0.2c0,0,0,0,0,0.1v0.5c0,1.6-0.9,2.8-4,2.8s-4-1.2-4-2.8v-5.9c0-1.6,1-2.8,4-2.8
			s4,1.2,4,2.8L318.4,140z M311.6,139.4h5.7v-2.1c0-1.1-0.7-1.9-2.9-1.9s-2.9,0.8-2.9,1.9L311.6,139.4z"/>
		<path class="st0" d="M333.7,144.5c-1.1,0.9-2.5,1.4-3.9,1.4c-2.1,0-3.1-1.1-3.1-2.8v-5.9c0-1.6,0.9-2.8,3.1-2.8
			c1.4,0,2.8,0.5,3.9,1.4v-5.6c0-0.2,0.1-0.3,0.3-0.3h0.7c0.2,0,0.3,0.1,0.3,0.3v15.2c0,0.2-0.1,0.3-0.3,0.3H334
			c-0.2,0-0.3-0.1-0.3-0.3L333.7,144.5z M327.9,143c0,1,0.6,1.9,2.2,1.9c1.3,0,2.6-0.5,3.6-1.3v-6.6c-1-0.9-2.3-1.3-3.6-1.3
			c-1.6,0-2.2,0.8-2.2,1.8V143z"/>
		<path class="st0" d="M346.4,140c0,0.1-0.1,0.2-0.2,0.3c0,0,0,0-0.1,0h-6.6v2.8c0,1.1,0.6,1.9,2.9,1.9s2.9-0.8,2.9-1.9v-0.5
			c0-0.2,0.1-0.3,0.3-0.3h0.6c0.1,0,0.3,0.1,0.3,0.2c0,0,0,0,0,0.1v0.5c0,1.6-0.9,2.8-4,2.8s-4-1.2-4-2.8v-5.9c0-1.6,1-2.8,4-2.8
			s4,1.2,4,2.8L346.4,140z M339.6,139.4h5.7v-2.1c0-1.1-0.7-1.9-2.9-1.9s-2.9,0.8-2.9,1.9V139.4z"/>
		<path class="st0" d="M352.1,145.7c-0.2,0-0.2-0.1-0.3-0.3l-3.6-10.6c0-0.2,0-0.3,0.2-0.3h0.7c0.2,0,0.3,0.1,0.3,0.3l2.8,8.1
			c0.1,0.3,0.3,1,0.3,1.2c0.1-0.4,0.2-0.8,0.3-1.2l2.8-8.1c0-0.2,0.2-0.3,0.3-0.3h0.6c0.2,0,0.3,0.1,0.2,0.3l-3.6,10.6
			c-0.1,0.2-0.1,0.3-0.3,0.3H352.1z"/>
		<path class="st0" d="M366.8,140c0,0.1-0.1,0.2-0.2,0.3c0,0,0,0-0.1,0h-6.6v2.8c0,1.1,0.6,1.9,2.9,1.9s2.9-0.8,2.9-1.9v-0.5
			c0-0.2,0.1-0.3,0.3-0.3h0.6c0.1,0,0.3,0.1,0.3,0.2c0,0,0,0,0,0.1v0.5c0,1.6-0.9,2.8-4,2.8s-4-1.2-4-2.8v-5.9c0-1.6,1-2.8,4-2.8
			s4,1.2,4,2.8L366.8,140z M359.9,139.4h5.7v-2.1c0-1.1-0.7-1.9-2.9-1.9s-2.9,0.8-2.9,1.9L359.9,139.4z"/>
		<path class="st0" d="M371.3,145.4c0,0.1-0.1,0.3-0.2,0.3c0,0,0,0-0.1,0h-0.6c-0.2,0-0.3-0.1-0.3-0.3v-15.2c0-0.2,0.1-0.3,0.3-0.3
			h0.6c0.1,0,0.3,0.1,0.3,0.2c0,0,0,0,0,0.1V145.4z"/>
		<path class="st0" d="M374.8,137.2c0-1.6,1.1-2.8,4.1-2.8s4.1,1.2,4.1,2.8v5.9c0,1.6-1.1,2.8-4.1,2.8s-4.1-1.2-4.1-2.8V137.2z
			 M381.8,137.3c0-1.1-0.7-1.9-2.9-1.9s-2.9,0.8-2.9,1.9v5.7c0,1.1,0.7,1.9,2.9,1.9s2.9-0.7,2.9-1.9V137.3z"/>
		<path class="st0" d="M387.3,134.6c0.2,0,0.3,0.1,0.3,0.3v0.9c1.1-0.9,2.5-1.4,3.9-1.4c2.1,0,3.1,1.1,3.1,2.8v5.9
			c0,1.6-0.9,2.8-3.1,2.8c-1.4,0-2.8-0.5-3.9-1.3v5.6c0,0.1-0.1,0.3-0.2,0.3c0,0,0,0-0.1,0h-0.6c-0.2,0-0.3-0.1-0.3-0.3v-15.2
			c0-0.2,0.1-0.3,0.3-0.3H387.3z M393.5,137.4c0-1-0.6-1.8-2.2-1.8c-1.3,0-2.6,0.5-3.6,1.3v6.6c1,0.8,2.3,1.3,3.6,1.3
			c1.6,0,2.2-0.8,2.2-1.9L393.5,137.4z"/>
		<path class="st0" d="M399,134.6c0.1,0,0.3,0.1,0.3,0.2c0,0,0,0,0,0.1v0.9c1.1-0.9,2.4-1.4,3.8-1.4c1.2-0.1,2.3,0.5,2.9,1.5
			c1.1-1,2.5-1.6,4-1.5c2.1,0,3.1,1.1,3.1,2.7v8.3c0,0.1-0.1,0.3-0.2,0.3c0,0,0,0-0.1,0h-0.6c-0.2,0-0.3-0.1-0.3-0.3v-8.1
			c0-1.1-0.6-1.9-2.2-1.9c-1.3,0-2.5,0.5-3.5,1.4c0,0.2,0,0.3,0,0.5v8.1c0,0.2-0.1,0.3-0.3,0.3h-0.6c-0.2,0-0.3-0.1-0.3-0.3v-8.1
			c0-1.1-0.7-1.9-2.2-1.9c-1.3,0-2.5,0.5-3.5,1.3v8.6c0,0.1-0.1,0.3-0.2,0.3c0,0,0,0-0.1,0h-0.6c-0.2,0-0.3-0.1-0.3-0.3v-10.5
			c0-0.2,0.1-0.3,0.3-0.3H399z"/>
		<path class="st0" d="M424.4,140c0,0.1-0.1,0.2-0.2,0.3c0,0,0,0-0.1,0h-6.6v2.8c0,1.1,0.6,1.9,2.9,1.9s2.9-0.8,2.9-1.9v-0.5
			c0-0.2,0.1-0.3,0.3-0.3h0.6c0.1,0,0.3,0.1,0.3,0.2c0,0,0,0,0,0.1v0.5c0,1.6-0.9,2.8-4,2.8s-4-1.2-4-2.8v-5.9c0-1.6,1-2.8,4-2.8
			s4,1.2,4,2.8L424.4,140z M417.6,139.4h5.7v-2.1c0-1.1-0.7-1.9-2.9-1.9s-2.9,0.8-2.9,1.9L417.6,139.4z"/>
		<path class="st0" d="M428.9,134.9v1c1.1-0.9,2.5-1.4,3.9-1.4c2.1,0,3.1,1.1,3.1,2.7v8.3c0,0.2-0.1,0.3-0.3,0.3h-0.7
			c-0.2,0-0.3-0.1-0.3-0.3v-8.1c0-1.1-0.7-1.9-2.2-1.9c-1.3,0-2.6,0.5-3.6,1.3v8.6c0,0.1-0.1,0.3-0.2,0.3c0,0,0,0-0.1,0H428
			c-0.2,0-0.3-0.1-0.3-0.3v-10.5c0-0.2,0.1-0.3,0.3-0.3h0.6c0.1,0,0.3,0,0.3,0.2C428.9,134.8,428.9,134.9,428.9,134.9z"/>
		<path class="st0" d="M443.8,134.7c0.2,0,0.3,0.1,0.3,0.3v0.5c0,0.2-0.1,0.3-0.3,0.3h-2.7v7.2c0,1.1,0.6,1.9,2.8,1.9h0.4
			c0.1,0,0.3,0.1,0.3,0.2c0,0,0,0,0,0.1v0.5c0,0.2-0.1,0.3-0.3,0.3h-0.5c-3,0-3.9-1.1-3.9-2.8v-7.3h-1.4c-0.2,0-0.3-0.1-0.3-0.3V135
			c0-0.2,0.1-0.3,0.3-0.3l1.2-0.1h0.2v-2.4c0-0.2,0.1-0.3,0.3-0.3h0.7c0.2,0,0.3,0.1,0.3,0.3v2.4L443.8,134.7z"/>
	</g>
	<g id="Group_798" transform="translate(0 0)">
		<g id="Group_797">
			<path id="Path_595" class="st0" d="M145.7,61.9l-43-43.1c0,0,0,0,0,0c0,0.2,0,0.4,0,0.5c0,0.7,0,1.4,0,2.1v0.2
				c0,0.7-0.1,1.3-0.2,2l-0.1,0.5c-0.1,0.7-0.2,1.4-0.4,2.1l0,0.1c-0.2,0.7-0.4,1.3-0.5,1.9l-0.2,0.5c-0.3,0.8-0.5,1.4-0.8,2
				l-0.1,0.1c-0.3,0.6-0.6,1.2-0.9,1.8l-0.3,0.5c-0.4,0.7-0.8,1.3-1.2,1.9c-0.4,0.5-0.8,1.1-1.3,1.8l-0.4,0.4
				c-0.6,0.7-1,1.2-1.5,1.7L80.5,53.3l3.9,3.9c10.3,10.3,10.3,27,0,37.3c0,0,0,0,0,0l-23,22.9c-0.5,0.5-0.9,0.9-1.3,1.4
				c-0.1,0.1-0.1,0.1-0.1,0.2l-0.2,0.2c-0.3,0.4-0.6,0.7-0.8,1.1c-0.1,0.1-0.1,0.1-0.1,0.2l-0.3,0.4c-0.2,0.3-0.4,0.6-0.6,0.9
				c-0.1,0.1-0.1,0.2-0.2,0.3l-0.3,0.5c-0.1,0.3-0.3,0.5-0.4,0.8c-0.1,0.1-0.1,0.2-0.1,0.4l-0.2,0.6c-0.1,0.2-0.2,0.5-0.3,0.7
				c0,0.1-0.1,0.3-0.1,0.4l-0.2,0.6c-0.1,0.2-0.1,0.4-0.2,0.6s-0.1,0.3-0.1,0.5l-0.1,0.6c0,0.2-0.1,0.4-0.1,0.6c0,0.2,0,0.4-0.1,0.5
				l-0.1,0.7c0,0.2,0,0.4-0.1,0.6s0,0.4,0,0.6v0.7c0,0.2,0,0.4,0,0.5c0,0.2,0,0.4,0.1,0.6l0.1,0.6c0,0.2,0,0.4,0.1,0.5
				c0,0.2,0.1,0.4,0.1,0.6l0.1,0.6c0,0.2,0.1,0.4,0.1,0.5s0.1,0.4,0.2,0.6l0.2,0.6c0,0.2,0.1,0.4,0.1,0.5c0.1,0.2,0.1,0.4,0.2,0.6
				l0.2,0.6c0.1,0.2,0.1,0.3,0.2,0.5c0.1,0.2,0.2,0.4,0.3,0.6l0.3,0.6c0.1,0.2,0.2,0.3,0.2,0.5c0.1,0.2,0.2,0.4,0.3,0.5l0.4,0.6
				c0.1,0.2,0.2,0.3,0.3,0.5c0.1,0.2,0.3,0.4,0.4,0.5l0.4,0.5c0.1,0.2,0.2,0.3,0.4,0.5l1.8,1.8c7.6,7.7,20.1,7.8,27.8,0.1
				c0,0,0.1-0.1,0.1-0.1l56-55.9C153.4,82.2,153.4,69.6,145.7,61.9z"/>
			<path id="Path_596" class="st0" d="M71.1,98.4l-3.9-3.9c-10.3-10.3-10.3-27,0-37.3l23-22.9c0.4-0.4,0.9-0.9,1.3-1.4
				c0.1-0.1,0.2-0.3,0.3-0.4l0.4-0.6c0.1-0.2,0.3-0.3,0.4-0.5s0.2-0.4,0.3-0.5l0.4-0.6c0.1-0.1,0.2-0.3,0.3-0.4s0.2-0.4,0.3-0.5
				l0.3-0.6c0.1-0.2,0.2-0.3,0.2-0.5c0.1-0.2,0.2-0.4,0.2-0.6l0.2-0.6c0.1-0.2,0.1-0.3,0.2-0.5c0.1-0.2,0.1-0.3,0.1-0.5l0.2-0.7
				c0.1-0.2,0.1-0.4,0.2-0.5c0-0.2,0.1-0.3,0.1-0.5l0.1-0.6c0-0.2,0.1-0.4,0.1-0.6s0-0.3,0-0.5l0.1-0.6c0-0.2,0.1-0.4,0.1-0.6
				c0-0.2,0-0.3,0-0.5v-0.6c0-0.2,0-0.5,0-0.7c0-0.2,0-0.3,0-0.4L96,18.4c0-0.3,0-0.5-0.1-0.8c0-0.1,0-0.3-0.1-0.4l-0.1-0.6
				c0-0.2-0.1-0.5-0.1-0.7c0-0.1-0.1-0.3-0.1-0.4l-0.2-0.6c-0.1-0.2-0.1-0.5-0.2-0.7c0-0.1-0.1-0.3-0.2-0.4l-0.2-0.6
				c-0.1-0.2-0.2-0.5-0.3-0.7c-0.1-0.1-0.1-0.3-0.2-0.4L94,11.5c-0.1-0.2-0.2-0.5-0.3-0.7c-0.1-0.1-0.2-0.3-0.3-0.4l-0.3-0.5
				c-0.1-0.2-0.2-0.4-0.4-0.6c-0.1-0.1-0.2-0.3-0.3-0.4L92,8.2c-0.1-0.2-0.3-0.4-0.4-0.5l-1.8-1.8c-7.6-7.7-20-7.8-27.7-0.2
				c0,0-0.1,0.1-0.1,0.1l-56,55.9c-7.7,7.7-7.8,20.3,0,28l43.1,43.1l0,0l0-0.5c0-0.8,0-1.5,0-2.1v-0.2c0-0.7,0.1-1.3,0.2-2l0.1-0.5
				c0.1-0.8,0.2-1.5,0.4-2.1l0-0.1c0.2-0.7,0.4-1.3,0.5-1.9l0.2-0.5c0.3-0.8,0.5-1.4,0.8-2l0.1-0.1c0.3-0.6,0.6-1.2,0.9-1.8l0.3-0.5
				c0.4-0.7,0.8-1.3,1.1-1.9c0.4-0.5,0.8-1.1,1.3-1.8l0.4-0.4c0.6-0.7,1-1.2,1.5-1.7L71.1,98.4z"/>
		</g>
	</g>
</g>
</svg>
