<?xml version="1.0" encoding="UTF-8" standalone="no"?><!DOCTYPE svg PUBLIC "-//W3C//DTD SVG 1.1//EN" "http://www.w3.org/Graphics/SVG/1.1/DTD/svg11.dtd"><svg width="100%" height="100%" viewBox="0 0 240 240" version="1.1" xmlns="http://www.w3.org/2000/svg" xmlns:xlink="http://www.w3.org/1999/xlink" xml:space="preserve" xmlns:serif="http://www.serif.com/" style="fill-rule:evenodd;clip-rule:evenodd;stroke-linejoin:round;stroke-miterlimit:1.41421;"><g><path d="M18.114,188.75c-1.32,-1.32 -2.97,-1.65 -5.887,1.267c-2.924,2.924 -2.591,4.571 -1.271,5.891l3.578,3.577c1.083,1.084 2.544,1.791 4.474,1.647l18.363,-1.407c2.594,-0.24 4.901,0.374 6.408,1.881l5.367,5.367c3.207,3.207 1.224,8.765 -4.991,14.979c-6.874,6.875 -11.728,8.621 -15.165,5.178l-4.658,-4.658l6.217,-6.217l4.468,4.474c1.604,1.603 3.771,1.317 6.501,-1.414c2.544,-2.544 2.827,-4.708 1.224,-6.311l-4.758,-4.757c-1.177,-1.177 -2.543,-1.604 -5.034,-1.461l-17.096,1.18c-3.157,0.231 -5.231,0.044 -6.971,-1.696l-4.097,-4.098c-3.344,-3.344 -1.507,-8.481 4.804,-14.792c6.971,-6.971 11.442,-8.141 14.549,-5.034l4.334,4.334l-6.215,6.214l-4.144,-4.144Z" style="fill:#111;fill-rule:nonzero;"/><path d="M107.987,146.289c1.884,1.884 3.954,2.453 7.912,-1.504c3.957,-3.957 3.39,-6.031 1.507,-7.914l-22.891,-22.89c-1.88,-1.881 -3.954,-2.448 -7.908,1.506c-3.957,3.958 -3.39,6.031 -1.51,7.912l22.89,22.89Zm-29.198,-16.769c-3.343,-3.344 -3.203,-8.285 5.181,-16.67c8.382,-8.381 13.326,-8.524 16.67,-5.18l23.073,23.08c3.344,3.343 3.207,8.288 -5.177,16.672c-8.382,8.382 -13.329,8.522 -16.673,5.178l-23.074,-23.08Z" style="fill:#111;fill-rule:nonzero;"/><path d="M123.903,105.602c2.827,-2.827 4.428,-5.181 2.684,-6.924l-9.181,-9.182c-1.744,-1.743 -4.098,-0.143 -6.925,2.684l-3.01,3.011l13.422,13.422l3.01,-3.011Zm-25.287,-6.831l9.891,-9.891c8.008,-8.008 11.679,-9.045 15.543,-5.181l8.328,8.341c3.861,3.861 2.827,7.535 -5.174,15.536l-3.674,3.674l15.305,15.306l-6.217,6.217l-34.002,-34.002Z" style="fill:#111;fill-rule:nonzero;"/><path d="M139.057,67.659c-1.321,-1.321 -2.971,-1.651 -5.888,1.267c-2.924,2.923 -2.594,4.573 -1.273,5.893l3.577,3.578c1.083,1.083 2.544,1.79 4.474,1.647l18.369,-1.414c2.588,-0.233 4.895,0.38 6.402,1.887l5.37,5.371c3.204,3.204 1.227,8.755 -4.99,14.972c-6.875,6.875 -11.729,8.622 -15.169,5.181l-4.661,-4.661l6.217,-6.217l4.475,4.474c1.603,1.603 3.77,1.317 6.5,-1.414c2.544,-2.543 2.827,-4.707 1.224,-6.311l-4.757,-4.757c-1.177,-1.177 -2.538,-1.603 -5.038,-1.457l-17.096,1.174c-3.16,0.239 -5.227,0.046 -6.968,-1.694l-4.1,-4.1c-3.344,-3.344 -1.507,-8.475 4.807,-14.789c6.968,-6.968 11.439,-8.145 14.552,-5.032l4.331,4.331l-6.214,6.215l-4.144,-4.144Z" style="fill:#111;fill-rule:nonzero;"/><path d="M184.93,21.785c-1.32,-1.32 -2.97,-1.65 -5.887,1.267c-2.921,2.92 -2.591,4.571 -1.271,5.891l3.581,3.58c1.08,1.081 2.54,1.787 4.471,1.644l18.369,-1.407c2.591,-0.237 4.891,0.377 6.398,1.883l5.371,5.371c3.204,3.204 1.227,8.755 -4.988,14.97c-6.877,6.877 -11.731,8.624 -15.168,5.187l-4.664,-4.664l6.22,-6.221l4.471,4.477c1.604,1.604 3.771,1.317 6.504,-1.416c2.538,-2.538 2.824,-4.705 1.221,-6.308l-4.758,-4.758c-1.177,-1.177 -2.54,-1.6 -5.037,-1.457l-17.096,1.174c-3.154,0.24 -5.225,0.05 -6.968,-1.694l-4.101,-4.1c-3.337,-3.338 -1.507,-8.475 4.808,-14.789c6.967,-6.968 11.448,-8.142 14.555,-5.035l4.331,4.331l-6.218,6.218l-4.144,-4.144Z" style="fill:#111;fill-rule:nonzero;"/><path d="M39.018,158.369l6.227,-6.227l29.064,56.313l-6.224,6.224l-29.067,-56.31Z" style="fill:#111;fill-rule:nonzero;"/><path d="M55.716,194.706l-34.862,-18.017l6.224,-6.224l21.975,11.358l6.663,12.883Z" style="fill:#111;fill-rule:nonzero;"/><path d="M159.967,37.421l6.223,-6.224l29.071,56.319l-6.224,6.224l-29.07,-56.319Z" style="fill:#111;fill-rule:nonzero;"/><path d="M176.617,73.655l-34.864,-18.021l6.224,-6.223l21.981,11.357l6.659,12.887Z" style="fill:#111;fill-rule:nonzero;"/><path d="M103.495,161.897l0.031,-0.031l-28.812,-28.812c-3.864,-3.864 -7.541,-2.827 -15.543,5.174l-11.989,11.99l34.005,34.011l6.214,-6.214l-0.009,-0.016l-31.359,-31.358l5.116,-5.116c2.823,-2.824 5.18,-4.421 6.921,-2.68l29.238,29.238l6.187,-6.186Z" style="fill:#111;fill-rule:nonzero;"/><path d="M197.023,8.216c0.585,-0.585 1.068,-1.148 0.367,-1.849c-0.569,-0.57 -1.18,-0.159 -1.662,0.324l-0.944,0.943l1.411,1.411l0.828,-0.829Zm1.737,3.394l-0.694,0.694l-4.564,-4.564l1.74,-1.74c1.08,-1.081 2.011,-1.221 2.911,-0.321c0.822,0.822 0.66,1.694 0.075,2.447l3.306,0.71l-0.772,0.772l-3.185,-0.769l-0.794,0.794l1.977,1.977Zm1.859,0.178c1.79,-1.791 1.796,-4.605 -0.112,-6.514c-1.874,-1.874 -4.698,-1.877 -6.489,-0.087c-1.818,1.818 -1.815,4.642 0.06,6.516c1.908,1.909 4.723,1.903 6.541,0.085m-7.338,0.713c-2.27,-2.27 -2.105,-5.791 0.077,-7.974c2.155,-2.155 5.673,-2.316 7.943,-0.047c2.294,2.295 2.133,5.813 -0.022,7.968c-2.183,2.182 -5.704,2.347 -7.998,0.053" style="fill:#111;fill-rule:nonzero;"/></g></svg>