<?xml version="1.0" encoding="UTF-8" standalone="no"?><!DOCTYPE svg PUBLIC "-//W3C//DTD SVG 1.1//EN" "http://www.w3.org/Graphics/SVG/1.1/DTD/svg11.dtd"><svg width="100%" height="100%" viewBox="0 0 240 240" version="1.1" xmlns="http://www.w3.org/2000/svg" xmlns:xlink="http://www.w3.org/1999/xlink" xml:space="preserve" xmlns:serif="http://www.serif.com/" style="fill-rule:evenodd;clip-rule:evenodd;stroke-linejoin:round;stroke-miterlimit:1.41421;"><g><g><path d="M123.867,147.576l-28.092,-13.347c-0.381,-0.127 -0.889,-0.381 -1.271,-0.763c-0.889,-0.889 -1.017,-2.542 0.127,-3.686c0.89,-0.89 2.161,-0.89 3.432,-0.381l23.897,11.694l-11.694,-24.151c-0.636,-1.144 -0.635,-2.415 0.254,-3.305l0.254,-0.254c1.017,-1.016 2.288,-1.017 3.432,-0.381l24.024,11.821l-11.694,-24.151c-0.509,-1.017 -0.636,-2.161 0.381,-3.178c1.017,-1.016 2.542,-1.016 3.432,-0.127c0.382,0.382 0.635,0.89 0.763,1.271l13.219,28.218c0.763,1.526 0.509,2.797 -0.381,3.687l-0.127,0.127c-0.89,0.89 -2.161,1.144 -3.687,0.381l-23.642,-11.44l11.44,23.642c0.763,1.526 0.636,2.67 -0.381,3.687l-0.127,0.127c-0.763,1.017 -2.161,1.144 -3.559,0.509" style="fill:#111;fill-rule:nonzero;"/><path d="M156.407,71.818c-1.017,-1.017 -1.144,-2.669 -0.128,-3.685c1.017,-1.017 2.67,-1.145 3.814,-0.001l4.194,4.195c-2.288,-5.847 -0.127,-11.821 2.415,-14.363c1.144,-1.144 2.542,-1.017 3.686,0.127c1.017,1.017 1.017,2.288 0.254,3.559c-4.194,5.211 -4.576,12.711 2.542,19.829l8.262,8.263c1.017,1.016 1.145,2.669 0.128,3.686c-1.017,1.017 -2.669,1.144 -3.814,0l-21.481,-21.482" style="fill:#111;fill-rule:nonzero;"/><path d="M205.471,69.53c-6.61,6.61 -17.033,6.864 -24.532,-0.635l-0.127,-0.127c-6.991,-6.991 -7.754,-17.414 -1.017,-24.151c7.118,-7.118 17.032,-5.339 23.515,1.144c1.017,1.017 0.89,2.415 0,3.305l-17.414,17.414c5.72,4.703 12.457,4.067 16.778,-0.255c2.924,-2.923 4.068,-6.355 4.068,-9.659c0,-0.508 0.254,-1.017 0.636,-1.398c0.89,-0.89 2.288,-0.763 3.05,0c0.382,0.381 0.763,1.017 0.636,1.652c-0.254,4.575 -1.526,8.643 -5.593,12.71m-6.864,-21.1c-4.83,-4.067 -11.186,-5.338 -15.888,-0.636c-4.195,4.195 -3.814,10.932 0.508,16.016l15.38,-15.38Z" style="fill:#111;fill-rule:nonzero;"/><path d="M146.365,113.637c-5.211,-5.211 -3.813,-12.203 2.415,-18.431c3.178,-3.177 5.72,-4.957 8.517,-6.483l-0.89,-0.889c-4.449,-4.449 -9.279,-3.941 -13.855,0.635c-2.415,2.415 -3.686,4.194 -4.576,6.864c-0.127,0.381 -0.382,0.636 -0.508,0.763c-0.89,0.89 -2.415,0.89 -3.178,0.127c-0.763,-0.763 -0.89,-1.653 -0.509,-2.542c1.398,-3.432 2.797,-5.593 5.974,-8.77c3.433,-3.433 6.991,-5.212 10.551,-5.212c3.305,0 6.61,1.525 9.66,4.576l13.474,13.473c1.017,1.017 1.016,2.543 0,3.559c-1.017,1.017 -2.542,1.017 -3.432,0.127l-2.415,-2.415c0.635,3.941 -0.381,8.771 -4.703,13.093c-4.322,4.322 -11.568,6.483 -16.525,1.525m16.143,-19.956l-2.415,-2.415c-2.288,1.271 -5.212,3.178 -8.262,6.228c-4.576,4.576 -5.085,9.152 -2.034,12.203l0.127,0.127c3.051,3.051 7.627,2.034 10.931,-1.271c4.576,-4.576 5.466,-11.059 1.653,-14.872" style="fill:#111;fill-rule:nonzero;"/><path d="M35.653,191.81c-2.543,-1.017 -5.339,0.254 -6.356,2.796c-1.144,2.669 0.382,5.466 2.924,6.228l24.659,9.152c3.94,1.398 6.61,1.526 9.025,-0.889c2.542,-2.543 2.16,-5.212 0.889,-9.025c0,0 -8.008,-21.482 -8.007,-21.736c0,-0.254 -0.382,-0.89 0.381,-1.652c0.635,-0.636 1.525,-0.509 2.161,0.127l14.364,14.363c2.16,2.161 5.338,2.797 7.626,0.509c2.415,-2.415 1.907,-5.466 -0.381,-7.754l-11.821,-11.821c-2.288,-2.288 -2.161,-5.466 0,-7.627c2.16,-2.16 5.211,-2.16 7.499,0.128l11.821,11.821c2.161,2.16 5.339,2.796 7.627,0.508c2.415,-2.415 1.906,-5.465 -0.382,-7.753l-11.821,-11.822c-2.288,-2.288 -2.161,-5.465 0,-7.626c2.161,-2.161 5.212,-2.161 7.5,0.127l11.821,11.821c2.16,2.161 5.339,2.796 7.627,0.509c2.415,-2.416 1.906,-5.466 -0.382,-7.754l-13.346,-13.347c-4.958,-4.957 -12.33,-4.448 -17.16,0.382c-4.83,4.83 -4.449,11.058 -4.449,11.058c-3.686,-0.381 -7.118,0.509 -10.804,4.195c-3.941,3.94 -4.068,10.677 -4.068,10.677c-3.559,-0.508 -7.626,1.017 -9.787,3.178c-3.432,3.432 -4.703,7.753 -2.542,13.219l6.736,16.651l-21.354,-8.643" style="fill:#111;fill-rule:nonzero;"/><path d="M194.158,36.355c-1.652,-1.653 -1.653,-4.449 0,-6.102c1.653,-1.652 4.449,-1.652 6.101,0c1.653,1.653 1.653,4.449 0,6.102c-1.779,1.779 -4.448,1.652 -6.101,0m5.466,-5.466c-1.398,-1.398 -3.432,-1.399 -4.83,0c-1.398,1.398 -1.271,3.559 0,4.83c1.398,1.398 3.432,1.398 4.83,0c1.398,-1.398 1.271,-3.559 0,-4.83" style="fill:#111;fill-rule:nonzero;"/><path d="M194.794,33.177c-0.127,-0.127 -0.255,-0.508 0,-0.763l1.017,-1.017c0.381,-0.381 0.762,-0.508 1.144,-0.635c0.254,0 0.635,0.127 0.889,0.381c0.509,0.509 0.509,1.017 0.255,1.526l1.016,0c0.128,0.127 0.255,-0.001 0.382,0.126c0.127,0.127 0.127,0.382 0,0.509c-0.127,0.126 -0.381,0.127 -0.381,0.127l-1.398,-0.128l-0.509,0.509l0.636,0.636c0.127,0.127 0.254,0.508 0,0.762c-0.127,0.127 -0.509,0.255 -0.763,0l-2.161,-2.161l-0.127,0.128Zm2.415,-0.127c0.254,-0.254 0.382,-0.636 0.127,-0.89c-0.254,-0.255 -0.509,-0.254 -0.89,0.127l-0.635,0.635l0.89,0.89l0.635,-0.635l-0.127,-0.127Z" style="fill:#111;fill-rule:nonzero;"/></g></g></svg>