<?xml version="1.0" encoding="UTF-8" standalone="no"?><!DOCTYPE svg PUBLIC "-//W3C//DTD SVG 1.1//EN" "http://www.w3.org/Graphics/SVG/1.1/DTD/svg11.dtd"><svg width="100%" height="100%" viewBox="0 0 240 37" version="1.1" xmlns="http://www.w3.org/2000/svg" xmlns:xlink="http://www.w3.org/1999/xlink" xml:space="preserve" xmlns:serif="http://www.serif.com/" style="fill-rule:evenodd;clip-rule:evenodd;stroke-linejoin:round;stroke-miterlimit:1.41421;"><g><path d="M103.023,34.032l-10.426,-29.301c-0.18,-0.36 -0.36,-0.899 -0.36,-1.438c0,-1.259 1.079,-2.517 2.697,-2.517c1.258,0 2.157,0.899 2.696,2.157l8.629,25.166l8.808,-25.346c0.359,-1.258 1.259,-2.157 2.516,-2.157l0.36,0c1.438,0 2.337,0.899 2.696,2.157l8.629,25.346l8.808,-25.346c0.36,-1.078 1.079,-1.977 2.517,-1.977c1.438,0 2.516,1.079 2.516,2.337c0,0.539 -0.18,1.078 -0.359,1.438l-10.606,29.3c-0.539,1.619 -1.618,2.338 -2.876,2.338l-0.18,0c-1.258,0 -2.337,-0.719 -2.876,-2.338l-8.629,-24.807l-8.628,24.807c-0.539,1.619 -1.438,2.338 -2.876,2.338l-0.18,0c-1.258,0.179 -2.337,-0.719 -2.876,-2.157" style="fill-rule:nonzero;"/><path d="M179.601,3.472c0,-1.438 1.078,-2.696 2.516,-2.696c1.438,0 2.697,1.079 2.697,2.696l0,5.932c2.516,-5.752 8.268,-8.448 11.863,-8.448c1.618,0 2.517,1.078 2.517,2.696c0,1.438 -0.899,2.337 -2.337,2.697c-6.651,0.719 -12.224,5.752 -12.224,15.818l0,11.685c0,1.438 -1.079,2.697 -2.517,2.697c-1.437,0 -2.696,-1.079 -2.696,-2.697l0,-30.38" style="fill-rule:nonzero;"/><path d="M215.912,36.548c-9.347,0 -16.897,-7.19 -16.897,-17.796l0,-0.18c0,-9.887 6.831,-17.796 16.358,-17.796c10.066,0 15.819,8.269 15.819,17.437c0,1.438 -1.079,2.337 -2.337,2.337l-24.627,0c0.719,7.37 5.932,11.684 12.044,11.684c4.134,0 7.37,-1.618 9.706,-3.954c0.36,-0.36 0.899,-0.539 1.438,-0.539c1.259,0 2.157,1.078 2.157,2.157c0,0.539 -0.179,1.258 -0.719,1.618c-3.415,3.055 -7.19,5.032 -12.942,5.032m10.067,-19.773c-0.54,-6.292 -4.135,-11.685 -10.785,-11.685c-5.933,0 -10.426,5.033 -10.966,11.685l21.751,0Z" style="fill-rule:nonzero;"/><path d="M142.93,25.942c0,-7.37 5.932,-11.325 14.741,-11.325c4.493,0 7.549,0.54 10.605,1.439l0,-1.259c0,-6.291 -3.775,-9.347 -10.246,-9.347c-3.415,0 -5.572,0.359 -8.089,1.618c-0.36,0.179 -0.72,0.179 -0.899,0.179c-1.258,0 -2.337,-1.078 -2.337,-2.157c0,-1.078 0.539,-1.797 1.438,-2.157c3.415,-1.438 5.932,-1.977 10.426,-1.977c4.854,0 8.628,1.258 11.145,3.775c2.337,2.337 3.596,5.752 3.596,10.066l0,19.055c0,1.438 -1.079,2.516 -2.517,2.516c-1.438,0 -2.517,-1.078 -2.517,-2.336l0,-3.416c-2.337,3.236 -6.471,5.933 -12.583,5.933c-6.112,0 -12.763,-3.596 -12.763,-10.607m25.526,-2.696l0,-3.415c-2.517,-0.72 -5.933,-1.439 -10.246,-1.439c-6.472,0 -10.067,2.877 -10.067,7.191l0,0.18c0,4.314 3.954,6.83 8.628,6.83c6.472,0 11.685,-3.954 11.685,-9.347" style="fill-rule:nonzero;"/><path d="M9.368,2.933c-1.079,-2.517 -3.955,-3.595 -6.471,-2.517c-2.697,1.079 -3.596,4.135 -2.337,6.472l10.965,23.908c1.798,3.775 3.595,5.752 7.011,5.752c3.595,0 5.213,-2.157 7.01,-5.752c0,0 9.528,-20.853 9.707,-21.032c0.18,-0.18 0.36,-0.899 1.439,-0.899c0.898,0 1.438,0.719 1.438,1.618l0,20.313c0,3.056 1.797,5.753 5.033,5.753c3.415,0 5.213,-2.517 5.213,-5.753l0,-16.717c0,-3.236 2.337,-5.393 5.393,-5.393c3.056,0 5.213,2.157 5.213,5.393l0,16.717c0,3.056 1.797,5.753 5.033,5.753c3.415,0 5.213,-2.517 5.213,-5.753l0,-16.717c0,-3.236 2.337,-5.393 5.393,-5.393c3.056,0 5.213,2.157 5.213,5.393l0,16.717c0,3.056 1.798,5.753 5.033,5.753c3.416,0 5.213,-2.517 5.213,-5.753l0,-18.874c0,-7.011 -5.572,-11.864 -12.403,-11.864c-6.831,0 -10.966,4.673 -10.966,4.673c-2.336,-2.876 -5.392,-4.673 -10.605,-4.673c-5.573,0 -10.426,4.673 -10.426,4.673c-2.158,-2.876 -6.112,-4.673 -9.168,-4.673c-4.854,0 -8.808,2.157 -11.145,7.549l-7.011,16.538l-8.988,-21.212" style="fill-rule:nonzero;"/><path d="M231.372,5.09c0,-2.337 1.976,-4.314 4.314,-4.314c2.337,0 4.314,1.977 4.314,4.314c0,2.337 -1.977,4.314 -4.314,4.314c-2.517,0 -4.314,-1.977 -4.314,-4.314m7.729,0c0,-1.977 -1.437,-3.415 -3.415,-3.415c-1.977,0 -3.415,1.618 -3.415,3.415c0,1.978 1.438,3.416 3.415,3.416c1.978,0 3.415,-1.618 3.415,-3.416" style="fill-rule:nonzero;"/><path d="M234.068,3.293c0,-0.18 0.18,-0.54 0.539,-0.54l1.438,0c0.54,0 0.898,0.18 1.259,0.36c0.179,0.18 0.359,0.539 0.359,0.899c0,0.719 -0.359,1.078 -0.899,1.258l0.719,0.719c0,0.18 0.181,0.18 0.181,0.36c0,0.179 -0.181,0.359 -0.36,0.359c-0.179,0 -0.359,-0.18 -0.359,-0.18l-0.899,-1.078l-0.719,0l0,0.899c0,0.179 -0.18,0.539 -0.539,0.539c-0.18,0 -0.54,-0.18 -0.54,-0.539l0,-3.056l-0.18,0Zm1.798,1.617c0.359,0 0.719,-0.179 0.719,-0.539c0,-0.359 -0.18,-0.539 -0.719,-0.539l-0.899,0l0,1.258l0.899,0l0,-0.18Z" style="fill-rule:nonzero;"/></g></svg>