<?xml version="1.0" encoding="UTF-8" standalone="no"?>
<!DOCTYPE svg PUBLIC "-//W3C//DTD SVG 1.1//EN" "http://www.w3.org/Graphics/SVG/1.1/DTD/svg11.dtd">
<svg width="100%" height="100%" viewBox="0 0 122 137" version="1.1" xmlns="http://www.w3.org/2000/svg" xmlns:xlink="http://www.w3.org/1999/xlink" xml:space="preserve" xmlns:serif="http://www.serif.com/" style="fill-rule:evenodd;clip-rule:evenodd;stroke-linecap:round;stroke-linejoin:round;">
    <g transform="matrix(1,0,0,1,-646.431,-194.591)">
        <g transform="matrix(1.19225,0,0,1.13724,-64.8004,6.87731)">
            <g transform="matrix(0.368878,0,0,0.38672,329.932,180.555)">
                <g transform="matrix(1.35937,0,0,1.35937,679.048,-133.197)">
                    <path d="M101.885,207.092C109.75,207.092 116.126,213.468 116.126,221.333L116.126,282.423C116.126,290.288 109.75,296.663 101.885,296.663C94.021,296.663 87.645,290.288 87.645,282.423L87.645,221.333C87.645,213.469 94.021,207.093 101.885,207.093L101.885,207.092Z" style="fill:rgb(164,198,57);fill-rule:nonzero;"/>
                </g>
                <g transform="matrix(1.35937,0,0,1.35937,679.048,-133.197)">
                    <path d="M69.374,133.645C69.327,134.185 69.286,134.731 69.286,135.283L69.286,227.84C69.286,237.794 77.165,245.813 86.946,245.813L181.07,245.813C190.852,245.813 198.731,237.793 198.731,227.84L198.731,135.283C198.731,134.731 198.711,134.183 198.665,133.645L69.374,133.645Z" style="fill:rgb(164,198,57);fill-rule:nonzero;"/>
                </g>
                <g transform="matrix(1.35937,0,0,1.35937,679.048,-133.197)">
                    <path d="M166.133,207.092C173.998,207.092 180.374,213.468 180.374,221.333L180.374,282.423C180.374,290.288 173.998,296.663 166.133,296.663C158.269,296.663 151.893,290.288 151.893,282.423L151.893,221.333C151.893,213.469 158.269,207.093 166.133,207.093L166.133,207.092ZM46.405,141.882C54.269,141.882 60.645,148.258 60.645,156.123L60.645,217.213C60.645,225.078 54.269,231.454 46.405,231.454C38.54,231.454 32.164,225.078 32.164,217.214L32.164,156.124C32.163,148.259 38.539,141.882 46.405,141.882ZM221.614,141.882C229.478,141.882 235.854,148.258 235.854,156.123L235.854,217.213C235.854,225.078 229.478,231.454 221.614,231.454C213.749,231.454 207.373,225.078 207.373,217.214L207.373,156.124C207.373,148.259 213.749,141.882 221.614,141.882L221.614,141.882ZM69.79,127.565C70.186,99.135 95,75.825 126.852,72.753L141.164,72.753C173.018,75.826 197.83,99.137 198.226,127.565L69.79,127.565Z" style="fill:rgb(164,198,57);fill-rule:nonzero;"/>
                </g>
                <g transform="matrix(1.35937,0,0,1.35937,679.048,-133.197)">
                    <path d="M74.743,70.009L89.765,96.029M193.276,70.009L178.253,96.029" style="fill:none;stroke:rgb(164,198,57);stroke-width:3px;"/>
                </g>
                <g transform="matrix(1.35937,0,0,1.35937,679.048,-133.197)">
                    <path d="M114.878,102.087C114.89,106.061 111.601,109.292 107.531,109.303C103.463,109.313 100.155,106.101 100.143,102.127L100.143,102.087C100.132,98.112 103.421,94.882 107.49,94.871C111.558,94.86 114.866,98.071 114.878,102.047L114.878,102.087ZM169.874,102.087C169.886,106.061 166.597,109.292 162.527,109.303C158.459,109.313 155.151,106.101 155.139,102.127L155.139,102.087C155.128,98.112 158.417,94.882 162.486,94.871C166.554,94.86 169.862,98.071 169.874,102.047L169.874,102.087Z" style="fill:white;fill-rule:nonzero;"/>
                </g>
            </g>
        </g>
    </g>
</svg>
