<?xml version="1.0" encoding="UTF-8" standalone="no"?>
<!DOCTYPE svg PUBLIC "-//W3C//DTD SVG 1.1//EN" "http://www.w3.org/Graphics/SVG/1.1/DTD/svg11.dtd">
<svg width="100%" height="100%" viewBox="0 0 151 170" version="1.1" xmlns="http://www.w3.org/2000/svg" xmlns:xlink="http://www.w3.org/1999/xlink" xml:space="preserve" xmlns:serif="http://www.serif.com/" style="fill-rule:evenodd;clip-rule:evenodd;stroke-linejoin:round;stroke-miterlimit:1.41421;">
    <g transform="matrix(1,0,0,1,-660.257,-248.416)">
        <g transform="matrix(0.897294,0,0,0.897294,87.2998,50.5462)">
            <g transform="matrix(0.0517708,2.36105e-36,2.36105e-36,-0.0517708,638.539,409.482)">
                <g>
                    <g>
                        <g id="g12">
                            <g>
                                <path id="path14" d="M3247.41,2576.9C3247.38,2638.27 3234.26,2692.5 3207.71,2739.05C3181.64,2784.82 3142.59,2823.18 3090.22,2853.51C2657.87,3102.8 2225.11,3351.33 1792.91,3600.87C1676.39,3668.14 1563.42,3665.69 1447.76,3597.45C1275.68,3495.96 414.105,3002.35 157.371,2853.65C51.641,2792.44 0.191,2698.77 0.164,2577.01C0,2075.68 0.164,1574.35 0,1073C0.023,1012.97 12.594,959.789 37.969,913.949C64.055,866.801 103.648,827.379 157.23,796.359C413.98,647.66 1275.66,154.078 1447.71,52.57C1563.42,-15.699 1676.39,-18.141 1792.95,49.148C2225.16,298.711 2657.95,547.23 3090.36,796.512C3143.94,827.52 3183.53,866.961 3209.62,914.078C3234.96,959.922 3247.55,1013.1 3247.57,1073.14C3247.57,1073.14 3247.57,2075.55 3247.41,2576.9" style="fill:rgb(151,52,151);fill-rule:nonzero;"/>
                                <path id="path16" d="M1628.75,1829.89L37.969,913.949C64.055,866.801 103.648,827.379 157.23,796.359C413.98,647.66 1275.66,154.078 1447.71,52.57C1563.42,-15.699 1676.39,-18.141 1792.95,49.148C2225.16,298.711 2657.95,547.23 3090.36,796.512C3143.94,827.52 3183.53,866.961 3209.62,914.078L1628.75,1829.89" style="fill:rgb(96,34,118);fill-rule:nonzero;"/>
                                <path id="path18" d="M1157.58,1558.58C1250.15,1396.98 1424.17,1287.98 1623.79,1287.98C1824.64,1287.98 1999.65,1398.36 2091.74,1561.69L1628.75,1829.89L1157.58,1558.58" style="fill:rgb(96,34,118);fill-rule:nonzero;"/>
                                <path id="path20" d="M3247.41,2576.9C3247.38,2638.27 3234.26,2692.5 3207.71,2739.05L1628.75,1829.89L3209.62,914.078C3234.96,959.922 3247.55,1013.1 3247.57,1073.14C3247.57,1073.14 3247.57,2075.55 3247.41,2576.9" style="fill:rgb(123,36,135);fill-rule:nonzero;"/>
                                <path id="path22" d="M2091.74,1561.69C1999.65,1398.36 1824.64,1287.98 1623.79,1287.98C1424.17,1287.98 1250.15,1396.98 1157.58,1558.58C1112.61,1637.11 1086.76,1728.02 1086.76,1825.01C1086.76,2121.6 1327.2,2362.03 1623.79,2362.03C1822.12,2362.03 1995.23,2254.39 2088.25,2094.44L2557.64,2364.74C2371.07,2686.8 2022.75,2903.47 1623.79,2903.47C1028.15,2903.47 545.316,2420.62 545.316,1825.01C545.316,1629.61 597.297,1446.37 688.148,1288.31C874.25,964.551 1223.57,746.539 1623.79,746.539C2024.74,746.539 2374.61,965.422 2560.44,1290.14L2091.74,1561.69" style="fill:white;fill-rule:nonzero;"/>
                                <path id="path24" d="M2684.87,1563.34L2578.2,1563.34L2578.2,2080L2684.87,2080L2684.87,1563.34" style="fill:white;fill-rule:nonzero;"/>
                                <path id="path26" d="M2921.53,1563.34L2814.87,1563.34L2814.87,2080L2921.53,2080L2921.53,1563.34" style="fill:white;fill-rule:nonzero;"/>
                                <path id="path28" d="M2491.53,1886.67L2491.53,1993.34L3008.2,1993.34L3008.2,1886.67L2491.53,1886.67" style="fill:white;fill-rule:nonzero;"/>
                                <path id="path30" d="M2491.53,1650L2491.53,1756.67L3008.2,1756.67L3008.2,1650L2491.53,1650" style="fill:white;fill-rule:nonzero;"/>
                            </g>
                        </g>
                    </g>
                </g>
            </g>
        </g>
    </g>
</svg>
