<?xml version="1.0" encoding="UTF-8" standalone="no"?><!DOCTYPE svg PUBLIC "-//W3C//DTD SVG 1.1//EN" "http://www.w3.org/Graphics/SVG/1.1/DTD/svg11.dtd"><svg width="100%" height="100%" viewBox="0 0 388 387" version="1.1" xmlns="http://www.w3.org/2000/svg" xmlns:xlink="http://www.w3.org/1999/xlink" xml:space="preserve" xmlns:serif="http://www.serif.com/" style="fill-rule:evenodd;clip-rule:evenodd;stroke-linejoin:round;stroke-miterlimit:1.41421;"><path d="M350.538,321.967c6.576,-8.367 10.511,-18.899 10.511,-30.338c0,-27.131 -22.072,-49.2 -49.2,-49.2c-27.127,0 -49.199,22.069 -49.199,49.2c0,7.749 1.809,15.085 5.014,21.616c-8.122,-8.14 -17.58,-14.943 -28.005,-20.064c10.945,-11.428 17.692,-26.906 17.692,-43.94c0,-35.057 -28.523,-63.581 -63.58,-63.581c-35.058,0 -63.581,28.524 -63.581,63.581c0,17.034 6.747,32.512 17.692,43.94c-10.428,5.121 -19.883,11.924 -28.005,20.064c3.205,-6.531 5.014,-13.867 5.014,-21.616c0,-27.131 -22.072,-49.2 -49.199,-49.2c-27.128,0 -49.2,22.069 -49.2,49.2c0,11.439 3.935,21.971 10.511,30.338c-22.14,13.223 -37.003,37.423 -37.003,65.033l30.277,0c0,-25.043 20.371,-45.415 45.415,-45.415c7.592,0 14.999,1.895 21.578,5.449c-5.121,12.318 -7.954,25.815 -7.954,39.966l30.277,0c0,-40.903 33.277,-74.178 74.178,-74.178c40.9,0 74.177,33.275 74.177,74.178l30.277,0c0,-14.151 -2.833,-27.648 -7.954,-39.966c6.579,-3.554 13.986,-5.449 21.578,-5.449c25.044,0 45.415,20.372 45.415,45.415l30.277,0c0,-27.61 -14.863,-51.81 -37.003,-65.033Zm-274.846,-49.261c10.434,0 18.923,8.488 18.923,18.923c0,10.434 -8.489,18.922 -18.923,18.922c-10.435,0 -18.923,-8.488 -18.923,-18.922c0,-10.435 8.488,-18.923 18.923,-18.923Zm84.774,-23.465c0,-18.364 14.94,-33.304 33.305,-33.304c18.364,0 33.304,14.94 33.304,33.304c0,18.364 -14.94,33.305 -33.304,33.305c-18.365,0 -33.305,-14.941 -33.305,-33.305Zm151.383,23.465c10.435,0 18.923,8.488 18.923,18.923c0,10.434 -8.488,18.922 -18.923,18.922c-10.434,0 -18.922,-8.488 -18.922,-18.922c0,-10.435 8.488,-18.923 18.922,-18.923Zm-152.787,-195.178l-21.413,-21.41l56.122,-56.118l56.121,56.118l-21.41,21.41l-19.573,-19.571l0,97.427l-30.277,0l0,-97.427l-19.57,19.571Zm118.079,75.691l-21.413,-21.409l56.121,-56.118l56.122,56.118l-21.41,21.409l-19.573,-19.57l0,78.503l-30.277,0l0,-78.503l-19.57,19.57Zm-236.158,0l-21.413,-21.409l56.122,-56.118l56.121,56.118l-21.41,21.409l-19.573,-19.57l0,78.503l-30.277,0l0,-78.503l-19.57,19.57Z" style="fill:url(#_Linear1);fill-rule:nonzero;"/><defs><linearGradient id="_Linear1" x1="0" y1="0" x2="1" y2="0" gradientUnits="userSpaceOnUse" gradientTransform="matrix(2.36969e-14,386.999,-386.999,2.36969e-14,193.771,-7.56916e-05)"><stop offset="0" style="stop-color:#2af598;stop-opacity:1"/><stop offset="1" style="stop-color:#009efd;stop-opacity:1"/></linearGradient></defs></svg>