<?xml version="1.0" encoding="UTF-8" standalone="no"?>
<!DOCTYPE svg PUBLIC "-//W3C//DTD SVG 1.1//EN" "http://www.w3.org/Graphics/SVG/1.1/DTD/svg11.dtd">
<svg width="100%" height="100%" viewBox="0 0 193 193" version="1.1" xmlns="http://www.w3.org/2000/svg" xmlns:xlink="http://www.w3.org/1999/xlink" xml:space="preserve" xmlns:serif="http://www.serif.com/" style="fill-rule:evenodd;clip-rule:evenodd;stroke-linejoin:round;stroke-miterlimit:1.41421;">
    <g transform="matrix(1,0,0,1,-704.5,-218.5)">
        <g transform="matrix(1,0,0,1,1,0)">
            <g transform="matrix(1.41912,0,0,1.41912,648.863,155.176)">
                <g transform="matrix(0.265625,0,0,0.265625,38.5004,44.6218)">
                    <path d="M483.556,436.148C483.556,423.056 492.4,412.031 504.439,408.719C508.77,407.528 512,403.947 512,399.456L512,112.543C512,108.051 508.769,104.472 504.439,103.28C492.4,99.97 483.556,88.944 483.556,75.852C483.556,62.76 492.4,51.735 504.439,48.423C508.77,47.232 512,43.651 512,39.16L512,28.444C512,12.735 499.265,0 483.556,0L28.444,0C12.735,0 0,12.735 0,28.444L0,39.16C0,43.652 3.231,47.231 7.561,48.423C19.6,51.733 28.444,62.759 28.444,75.851C28.444,88.943 19.6,99.968 7.561,103.28C3.231,104.472 0,108.051 0,112.543L0,399.456C0,403.948 3.231,407.527 7.561,408.719C19.6,412.03 28.444,423.056 28.444,436.148C28.444,449.24 19.6,460.265 7.561,463.577C3.231,464.768 0,468.347 0,472.839L0,483.555C0,499.265 12.735,512 28.444,512L483.555,512C499.265,512 511.999,499.265 511.999,483.556L511.999,472.84C511.999,468.348 508.768,464.769 504.438,463.577C492.399,460.265 483.556,449.24 483.556,436.148Z" style="fill:rgb(150,225,125);fill-rule:nonzero;"/>
                </g>
                <g transform="matrix(0.265625,0,0,0.265625,38.5004,44.6218)">
                    <rect x="246.519" y="47.407" width="18.963" height="37.926" style="fill:rgb(228,234,246);"/>
                </g>
                <g transform="matrix(0.265625,0,0,0.265625,38.5004,44.6218)">
                    <path d="M274.963,123.259L237.037,123.259L237.037,85.333C237.037,80.097 241.282,75.852 246.518,75.852L265.481,75.852C270.717,75.852 274.962,80.097 274.962,85.333L274.962,123.259L274.963,123.259Z" style="fill:rgb(149,156,179);fill-rule:nonzero;"/>
                </g>
                <g transform="matrix(0.265625,0,0,0.265625,38.5004,44.6218)">
                    <circle cx="256" cy="42.667" r="14.222" style="fill:rgb(91,93,110);"/>
                </g>
                <g transform="matrix(0.265625,0,0,0.265625,38.5004,44.6218)">
                    <rect x="303.407" y="47.407" width="18.963" height="37.926" style="fill:rgb(228,234,246);"/>
                </g>
                <g transform="matrix(0.265625,0,0,0.265625,38.5004,44.6218)">
                    <path d="M331.852,123.259L293.926,123.259L293.926,85.333C293.926,80.097 298.171,75.852 303.407,75.852L322.37,75.852C327.606,75.852 331.852,80.097 331.852,85.333L331.852,123.259Z" style="fill:rgb(149,156,179);fill-rule:nonzero;"/>
                </g>
                <g transform="matrix(0.265625,0,0,0.265625,38.5004,44.6218)">
                    <circle cx="312.889" cy="42.667" r="14.222" style="fill:rgb(91,93,110);"/>
                </g>
                <g transform="matrix(0.265625,0,0,0.265625,38.5004,44.6218)">
                    <rect x="360.296" y="47.407" width="18.963" height="37.926" style="fill:rgb(228,234,246);"/>
                </g>
                <g transform="matrix(0.265625,0,0,0.265625,38.5004,44.6218)">
                    <path d="M388.741,123.259L350.815,123.259L350.815,85.333C350.815,80.097 355.06,75.852 360.296,75.852L379.259,75.852C384.495,75.852 388.74,80.097 388.74,85.333L388.74,123.259L388.741,123.259Z" style="fill:rgb(149,156,179);fill-rule:nonzero;"/>
                </g>
                <g transform="matrix(0.265625,0,0,0.265625,38.5004,44.6218)">
                    <circle cx="369.778" cy="42.667" r="14.222" style="fill:rgb(91,93,110);"/>
                </g>
                <g transform="matrix(0.265625,0,0,0.265625,38.5004,44.6218)">
                    <rect x="132.741" y="47.407" width="18.963" height="37.926" style="fill:rgb(228,234,246);"/>
                </g>
                <g transform="matrix(0.265625,0,0,0.265625,38.5004,44.6218)">
                    <path d="M161.185,123.259L123.259,123.259L123.259,85.333C123.259,80.097 127.504,75.852 132.74,75.852L151.703,75.852C156.939,75.852 161.184,80.097 161.184,85.333L161.184,123.259L161.185,123.259Z" style="fill:rgb(149,156,179);fill-rule:nonzero;"/>
                </g>
                <g transform="matrix(0.265625,0,0,0.265625,38.5004,44.6218)">
                    <circle cx="142.222" cy="42.667" r="14.222" style="fill:rgb(91,93,110);"/>
                </g>
                <g transform="matrix(0.265625,0,0,0.265625,38.5004,44.6218)">
                    <rect x="189.63" y="47.407" width="18.963" height="37.926" style="fill:rgb(228,234,246);"/>
                </g>
                <g transform="matrix(0.265625,0,0,0.265625,38.5004,44.6218)">
                    <path d="M218.074,123.259L180.148,123.259L180.148,85.333C180.148,80.097 184.393,75.852 189.629,75.852L208.592,75.852C213.828,75.852 218.073,80.097 218.073,85.333L218.073,123.259L218.074,123.259Z" style="fill:rgb(149,156,179);fill-rule:nonzero;"/>
                </g>
                <g transform="matrix(0.265625,0,0,0.265625,38.5004,44.6218)">
                    <circle cx="199.111" cy="42.667" r="14.222" style="fill:rgb(91,93,110);"/>
                </g>
                <g transform="matrix(0.265625,0,0,0.265625,38.5004,44.6218)">
                    <rect x="246.519" y="426.667" width="18.963" height="37.926" style="fill:rgb(228,234,246);"/>
                </g>
                <g transform="matrix(0.265625,0,0,0.265625,38.5004,44.6218)">
                    <path d="M237.037,388.741L274.963,388.741L274.963,426.667C274.963,431.903 270.718,436.149 265.482,436.149L246.519,436.149C241.283,436.149 237.038,431.904 237.038,426.667L237.038,388.741L237.037,388.741Z" style="fill:rgb(149,156,179);fill-rule:nonzero;"/>
                </g>
                <g transform="matrix(0.265625,0,0,0.265625,38.5004,44.6218)">
                    <circle cx="256" cy="469.333" r="14.222" style="fill:rgb(91,93,110);"/>
                </g>
                <g transform="matrix(0.265625,0,0,0.265625,38.5004,44.6218)">
                    <rect x="189.63" y="426.667" width="18.963" height="37.926" style="fill:rgb(228,234,246);"/>
                </g>
                <g transform="matrix(0.265625,0,0,0.265625,38.5004,44.6218)">
                    <path d="M180.148,388.741L218.074,388.741L218.074,426.667C218.074,431.903 213.829,436.149 208.593,436.149L189.63,436.149C184.394,436.149 180.149,431.904 180.149,426.667L180.149,388.741L180.148,388.741Z" style="fill:rgb(149,156,179);fill-rule:nonzero;"/>
                </g>
                <g transform="matrix(0.265625,0,0,0.265625,38.5004,44.6218)">
                    <circle cx="199.111" cy="469.333" r="14.222" style="fill:rgb(91,93,110);"/>
                </g>
                <g transform="matrix(0.265625,0,0,0.265625,38.5004,44.6218)">
                    <rect x="132.741" y="426.667" width="18.963" height="37.926" style="fill:rgb(228,234,246);"/>
                </g>
                <g transform="matrix(0.265625,0,0,0.265625,38.5004,44.6218)">
                    <path d="M123.259,388.741L161.185,388.741L161.185,426.667C161.185,431.903 156.94,436.149 151.704,436.149L132.741,436.149C127.505,436.149 123.26,431.904 123.26,426.667L123.26,388.741L123.259,388.741Z" style="fill:rgb(149,156,179);fill-rule:nonzero;"/>
                </g>
                <g transform="matrix(0.265625,0,0,0.265625,38.5004,44.6218)">
                    <circle cx="142.222" cy="469.333" r="14.222" style="fill:rgb(91,93,110);"/>
                </g>
                <g transform="matrix(0.265625,0,0,0.265625,38.5004,44.6218)">
                    <rect x="360.296" y="426.667" width="18.963" height="37.926" style="fill:rgb(228,234,246);"/>
                </g>
                <g transform="matrix(0.265625,0,0,0.265625,38.5004,44.6218)">
                    <path d="M350.815,388.741L388.741,388.741L388.741,426.667C388.741,431.903 384.496,436.149 379.26,436.149L360.297,436.149C355.061,436.149 350.816,431.904 350.816,426.667L350.816,388.741L350.815,388.741Z" style="fill:rgb(149,156,179);fill-rule:nonzero;"/>
                </g>
                <g transform="matrix(0.265625,0,0,0.265625,38.5004,44.6218)">
                    <circle cx="369.778" cy="469.333" r="14.222" style="fill:rgb(91,93,110);"/>
                </g>
                <g transform="matrix(0.265625,0,0,0.265625,38.5004,44.6218)">
                    <rect x="303.407" y="426.667" width="18.963" height="37.926" style="fill:rgb(228,234,246);"/>
                </g>
                <g transform="matrix(0.265625,0,0,0.265625,38.5004,44.6218)">
                    <path d="M293.926,388.741L331.852,388.741L331.852,426.667C331.852,431.903 327.607,436.149 322.37,436.149L303.407,436.149C298.171,436.149 293.926,431.904 293.926,426.667L293.926,388.741Z" style="fill:rgb(149,156,179);fill-rule:nonzero;"/>
                </g>
                <g transform="matrix(0.265625,0,0,0.265625,38.5004,44.6218)">
                    <circle cx="312.889" cy="469.333" r="14.222" style="fill:rgb(91,93,110);"/>
                </g>
                <g transform="matrix(0.265625,0,0,0.265625,38.5004,44.6218)">
                    <rect x="47.407" y="246.519" width="37.926" height="18.963" style="fill:rgb(228,234,246);"/>
                </g>
                <g transform="matrix(0.265625,0,0,0.265625,38.5004,44.6218)">
                    <path d="M123.259,237.037L123.259,274.963L85.333,274.963C80.097,274.963 75.852,270.718 75.852,265.482L75.852,246.519C75.852,241.283 80.097,237.038 85.333,237.038L123.259,237.038L123.259,237.037Z" style="fill:rgb(149,156,179);fill-rule:nonzero;"/>
                </g>
                <g transform="matrix(0.265625,0,0,0.265625,38.5004,44.6218)">
                    <circle cx="42.667" cy="256" r="14.222" style="fill:rgb(91,93,110);"/>
                </g>
                <g transform="matrix(0.265625,0,0,0.265625,38.5004,44.6218)">
                    <rect x="47.407" y="189.63" width="37.926" height="18.963" style="fill:rgb(228,234,246);"/>
                </g>
                <g transform="matrix(0.265625,0,0,0.265625,38.5004,44.6218)">
                    <path d="M123.259,180.148L123.259,218.074L85.333,218.074C80.097,218.074 75.852,213.829 75.852,208.593L75.852,189.63C75.852,184.394 80.097,180.149 85.333,180.149L123.259,180.149L123.259,180.148Z" style="fill:rgb(149,156,179);fill-rule:nonzero;"/>
                </g>
                <g transform="matrix(0.265625,0,0,0.265625,38.5004,44.6218)">
                    <circle cx="42.667" cy="199.111" r="14.222" style="fill:rgb(91,93,110);"/>
                </g>
                <g transform="matrix(0.265625,0,0,0.265625,38.5004,44.6218)">
                    <rect x="47.407" y="132.741" width="37.926" height="18.963" style="fill:rgb(228,234,246);"/>
                </g>
                <g transform="matrix(0.265625,0,0,0.265625,38.5004,44.6218)">
                    <path d="M123.259,123.259L123.259,161.185L85.333,161.185C80.097,161.185 75.852,156.94 75.852,151.704L75.852,132.741C75.852,127.505 80.097,123.26 85.333,123.26L123.259,123.26L123.259,123.259Z" style="fill:rgb(149,156,179);fill-rule:nonzero;"/>
                </g>
                <g transform="matrix(0.265625,0,0,0.265625,38.5004,44.6218)">
                    <circle cx="42.667" cy="142.222" r="14.222" style="fill:rgb(91,93,110);"/>
                </g>
                <g transform="matrix(0.265625,0,0,0.265625,38.5004,44.6218)">
                    <rect x="47.407" y="360.296" width="37.926" height="18.963" style="fill:rgb(228,234,246);"/>
                </g>
                <g transform="matrix(0.265625,0,0,0.265625,38.5004,44.6218)">
                    <path d="M123.259,350.815L123.259,388.741L85.333,388.741C80.097,388.741 75.852,384.496 75.852,379.26L75.852,360.297C75.852,355.061 80.097,350.816 85.333,350.816L123.259,350.816L123.259,350.815Z" style="fill:rgb(149,156,179);fill-rule:nonzero;"/>
                </g>
                <g transform="matrix(0.265625,0,0,0.265625,38.5004,44.6218)">
                    <circle cx="42.667" cy="369.778" r="14.222" style="fill:rgb(91,93,110);"/>
                </g>
                <g transform="matrix(0.265625,0,0,0.265625,38.5004,44.6218)">
                    <rect x="47.407" y="303.407" width="37.926" height="18.963" style="fill:rgb(228,234,246);"/>
                </g>
                <g transform="matrix(0.265625,0,0,0.265625,38.5004,44.6218)">
                    <path d="M123.259,293.926L123.259,331.852L85.333,331.852C80.097,331.852 75.852,327.607 75.852,322.37L75.852,303.407C75.852,298.171 80.097,293.926 85.333,293.926L123.259,293.926Z" style="fill:rgb(149,156,179);fill-rule:nonzero;"/>
                </g>
                <g transform="matrix(0.265625,0,0,0.265625,38.5004,44.6218)">
                    <circle cx="42.667" cy="312.889" r="14.222" style="fill:rgb(91,93,110);"/>
                </g>
                <g transform="matrix(0.265625,0,0,0.265625,38.5004,44.6218)">
                    <rect x="426.667" y="246.519" width="37.926" height="18.963" style="fill:rgb(228,234,246);"/>
                </g>
                <g transform="matrix(0.265625,0,0,0.265625,38.5004,44.6218)">
                    <path d="M388.741,274.963L388.741,237.037L426.667,237.037C431.903,237.037 436.149,241.282 436.149,246.518L436.149,265.481C436.149,270.717 431.904,274.962 426.667,274.962L388.741,274.962L388.741,274.963Z" style="fill:rgb(149,156,179);fill-rule:nonzero;"/>
                </g>
                <g transform="matrix(0.265625,0,0,0.265625,38.5004,44.6218)">
                    <circle cx="469.333" cy="256" r="14.222" style="fill:rgb(91,93,110);"/>
                </g>
                <g transform="matrix(0.265625,0,0,0.265625,38.5004,44.6218)">
                    <rect x="426.667" y="303.407" width="37.926" height="18.963" style="fill:rgb(228,234,246);"/>
                </g>
                <g transform="matrix(0.265625,0,0,0.265625,38.5004,44.6218)">
                    <path d="M388.741,331.852L388.741,293.926L426.667,293.926C431.903,293.926 436.149,298.171 436.149,303.407L436.149,322.37C436.149,327.606 431.904,331.852 426.667,331.852L388.741,331.852Z" style="fill:rgb(149,156,179);fill-rule:nonzero;"/>
                </g>
                <g transform="matrix(0.265625,0,0,0.265625,38.5004,44.6218)">
                    <circle cx="469.333" cy="312.889" r="14.222" style="fill:rgb(91,93,110);"/>
                </g>
                <g transform="matrix(0.265625,0,0,0.265625,38.5004,44.6218)">
                    <rect x="426.667" y="360.296" width="37.926" height="18.963" style="fill:rgb(228,234,246);"/>
                </g>
                <g transform="matrix(0.265625,0,0,0.265625,38.5004,44.6218)">
                    <path d="M388.741,388.741L388.741,350.815L426.667,350.815C431.903,350.815 436.149,355.06 436.149,360.296L436.149,379.259C436.149,384.495 431.904,388.74 426.667,388.74L388.741,388.74L388.741,388.741Z" style="fill:rgb(149,156,179);fill-rule:nonzero;"/>
                </g>
                <g transform="matrix(0.265625,0,0,0.265625,38.5004,44.6218)">
                    <circle cx="469.333" cy="369.778" r="14.222" style="fill:rgb(91,93,110);"/>
                </g>
                <g transform="matrix(0.265625,0,0,0.265625,38.5004,44.6218)">
                    <rect x="426.667" y="132.741" width="37.926" height="18.963" style="fill:rgb(228,234,246);"/>
                </g>
                <g transform="matrix(0.265625,0,0,0.265625,38.5004,44.6218)">
                    <path d="M388.741,161.185L388.741,123.259L426.667,123.259C431.903,123.259 436.149,127.504 436.149,132.74L436.149,151.703C436.149,156.939 431.904,161.184 426.667,161.184L388.741,161.184L388.741,161.185Z" style="fill:rgb(149,156,179);fill-rule:nonzero;"/>
                </g>
                <g transform="matrix(0.265625,0,0,0.265625,38.5004,44.6218)">
                    <circle cx="469.333" cy="142.222" r="14.222" style="fill:rgb(91,93,110);"/>
                </g>
                <g transform="matrix(0.265625,0,0,0.265625,38.5004,44.6218)">
                    <rect x="426.667" y="189.63" width="37.926" height="18.963" style="fill:rgb(228,234,246);"/>
                </g>
                <g transform="matrix(0.265625,0,0,0.265625,38.5004,44.6218)">
                    <path d="M388.741,218.074L388.741,180.148L426.667,180.148C431.903,180.148 436.149,184.393 436.149,189.629L436.149,208.592C436.149,213.828 431.904,218.073 426.667,218.073L388.741,218.073L388.741,218.074Z" style="fill:rgb(149,156,179);fill-rule:nonzero;"/>
                </g>
                <g transform="matrix(0.265625,0,0,0.265625,38.5004,44.6218)">
                    <circle cx="469.333" cy="199.111" r="14.222" style="fill:rgb(91,93,110);"/>
                </g>
                <g transform="matrix(0.265625,0,0,0.265625,38.5004,44.6218)">
                    <path d="M388.741,407.704L123.259,407.704C112.786,407.704 104.296,399.215 104.296,388.741L104.296,123.259C104.296,112.786 112.785,104.296 123.259,104.296L388.741,104.296C399.214,104.296 407.704,112.785 407.704,123.259L407.704,388.741C407.704,399.214 399.214,407.704 388.741,407.704Z" style="fill:rgb(91,93,110);fill-rule:nonzero;"/>
                </g>
                <g transform="matrix(0.265625,0,0,0.265625,38.5004,44.6218)">
                    <circle cx="137.481" cy="137.481" r="14.222" style="fill:rgb(70,70,85);"/>
                </g>
                <g transform="matrix(0.265625,0,0,0.265625,38.5004,44.6218)">
                    <circle cx="71.111" cy="42.667" r="14.222" style="fill:rgb(110,200,100);"/>
                </g>
                <g transform="matrix(0.265625,0,0,0.265625,38.5004,44.6218)">
                    <circle cx="440.889" cy="42.667" r="14.222" style="fill:rgb(110,200,100);"/>
                </g>
                <g transform="matrix(0.265625,0,0,0.265625,38.5004,44.6218)">
                    <circle cx="71.111" cy="469.333" r="14.222" style="fill:rgb(110,200,100);"/>
                </g>
                <g transform="matrix(0.265625,0,0,0.265625,38.5004,44.6218)">
                    <circle cx="440.889" cy="469.333" r="14.222" style="fill:rgb(110,200,100);"/>
                </g>
                <g transform="matrix(0.265625,0,0,0.265625,38.5004,44.6218)">
                    <path d="M350.815,232.296C350.815,213.23 337.023,197.049 318.054,191.597C318.539,189.412 318.815,187.174 318.815,184.889C318.815,166.592 302.602,151.704 282.667,151.704C272.119,151.704 262.614,155.875 256,162.511C249.387,155.874 239.881,151.704 229.333,151.704C209.398,151.704 193.185,166.593 193.185,184.889C193.185,187.173 193.461,189.412 193.946,191.597C174.977,197.049 161.185,213.23 161.185,232.296C161.185,242.893 165.62,253.013 173.268,260.74C165.62,268.467 161.185,278.588 161.185,289.184C161.185,303.758 169.432,317.268 182.633,325.049C184.143,344.714 202.115,360.295 224,360.295C236.866,360.295 248.385,354.91 256,346.476C263.615,354.911 275.134,360.295 288,360.295C310.756,360.295 329.287,343.45 329.473,322.681C342.759,313.818 350.815,299.629 350.815,284.443C350.815,274.553 347.461,265.256 341.636,257.552C347.592,250.292 350.815,241.553 350.815,232.296ZM224,341.333C211.583,341.333 201.481,332.828 201.481,322.37C201.481,314.494 207.388,307.351 216.175,304.592C221.166,303.023 223.944,297.699 222.378,292.703C220.814,287.712 215.498,284.921 210.489,286.5C200.2,289.731 192.002,296.434 187.204,304.878C182.763,300.595 180.147,295.018 180.147,289.185C180.147,281.027 185.128,273.528 193.471,269.125C196.582,267.486 198.527,264.255 198.527,260.741C198.527,257.227 196.582,253.996 193.471,252.357C185.128,247.954 180.147,240.454 180.147,232.297C180.147,219.288 192.523,208.696 207.786,208.598C207.954,208.602 208.121,208.605 208.29,208.6C212.5,208.636 216.54,209.449 220.296,211.033C225.111,213.075 230.685,210.81 232.721,205.982C234.749,201.154 232.49,195.593 227.665,193.561C223.078,191.628 218.25,190.404 213.264,189.899C212.618,188.495 212.148,186.821 212.148,184.889C212.148,177.047 219.861,170.667 229.333,170.667C238.805,170.667 246.518,177.047 246.518,184.889L246.518,243.137C240.027,239.284 232.297,237.037 223.999,237.037C218.758,237.037 214.518,241.282 214.518,246.518C214.518,251.754 218.759,256 224,256C236.417,256 246.519,264.505 246.519,274.963L246.519,322.37C246.519,332.828 236.417,341.333 224,341.333ZM323.705,303.054C322.241,300.793 320.523,298.656 318.547,296.69C314.834,293.001 308.834,293.028 305.139,296.731C301.445,300.449 301.463,306.453 305.176,310.143C308.62,313.565 310.519,317.907 310.519,322.371C310.519,332.829 300.418,341.334 288,341.334C275.583,341.334 265.481,332.829 265.481,322.371L265.481,312.89C265.481,305.014 271.388,297.871 280.175,295.112C285.166,293.543 287.944,288.219 286.378,283.223C284.814,278.232 279.498,275.445 274.489,277.02C271.266,278.032 268.254,279.39 265.479,281.029L265.479,184.889C265.479,177.047 273.192,170.667 282.664,170.667C292.136,170.667 299.849,177.047 299.849,184.889C299.849,188.545 298.183,191.301 296.771,192.98C296.15,193.711 295.634,194.535 295.256,195.431C293.677,199.156 294.615,203.627 297.867,206.37C299.692,207.914 301.933,208.636 304.15,208.596C319.441,208.666 331.85,219.271 331.85,232.296C331.85,236.803 330.308,241.135 327.464,244.885C322.674,242.005 317.297,239.811 311.481,238.477C306.417,237.333 301.296,240.495 300.12,245.598C298.944,250.7 302.138,255.788 307.241,256.959C321.731,260.287 331.851,271.588 331.851,284.445C331.852,291.328 328.863,297.935 323.705,303.054Z" style="fill:rgb(149,156,179);fill-rule:nonzero;"/>
                </g>
            </g>
        </g>
    </g>
</svg>
