<?xml version="1.0" encoding="UTF-8" standalone="no"?>
<!DOCTYPE svg PUBLIC "-//W3C//DTD SVG 1.1//EN" "http://www.w3.org/Graphics/SVG/1.1/DTD/svg11.dtd">
<svg width="100%" height="100%" viewBox="0 0 185 185" version="1.1" xmlns="http://www.w3.org/2000/svg" xmlns:xlink="http://www.w3.org/1999/xlink" xml:space="preserve" xmlns:serif="http://www.serif.com/" style="fill-rule:evenodd;clip-rule:evenodd;stroke-linejoin:round;stroke-miterlimit:1.41421;">
    <g transform="matrix(1,0,0,1,-707.918,-222.9)">
        <g transform="matrix(0.359766,0,0,0.359766,707.9,222.9)">
            <path d="M435.024,443.177C432.95,443.177 430.878,442.386 429.295,440.805L355.978,367.487C352.815,364.322 352.815,359.194 355.978,356.031C359.144,352.867 364.272,352.87 367.434,356.031L440.751,429.349C443.914,432.514 443.914,437.642 440.751,440.806C439.17,442.386 437.097,443.177 435.024,443.177Z" style="fill:rgb(54,85,88);fill-rule:nonzero;"/>
            <path d="M375.159,64.376C333.646,22.863 278.451,0 219.742,0C161.033,0 105.838,22.863 64.324,64.376C-21.373,150.074 -21.373,289.514 64.324,375.212C105.838,416.724 161.032,439.587 219.742,439.587C278.452,439.587 333.646,416.724 375.16,375.212C416.674,333.697 439.536,278.503 439.536,219.793C439.536,161.083 416.673,105.89 375.159,64.376Z" style="fill:rgb(74,207,217);fill-rule:nonzero;"/>
            <path d="M509.576,461.512L448.479,400.415C445.314,397.253 440.186,397.253 437.022,400.415L400.363,437.074C397.199,440.239 397.199,445.367 400.363,448.53L461.46,509.627C463.042,511.208 465.116,511.999 467.189,511.999C469.262,511.999 471.335,511.208 472.918,509.627L509.577,472.968C512.738,469.805 512.738,464.676 509.576,461.512Z" style="fill:rgb(155,170,171);fill-rule:nonzero;"/>
            <path d="M418.175,419.26L400.361,437.074C397.198,440.239 397.198,445.367 400.361,448.53L461.458,509.627C463.04,511.208 465.114,511.999 467.187,511.999C469.26,511.999 471.333,511.208 472.916,509.627L490.73,491.813L418.175,419.26Z" style="fill:rgb(104,127,130);fill-rule:nonzero;"/>
            <path d="M63.814,64.899C-21.366,150.639 -21.2,289.687 64.324,375.212C105.838,416.724 161.032,439.587 219.742,439.587C278.207,439.587 333.183,416.908 374.637,375.721L63.814,64.899Z" style="fill:rgb(2,149,170);fill-rule:nonzero;"/>
            <path d="M331.217,108.319C269.75,46.853 169.736,46.853 108.268,108.319C78.492,138.094 62.093,177.684 62.093,219.794C62.093,261.904 78.492,301.494 108.267,331.269C139,362.002 179.371,377.37 219.741,377.37C260.112,377.37 300.482,362.003 331.216,331.269C392.683,269.801 392.683,169.787 331.217,108.319Z" style="fill:rgb(230,234,234);fill-rule:nonzero;"/>
            <path d="M107.757,108.842C78.308,138.558 62.093,177.929 62.093,219.794C62.093,261.904 78.492,301.494 108.267,331.269C139,362.002 179.371,377.37 219.741,377.37C259.885,377.37 300.024,362.169 330.693,331.779L107.757,108.842Z" style="fill:rgb(205,212,213);fill-rule:nonzero;"/>
            <path d="M399.033,227.894C394.558,227.894 390.933,224.268 390.933,219.793C390.933,196.858 386.516,174.65 377.803,153.79C376.079,149.662 378.028,144.917 382.156,143.192C386.287,141.467 391.029,143.417 392.753,147.545C402.295,170.394 407.134,194.702 407.134,219.793C407.133,224.269 403.508,227.894 399.033,227.894Z" style="fill:white;fill-rule:nonzero;"/>
            <path d="M366.072,124.211C363.539,124.211 361.046,123.027 359.465,120.808C353.909,113.003 347.627,105.58 340.791,98.744C308.458,66.41 265.468,48.603 219.741,48.603C215.267,48.603 211.64,44.977 211.64,40.502C211.64,36.027 215.267,32.401 219.741,32.401C269.796,32.401 316.853,51.893 352.248,87.286C359.719,94.758 366.588,102.875 372.665,111.41C375.258,115.055 374.407,120.113 370.763,122.708C369.339,123.723 367.697,124.211 366.072,124.211Z" style="fill:white;fill-rule:nonzero;"/>
            <path d="M158.225,155.53L119.343,155.53C114.869,155.53 111.242,159.156 111.242,163.631L111.242,271.638C111.242,276.113 114.869,279.739 119.343,279.739L158.225,279.739C162.699,279.739 166.326,276.113 166.326,271.638L166.326,163.63C166.326,159.156 162.699,155.53 158.225,155.53Z" style="fill:rgb(155,170,171);fill-rule:nonzero;"/>
            <path d="M235.99,168.491L197.108,168.491C192.634,168.491 189.007,172.117 189.007,176.592L189.007,271.638C189.007,276.113 192.634,279.739 197.108,279.739L235.99,279.739C240.464,279.739 244.091,276.113 244.091,271.638L244.091,176.592C244.091,172.116 240.464,168.491 235.99,168.491Z" style="fill:rgb(240,53,61);fill-rule:nonzero;"/>
            <path d="M313.755,129.608L274.873,129.608C270.398,129.608 266.772,133.234 266.772,137.709L266.772,271.637C266.772,276.112 270.398,279.738 274.873,279.738L313.755,279.738C318.23,279.738 321.855,276.112 321.855,271.637L321.855,137.709C321.856,133.234 318.23,129.608 313.755,129.608Z" style="fill:rgb(255,140,41);fill-rule:nonzero;"/>
            <path d="M331.036,279.738L102.062,279.738C97.588,279.738 93.961,276.112 93.961,271.637C93.961,267.162 97.588,263.537 102.062,263.537L331.037,263.537C335.512,263.537 339.137,267.163 339.137,271.637C339.137,276.111 335.511,279.738 331.036,279.738Z" style="fill:rgb(54,85,88);fill-rule:nonzero;"/>
        </g>
    </g>
</svg>
