<?xml version="1.0" encoding="UTF-8" standalone="no"?>
<!DOCTYPE svg PUBLIC "-//W3C//DTD SVG 1.1//EN" "http://www.w3.org/Graphics/SVG/1.1/DTD/svg11.dtd">
<svg width="100%" height="100%" viewBox="0 0 123 109" version="1.1" xmlns="http://www.w3.org/2000/svg" xmlns:xlink="http://www.w3.org/1999/xlink" xml:space="preserve" xmlns:serif="http://www.serif.com/" style="fill-rule:evenodd;clip-rule:evenodd;stroke-linejoin:round;stroke-miterlimit:1.41421;">
    <g transform="matrix(1,0,0,1,-646.595,-369.319)">
        <g transform="matrix(0.836414,0,0,0.836414,139.048,58.151)">
            <g transform="matrix(0.77597,0,0,0.776438,-53.4599,53.2001)">
                <g transform="matrix(0.833845,0,0,0.833845,838.19,398.524)">
                    <path d="M201.025,79.674C198.62,78.849 196.195,78.085 193.751,77.382C194.156,75.735 194.531,74.081 194.875,72.421C200.381,45.693 196.781,24.161 184.487,17.073C172.7,10.275 153.422,17.363 133.952,34.306C132.033,35.979 130.158,37.701 128.326,39.469C127.099,38.293 125.851,37.14 124.582,36.011C104.177,17.893 83.724,10.259 71.443,17.368C59.667,24.185 56.179,44.428 61.136,69.758C61.629,72.266 62.186,74.762 62.806,77.242C59.912,78.064 57.117,78.94 54.443,79.872C30.521,88.212 15.243,101.284 15.243,114.842C15.243,128.846 31.643,142.892 56.561,151.408C58.581,152.095 60.619,152.732 62.671,153.318C62.004,155.99 61.412,158.68 60.896,161.385C56.17,186.275 59.861,206.038 71.606,212.813C83.737,219.808 104.097,212.618 123.923,195.288C125.49,193.918 127.063,192.465 128.638,190.942C130.622,192.856 132.659,194.714 134.746,196.515C153.95,213.04 172.916,219.713 184.651,212.92C196.771,205.904 200.709,184.673 195.595,158.842C195.205,156.869 194.75,154.854 194.24,152.802C195.67,152.38 197.073,151.944 198.442,151.49C224.346,142.908 241.199,129.033 241.199,114.842C241.199,101.235 225.429,88.075 201.025,79.674L201.025,79.674Z" style="fill:rgb(83,193,222);fill-rule:nonzero;"/>
                </g>
                <g transform="matrix(0.833845,0,0,0.833845,838.19,398.524)">
                    <path d="M195.406,142.328C194.171,142.737 192.903,143.132 191.611,143.515C188.751,134.462 184.891,124.835 180.169,114.89C184.676,105.18 188.386,95.677 191.166,86.682C193.477,87.352 195.721,88.057 197.883,88.802C218.793,95.999 231.547,106.642 231.547,114.842C231.547,123.577 217.772,134.917 195.407,142.328L195.406,142.328ZM186.126,160.717C188.387,172.139 188.71,182.466 187.212,190.539C185.866,197.793 183.16,202.629 179.814,204.566C172.693,208.688 157.464,203.33 141.042,189.198C139.159,187.578 137.262,185.848 135.36,184.018C141.727,177.054 148.09,168.958 154.3,159.968C165.224,158.999 175.544,157.414 184.903,155.251C185.363,157.111 185.773,158.934 186.126,160.717L186.126,160.717ZM92.276,203.854C85.319,206.311 79.778,206.381 76.429,204.45C69.301,200.34 66.339,184.47 70.38,163.185C70.861,160.67 71.411,158.168 72.03,155.683C81.285,157.73 91.53,159.203 102.48,160.091C108.731,168.888 115.278,176.974 121.876,184.055C120.474,185.411 119.038,186.733 117.571,188.019C108.804,195.683 100.019,201.119 92.277,203.854L92.276,203.854ZM59.683,142.274C48.665,138.508 39.566,133.614 33.329,128.274C27.725,123.474 24.895,118.709 24.895,114.842C24.895,106.615 37.162,96.12 57.621,88.987C60.189,88.096 62.782,87.28 65.398,86.54C68.226,95.737 71.935,105.353 76.411,115.077C71.877,124.946 68.115,134.715 65.261,144.02C63.388,143.484 61.528,142.902 59.683,142.274L59.683,142.274ZM70.609,67.904C66.362,46.201 69.182,29.83 76.279,25.722C83.839,21.346 100.554,27.586 118.172,43.229C119.298,44.229 120.429,45.276 121.562,46.359C114.998,53.408 108.511,61.433 102.314,70.179C91.687,71.164 81.514,72.746 72.162,74.865C71.586,72.558 71.068,70.236 70.609,67.903L70.609,67.904ZM168.076,91.971C165.867,88.155 163.576,84.388 161.205,80.671C168.415,81.581 175.322,82.791 181.808,84.272C179.861,90.513 177.434,97.039 174.576,103.729C172.488,99.767 170.321,95.847 168.076,91.971L168.076,91.971ZM128.329,53.257C132.781,58.08 137.24,63.466 141.626,69.309C132.729,68.889 123.817,68.887 114.92,69.303C119.31,63.514 123.807,58.136 128.329,53.257L128.329,53.257ZM88.327,92.037C86.11,95.882 83.984,99.778 81.949,103.722C79.138,97.055 76.733,90.5 74.769,84.17C81.216,82.727 88.091,81.548 95.254,80.653C92.856,84.393 90.547,88.189 88.327,92.037L88.327,92.037ZM95.46,149.72C88.06,148.894 81.081,147.775 74.636,146.372C76.631,139.93 79.089,133.234 81.96,126.424C84.003,130.371 86.139,134.269 88.366,138.116C90.638,142.04 93.003,145.909 95.46,149.72L95.46,149.72ZM128.596,177.109C124.021,172.172 119.458,166.712 115.001,160.839C119.327,161.009 123.738,161.095 128.221,161.095C132.827,161.095 137.38,160.992 141.861,160.792C137.461,166.772 133.018,172.24 128.596,177.109ZM174.668,126.077C177.688,132.961 180.234,139.621 182.256,145.954C175.704,147.449 168.631,148.653 161.178,149.547C163.566,145.761 165.879,141.927 168.115,138.049C170.388,134.107 172.573,130.116 174.668,126.077L174.668,126.077ZM159.753,133.227C156.33,139.173 152.715,145.006 148.913,150.717C142.209,151.196 135.281,151.443 128.221,151.443C121.19,151.443 114.35,151.224 107.763,150.797C103.862,145.099 100.179,139.256 96.72,133.28C93.277,127.336 90.062,121.263 87.08,115.074C90.054,108.884 93.26,102.807 96.691,96.858L96.691,96.86C100.121,90.909 103.775,85.091 107.647,79.418C114.367,78.91 121.257,78.644 128.222,78.644C135.218,78.644 142.117,78.912 148.835,79.424C152.667,85.088 156.299,90.886 159.722,96.807C163.165,102.743 166.413,108.79 169.463,114.937C166.445,121.147 163.206,127.248 159.754,133.227L159.753,133.227ZM179.666,25.435C187.232,29.799 190.175,47.396 185.421,70.473C185.109,71.976 184.771,73.474 184.405,74.965C175.031,72.802 164.851,71.192 154.193,70.192C147.984,61.351 141.551,53.312 135.093,46.354C136.785,44.723 138.518,43.133 140.289,41.588C156.971,27.07 172.562,21.338 179.666,25.435L179.666,25.435Z" style="fill:white;fill-rule:nonzero;"/>
                </g>
                <g transform="matrix(0.833845,0,0,0.833845,838.19,398.524)">
                    <path d="M128.221,94.665C139.365,94.665 148.398,103.699 148.398,114.842C148.398,125.986 139.365,135.02 128.221,135.02C117.078,135.02 108.044,125.986 108.044,114.842C108.044,103.699 117.078,94.665 128.221,94.665" style="fill:rgb(83,193,222);fill-rule:nonzero;"/>
                </g>
            </g>
        </g>
    </g>
</svg>
